<svg width="120" height="60" viewBox="0 0 120 60" fill="none" xmlns="http://www.w3.org/2000/svg">
<g id="amazon_aws-ar21 1">
<path id="Vector" fill-rule="evenodd" clip-rule="evenodd" d="M15.8638 42.6159V33.7699L21.8998 35.8269V44.7829L15.8638 42.6159ZM29.0418 42.6159V33.7699L23.0058 35.8269V44.7829L29.0418 42.6159ZM22.5918 31.3879L28.2558 33.2139L22.5918 35.1369L16.4918 33.1069L22.5918 31.3879ZM8.67676 30.2579V21.3999L14.7128 23.4559V32.4119L8.67676 30.2579ZM21.8568 30.2569V21.3999L15.8208 23.4559V32.4119L21.8568 30.2569ZM15.4068 19.0269L21.0708 20.8539L15.4068 22.7769L9.30676 20.7469L15.4068 19.0269ZM22.7618 30.2569V21.3999L28.7978 23.4559V32.4119L22.7618 30.2569ZM35.9398 30.2569V21.3999L29.9038 23.4559V32.4119L35.9398 30.2569ZM29.4998 19.0269L35.1638 20.8539L29.4998 22.7769L23.3998 20.7469L29.4998 19.0269ZM29.9578 17.8969V9.04992L35.9938 11.1069V20.0619L29.9578 17.8969ZM43.1278 17.8959V9.04992L37.0918 11.1069V20.0619L43.1278 17.8959ZM36.6768 6.66992L42.3408 8.49592L36.6768 10.4189L30.5768 8.38892L36.6768 6.66992ZM44.0318 17.8969V9.04992L50.0678 11.1069V20.0619L44.0318 17.8969ZM57.1998 17.8969V9.04992L51.1638 11.1069V20.0619L57.1998 17.8969ZM50.7598 6.66992L56.4238 8.49592L50.7598 10.4189L44.6598 8.38892L50.7598 6.66992Z" fill="#FF9900"/>
<path id="Vector_2" d="M46.9981 39.0181L44.9701 46.062H44.0901L42.4901 40.8301L41.0421 46.062H40.1441L38.0371 39.0181H39.1371L40.6721 44.2681L42.1321 39.0181H42.9361L44.5241 44.284L46.1021 39.0181H46.9871H46.9981ZM52.6061 43.96L53.6261 44.16C53.4388 44.7645 53.057 45.2901 52.5401 45.655C52.0001 46.05 51.3681 46.2471 50.6401 46.2471C49.6801 46.2471 48.9021 45.909 48.3081 45.231C47.7141 44.553 47.4081 43.6661 47.4081 42.5681C47.4081 41.4461 47.7081 40.54 48.3341 39.848C48.621 39.5142 48.9783 39.2481 49.3803 39.0688C49.7823 38.8895 50.219 38.8015 50.6591 38.8111C51.5791 38.8111 52.3171 39.129 52.8771 39.766C53.4371 40.403 53.7231 41.3541 53.7371 42.6221H48.6241C48.6241 43.6871 48.8461 44.406 49.2921 44.778C49.7381 45.15 50.2081 45.336 50.7041 45.336C51.5991 45.336 52.2301 44.8741 52.5961 43.9491L52.6061 43.96ZM52.5461 41.8161C52.5361 41.4211 52.4721 41.0701 52.3511 40.7631C52.2301 40.4561 52.0261 40.195 51.7381 39.979C51.4501 39.763 51.1051 39.655 50.7011 39.655C50.4428 39.6509 50.1864 39.7009 49.9485 39.8018C49.7107 39.9027 49.4966 40.0524 49.3201 40.2411C48.9421 40.6411 48.7201 41.1561 48.6831 41.8161H52.5451H52.5461ZM55.7161 46.062H55.1891V36.562H56.2861V40.202C56.7861 39.289 57.4861 38.8321 58.3591 38.8321C59.1651 38.8321 59.8411 39.1521 60.3861 39.7891C60.9311 40.4261 61.2031 41.3531 61.2031 42.5671C61.2031 43.6141 60.9331 44.492 60.3991 45.202C59.8651 45.912 59.1651 46.267 58.3071 46.267C57.3511 46.267 56.6071 45.8131 56.1071 44.9071L55.7071 46.072L55.7161 46.062ZM56.2861 43.302C56.3361 44.025 56.5591 44.55 56.9511 44.876C57.3431 45.202 57.7581 45.376 58.1951 45.376C58.7521 45.376 59.2011 45.1341 59.5431 44.6501C59.8851 44.1661 60.0551 43.503 60.0551 42.662C60.0551 41.755 59.8901 41.042 59.5611 40.522C59.2321 40.002 58.7741 39.744 58.1891 39.744C57.7291 39.744 57.3151 39.929 56.9451 40.298C56.5751 40.667 56.3451 41.145 56.2871 41.73V43.3L56.2861 43.302ZM63.9991 44.236L65.0451 44.0201C65.2771 44.9051 66.0131 45.347 67.2491 45.347C67.7041 45.347 68.0911 45.2451 68.4071 45.041C68.5561 44.9527 68.6788 44.8261 68.7623 44.6743C68.8458 44.5226 68.8872 44.3512 68.8821 44.1781C68.8821 43.6281 68.4791 43.278 67.6741 43.128L66.1911 42.8461C65.6111 42.7341 65.1481 42.516 64.8041 42.19C64.4601 41.864 64.2891 41.435 64.2891 40.89C64.2891 40.29 64.5231 39.8061 64.9931 39.4081C65.4631 39.0101 66.0931 38.812 66.8881 38.812C68.4161 38.812 69.3581 39.409 69.7181 40.604L68.7141 40.82C68.4261 40.09 67.8341 39.723 66.9391 39.723C66.4931 39.723 66.1271 39.8231 65.8421 39.9971C65.7086 40.0746 65.5984 40.1866 65.5231 40.3214C65.4478 40.4561 65.4101 40.6087 65.4141 40.7631C65.4141 41.2811 65.7791 41.6061 66.5081 41.7411L67.8781 41.993C69.3141 42.253 70.0311 42.9501 70.0311 44.0811C70.0374 44.3883 69.9674 44.6924 69.8275 44.966C69.6875 45.2396 69.4819 45.4743 69.2291 45.649C68.6951 46.047 67.9841 46.2471 67.0951 46.2471C65.4251 46.2471 64.3951 45.5731 63.9991 44.2271V44.236ZM75.8651 43.96L76.8851 44.16C76.7001 44.762 76.3381 45.26 75.7991 45.655C75.2601 46.05 74.6271 46.2471 73.8991 46.2471C72.9391 46.2471 72.1611 45.909 71.5671 45.231C70.9731 44.553 70.6671 43.6661 70.6671 42.5681C70.6671 41.4461 70.9751 40.54 71.5931 39.848C71.88 39.5142 72.2373 39.2481 72.6393 39.0688C73.0413 38.8895 73.478 38.8015 73.9181 38.8111C74.8361 38.8111 75.5761 39.129 76.1351 39.766C76.6941 40.403 76.9811 41.3541 76.9951 42.6221H71.8831C71.8831 43.6871 72.1051 44.406 72.5501 44.778C72.9951 45.15 73.4661 45.336 73.9631 45.336C74.8581 45.336 75.4891 44.8741 75.8551 43.9491L75.8651 43.96ZM75.8051 41.8161C75.7951 41.4211 75.7301 41.0701 75.6101 40.7631C75.4901 40.4561 75.2861 40.195 74.9981 39.979C74.7101 39.763 74.3651 39.655 73.9611 39.655C73.7026 39.6507 73.446 39.7006 73.208 39.8016C72.97 39.9025 72.7557 40.0522 72.5791 40.2411C72.2011 40.6411 71.9791 41.1561 71.9431 41.8161H75.8051ZM79.2821 46.062H78.1851V39.0181H79.1451V40.66C79.4851 39.89 79.8251 39.3921 80.1651 39.1651C80.5051 38.9381 80.8651 38.8231 81.2131 38.8231C81.3574 38.8251 81.5016 38.8337 81.6451 38.849V39.8951H81.4231C80.8201 39.8951 80.3191 40.1191 79.9201 40.5671C79.5211 41.0151 79.3081 41.604 79.2801 42.333V46.063L79.2821 46.062ZM88.4621 39.0181L86.0301 46.062H84.8931L82.3801 39.0181H83.5941L85.5491 44.743L87.4891 39.0181H88.4621ZM90.5121 36.55V37.767H89.3401V36.55H90.5141H90.5121ZM90.4861 39.017V46.0611H89.4001V39.017H90.4971H90.4861ZM96.2201 43.5951L97.2071 43.7691C97.0671 44.5471 96.7591 45.156 96.2811 45.597C95.8031 46.038 95.2061 46.257 94.4811 46.257C93.5111 46.257 92.7811 45.897 92.2611 45.182C91.7411 44.467 91.4981 43.582 91.4981 42.557C91.4981 41.487 91.7661 40.5971 92.3031 39.8871C92.8401 39.1771 93.5701 38.822 94.5031 38.822C95.2691 38.822 95.8831 39.052 96.3461 39.522C96.8091 39.992 97.0961 40.572 97.2061 41.3L96.2191 41.488C96.0331 40.325 95.4721 39.744 94.5341 39.744C94.2542 39.7346 93.9769 39.8013 93.7318 39.9369C93.4867 40.0724 93.2829 40.2719 93.1421 40.514C92.8171 41.027 92.6541 41.692 92.6541 42.51C92.6541 43.41 92.8141 44.1101 93.1381 44.6101C93.2774 44.845 93.4771 45.0384 93.7165 45.1701C93.9558 45.3018 94.226 45.3671 94.4991 45.3591C95.4041 45.3591 95.9771 44.775 96.2191 43.606L96.2201 43.5951ZM103.396 43.96L104.416 44.16C104.229 44.7645 103.847 45.2901 103.33 45.655C102.79 46.05 102.158 46.2471 101.43 46.2471C100.47 46.2471 99.6901 45.909 99.0971 45.231C98.5041 44.553 98.1971 43.6661 98.1971 42.5681C98.1971 41.4461 98.4971 40.54 99.1231 39.848C99.41 39.5142 99.7673 39.2481 100.169 39.0688C100.571 38.8895 101.008 38.8015 101.448 38.8111C102.368 38.8111 103.108 39.129 103.666 39.766C104.224 40.403 104.512 41.3541 104.526 42.6221H99.4141C99.4141 43.6871 99.6361 44.406 100.082 44.778C100.528 45.15 100.998 45.336 101.494 45.336C102.389 45.336 103.02 44.8741 103.386 43.9491L103.396 43.96ZM103.336 41.8161C103.326 41.4211 103.262 41.0701 103.141 40.7631C103.015 40.4492 102.803 40.1773 102.529 39.979C102.241 39.763 101.896 39.655 101.492 39.655C101.234 39.6504 100.977 39.7002 100.74 39.8011C100.502 39.9021 100.288 40.052 100.112 40.2411C99.7361 40.6411 99.5121 41.1561 99.4751 41.8161H103.337H103.336ZM105.156 44.236L106.202 44.0201C106.434 44.9051 107.169 45.347 108.406 45.347C108.861 45.347 109.246 45.2451 109.564 45.041C109.713 44.9526 109.835 44.8259 109.919 44.6742C110.002 44.5224 110.043 44.3511 110.038 44.1781C110.038 43.6281 109.635 43.278 108.831 43.128L107.348 42.8461C106.768 42.7341 106.305 42.516 105.961 42.19C105.617 41.864 105.446 41.435 105.446 40.89C105.446 40.29 105.68 39.8061 106.15 39.4081C106.62 39.0101 107.25 38.812 108.045 38.812C109.573 38.812 110.515 39.409 110.875 40.604L109.871 40.82C109.583 40.09 108.991 39.723 108.096 39.723C107.65 39.723 107.296 39.8231 106.999 39.9971C106.866 40.0746 106.755 40.1866 106.68 40.3214C106.605 40.4561 106.567 40.6087 106.571 40.7631C106.571 41.2811 106.936 41.6061 107.665 41.7411L109.035 41.993C110.471 42.253 111.188 42.9501 111.188 44.0811C111.194 44.3883 111.124 44.6924 110.984 44.966C110.845 45.2396 110.639 45.4743 110.386 45.649C109.852 46.047 109.141 46.2471 108.252 46.2471C106.584 46.2471 105.552 45.5731 105.157 44.2271L105.156 44.236Z" fill="black" stroke="black" stroke-width="0.213"/>
<path id="Vector_3" fill-rule="evenodd" clip-rule="evenodd" d="M80.4199 23.964V22.272C80.4185 22.2152 80.4287 22.1586 80.4498 22.1058C80.4709 22.0531 80.5025 22.0051 80.5428 21.9649C80.583 21.9247 80.6309 21.8931 80.6837 21.872C80.7365 21.8508 80.793 21.8406 80.8499 21.842H88.4329C88.6749 21.842 88.8699 22.018 88.8709 22.269V23.719C88.8689 23.962 88.6639 24.279 88.3009 24.784L84.3739 30.392C85.8319 30.358 87.3739 30.576 88.6989 31.322C88.9989 31.49 89.0769 31.738 89.1009 31.982V33.787C89.1009 34.037 88.8289 34.324 88.5429 34.174C86.2089 32.951 83.1129 32.817 80.5309 34.188C80.2669 34.328 79.9909 34.045 79.9909 33.796V32.08C79.9909 31.805 79.9959 31.336 80.2729 30.917L84.8229 24.387H80.8599C80.8027 24.3896 80.7456 24.3805 80.6921 24.3602C80.6386 24.34 80.5898 24.309 80.5487 24.2692C80.5076 24.2294 80.475 24.1816 80.4531 24.1288C80.4311 24.076 80.4201 24.0192 80.4209 23.962L80.4199 23.964ZM53.2829 34.532H50.9759C50.7559 34.518 50.5809 34.352 50.5639 34.132L50.5649 22.292C50.5649 22.055 50.7649 21.866 51.0099 21.866L53.1579 21.865C53.3829 21.877 53.5629 22.047 53.5779 22.263V23.809H53.6209C54.1809 22.314 55.2359 21.616 56.6569 21.616C58.0999 21.616 59.0039 22.314 59.6509 23.809C60.2109 22.314 61.4809 21.616 62.8379 21.616C63.8079 21.616 64.8619 22.016 65.5079 22.912C66.2399 23.908 66.0899 25.354 66.0899 26.625L66.0879 34.097C66.0879 34.334 65.8879 34.523 65.6429 34.523H63.3399C63.1099 34.508 62.9259 34.325 62.9259 34.098V27.83C62.9259 27.33 62.9689 26.086 62.8609 25.612C62.6889 24.815 62.1609 24.59 61.5049 24.59C60.9449 24.59 60.3629 24.964 60.1249 25.562C59.8869 26.16 59.9099 27.157 59.9099 27.83V34.106C59.9099 34.343 59.7099 34.532 59.4649 34.532H57.1599C56.9279 34.517 56.7459 34.334 56.7459 34.107L56.7439 27.83C56.7439 26.51 56.9589 24.566 55.3239 24.566C53.6659 24.566 53.7299 26.459 53.7299 27.83V34.106C53.7299 34.343 53.5299 34.532 53.2849 34.532H53.2829ZM94.4429 21.625C97.8399 21.625 99.6769 24.565 99.6769 28.303C99.6769 31.916 97.6469 34.781 94.4429 34.781C91.1099 34.781 89.2929 31.841 89.2929 28.178C89.2929 24.491 91.1309 21.625 94.4429 21.625ZM94.4649 24.347C92.7769 24.347 92.6699 26.664 92.6699 28.109C92.6699 29.554 92.6499 32.339 94.4439 32.339C96.2179 32.339 96.3039 30.152 96.3039 28.632C96.3039 27.636 96.2619 26.439 95.9639 25.492C95.7069 24.67 95.1939 24.346 94.4679 24.346L94.4649 24.347ZM104.593 34.532H102.295C102.065 34.517 101.881 34.334 101.881 34.107L101.877 22.262C101.897 22.045 102.077 21.876 102.32 21.876L104.46 21.875C104.555 21.8786 104.646 21.9129 104.72 21.9727C104.794 22.0326 104.847 22.1148 104.87 22.207V24.007H104.914C105.56 22.387 106.464 21.615 108.058 21.615C109.091 21.615 110.104 21.989 110.75 23.01C111.353 23.957 111.353 25.55 111.353 26.698V34.148C111.327 34.348 111.139 34.521 110.911 34.521H108.598C108.385 34.507 108.213 34.351 108.198 34.148V27.718C108.198 26.423 108.348 24.518 106.755 24.518C106.195 24.518 105.678 24.892 105.42 25.465C105.097 26.188 105.053 26.91 105.053 27.708V34.084C105.049 34.321 104.85 34.51 104.603 34.51L104.593 34.532ZM74.6379 28.877C74.6379 29.777 74.6599 30.525 74.2059 31.324C73.8389 31.974 73.2559 32.374 72.6089 32.374C71.7239 32.374 71.2059 31.7 71.2059 30.701C71.2059 28.737 72.9689 28.379 74.6359 28.379V28.879L74.6379 28.877ZM76.9639 34.502C76.8109 34.639 76.5909 34.648 76.4189 34.556C75.6529 33.919 75.5159 33.626 75.0969 33.018C73.8309 34.318 72.9339 34.695 71.2939 34.695C69.3519 34.695 67.8409 33.495 67.8409 31.099C67.8409 29.226 68.8549 27.953 70.3009 27.329C71.5529 26.779 73.3009 26.679 74.6389 26.529V26.229C74.6389 25.679 74.6819 25.031 74.3589 24.556C74.0789 24.131 73.5389 23.956 73.0639 23.956C72.1839 23.956 71.4019 24.406 71.2089 25.342C71.1689 25.55 71.0169 25.755 70.8089 25.766L68.5729 25.524C68.3729 25.481 68.1729 25.33 68.2289 25.042C68.7429 22.329 71.1929 21.51 73.3889 21.51C74.5109 21.51 75.9889 21.81 76.8629 22.66C77.9859 23.71 77.8769 25.107 77.8769 26.63V30.224C77.8769 31.304 78.3269 31.779 78.7469 32.362C78.8939 32.562 78.9269 32.822 78.7389 32.975L76.9689 34.507L76.9629 34.501L76.9639 34.502ZM44.6569 28.877C44.6569 29.777 44.6789 30.525 44.2249 31.324C43.8579 31.974 43.2749 32.374 42.6279 32.374C41.7429 32.374 41.2249 31.7 41.2249 30.701C41.2249 28.737 42.9869 28.379 44.6549 28.379V28.879L44.6569 28.877ZM46.9829 34.502C46.8299 34.639 46.6099 34.648 46.4379 34.556C45.6719 33.919 45.5339 33.626 45.1159 33.018C43.8499 34.318 42.9529 34.695 41.3129 34.695C39.3709 34.695 37.8599 33.495 37.8599 31.099C37.8599 29.226 38.8739 27.953 40.3199 27.329C41.5719 26.779 43.3199 26.679 44.6579 26.529V26.229C44.6579 25.679 44.7009 25.031 44.3779 24.556C44.0979 24.131 43.5579 23.956 43.0829 23.956C42.2029 23.956 41.4209 24.406 41.2279 25.342C41.1879 25.55 41.0279 25.755 40.8279 25.766L38.5919 25.524C38.3919 25.481 38.1919 25.33 38.2479 25.042C38.7609 22.329 41.2109 21.51 43.4079 21.51C44.5299 21.51 46.0079 21.81 46.8829 22.66C48.0049 23.71 47.8969 25.107 47.8969 26.63V30.224C47.8969 31.304 48.3469 31.779 48.7669 32.362C48.9139 32.562 48.9469 32.822 48.7599 32.975L46.9999 34.507L46.9939 34.501L46.9829 34.502Z" fill="black"/>
</g>
</svg>
