<svg width="120" height="60" viewBox="0 0 120 60" fill="none" xmlns="http://www.w3.org/2000/svg">
<g id="digitalocean-ar21 1">
<g id="Group">
<path id="Vector" d="M25.004 47.7231V40.7431C32.394 40.7431 38.129 33.4151 35.292 25.6381C34.252 22.7801 31.944 20.4741 29.066 19.4331C21.289 16.6161 13.961 22.3331 13.961 29.7211H7C7 17.9401 18.4 8.7561 30.74 12.6141C36.13 14.3081 40.436 18.5941 42.11 23.9841C45.968 36.3341 36.782 47.7231 25.004 47.7231Z" fill="#0080FF"/>
<path id="Vector_2" fill-rule="evenodd" clip-rule="evenodd" d="M25.0241 33.822V40.782H18.0641V33.822H25.0241ZM18.0641 40.782V46.1H12.7361V40.772L18.0641 40.782ZM12.7361 40.782H8.26611V36.312H12.7361V40.782Z" fill="#0080FF"/>
<path id="Vector_3" d="M60.7542 13.867C59.1742 12.754 57.1541 12.215 54.8541 12.215H49.8271V28.195H54.9002C57.1982 28.195 59.2001 27.62 60.8001 26.435C61.6621 25.835 62.3441 24.963 62.8471 23.885C63.3141 22.808 63.5651 21.515 63.5651 20.115C63.5651 18.715 63.3151 17.458 62.8471 16.381C62.3441 15.304 61.6621 14.441 60.7641 13.867H60.7542ZM52.7822 14.907H54.3621C56.1221 14.907 57.5581 15.267 58.6621 15.947C59.8821 16.701 60.4921 18.102 60.4921 20.112C60.4921 22.195 59.8921 23.667 58.6621 24.457C57.6221 25.139 56.1841 25.497 54.3891 25.497H52.7731V14.9L52.7822 14.907ZM67.0382 12C66.5352 12 66.1401 12.18 65.7811 12.503C65.6177 12.6609 65.4887 12.8509 65.4022 13.061C65.3156 13.2711 65.2734 13.4968 65.2781 13.724C65.2781 14.227 65.4581 14.622 65.7811 14.981C66.1041 15.304 66.5352 15.484 67.0382 15.484C67.5055 15.4802 67.9542 15.3006 68.2951 14.981C68.6181 14.658 68.7981 14.227 68.7981 13.724C68.8029 13.4968 68.7607 13.2711 68.6741 13.061C68.5876 12.8509 68.4585 12.6609 68.2951 12.503C67.9351 12.18 67.4952 12 67.0382 12ZM65.6001 16.92H68.4371V28.195H65.6001V16.92ZM78.7442 17.853C77.8822 17.099 76.9491 16.633 75.9071 16.633C74.3271 16.633 73.0341 17.173 72.0291 18.249C71.0241 19.289 70.4851 20.655 70.4851 22.307C70.4851 23.887 70.9881 25.252 71.9931 26.329C72.9981 27.369 74.3272 27.909 75.8712 27.909C76.9482 27.909 77.9181 27.622 78.6711 27.011V27.261C78.6711 28.195 78.4211 28.913 77.9171 29.416C77.4131 29.919 76.7322 30.17 75.8702 30.17C74.5772 30.17 73.7502 29.667 72.7462 28.303L70.8061 30.17L70.8422 30.242C71.2722 30.817 71.8822 31.392 72.7452 31.93C73.5712 32.47 74.6481 32.756 75.9051 32.756C77.5931 32.756 78.9571 32.253 79.9631 31.212C80.9691 30.171 81.4711 28.806 81.4711 27.118V16.884H78.6711V17.854L78.7442 17.853ZM78.0001 24.532C77.4971 25.107 76.8501 25.358 76.0601 25.358C75.2341 25.358 74.6242 25.071 74.1202 24.532C73.6172 23.957 73.4021 23.239 73.4021 22.332C73.4021 21.398 73.6522 20.68 74.1202 20.106C74.5882 19.532 75.2701 19.28 76.0601 19.28C76.8861 19.28 77.4961 19.567 78.0001 20.106C78.5031 20.681 78.7541 21.436 78.7541 22.332C78.7541 23.228 78.5041 23.948 78.0001 24.532ZM83.9501 16.92H86.7872V28.195H83.9501V16.92ZM85.3871 12C84.8842 12 84.4891 12.18 84.1301 12.503C83.9667 12.6609 83.8377 12.8509 83.7512 13.061C83.6646 13.2711 83.6224 13.4968 83.6271 13.724C83.6271 14.227 83.8071 14.622 84.1301 14.981C84.4531 15.304 84.8842 15.484 85.3871 15.484C85.8545 15.4802 86.3032 15.3006 86.6441 14.981C86.9671 14.658 87.1472 14.227 87.1472 13.724C87.1519 13.4968 87.1097 13.2711 87.0231 13.061C86.9366 12.8509 86.8075 12.6609 86.6441 12.503C86.2841 12.18 85.8901 12 85.3871 12ZM93.0001 13.867H90.2001V16.919H88.5841V19.504H90.2001V24.172C90.2001 25.644 90.4871 26.686 91.0621 27.296C91.6371 27.906 92.6781 28.194 94.1141 28.194L95.4791 28.158H95.6231V25.573L94.6531 25.609C93.9711 25.609 93.5401 25.501 93.3231 25.249C93.1061 24.997 93.0001 24.496 93.0001 23.742V19.47H95.6571V16.885H93.0001V13.87V13.867ZM108.943 12.18H111.78V28.195H108.943V12.18Z" fill="#0080FF"/>
<path id="Vector_4" d="M105.388 17.78C104.526 17.062 103.341 16.667 101.868 16.667C100.934 16.667 100.038 16.882 99.2482 17.267C98.4942 17.627 97.7762 18.272 97.3082 19.062L97.3442 19.098L99.1742 20.822C99.9282 19.637 100.754 19.206 101.867 19.206C102.467 19.206 102.944 19.35 103.339 19.673C103.699 19.996 103.914 20.391 103.914 20.893V21.433C103.196 21.218 102.514 21.11 101.831 21.11C100.431 21.11 99.2812 21.433 98.4312 22.08C97.5812 22.727 97.1382 23.696 97.1382 24.917C97.1382 25.994 97.4982 26.82 98.2512 27.467C99.0052 28.067 99.9032 28.401 100.981 28.401C102.059 28.401 103.064 27.971 103.997 27.216V28.15H106.797V20.896C106.689 19.566 106.257 18.49 105.397 17.772L105.388 17.78ZM100.361 23.884C100.684 23.669 101.161 23.561 101.726 23.561C102.408 23.561 103.126 23.705 103.881 23.956V25.069C103.281 25.644 102.445 25.931 101.439 25.931C100.936 25.931 100.577 25.823 100.289 25.608C100.164 25.5106 100.062 25.3852 99.9938 25.2418C99.9252 25.0984 99.8911 24.9409 99.8942 24.782C99.884 24.6041 99.9221 24.4268 100.004 24.2688C100.086 24.1108 100.21 23.9778 100.361 23.884Z" fill="#0080FF"/>
<path id="Vector_5" d="M75.1721 43.7001C74.6691 44.2751 74.1321 44.7771 73.7361 45.0301C73.3401 45.2831 72.8381 45.4251 72.2641 45.4251C71.4381 45.4251 70.7561 45.1381 70.2171 44.4911C69.6771 43.8911 69.3911 43.0551 69.3911 42.1211C69.3911 41.1511 69.6781 40.3611 70.2171 39.7511C70.7561 39.1411 71.4371 38.8171 72.2641 38.8171C73.1621 38.8171 74.1311 39.3921 74.9571 40.3611L76.8241 38.5661C75.6041 36.9861 74.0591 36.2321 72.1921 36.2321C70.6481 36.2321 69.2921 36.8071 68.1701 37.9201C67.0481 39.0331 66.5181 40.4341 66.5181 42.1201C66.5181 43.8061 67.0931 45.2081 68.1701 46.3201C69.2831 47.4351 70.6101 48.0201 72.1901 48.0201C74.2371 48.0201 75.8901 47.1221 77.0381 45.5061L75.1701 43.7001H75.1721ZM86.8421 38.0271C86.4471 37.4521 85.9081 37.0221 85.2261 36.6971C84.5441 36.3721 83.7541 36.1941 82.8921 36.1941C81.3121 36.1941 80.0191 36.7691 79.0501 37.9181C78.1161 39.0681 77.6141 40.4681 77.6141 42.1551C77.6141 43.8791 78.1541 45.2791 79.1581 46.3551C80.1981 47.4321 81.5641 47.9711 83.2521 47.9711C85.1551 47.9711 86.7351 47.1711 87.9201 45.6731L87.9921 45.6011L86.1251 43.8061C85.9451 44.0211 85.6951 44.2361 85.4791 44.4521C85.1921 44.7021 84.9391 44.9191 84.6531 45.0521C84.2069 45.2724 83.7146 45.3831 83.2171 45.3751C82.4171 45.3751 81.7811 45.1601 81.2771 44.6931C80.8101 44.2631 80.5231 43.6881 80.4511 42.9691H87.9561L87.9921 41.9291C87.9921 41.2111 87.8841 40.4931 87.7051 39.8461C87.5261 39.1991 87.2381 38.5891 86.8431 38.0161L86.8421 38.0271ZM80.6301 40.6841C80.7741 40.1441 81.0251 39.6791 81.3841 39.3541C81.7791 38.9591 82.2821 38.7791 82.8561 38.7791C83.5381 38.7791 84.0761 38.9591 84.4361 39.3541C84.7745 39.7184 84.9774 40.188 85.0111 40.6841H80.6301Z" fill="#0080FF"/>
<path id="Vector_6" d="M97.7222 37.3C96.8602 36.582 95.6752 36.187 94.2022 36.187C93.2682 36.187 92.3722 36.402 91.5822 36.787C90.8282 37.147 90.1102 37.792 89.6422 38.582L89.6782 38.618L91.5082 40.342C92.2622 39.157 93.0882 38.726 94.2012 38.726C94.8012 38.726 95.2782 38.87 95.6732 39.193C96.0332 39.516 96.2482 39.911 96.2482 40.413V40.953C95.5302 40.738 94.8482 40.63 94.1652 40.63C92.7652 40.63 91.6152 40.953 90.7652 41.6C89.9152 42.247 89.4722 43.216 89.4722 44.437C89.4722 45.514 89.8322 46.34 90.5852 46.987C91.3392 47.587 92.2372 47.921 93.3152 47.921C94.3932 47.921 95.3982 47.491 96.3312 46.736V47.67H99.1312V40.416C99.0232 39.086 98.5912 38.01 97.7312 37.292L97.7222 37.3ZM92.6952 43.404C93.0182 43.189 93.4952 43.081 94.0602 43.081C94.7422 43.081 95.4602 43.225 96.2152 43.476V44.589C95.6152 45.164 94.7792 45.451 93.7732 45.451C93.2702 45.451 92.9112 45.343 92.6232 45.128C92.4975 45.0306 92.3964 44.9052 92.3278 44.7618C92.2592 44.6184 92.2251 44.4609 92.2282 44.302C92.218 44.1242 92.256 43.9469 92.3382 43.7888C92.4204 43.6308 92.5437 43.4978 92.6952 43.404Z" fill="#0080FF"/>
<path id="Vector_7" d="M109.93 37.515C109.13 36.617 108.027 36.185 106.626 36.185C105.513 36.185 104.579 36.508 103.896 37.155V36.473H101.131V47.713H103.968V41.5C103.968 40.638 104.183 39.956 104.568 39.5C104.953 39.044 105.502 38.782 106.256 38.782C106.902 38.782 107.369 38.997 107.728 39.428C108.087 39.859 108.268 40.468 108.268 41.188V47.723H111.105V41.188C111.105 39.644 110.71 38.388 109.92 37.525L109.93 37.515ZM56.823 47.965C54.6326 47.9648 52.5321 47.0945 50.9833 45.5457C49.4345 43.9969 48.5642 41.8964 48.564 39.706C48.5642 37.5157 49.4345 35.4151 50.9833 33.8663C52.5321 32.3175 54.6326 31.4473 56.823 31.447C59.0133 31.4473 61.1139 32.3175 62.6627 33.8663C64.2115 35.4151 65.0817 37.5157 65.082 39.706C65.0817 41.8964 64.2115 43.9969 62.6627 45.5457C61.1139 47.0945 59.0133 47.9648 56.823 47.965ZM56.823 34.365C53.878 34.365 51.473 36.771 51.473 39.715C51.473 42.659 53.879 45.065 56.823 45.065C59.767 45.065 62.173 42.659 62.173 39.715C62.173 36.771 59.767 34.365 56.823 34.365Z" fill="#0080FF"/>
</g>
</g>
</svg>
