<svg width="337" height="272" viewBox="0 0 337 272" fill="none" xmlns="http://www.w3.org/2000/svg">
<g clip-path="url(#clip0_205_6569)">
<mask id="mask0_205_6569" style="mask-type:luminance" maskUnits="userSpaceOnUse" x="0" y="0" width="337" height="272">
<path d="M336.5 0H0.5V272H336.5V0Z" fill="white"/>
</mask>
<g mask="url(#mask0_205_6569)">
<path d="M228.813 136.385L268.271 120.918V222.522H228.813V136.385Z" fill="#F0F2F5"/>
<path d="M268.271 119.702H263.336V124.647H268.271V119.702Z" fill="#F0F2F5"/>
<path d="M256.763 124.251H251.829V129.197H256.763V124.251Z" fill="#F0F2F5"/>
<path d="M245.255 128.801H240.321V133.746H245.255V128.801Z" fill="#F0F2F5"/>
<path d="M233.748 133.35H228.813V138.295H233.748V133.35Z" fill="#F0F2F5"/>
<path d="M265.803 143.023H261.937V150.809H265.803V143.023Z" fill="white"/>
<path d="M255.585 143.023H251.718V150.809H255.585V143.023Z" fill="white"/>
<path d="M245.366 143.023H241.499V150.809H245.366V143.023Z" fill="white"/>
<path d="M235.147 143.023H231.28V150.809H235.147V143.023Z" fill="white"/>
<path d="M265.803 158.248H261.937V166.034H265.803V158.248Z" fill="white"/>
<path d="M255.585 158.248H251.718V166.034H255.585V158.248Z" fill="white"/>
<path d="M245.366 158.248H241.499V166.034H245.366V158.248Z" fill="white"/>
<path d="M235.147 158.248H231.28V166.034H235.147V158.248Z" fill="white"/>
<path d="M265.803 173.473H261.937V181.259H265.803V173.473Z" fill="white"/>
<path d="M255.585 173.473H251.718V181.259H255.585V173.473Z" fill="white"/>
<path d="M245.366 173.473H241.499V181.259H245.366V173.473Z" fill="white"/>
<path d="M235.147 173.473H231.28V181.259H235.147V173.473Z" fill="white"/>
<path d="M265.803 188.698H261.937V196.484H265.803V188.698Z" fill="white"/>
<path d="M255.585 188.698H251.718V196.484H255.585V188.698Z" fill="white"/>
<path d="M245.366 188.698H241.499V196.484H245.366V188.698Z" fill="white"/>
<path d="M235.147 188.698H231.28V196.484H235.147V188.698Z" fill="white"/>
<path d="M265.803 203.922H261.937V211.709H265.803V203.922Z" fill="white"/>
<path d="M255.585 203.922H251.718V211.709H255.585V203.922Z" fill="white"/>
<path d="M245.366 203.922H241.499V211.709H245.366V203.922Z" fill="white"/>
<path d="M235.147 203.922H231.28V211.709H235.147V203.922Z" fill="white"/>
<path d="M275.797 150.75H246.163V246.199H275.797V150.75Z" fill="#E1E6EB"/>
<path d="M279.656 150.75H242.304V152.82H279.656V150.75Z" fill="#E1E6EB"/>
<path d="M278.469 152.82H243.49V154.001H278.469V152.82Z" fill="#E1E6EB"/>
<path d="M276.986 163.286H244.974V163.877H276.986V163.286Z" fill="#E1E6EB"/>
<path d="M276.986 173.161H244.974V173.752H276.986V173.161Z" fill="#E1E6EB"/>
<path d="M276.986 183.036H244.974V183.627H276.986V183.036Z" fill="#E1E6EB"/>
<path d="M276.986 192.911H244.974V193.502H276.986V192.911Z" fill="#E1E6EB"/>
<path d="M276.986 202.786H244.974V203.377H276.986V202.786Z" fill="#E1E6EB"/>
<path d="M276.986 212.662H244.974V213.252H276.986V212.662Z" fill="#E1E6EB"/>
<path d="M276.986 222.537H244.974V223.128H276.986V222.537Z" fill="#E1E6EB"/>
<path d="M276.986 232.412H244.974V233.003H276.986V232.412Z" fill="#E1E6EB"/>
<path d="M251.289 155.878H248.542V161.41H251.289V155.878Z" fill="#F0F2F5"/>
<path d="M258.876 155.878H256.129V161.41H258.876V155.878Z" fill="#F0F2F5"/>
<path d="M266.463 155.878H263.716V161.41H266.463V155.878Z" fill="#F0F2F5"/>
<path d="M274.049 155.878H271.302V161.41H274.049V155.878Z" fill="#F0F2F5"/>
<path d="M251.289 165.753H248.542V171.285H251.289V165.753Z" fill="#F0F2F5"/>
<path d="M258.876 165.753H256.129V171.285H258.876V165.753Z" fill="#F0F2F5"/>
<path d="M266.463 165.753H263.716V171.285H266.463V165.753Z" fill="#F0F2F5"/>
<path d="M274.049 165.753H271.302V171.285H274.049V165.753Z" fill="#F0F2F5"/>
<path d="M251.289 175.628H248.542V181.16H251.289V175.628Z" fill="#F0F2F5"/>
<path d="M258.876 175.628H256.129V181.16H258.876V175.628Z" fill="#F0F2F5"/>
<path d="M266.463 175.628H263.716V181.16H266.463V175.628Z" fill="#F0F2F5"/>
<path d="M274.049 175.628H271.302V181.16H274.049V175.628Z" fill="#F0F2F5"/>
<path d="M251.289 185.503H248.542V191.035H251.289V185.503Z" fill="#F0F2F5"/>
<path d="M258.876 185.503H256.129V191.035H258.876V185.503Z" fill="#F0F2F5"/>
<path d="M266.463 185.503H263.716V191.035H266.463V185.503Z" fill="#F0F2F5"/>
<path d="M274.049 185.503H271.302V191.035H274.049V185.503Z" fill="#F0F2F5"/>
<path d="M251.289 195.378H248.542V200.91H251.289V195.378Z" fill="#F0F2F5"/>
<path d="M258.876 195.378H256.129V200.91H258.876V195.378Z" fill="#F0F2F5"/>
<path d="M266.463 195.378H263.716V200.91H266.463V195.378Z" fill="#F0F2F5"/>
<path d="M274.049 195.378H271.302V200.91H274.049V195.378Z" fill="#F0F2F5"/>
<path d="M251.289 205.253H248.542V210.785H251.289V205.253Z" fill="#F0F2F5"/>
<path d="M258.876 205.253H256.129V210.785H258.876V205.253Z" fill="#F0F2F5"/>
<path d="M266.463 205.253H263.716V210.785H266.463V205.253Z" fill="#F0F2F5"/>
<path d="M274.049 205.253H271.302V210.785H274.049V205.253Z" fill="#F0F2F5"/>
<path d="M251.289 215.129H248.542V220.661H251.289V215.129Z" fill="#F0F2F5"/>
<path d="M258.876 215.129H256.129V220.661H258.876V215.129Z" fill="#F0F2F5"/>
<path d="M266.463 215.129H263.716V220.661H266.463V215.129Z" fill="#F0F2F5"/>
<path d="M274.049 215.129H271.302V220.661H274.049V215.129Z" fill="#F0F2F5"/>
<path d="M251.289 225.004H248.542V230.536H251.289V225.004Z" fill="#F0F2F5"/>
<path d="M258.876 225.004H256.129V230.536H258.876V225.004Z" fill="#F0F2F5"/>
<path d="M266.463 225.004H263.716V230.536H266.463V225.004Z" fill="#F0F2F5"/>
<path d="M274.049 225.004H271.302V230.536H274.049V225.004Z" fill="#F0F2F5"/>
<path d="M303.235 134.103H278.19V246.199H303.235V134.103Z" fill="#F0F2F5"/>
<path d="M296.771 123.009H284.653V134.103H296.771V123.009Z" fill="#F0F2F5"/>
<path d="M291.469 111.916H289.955V123.009H291.469V111.916Z" fill="#F0F2F5"/>
<path d="M280.933 133.244V134.103H300.492V133.244H280.933Z" fill="#F0F2F5"/>
<path d="M221.648 168.17H194.945V246.199H221.648V168.17Z" fill="#F0F2F5"/>
<path d="M223.236 168.17H193.356V170.266H223.236V168.17Z" fill="#F0F2F5"/>
<path d="M220.416 166.073H196.176V168.17H220.416V166.073Z" fill="#F0F2F5"/>
<path d="M205.9 166.073V156.62H203.808V166.073H205.9Z" fill="#F0F2F5"/>
<path d="M201.844 166.073V156.62H199.752V166.073H201.844Z" fill="#F0F2F5"/>
<path d="M214.742 156.62V147.167H214.031V156.62H214.742Z" fill="#F0F2F5"/>
<path d="M213.362 156.62V147.167H212.65V156.62H213.362Z" fill="#F0F2F5"/>
<path d="M218.393 156.62H209V166.034H218.393V156.62Z" fill="#F0F2F5"/>
<path d="M235.789 179.057H212.399V246.199H235.789V179.057Z" fill="#E1E6EB"/>
<path d="M234.542 173.473H213.647V179.057H234.542V173.473Z" fill="#E1E6EB"/>
<path d="M238.122 177.661H210.067V179.057H238.122V177.661Z" fill="#E1E6EB"/>
<path d="M236.695 176.265H211.493V177.661H236.695V176.265Z" fill="#E1E6EB"/>
<path d="M111.366 136.385L71.9087 120.918V222.522H111.366V136.385Z" fill="#F0F2F5"/>
<path d="M76.843 119.702H71.9087V124.647H76.843V119.702Z" fill="#F0F2F5"/>
<path d="M88.3506 124.251H83.4163V129.197H88.3506V124.251Z" fill="#F0F2F5"/>
<path d="M99.8584 128.801H94.9241V133.746H99.8584V128.801Z" fill="#F0F2F5"/>
<path d="M111.366 133.35H106.432V138.295H111.366V133.35Z" fill="#F0F2F5"/>
<path d="M78.2423 143.023H74.3757V150.809H78.2423V143.023Z" fill="white"/>
<path d="M88.4611 143.023H84.5945V150.809H88.4611V143.023Z" fill="white"/>
<path d="M98.6798 143.023H94.8132V150.809H98.6798V143.023Z" fill="white"/>
<path d="M108.899 143.023H105.032V150.809H108.899V143.023Z" fill="white"/>
<path d="M78.2423 158.248H74.3757V166.034H78.2423V158.248Z" fill="white"/>
<path d="M88.4611 158.248H84.5945V166.034H88.4611V158.248Z" fill="white"/>
<path d="M98.6798 158.248H94.8132V166.034H98.6798V158.248Z" fill="white"/>
<path d="M108.899 158.248H105.032V166.034H108.899V158.248Z" fill="white"/>
<path d="M78.2423 173.473H74.3757V181.259H78.2423V173.473Z" fill="white"/>
<path d="M88.4611 173.473H84.5945V181.259H88.4611V173.473Z" fill="white"/>
<path d="M98.6798 173.473H94.8132V181.259H98.6798V173.473Z" fill="white"/>
<path d="M108.899 173.473H105.032V181.259H108.899V173.473Z" fill="white"/>
<path d="M78.2423 188.698H74.3757V196.484H78.2423V188.698Z" fill="white"/>
<path d="M88.4611 188.698H84.5945V196.484H88.4611V188.698Z" fill="white"/>
<path d="M98.6798 188.698H94.8132V196.484H98.6798V188.698Z" fill="white"/>
<path d="M108.899 188.698H105.032V196.484H108.899V188.698Z" fill="white"/>
<path d="M78.2423 203.922H74.3757V211.709H78.2423V203.922Z" fill="white"/>
<path d="M88.4611 203.922H84.5945V211.709H88.4611V203.922Z" fill="white"/>
<path d="M98.6798 203.922H94.8132V211.709H98.6798V203.922Z" fill="white"/>
<path d="M108.899 203.922H105.032V211.709H108.899V203.922Z" fill="white"/>
<path d="M62.7643 245.863H92.3984L92.3984 160.275H62.7643L62.7643 245.863Z" fill="#E1E6EB"/>
<path d="M58.9054 162.346H96.2573V160.276H58.9054V162.346Z" fill="#E1E6EB"/>
<path d="M60.0917 163.528H95.0703V162.346H60.0917V163.528Z" fill="#E1E6EB"/>
<path d="M61.5753 173.403H93.5874V172.812H61.5753V173.403Z" fill="#E1E6EB"/>
<path d="M61.5753 183.278H93.5874V182.687H61.5753V183.278Z" fill="#E1E6EB"/>
<path d="M61.5753 193.153H93.5874V192.562H61.5753V193.153Z" fill="#E1E6EB"/>
<path d="M61.5753 203.028H93.5874V202.438H61.5753V203.028Z" fill="#E1E6EB"/>
<path d="M61.5753 212.903H93.5874V212.313H61.5753V212.903Z" fill="#E1E6EB"/>
<path d="M61.5753 222.779H93.5874V222.188H61.5753V222.779Z" fill="#E1E6EB"/>
<path d="M61.5753 232.654H93.5874V232.063H61.5753V232.654Z" fill="#E1E6EB"/>
<path d="M61.5753 242.529H93.5874V241.938H61.5753V242.529Z" fill="#E1E6EB"/>
<path d="M90.019 165.404H87.272V170.936H90.019V165.404Z" fill="#F0F2F5"/>
<path d="M82.4321 165.404H79.6851V170.936H82.4321V165.404Z" fill="#F0F2F5"/>
<path d="M74.8452 165.404H72.0981V170.936H74.8452V165.404Z" fill="#F0F2F5"/>
<path d="M67.2585 165.404H64.5115V170.936H67.2585V165.404Z" fill="#F0F2F5"/>
<path d="M90.019 175.279H87.272V180.811H90.019V175.279Z" fill="#F0F2F5"/>
<path d="M82.4321 175.279H79.6851V180.811H82.4321V175.279Z" fill="#F0F2F5"/>
<path d="M74.8452 175.279H72.0981V180.811H74.8452V175.279Z" fill="#F0F2F5"/>
<path d="M67.2585 175.279H64.5115V180.811H67.2585V175.279Z" fill="#F0F2F5"/>
<path d="M90.019 185.154H87.272V190.686H90.019V185.154Z" fill="#F0F2F5"/>
<path d="M82.4321 185.154H79.6851V190.686H82.4321V185.154Z" fill="#F0F2F5"/>
<path d="M74.8452 185.154H72.0981V190.686H74.8452V185.154Z" fill="#F0F2F5"/>
<path d="M67.2585 185.154H64.5115V190.686H67.2585V185.154Z" fill="#F0F2F5"/>
<path d="M90.019 195.029H87.272V200.561H90.019V195.029Z" fill="#F0F2F5"/>
<path d="M82.4321 195.029H79.6851V200.561H82.4321V195.029Z" fill="#F0F2F5"/>
<path d="M74.8452 195.029H72.0981V200.561H74.8452V195.029Z" fill="#F0F2F5"/>
<path d="M67.2585 195.029H64.5115V200.561H67.2585V195.029Z" fill="#F0F2F5"/>
<path d="M90.019 204.905H87.272V210.436H90.019V204.905Z" fill="#F0F2F5"/>
<path d="M82.4321 204.905H79.6851V210.436H82.4321V204.905Z" fill="#F0F2F5"/>
<path d="M74.8452 204.905H72.0981V210.436H74.8452V204.905Z" fill="#F0F2F5"/>
<path d="M67.2585 204.905H64.5115V210.436H67.2585V204.905Z" fill="#F0F2F5"/>
<path d="M90.019 214.78H87.272V220.311H90.019V214.78Z" fill="#F0F2F5"/>
<path d="M82.4321 214.78H79.6851V220.311H82.4321V214.78Z" fill="#F0F2F5"/>
<path d="M74.8452 214.78H72.0981V220.311H74.8452V214.78Z" fill="#F0F2F5"/>
<path d="M67.2585 214.78H64.5115V220.311H67.2585V214.78Z" fill="#F0F2F5"/>
<path d="M90.019 224.655H87.272V230.187H90.019V224.655Z" fill="#F0F2F5"/>
<path d="M82.4321 224.655H79.6851V230.187H82.4321V224.655Z" fill="#F0F2F5"/>
<path d="M74.8452 224.655H72.0981V230.187H74.8452V224.655Z" fill="#F0F2F5"/>
<path d="M67.2585 224.655H64.5115V230.187H67.2585V224.655Z" fill="#F0F2F5"/>
<path d="M90.019 234.53H87.272V240.062H90.019V234.53Z" fill="#F0F2F5"/>
<path d="M82.4321 234.53H79.6851V240.062H82.4321V234.53Z" fill="#F0F2F5"/>
<path d="M74.8452 234.53H72.0981V240.062H74.8452V234.53Z" fill="#F0F2F5"/>
<path d="M67.2585 234.53H64.5115V240.062H67.2585V234.53Z" fill="#F0F2F5"/>
<path d="M116.913 246.199H143.616V168.17H116.913L116.913 246.199Z" fill="#F0F2F5"/>
<path d="M115.324 170.266H145.205V168.17H115.324V170.266Z" fill="#F0F2F5"/>
<path d="M118.145 168.17H142.385V166.073H118.145V168.17Z" fill="#F0F2F5"/>
<path d="M134.752 166.073V156.62H132.661V166.073H134.752Z" fill="#F0F2F5"/>
<path d="M138.809 166.073V156.62H136.717V166.073H138.809Z" fill="#F0F2F5"/>
<path d="M124.531 156.62V147.167H123.819V156.62H124.531Z" fill="#F0F2F5"/>
<path d="M125.911 156.62V147.167H125.199V156.62H125.911Z" fill="#F0F2F5"/>
<path d="M120.168 166.034H129.561V156.62H120.168V166.034Z" fill="#F0F2F5"/>
<path d="M62.0573 140.705H35.3542V246.199H62.0573V140.705Z" fill="#F0F2F5"/>
<path d="M63.6461 140.705H33.7656V142.801H63.6461V140.705Z" fill="#F0F2F5"/>
<path d="M60.8259 138.608H36.5859V140.705H60.8259V138.608Z" fill="#F0F2F5"/>
<path d="M46.3098 138.608V129.155H44.2181V138.608H46.3098Z" fill="#F0F2F5"/>
<path d="M42.2534 138.608V129.155H40.1617V138.608H42.2534Z" fill="#F0F2F5"/>
<path d="M55.1516 129.155V119.702H54.4399V129.155H55.1516Z" fill="#F0F2F5"/>
<path d="M53.7715 129.155V119.702H53.0598V129.155H53.7715Z" fill="#F0F2F5"/>
<path d="M58.8023 129.155H49.4094V138.569H58.8023V129.155Z" fill="#F0F2F5"/>
<path d="M102.771 246.199H126.162L126.162 179.057H102.771V246.199Z" fill="#E1E6EB"/>
<path d="M104.019 179.057H124.914V173.473H104.019V179.057Z" fill="#E1E6EB"/>
<path d="M100.439 179.057H128.494V177.661H100.439V179.057Z" fill="#E1E6EB"/>
<path d="M101.866 177.661H127.068V176.265H101.866V177.661Z" fill="#E1E6EB"/>
<path d="M311.067 168.607H289.201V246.199H311.067V168.607Z" fill="#E1E6EB"/>
<path d="M309.901 163.022H290.367V168.607H309.901V163.022Z" fill="#E1E6EB"/>
<path d="M313.247 167.21H287.021V168.607H313.247V167.21Z" fill="#E1E6EB"/>
<path d="M311.914 165.814H288.354V167.21H311.914V165.814Z" fill="#E1E6EB"/>
<path d="M47.7989 168.607H25.9333V246.199H47.7989V168.607Z" fill="#E1E6EB"/>
<path d="M46.633 163.022H27.0999V168.607H46.633V163.022Z" fill="#E1E6EB"/>
<path d="M49.9794 167.21H23.7532V168.607H49.9794V167.21Z" fill="#E1E6EB"/>
<path d="M48.646 165.814H25.0867V167.21H48.646V165.814Z" fill="#E1E6EB"/>
<path d="M46.3618 79.6488C48.5859 79.421 50.7634 78.7875 52.7033 77.6735C53.2198 77.3769 53.8183 77.2072 54.4566 77.2072C54.8488 77.2072 55.2266 77.2717 55.5792 77.3894C56.3605 77.6517 57.0201 78.1806 57.4508 78.8681C57.5593 79.0411 57.7525 79.1421 57.9564 79.1421C58.2403 79.1421 58.4847 78.9441 58.5471 78.6664C58.6478 78.2186 58.8004 77.7907 58.9986 77.3894C59.9365 75.4887 61.8906 74.1819 64.1492 74.1819C64.3551 74.1819 64.5579 74.1924 64.7584 74.2142C64.9787 74.2373 65.1945 74.2745 65.4065 74.322C65.4191 74.286 65.4312 74.25 65.4443 74.2142C66.6664 70.8266 69.9042 68.4053 73.7061 68.4053C74.2614 68.4053 74.8048 68.4571 75.3309 68.556C78.2565 69.1043 80.6709 71.1065 81.8002 73.7858C81.9094 74.045 82.0065 74.3106 82.0909 74.5819C90.5858 73.172 95.7309 74.4733 98.5474 75.8068C101.546 77.2264 104.752 78.1514 108.044 78.557L128.497 81.077H117.192H110.77H86.2056H85.0105H81.5951H75.9073H73.7057H69.7805H65.8156H58.5181H57.9756H50.9367H32.4209L46.3618 79.6488Z" fill="#F0F2F5"/>
<path d="M301.102 80.0828C298.295 79.7953 295.579 78.9307 293.111 77.5609C292.471 77.2055 291.734 77.0031 290.95 77.0031C290.454 77.0031 289.975 77.0847 289.529 77.2337C288.544 77.5645 287.712 78.2305 287.166 79.0966C287.027 79.318 286.783 79.4509 286.522 79.4509C286.167 79.4509 285.855 79.2074 285.778 78.8602C285.65 78.2898 285.456 77.7447 285.204 77.2337C284.017 74.8291 281.545 73.176 278.688 73.176C278.428 73.176 278.171 73.1893 277.917 73.2168C277.639 73.2462 277.365 73.2932 277.097 73.3532C277.082 73.3076 277.066 73.262 277.05 73.2168C275.504 68.9313 271.408 65.8681 266.598 65.8681C265.896 65.8681 265.208 65.9336 264.542 66.0589C260.841 66.7526 257.787 69.2853 256.358 72.675C256.22 73.0029 256.097 73.3389 255.991 73.6821C255.373 73.3594 254.672 73.1758 253.927 73.1758C253.722 73.1758 253.52 73.1905 253.322 73.2174C254.992 71.19 255.984 68.582 255.954 65.7409C255.888 59.6124 250.991 54.5581 244.88 54.3236C238.308 54.0713 232.9 59.3369 232.9 65.8681C232.9 66.0799 232.906 66.2902 232.918 66.4993H232.917C227.41 67.3298 222.849 71.0579 220.83 76.0849C217.785 76.0849 214.821 77.0615 212.37 78.8718L211.586 79.451L197.284 81.8989H211.586H219.71H250.785H252.297H256.618H263.813H266.598H271.564H276.58H285.812H286.498H295.402H318.826L301.102 80.0828Z" fill="#F0F2F5"/>
</g>
<path d="M94.6643 101.044C93.5723 100.932 92.5031 100.621 91.5507 100.074C91.297 99.9287 91.0033 99.8454 90.6899 99.8454C90.4973 99.8454 90.3118 99.8771 90.1387 99.9349C89.7552 100.064 89.4313 100.323 89.2198 100.661C89.1665 100.746 89.0717 100.795 88.9715 100.795C88.8321 100.795 88.7121 100.698 88.6814 100.562C88.632 100.342 88.5571 100.132 88.4598 99.9349C87.9993 99.0017 87.0399 98.36 85.9308 98.36C85.8298 98.36 85.7303 98.3652 85.6317 98.3758C85.5236 98.3872 85.4175 98.4055 85.3135 98.4288C85.3074 98.4112 85.3014 98.3934 85.295 98.3758C84.695 96.7126 83.1053 95.5237 81.2386 95.5237C80.9659 95.5237 80.6992 95.5491 80.4409 95.5978C79.0045 95.8671 77.819 96.85 77.2645 98.1656C77.2109 98.2929 77.1632 98.4233 77.1218 98.5565C72.9509 97.8643 70.4248 98.5033 69.0421 99.1579C67.5699 99.8548 65.9954 100.309 64.3795 100.508L54.3374 101.745H59.8879H63.0412H75.1017H75.6885H77.3654H80.1581H81.2391H83.1663H85.1131H88.6959H88.9622H92.4182H101.509L94.6643 101.044Z" fill="#0C213A"/>
<path d="M244.702 104.435C245.728 104.284 246.721 103.831 247.624 103.113C247.858 102.927 248.127 102.821 248.414 102.821C248.595 102.821 248.77 102.864 248.933 102.942C249.294 103.115 249.598 103.464 249.797 103.918C249.848 104.034 249.937 104.103 250.033 104.103C250.163 104.103 250.277 103.976 250.305 103.794C250.352 103.495 250.423 103.209 250.515 102.941C250.949 101.681 251.853 100.815 252.898 100.815C252.993 100.815 253.087 100.822 253.179 100.836C253.281 100.852 253.381 100.876 253.479 100.908C253.485 100.884 253.491 100.86 253.497 100.836C254.062 98.5908 255.56 96.9856 257.318 96.9856C257.575 96.9856 257.827 97.0199 258.07 97.0856C259.423 97.4492 260.54 98.7763 261.063 100.553C261.113 100.724 261.158 100.9 261.197 101.08C267.946 99.475 270.124 103.172 270.124 103.172L282.663 105.386H277.434H274.463H263.1H262.547H260.968H258.337H257.318H255.503H253.669H250.293H250.042H246.786H238.221L244.702 104.435Z" fill="#0C213A"/>
<path d="M223.742 157.63C224.352 157.541 224.943 157.271 225.48 156.844C225.619 156.733 225.78 156.67 225.95 156.67C226.058 156.67 226.162 156.696 226.259 156.742C226.474 156.845 226.655 157.053 226.773 157.323C226.803 157.392 226.857 157.433 226.913 157.433C226.991 157.433 227.059 157.357 227.075 157.249C227.103 157.071 227.145 156.901 227.2 156.742C227.458 155.992 227.996 155.477 228.618 155.477C228.674 155.477 228.73 155.481 228.785 155.49C228.846 155.499 228.905 155.514 228.964 155.532C228.967 155.518 228.971 155.504 228.974 155.49C229.31 154.154 230.201 153.199 231.248 153.199C231.4 153.199 231.55 153.219 231.695 153.258C232.5 153.474 233.164 154.264 233.475 155.321C233.505 155.423 233.532 155.528 233.555 155.635C237.571 154.68 238.866 156.879 238.866 156.879L246.326 158.196H243.215H241.447H234.687H234.359H233.419H231.853H231.248H230.167H229.076H227.068H226.919H224.982H219.886L223.742 157.63Z" fill="#0C213A"/>
<path d="M113.259 157.63C112.648 157.541 112.057 157.271 111.52 156.844C111.381 156.733 111.221 156.67 111.05 156.67C110.942 156.67 110.838 156.696 110.741 156.742C110.527 156.845 110.346 157.053 110.227 157.323C110.197 157.392 110.144 157.433 110.087 157.433C110.01 157.433 109.942 157.357 109.925 157.249C109.897 157.071 109.855 156.901 109.8 156.742C109.542 155.992 109.004 155.477 108.383 155.477C108.326 155.477 108.27 155.481 108.215 155.49C108.154 155.499 108.095 155.514 108.037 155.532C108.033 155.518 108.03 155.504 108.026 155.49C107.69 154.154 106.799 153.199 105.753 153.199C105.6 153.199 105.45 153.219 105.305 153.258C104.5 153.474 103.836 154.264 103.525 155.321C103.495 155.423 103.468 155.528 103.445 155.635C99.4296 154.68 98.1339 156.879 98.1339 156.879L90.6743 158.196H93.7854H95.5529H102.313H102.642H103.582H105.147H105.753H106.833H107.924H109.932H110.082H112.019H117.114L113.259 157.63Z" fill="#0C213A"/>
<path d="M143.663 44.7882C142.047 44.6226 140.484 44.1249 139.063 43.3363C138.694 43.1318 138.27 43.0152 137.819 43.0152C137.533 43.0152 137.258 43.0623 137.001 43.148C136.434 43.3384 135.955 43.7219 135.641 44.2205C135.561 44.3479 135.42 44.4245 135.27 44.4245C135.066 44.4245 134.886 44.2843 134.841 44.0845C134.768 43.7561 134.656 43.4423 134.511 43.1481C133.828 41.7638 132.405 40.8122 130.76 40.8122C130.61 40.8122 130.462 40.8198 130.316 40.8356C130.156 40.8526 129.999 40.8795 129.844 40.9141C129.835 40.8879 129.826 40.8616 129.817 40.8356C128.927 38.3686 126.569 36.6051 123.8 36.6051C123.396 36.6051 123 36.6428 122.617 36.7149C120.486 37.1143 118.728 38.5723 117.905 40.5237C117.826 40.7126 117.755 40.9059 117.694 41.1035C117.338 40.9176 116.934 40.812 116.505 40.812C116.387 40.812 116.271 40.8205 116.157 40.836C117.118 39.6689 117.69 38.1674 117.672 36.5319C117.634 33.0038 114.815 30.0942 111.297 29.9591C107.514 29.8139 104.401 32.8452 104.401 36.6051C104.401 36.727 104.404 36.8481 104.411 36.9684H104.411C101.24 37.4465 98.6145 39.5927 97.452 42.4867C95.6993 42.4867 93.9926 43.0489 92.5817 44.0909L92.1303 44.4243L83.8972 45.8335H92.1303H96.8076H114.697H115.567H118.055H122.197H123.8H126.659H129.546H134.861H135.256H140.382H153.867L143.663 44.7882Z" fill="#0C213A"/>
<path d="M197.031 31.5829C198.547 31.3602 200.013 30.6911 201.347 29.6307C201.692 29.3556 202.09 29.199 202.514 29.199C202.782 29.199 203.04 29.2622 203.281 29.3775C203.813 29.6335 204.263 30.149 204.557 30.8195C204.632 30.9908 204.764 31.0937 204.905 31.0937C205.097 31.0937 205.266 30.9052 205.308 30.6364C205.376 30.1949 205.481 29.7729 205.617 29.3775C206.258 27.5162 207.593 26.2366 209.137 26.2366C209.277 26.2366 209.416 26.2469 209.553 26.2682C209.703 26.291 209.851 26.3274 209.996 26.3738C210.004 26.3386 210.013 26.3032 210.021 26.2682C210.856 22.9511 213.069 20.5801 215.666 20.5801C216.046 20.5801 216.417 20.6307 216.777 20.7277C218.776 21.2647 220.425 23.2251 221.197 25.8488C221.272 26.1027 221.338 26.3628 221.396 26.6283C231.365 24.2571 234.582 29.7181 234.582 29.7181L253.103 32.9883H245.379H240.991H224.207H223.39H221.057H217.17H215.666H212.984H210.275H205.289H204.918H200.109H187.458L197.031 31.5829Z" fill="#0C213A"/>
<path d="M272.116 185.835H245.413V246.199H272.116V185.835Z" fill="#112E4C"/>
<path d="M273.704 185.835H243.824V187.931H273.704V185.835Z" fill="#112E4C"/>
<path d="M270.884 183.739H246.644V185.835H270.884V183.739Z" fill="#112E4C"/>
<path d="M256.368 183.739V174.285H254.276V183.739H256.368Z" fill="#112E4C"/>
<path d="M252.312 183.739V174.285H250.22V183.739H252.312Z" fill="#112E4C"/>
<path d="M268.861 174.324H259.468V183.739H268.861V174.324Z" fill="#112E4C"/>
<path d="M259.468 174.324H259.733V168.103H259.468V174.324Z" fill="#112E4C"/>
<path d="M262.594 174.324H262.86V168.103H262.594V174.324Z" fill="#112E4C"/>
<path d="M265.788 174.325V172.747H259.468V174.325H265.788Z" fill="#112E4C"/>
<path d="M262.86 171.465V171.199H259.468V171.465H262.86Z" fill="#112E4C"/>
<path d="M262.86 169.917V169.651H259.468V169.917H262.86Z" fill="#112E4C"/>
<path d="M254.038 173.648V174.285H256.607V173.648H254.038Z" fill="#112E4C"/>
<path d="M249.981 173.648V174.285H252.55V173.648H249.981Z" fill="#112E4C"/>
<path d="M66.382 246.199H93.0981L93.0981 186.785H66.382V246.199Z" fill="#112E4C"/>
<path d="M67.807 186.785H91.6731V181.2H67.807V186.785Z" fill="#112E4C"/>
<path d="M75.7932 181.2H83.7937V175.616H75.7932V181.2Z" fill="#112E4C"/>
<path d="M70.9872 181.2H72.9873V178.335H70.9872V181.2Z" fill="#112E4C"/>
<path d="M86.4928 181.2H88.4929V178.335H86.4928V181.2Z" fill="#112E4C"/>
<path d="M85.0331 181.2H85.2986V172.718H85.0331V181.2Z" fill="#112E4C"/>
<path d="M83.7937 174.643V174.876H87.4929V174.643H83.7937Z" fill="#112E4C"/>
<path d="M83.7937 173.479V173.712H87.4929V173.479H83.7937Z" fill="#112E4C"/>
<path d="M63.7179 186.785H95.762V185.389H63.7179V186.785Z" fill="#112E4C"/>
<path d="M65.3473 188.181H94.1328V186.785H65.3473V188.181Z" fill="#112E4C"/>
<path d="M272.306 246.199H300.652V173.349H272.306V246.199Z" fill="#0C213A"/>
<path d="M279.393 171.953H293.566V158.01H279.393V171.953Z" fill="#0C213A"/>
<path d="M283.05 158.01H289.908V146.916H283.05V158.01Z" fill="#0C213A"/>
<path d="M286.051 146.916H286.908V135.822H286.051V146.916Z" fill="#0C213A"/>
<path d="M280.945 157.151V158.01H292.013V157.151H280.945Z" fill="#0C213A"/>
<path d="M270.813 171.953V173.349H302.144V171.953H270.813Z" fill="#0C213A"/>
<path d="M268.668 246.199H272.306V190.682H268.668V246.199Z" fill="#0C213A"/>
<path d="M267.526 189.428V190.682H272.306V189.428H267.526Z" fill="#0C213A"/>
<path d="M304.29 190.682H300.652V246.199H304.29V190.682Z" fill="#0C213A"/>
<path d="M300.652 189.428V190.681H305.432V189.428H300.652Z" fill="#0C213A"/>
<path d="M296.942 167.359H297.208V161H296.942V167.359Z" fill="#0C213A"/>
<path d="M298.418 167.359H298.683V163.987H298.418V167.359Z" fill="#0C213A"/>
<path d="M299.177 167.359H296.448V171.953H299.177V167.359Z" fill="#0C213A"/>
<path d="M274.275 167.359H274.54V163.987H274.275V167.359Z" fill="#0C213A"/>
<path d="M275.75 167.359H276.016V161H275.75V167.359Z" fill="#0C213A"/>
<path d="M276.51 167.359H273.781V171.953H276.51V167.359Z" fill="#0C213A"/>
<path d="M294.44 160.001H278.518V161H294.44V160.001Z" fill="#0C213A"/>
<path d="M294.44 162.988H278.518V163.988H294.44V162.988Z" fill="#0C213A"/>
<path d="M294.44 165.975H278.518V166.974H294.44V165.975Z" fill="#0C213A"/>
<path d="M294.44 168.962H278.518V169.961H294.44V168.962Z" fill="#0C213A"/>
<path d="M278.002 174.947H275.674V179.633H278.002V174.947Z" fill="#6374FF"/>
<path d="M284.429 174.947H282.102V179.633H284.429V174.947Z" fill="#6374FF"/>
<path d="M290.856 174.947H288.529V179.633H290.856V174.947Z" fill="#6374FF"/>
<path d="M297.283 174.947H294.956V179.633H297.283V174.947Z" fill="#6374FF"/>
<path d="M278.002 182.197H275.674V186.883H278.002V182.197Z" fill="#6374FF"/>
<path d="M284.429 182.197H282.102V186.883H284.429V182.197Z" fill="#6374FF"/>
<path d="M290.856 182.197H288.529V186.883H290.856V182.197Z" fill="#6374FF"/>
<path d="M297.283 182.197H294.956V186.883H297.283V182.197Z" fill="#6374FF"/>
<path d="M274.48 193.67H271.186V200.304H274.48V193.67Z" fill="#6374FF"/>
<path d="M283.577 193.67H280.283V200.304H283.577V193.67Z" fill="#6374FF"/>
<path d="M292.675 193.67H289.381V200.304H292.675V193.67Z" fill="#6374FF"/>
<path d="M301.772 193.67H298.478V200.304H301.772V193.67Z" fill="#6374FF"/>
<path d="M274.48 204.086H271.186V210.719H274.48V204.086Z" fill="#6374FF"/>
<path d="M283.577 204.086H280.283V210.719H283.577V204.086Z" fill="#6374FF"/>
<path d="M292.675 204.086H289.381V210.719H292.675V204.086Z" fill="#6374FF"/>
<path d="M301.772 204.086H298.478V210.719H301.772V204.086Z" fill="#6374FF"/>
<path d="M274.48 214.502H271.186V221.135H274.48V214.502Z" fill="#6374FF"/>
<path d="M283.577 214.502H280.283V221.135H283.577V214.502Z" fill="#6374FF"/>
<path d="M292.675 214.502H289.381V221.135H292.675V214.502Z" fill="#6374FF"/>
<path d="M301.772 214.502H298.478V221.135H301.772V214.502Z" fill="#6374FF"/>
<path d="M274.48 224.918H271.186V231.551H274.48V224.918Z" fill="#6374FF"/>
<path d="M283.577 224.918H280.283V231.551H283.577V224.918Z" fill="#6374FF"/>
<path d="M292.675 224.918H289.381V231.551H292.675V224.918Z" fill="#6374FF"/>
<path d="M301.772 224.918H298.478V231.551H301.772V224.918Z" fill="#6374FF"/>
<path d="M274.48 235.333H271.186V241.967H274.48V235.333Z" fill="#6374FF"/>
<path d="M283.577 235.333H280.283V241.967H283.577V235.333Z" fill="#6374FF"/>
<path d="M292.675 235.333H289.381V241.967H292.675V235.333Z" fill="#6374FF"/>
<path d="M301.772 235.333H298.478V241.967H301.772V235.333Z" fill="#6374FF"/>
<path d="M36.3478 246.199H64.6938L64.6938 173.349H36.3478L36.3478 246.199Z" fill="#0C213A"/>
<path d="M43.4347 171.953H57.6077V158.01H43.4347V171.953Z" fill="#0C213A"/>
<path d="M47.0919 158.01H53.9497V146.916H47.0919V158.01Z" fill="#0C213A"/>
<path d="M50.0925 146.916H50.9497V135.822H50.0925V146.916Z" fill="#0C213A"/>
<path d="M44.9868 157.151V158.01H56.0553V157.151H44.9868Z" fill="#0C213A"/>
<path d="M34.8555 171.953V173.349H66.1864V171.953H34.8555Z" fill="#0C213A"/>
<path d="M32.71 246.199H36.3481L36.3481 190.682H32.71L32.71 246.199Z" fill="#0C213A"/>
<path d="M31.5684 189.428V190.681H36.3481V189.428H31.5684Z" fill="#0C213A"/>
<path d="M68.3322 190.682H64.6941V246.199H68.3322V190.682Z" fill="#0C213A"/>
<path d="M64.6941 189.428V190.681H69.4738V189.428H64.6941Z" fill="#0C213A"/>
<path d="M60.9841 167.359H61.2495V161H60.9841V167.359Z" fill="#0C213A"/>
<path d="M62.4597 167.359H62.7251V163.987H62.4597V167.359Z" fill="#0C213A"/>
<path d="M63.2188 167.359H60.4902V171.953H63.2188V167.359Z" fill="#0C213A"/>
<path d="M38.3166 167.359H38.582V163.987H38.3166V167.359Z" fill="#0C213A"/>
<path d="M39.7924 167.359H40.0579V161H39.7924V167.359Z" fill="#0C213A"/>
<path d="M40.5516 167.359H37.823V171.953H40.5516V167.359Z" fill="#0C213A"/>
<path d="M58.4818 160.001H42.5603V161H58.4818V160.001Z" fill="#0C213A"/>
<path d="M58.4818 162.988H42.5603V163.988H58.4818V162.988Z" fill="#0C213A"/>
<path d="M58.4818 165.975H42.5603V166.974H58.4818V165.975Z" fill="#0C213A"/>
<path d="M58.4818 168.962H42.5603V169.961H58.4818V168.962Z" fill="#0C213A"/>
<path d="M42.0435 174.947H39.7163V179.633H42.0435V174.947Z" fill="#6374FF"/>
<path d="M48.4707 174.947H46.1436V179.633H48.4707V174.947Z" fill="#6374FF"/>
<path d="M54.898 174.947H52.5708V179.633H54.898V174.947Z" fill="#6374FF"/>
<path d="M61.3255 174.947H58.9983V179.633H61.3255V174.947Z" fill="#6374FF"/>
<path d="M42.0435 182.197H39.7163V186.883H42.0435V182.197Z" fill="#6374FF"/>
<path d="M48.4707 182.197H46.1436V186.883H48.4707V182.197Z" fill="#6374FF"/>
<path d="M54.898 182.197H52.5708V186.883H54.898V182.197Z" fill="#6374FF"/>
<path d="M61.3255 182.197H58.9983V186.883H61.3255V182.197Z" fill="#6374FF"/>
<path d="M38.5222 193.67H35.2283V200.304H38.5222V193.67Z" fill="#6374FF"/>
<path d="M47.6194 193.67H44.3254V200.304H47.6194V193.67Z" fill="#6374FF"/>
<path d="M56.7166 193.67H53.4226V200.304H56.7166V193.67Z" fill="#6374FF"/>
<path d="M65.8135 193.67H62.5195V200.304H65.8135V193.67Z" fill="#6374FF"/>
<path d="M38.5222 204.086H35.2283V210.719H38.5222V204.086Z" fill="#6374FF"/>
<path d="M47.6194 204.086H44.3254V210.719H47.6194V204.086Z" fill="#6374FF"/>
<path d="M56.7166 204.086H53.4226V210.719H56.7166V204.086Z" fill="#6374FF"/>
<path d="M65.8135 204.086H62.5195V210.719H65.8135V204.086Z" fill="#6374FF"/>
<path d="M38.5222 214.502H35.2283V221.135H38.5222V214.502Z" fill="#6374FF"/>
<path d="M47.6194 214.502H44.3254V221.135H47.6194V214.502Z" fill="#6374FF"/>
<path d="M56.7166 214.502H53.4226V221.135H56.7166V214.502Z" fill="#6374FF"/>
<path d="M65.8135 214.502H62.5195V221.135H65.8135V214.502Z" fill="#6374FF"/>
<path d="M38.5222 224.918H35.2283V231.551H38.5222V224.918Z" fill="#6374FF"/>
<path d="M47.6194 224.918H44.3254V231.551H47.6194V224.918Z" fill="#6374FF"/>
<path d="M56.7166 224.918H53.4226V231.551H56.7166V224.918Z" fill="#6374FF"/>
<path d="M65.8135 224.918H62.5195V231.551H65.8135V224.918Z" fill="#6374FF"/>
<path d="M38.5222 235.333H35.2283V241.967H38.5222V235.333Z" fill="#6374FF"/>
<path d="M47.6194 235.333H44.3254V241.967H47.6194V235.333Z" fill="#6374FF"/>
<path d="M56.7166 235.333H53.4226V241.967H56.7166V235.333Z" fill="#6374FF"/>
<path d="M65.8135 235.333H62.5195V241.967H65.8135V235.333Z" fill="#6374FF"/>
<path d="M168.425 158.519C196.357 158.519 219 135.825 219 107.83C219 79.8346 196.357 57.1401 168.425 57.1401C140.493 57.1401 117.85 79.8346 117.85 107.83C117.85 135.825 140.493 158.519 168.425 158.519Z" fill="white"/>
<path d="M209.239 74.8889L203.723 80.4173C209.565 88.0149 213.039 97.5225 213.039 107.83C213.039 132.649 192.893 152.841 168.13 152.841C143.367 152.841 123.221 132.649 123.221 107.83C123.221 83.0106 143.367 62.819 168.13 62.819C181.215 62.819 193.009 68.456 201.217 77.4356L206.702 71.9384C197.08 61.5612 183.349 55.0544 168.13 55.0544C139.095 55.0544 115.474 78.7323 115.474 107.83C115.474 136.931 139.095 160.605 168.13 160.605C197.166 160.605 220.786 136.931 220.786 107.83C220.786 95.3795 216.463 83.923 209.239 74.8889Z" fill="#F0F2F5"/>
<path d="M168.13 147.553C146.276 147.553 128.497 129.733 128.497 107.83C128.497 85.9265 146.276 68.1067 168.13 68.1067C179.283 68.1067 189.992 72.8758 197.511 81.1909L196.65 81.9731C189.351 73.9009 178.956 69.2715 168.13 69.2715C146.917 69.2715 129.659 86.5688 129.659 107.83C129.659 129.091 146.917 146.389 168.13 146.389C189.343 146.389 206.601 129.091 206.601 107.83C206.601 99.5336 204 91.6226 199.077 84.9527L200.011 84.26C205.083 91.132 207.764 99.2823 207.764 107.83C207.764 129.733 189.984 147.553 168.13 147.553ZM168.13 139.789C150.548 139.789 136.244 125.452 136.244 107.83C136.244 90.2079 150.548 75.8713 168.13 75.8713C177.254 75.8713 185.964 79.8173 192.027 86.6976L191.156 87.4688C185.314 80.8386 176.921 77.0361 168.13 77.0361C151.189 77.0361 137.406 90.85 137.406 107.83C137.406 124.81 151.189 138.624 168.13 138.624C185.072 138.624 198.855 124.81 198.855 107.83C198.855 101.614 197.008 95.6212 193.514 90.4984L194.473 89.8409C198.1 95.1581 200.017 101.379 200.017 107.83C200.017 125.452 185.712 139.789 168.13 139.789Z" fill="#0C213A"/>
<path d="M189.763 94.409L184.069 100.116C185.2 102.449 185.832 105.066 185.832 107.83C185.832 117.613 177.891 125.572 168.13 125.572C158.369 125.572 150.428 117.613 150.428 107.83C150.428 98.0466 158.369 90.0881 168.13 90.0881C173.712 90.0881 178.701 92.6891 181.947 96.75L187.443 91.2411C182.776 85.7866 175.85 82.3235 168.13 82.3235C154.096 82.3235 142.681 93.7683 142.681 107.83C142.681 121.895 154.096 133.336 168.13 133.336C182.164 133.336 193.579 121.895 193.579 107.83C193.579 102.911 192.181 98.3067 189.763 94.409Z" fill="#F0F2F5"/>
<path d="M222.048 68.1529L234.821 55.3509L220.69 55.3493L220.689 41.1865L207.916 53.9885L204.174 69.1586L175.134 98.2637C173.172 96.8153 170.75 95.958 168.13 95.958C161.6 95.958 156.285 101.284 156.285 107.83C156.285 114.379 161.6 119.702 168.13 119.702C174.661 119.702 179.975 114.379 179.975 107.83C179.975 106.727 179.824 105.664 179.545 104.65C179.181 103.341 178.597 102.128 177.839 101.043L206.911 71.9058L222.048 68.1529ZM168.13 111.937C165.872 111.937 164.032 110.097 164.032 107.83C164.032 105.566 165.872 103.722 168.13 103.722C170.388 103.722 172.228 105.566 172.228 107.83C172.228 110.097 170.388 111.937 168.13 111.937Z" fill="#6374FF"/>
<path d="M162.083 155.371C162.003 155.392 161.883 155.386 161.713 155.29C161.712 155.292 161.712 155.295 161.711 155.297C161.708 155.305 161.703 155.316 161.699 155.332C161.696 155.338 161.694 155.344 161.691 155.35C161.663 155.408 161.62 155.459 161.566 155.496L161.227 155.733C161.203 155.749 161.178 155.763 161.15 155.771C161.137 155.776 161.122 155.779 161.109 155.781C161.088 155.785 161.065 155.785 161.044 155.784L160.958 155.777C160.924 155.796 160.887 155.806 160.85 155.806C160.833 155.806 160.814 155.803 160.798 155.8C160.744 155.786 160.695 155.753 160.661 155.702L160.632 155.655C160.58 155.714 160.506 155.746 160.43 155.746C160.411 155.746 160.394 155.745 160.377 155.742L159.972 155.658L159.682 155.598C159.677 155.597 159.671 155.596 159.666 155.595C159.491 155.552 159.363 155.402 159.345 155.222L159.244 154.165L161.543 153.722C161.543 153.722 161.785 154.028 161.834 154.558L162.163 155.169C162.205 155.247 162.168 155.348 162.083 155.371Z" fill="#FFC89F"/>
<path d="M167.255 156.95V164.204C167.255 164.419 167.082 164.593 166.868 164.593H154.817C154.603 164.593 154.429 164.419 154.429 164.204V156.95C154.429 156.735 154.603 156.561 154.817 156.561H166.868C167.082 156.561 167.255 156.735 167.255 156.95Z" fill="#0C213A"/>
<g opacity="0.4">
<path d="M167.255 156.799V157.969C167.143 158.043 167.009 158.085 166.864 158.085H154.82C154.676 158.085 154.542 158.043 154.429 157.969V156.799C154.429 156.584 154.603 156.411 154.817 156.411H166.868C167.082 156.411 167.255 156.584 167.255 156.799Z" fill="#0C213A"/>
</g>
<path d="M162.868 156.604H158.816V155.35C158.816 155.044 159.064 154.796 159.369 154.796H162.316C162.62 154.796 162.868 155.044 162.868 155.35V156.604ZM159.177 156.242H162.507V155.35C162.507 155.244 162.421 155.158 162.316 155.158H159.369C159.263 155.158 159.177 155.244 159.177 155.35V156.242Z" fill="#0C213A"/>
<path d="M167.421 155.997H154.264C154.176 155.997 154.105 156.068 154.105 156.156V157.223C154.105 157.618 154.425 157.939 154.82 157.939H166.865C167.259 157.939 167.579 157.618 167.579 157.223V156.156C167.579 156.068 167.508 155.997 167.421 155.997Z" fill="#0C213A"/>
<path d="M165.499 157.312H165.102V158.566H165.499V157.312Z" fill="#6374FF"/>
<path d="M156.583 157.312H156.186V158.566H156.583V157.312Z" fill="white"/>
<path d="M177.133 153.74L176.822 154.698L176.628 155.655C176.611 155.741 176.674 155.828 176.762 155.83C177.199 155.842 177.258 155.092 177.258 155.092C177.258 155.092 177.461 154.773 177.59 154.488L177.716 154.281C177.896 154.432 178.002 154.655 178.006 154.891L178.015 155.426L177.811 155.507C177.328 155.413 177.18 155.591 177.137 155.737C177.114 155.814 177.172 155.887 177.252 155.889C177.285 155.89 177.319 155.893 177.352 155.898C177.27 155.949 177.229 156.021 177.21 156.087C177.188 156.163 177.246 156.236 177.326 156.237C177.477 156.241 177.632 156.286 177.741 156.326C177.835 156.361 177.941 156.342 178.019 156.28L178.02 156.279C178.02 156.279 178.218 156.307 178.374 156.304C178.518 156.302 178.947 156.259 178.947 156.259C179.048 156.252 179.124 156.22 179.147 156.121L179.526 155.971C179.684 155.908 179.792 155.761 179.807 155.592L179.908 154.415L177.133 153.74Z" fill="#FFC89F"/>
<path d="M178.216 155.078C178.387 155.227 178.613 155.3 178.836 155.295C178.947 155.292 179.058 155.27 179.165 155.237C179.219 155.221 179.27 155.197 179.323 155.177L179.476 155.103L179.33 155.191C179.278 155.214 179.227 155.241 179.173 155.26C179.065 155.3 178.952 155.322 178.836 155.327C178.608 155.329 178.37 155.248 178.216 155.078Z" fill="#FF9A6C"/>
<path d="M178.319 155.746C178.341 155.563 178.373 155.385 178.397 155.202C178.41 155.295 178.402 155.388 178.389 155.479C178.373 155.57 178.354 155.661 178.319 155.746Z" fill="#FF9A6C"/>
<path d="M178.777 155.679C178.802 155.555 178.811 155.436 178.834 155.311C178.84 155.342 178.844 155.374 178.844 155.405C178.844 155.437 178.841 155.468 178.838 155.5C178.828 155.562 178.814 155.626 178.777 155.679Z" fill="#FF9A6C"/>
<path d="M177.902 155.855C177.809 155.85 177.717 155.846 177.625 155.854C177.579 155.855 177.534 155.862 177.488 155.869C177.443 155.876 177.398 155.887 177.352 155.898C177.393 155.876 177.437 155.856 177.483 155.845C177.529 155.832 177.576 155.826 177.623 155.822C177.717 155.817 177.813 155.824 177.902 155.855Z" fill="#FF9A6C"/>
<path d="M179.147 156.123C179.115 156.132 179.084 156.144 179.048 156.147C179.013 156.147 178.98 156.142 178.946 156.138C178.88 156.127 178.814 156.112 178.748 156.097C178.683 156.08 178.618 156.062 178.554 156.041C178.489 156.028 178.421 155.979 178.408 155.909C178.389 155.84 178.425 155.765 178.485 155.729C178.542 155.69 178.611 155.671 178.679 155.665C178.816 155.654 178.952 155.682 179.081 155.719L179.066 155.723C179.126 155.668 179.191 155.616 179.253 155.562L179.249 155.572C179.232 155.467 179.216 155.362 179.202 155.256L179.206 155.255C179.229 155.359 179.25 155.464 179.271 155.568L179.272 155.574L179.267 155.578C179.207 155.635 179.149 155.693 179.088 155.748L179.081 155.754L179.072 155.751C178.944 155.718 178.813 155.687 178.681 155.692C178.616 155.695 178.549 155.708 178.494 155.743C178.437 155.775 178.4 155.841 178.418 155.907C178.426 155.938 178.445 155.967 178.47 155.986C178.495 156.007 178.527 156.012 178.56 156.021L178.755 156.069C178.82 156.087 178.885 156.102 178.95 156.116C178.983 156.123 179.016 156.13 179.048 156.132C179.08 156.133 179.114 156.126 179.146 156.12L179.147 156.123Z" fill="#FF9A6C"/>
<path d="M178.02 156.279C177.97 156.271 177.92 156.265 177.87 156.255C177.82 156.244 177.77 156.213 177.743 156.166C177.685 156.072 177.718 155.936 177.814 155.88C177.904 155.823 178.01 155.81 178.111 155.808C178.213 155.806 178.314 155.819 178.413 155.835C178.312 155.828 178.212 155.825 178.112 155.831C178.014 155.839 177.911 155.852 177.83 155.906C177.752 155.956 177.718 156.069 177.767 156.152C177.81 156.244 177.927 156.248 178.02 156.279Z" fill="#FF9A6C"/>
<path d="M161.561 154.764V154.71C161.561 154.612 161.476 154.536 161.38 154.551C161.326 154.559 161.262 154.586 161.192 154.648C161.192 154.546 161.094 154.457 160.997 154.491C160.832 154.551 160.772 154.709 160.772 154.709C160.772 154.606 160.676 154.525 160.579 154.553C160.447 154.59 160.289 154.751 160.244 155.275L159.994 155.238L159.666 155.595C159.671 155.596 159.677 155.597 159.682 155.599L159.972 155.658L160.377 155.742C160.394 155.745 160.411 155.747 160.43 155.747C160.506 155.747 160.58 155.715 160.632 155.655L160.661 155.702C160.694 155.753 160.744 155.786 160.798 155.8C160.814 155.804 160.832 155.806 160.85 155.806C160.887 155.806 160.924 155.796 160.958 155.778L161.044 155.784C161.065 155.785 161.087 155.785 161.108 155.781C161.122 155.779 161.137 155.776 161.15 155.772C161.177 155.763 161.203 155.749 161.227 155.733L161.565 155.496C161.619 155.459 161.663 155.409 161.691 155.351C161.693 155.344 161.696 155.338 161.698 155.332C161.703 155.316 161.708 155.305 161.711 155.297C161.712 155.293 161.713 155.29 161.713 155.29L161.561 154.764Z" fill="#FFC89F"/>
<path d="M160.772 154.709C160.768 154.613 160.672 154.537 160.587 154.564C160.501 154.589 160.436 154.661 160.393 154.74C160.348 154.82 160.32 154.909 160.297 155C160.275 155.09 160.259 155.182 160.244 155.275C160.249 155.088 160.276 154.896 160.364 154.724C160.412 154.642 160.483 154.562 160.581 154.54C160.631 154.528 160.685 154.545 160.72 154.579C160.756 154.613 160.775 154.662 160.772 154.709Z" fill="#FF9A6C"/>
<path d="M161.192 154.648C161.181 154.547 161.076 154.466 160.989 154.512C160.943 154.529 160.902 154.558 160.866 154.591C160.83 154.625 160.797 154.664 160.772 154.709C160.801 154.61 160.878 154.523 160.977 154.482C161.027 154.458 161.094 154.468 161.134 154.506C161.176 154.541 161.198 154.597 161.192 154.648Z" fill="#FF9A6C"/>
<path d="M161.562 154.764C161.556 154.719 161.555 154.673 161.531 154.638C161.509 154.602 161.473 154.575 161.433 154.568C161.394 154.558 161.351 154.57 161.31 154.585C161.269 154.601 161.23 154.623 161.192 154.648C161.222 154.614 161.258 154.584 161.3 154.562C161.341 154.542 161.39 154.527 161.44 154.537C161.489 154.548 161.532 154.582 161.552 154.626C161.576 154.671 161.567 154.72 161.562 154.764Z" fill="#FF9A6C"/>
<path d="M161.713 155.29C161.675 155.206 161.649 155.119 161.622 155.032C161.598 154.943 161.574 154.856 161.562 154.764C161.6 154.848 161.626 154.936 161.653 155.023C161.676 155.111 161.701 155.199 161.713 155.29Z" fill="#FF9A6C"/>
<path d="M160.632 155.655C160.662 155.498 160.694 155.342 160.716 155.184C160.743 155.026 160.758 154.868 160.772 154.708C160.785 154.869 160.771 155.03 160.748 155.189C160.722 155.347 160.688 155.505 160.632 155.655Z" fill="#FF9A6C"/>
<path d="M160.251 155.202C160.187 155.242 160.108 155.248 160.034 155.243C159.997 155.238 159.96 155.232 159.925 155.22C159.89 155.208 159.856 155.191 159.825 155.172C159.897 155.188 159.966 155.206 160.037 155.211C160.073 155.216 160.108 155.216 160.144 155.215C160.179 155.213 160.215 155.211 160.251 155.202Z" fill="#FF9A6C"/>
<path d="M161.033 155.724C161.098 155.366 161.166 155.011 161.192 154.648C161.205 154.83 161.185 155.013 161.159 155.193C161.128 155.372 161.091 155.551 161.033 155.724Z" fill="#FF9A6C"/>
<path d="M161.377 155.509C161.446 155.262 161.501 155.014 161.562 154.764C161.558 154.828 161.552 154.892 161.541 154.956C161.532 155.019 161.518 155.082 161.504 155.145C161.471 155.269 161.435 155.394 161.377 155.509Z" fill="#FF9A6C"/>
<path d="M167.391 178.437C167.647 179.708 167.174 180.418 167.174 180.418C167.178 180.423 167.181 180.427 167.185 180.431C167.493 180.815 167.211 181.388 166.719 181.388H163.406C162.642 181.388 162.864 180.675 162.864 180.675C162.581 179.881 163.129 179.689 163.129 179.689L163.805 178.501C163.602 178.297 163.724 177.773 163.724 177.773C163.577 176.826 164.091 176.801 164.091 176.801V177.594C164.091 177.594 164.091 177.594 164.091 177.593C164.111 177.571 164.775 176.873 165.77 176.742C166.781 176.61 167.126 177.399 167.126 177.399V176.742C167.868 176.908 167.468 177.808 167.468 177.808C167.552 178.139 167.391 178.437 167.391 178.437Z" fill="#6374FF"/>
<path d="M166.719 181.387H163.406C162.642 181.387 162.864 180.675 162.864 180.675C163.247 180.637 163.763 180.418 163.763 180.418C165.01 180.685 167.174 180.418 167.174 180.418C167.178 180.423 167.181 180.427 167.185 180.431C167.492 180.815 167.211 181.387 166.719 181.387Z" fill="#F0F2F5"/>
<path d="M167.391 178.437C167.391 178.437 165.747 176.761 163.805 178.501C163.602 178.297 163.724 177.773 163.724 177.773L164.091 177.594C164.091 177.594 164.091 177.594 164.091 177.593C164.111 177.571 164.775 176.873 165.77 176.742C166.781 176.61 167.126 177.399 167.126 177.399L167.468 177.808C167.552 178.139 167.391 178.437 167.391 178.437Z" fill="#F0F2F5"/>
<path d="M163.763 180.491C163.726 180.491 163.695 180.464 163.69 180.426C163.683 180.363 163.528 178.863 164.119 178.08C164.143 178.048 164.189 178.041 164.221 178.066C164.253 178.09 164.259 178.136 164.235 178.168C163.679 178.905 163.833 180.396 163.835 180.411C163.839 180.45 163.81 180.486 163.77 180.491C163.768 180.491 163.765 180.491 163.763 180.491Z" fill="#F0F2F5"/>
<path d="M163.594 180.592C163.581 180.592 163.567 180.589 163.555 180.581C163.159 180.332 163.061 179.726 163.057 179.7C163.05 179.66 163.077 179.623 163.117 179.617C163.157 179.611 163.194 179.638 163.2 179.678C163.201 179.683 163.292 180.245 163.632 180.458C163.666 180.479 163.677 180.524 163.655 180.558C163.642 180.58 163.618 180.592 163.594 180.592Z" fill="#F0F2F5"/>
<path d="M171.117 178.437C170.862 179.708 171.334 180.418 171.334 180.418C171.331 180.423 171.328 180.427 171.324 180.431C171.016 180.815 171.297 181.388 171.79 181.388H175.103C175.867 181.388 175.645 180.675 175.645 180.675C175.928 179.881 175.38 179.689 175.38 179.689L174.703 178.501C174.907 178.297 174.785 177.773 174.785 177.773C174.932 176.826 174.259 176.793 174.259 176.793L174.418 177.594C174.418 177.594 174.418 177.594 174.418 177.593C174.397 177.571 173.734 176.873 172.739 176.742C171.728 176.61 171.383 177.399 171.383 177.399V176.742C170.641 176.908 171.041 177.808 171.041 177.808C170.956 178.139 171.117 178.437 171.117 178.437Z" fill="#6374FF"/>
<path d="M171.79 181.387H175.103C175.867 181.387 175.645 180.675 175.645 180.675C175.262 180.637 174.746 180.418 174.746 180.418C173.499 180.685 171.334 180.418 171.334 180.418C171.331 180.423 171.328 180.427 171.324 180.431C171.016 180.815 171.298 181.387 171.79 181.387Z" fill="#F0F2F5"/>
<path d="M171.117 178.437C171.117 178.437 172.762 176.761 174.703 178.501C174.907 178.297 174.785 177.773 174.785 177.773L174.418 177.594C174.418 177.594 174.418 177.594 174.418 177.593C174.398 177.571 173.734 176.873 172.739 176.742C171.728 176.61 171.383 177.399 171.383 177.399L171.041 177.808C170.956 178.139 171.117 178.437 171.117 178.437Z" fill="#F0F2F5"/>
<path d="M174.746 180.491C174.783 180.491 174.814 180.464 174.818 180.426C174.825 180.363 174.98 178.863 174.39 178.08C174.365 178.048 174.32 178.041 174.288 178.066C174.256 178.09 174.25 178.136 174.274 178.168C174.83 178.905 174.676 180.396 174.674 180.411C174.67 180.45 174.698 180.486 174.738 180.491C174.741 180.491 174.744 180.491 174.746 180.491Z" fill="#F0F2F5"/>
<path d="M174.915 180.592C174.928 180.592 174.941 180.589 174.953 180.581C175.35 180.332 175.448 179.726 175.452 179.7C175.458 179.66 175.431 179.623 175.391 179.617C175.352 179.611 175.315 179.638 175.308 179.678C175.308 179.683 175.216 180.245 174.876 180.458C174.842 180.479 174.832 180.524 174.853 180.558C174.867 180.58 174.891 180.592 174.915 180.592Z" fill="#F0F2F5"/>
<path d="M170.541 129.195H167.531V132.474H170.541V129.195Z" fill="#FFC89F"/>
<path d="M168.993 130.925C167.679 130.925 166.615 129.858 166.615 128.542V125.63C166.615 124.314 167.679 123.247 168.993 123.247C170.306 123.247 171.371 124.314 171.371 125.63V128.542C171.371 129.858 170.306 130.925 168.993 130.925Z" fill="#FFC89F"/>
<path d="M166.531 128.447H166.655C166.9 128.447 167.097 128.249 167.097 128.004V127.212C167.097 126.967 166.899 126.769 166.655 126.769H166.531C166.287 126.769 166.089 126.968 166.089 127.212V128.004C166.089 128.249 166.287 128.447 166.531 128.447Z" fill="#FFC89F"/>
<path d="M171.33 128.447H171.454C171.698 128.447 171.896 128.249 171.896 128.004V127.212C171.896 126.967 171.698 126.769 171.454 126.769H171.33C171.086 126.769 170.888 126.968 170.888 127.212V128.004C170.888 128.249 171.086 128.447 171.33 128.447Z" fill="#FFC89F"/>
<path d="M171.315 124.198C171.315 124.198 171.098 123.365 170.503 123.035C170.503 123.035 170.604 123.162 170.652 123.331C170.652 123.331 169.954 122.533 167.96 122.875L168.131 122.909C168.131 122.909 167.094 123.036 166.714 123.642C166.714 123.642 165.261 124.151 165.985 126.912L166.124 126.808C166.124 126.808 166.042 127.425 166.345 128.146L166.372 128.057C166.372 128.057 166.537 128.875 167.513 129.599C167.513 129.599 167.49 129.548 167.476 129.49C167.476 129.49 167.634 129.703 168.117 129.945C168.117 129.945 167.99 129.76 167.912 129.478C167.912 129.478 168.187 129.825 168.654 130.126C168.654 130.126 168.631 129.821 168.495 129.452C168.495 129.452 168.773 129.838 168.922 130.157L169.271 129.863C169.229 130.006 169.19 130.126 169.19 130.126C169.657 129.825 169.838 129.446 169.838 129.446C169.734 129.775 169.607 129.995 169.607 129.995C170.269 129.616 170.487 129.168 170.487 129.168C170.447 129.412 170.323 129.597 170.323 129.597C170.943 129.3 171.036 128.458 171.036 128.458C171.067 128.778 170.963 129.037 170.963 129.037C171.39 128.717 171.394 128.039 171.394 128.039L171.456 128.116C171.759 127.395 171.722 126.869 171.722 126.869L171.928 125.824L172.047 125.958C172.124 124.42 171.315 124.198 171.315 124.198Z" fill="#1B1A2E"/>
<path d="M171.057 124.308C170.937 124.357 170.819 124.409 170.702 124.463C170.585 124.517 170.469 124.573 170.354 124.633C170.24 124.692 170.127 124.753 170.015 124.818C169.958 124.849 169.903 124.883 169.848 124.916C169.792 124.948 169.738 124.985 169.682 125.018C169.733 124.978 169.785 124.938 169.838 124.9C169.891 124.863 169.944 124.827 169.999 124.792C170.108 124.722 170.222 124.658 170.337 124.599C170.452 124.539 170.57 124.484 170.69 124.436C170.75 124.411 170.811 124.388 170.872 124.366C170.933 124.346 170.995 124.324 171.057 124.308Z" fill="#0C213A"/>
<path d="M171.451 125.115C171.402 125.076 171.351 125.038 171.297 125.005C171.27 124.988 171.243 124.973 171.216 124.957L171.133 124.912C171.02 124.857 170.902 124.813 170.78 124.784C170.72 124.766 170.658 124.76 170.596 124.749C170.534 124.745 170.472 124.737 170.409 124.741C170.283 124.738 170.159 124.763 170.035 124.788C170.065 124.778 170.095 124.768 170.126 124.759C170.156 124.75 170.186 124.74 170.218 124.735L170.313 124.719C170.344 124.713 170.376 124.714 170.408 124.711C170.472 124.704 170.536 124.711 170.6 124.713C170.663 124.722 170.728 124.729 170.79 124.746C170.914 124.777 171.035 124.823 171.146 124.886C171.258 124.949 171.363 125.024 171.451 125.115Z" fill="#0C213A"/>
<path d="M169.682 125.018C169.64 124.94 169.585 124.87 169.525 124.807C169.464 124.745 169.397 124.688 169.324 124.641C169.306 124.628 169.287 124.618 169.269 124.607L169.241 124.59L169.211 124.575C169.192 124.566 169.173 124.555 169.153 124.546C169.133 124.538 169.112 124.529 169.092 124.521L169.062 124.508L169.031 124.497L168.969 124.477C168.927 124.463 168.883 124.454 168.841 124.441C168.885 124.446 168.929 124.451 168.973 124.458L169.038 124.474L169.071 124.482L169.103 124.493C169.189 124.518 169.269 124.561 169.345 124.609C169.42 124.658 169.489 124.718 169.547 124.787C169.576 124.822 169.602 124.859 169.626 124.896C169.648 124.935 169.669 124.975 169.682 125.018Z" fill="#0C213A"/>
<path d="M170.035 124.788C170.013 124.722 169.982 124.661 169.949 124.601C169.915 124.543 169.878 124.485 169.835 124.433C169.792 124.381 169.747 124.33 169.697 124.284C169.648 124.237 169.594 124.195 169.54 124.151C169.57 124.167 169.601 124.183 169.631 124.201C169.66 124.22 169.69 124.238 169.716 124.261C169.772 124.304 169.82 124.355 169.865 124.409C169.909 124.464 169.946 124.524 169.975 124.588C170.005 124.651 170.027 124.719 170.035 124.788Z" fill="#0C213A"/>
<path d="M170.312 124.633C170.349 124.589 170.376 124.539 170.397 124.488C170.417 124.436 170.431 124.383 170.437 124.328C170.439 124.3 170.442 124.273 170.44 124.245C170.441 124.217 170.437 124.19 170.435 124.162C170.433 124.134 170.426 124.107 170.422 124.078C170.417 124.05 170.409 124.023 170.404 123.995C170.417 124.02 170.428 124.046 170.44 124.073C170.449 124.101 170.46 124.128 170.465 124.157C170.478 124.214 170.48 124.273 170.476 124.332C170.468 124.39 170.452 124.448 170.424 124.5C170.397 124.553 170.359 124.6 170.312 124.633Z" fill="#0C213A"/>
<path d="M170.035 124.788C170.041 124.655 170.02 124.522 169.982 124.396C169.944 124.27 169.888 124.151 169.818 124.04C169.78 123.986 169.745 123.93 169.7 123.881C169.679 123.857 169.66 123.829 169.636 123.807L169.567 123.736C169.545 123.711 169.52 123.69 169.495 123.668L169.42 123.603C169.368 123.562 169.314 123.523 169.262 123.482C169.319 123.516 169.375 123.551 169.431 123.588L169.51 123.65C169.537 123.67 169.564 123.69 169.588 123.714C169.637 123.76 169.686 123.806 169.728 123.858C169.774 123.907 169.811 123.964 169.85 124.019C169.921 124.134 169.978 124.258 170.011 124.389L170.023 124.438L170.031 124.488C170.038 124.521 170.04 124.554 170.044 124.588C170.047 124.654 170.047 124.722 170.035 124.788Z" fill="#0C213A"/>
<path d="M169.403 127.542C169.437 127.451 169.47 127.361 169.498 127.269C169.528 127.177 169.555 127.085 169.58 126.992C169.629 126.806 169.67 126.618 169.699 126.428C169.732 126.239 169.745 126.047 169.751 125.855L169.751 125.711C169.751 125.663 169.746 125.615 169.744 125.567L169.74 125.495C169.739 125.471 169.735 125.448 169.732 125.424L169.715 125.28C169.755 125.469 169.78 125.662 169.78 125.856C169.781 126.049 169.767 126.243 169.737 126.434C169.705 126.625 169.664 126.815 169.608 127C169.552 127.185 169.487 127.367 169.403 127.542Z" fill="#0C213A"/>
<path d="M169.445 128.66C169.502 128.621 169.553 128.574 169.601 128.525C169.624 128.5 169.648 128.476 169.67 128.449C169.681 128.435 169.692 128.423 169.703 128.409L169.733 128.368C169.814 128.257 169.88 128.136 169.933 128.01C169.957 127.945 169.983 127.882 169.999 127.815C170.008 127.782 170.021 127.75 170.027 127.716L170.049 127.615C170.058 127.582 170.061 127.548 170.066 127.513L170.081 127.411C170.088 127.342 170.092 127.273 170.099 127.204C170.1 127.273 170.101 127.343 170.1 127.413L170.09 127.517C170.087 127.551 170.085 127.586 170.078 127.62C170.067 127.689 170.055 127.758 170.035 127.825C170.018 127.893 169.992 127.958 169.968 128.024C169.913 128.153 169.845 128.277 169.757 128.386C169.669 128.494 169.567 128.593 169.445 128.66Z" fill="#0C213A"/>
<path d="M169.445 128.66C169.318 128.536 169.218 128.387 169.129 128.233C169.04 128.078 168.97 127.914 168.908 127.747C168.882 127.662 168.852 127.578 168.832 127.491C168.822 127.447 168.809 127.405 168.8 127.361C168.791 127.318 168.783 127.274 168.775 127.23L168.763 127.164L168.755 127.098L168.738 126.966C168.73 126.878 168.726 126.789 168.721 126.7C168.734 126.788 168.742 126.876 168.756 126.964L168.779 127.094L168.79 127.16L168.804 127.224C168.814 127.267 168.824 127.311 168.833 127.354C168.842 127.397 168.855 127.439 168.866 127.482C168.887 127.567 168.918 127.65 168.944 127.734C169.002 127.901 169.073 128.063 169.155 128.219C169.175 128.258 169.196 128.297 169.219 128.334C169.24 128.373 169.264 128.41 169.288 128.447C169.336 128.521 169.387 128.593 169.445 128.66Z" fill="#0C213A"/>
<path d="M168.945 129.412C168.982 129.321 169.012 129.227 169.038 129.133C169.064 129.038 169.088 128.943 169.104 128.847C169.122 128.751 169.136 128.654 169.144 128.556C169.155 128.458 169.157 128.36 169.161 128.261C169.166 128.31 169.171 128.36 169.174 128.409C169.174 128.459 169.176 128.508 169.174 128.558C169.172 128.657 169.159 128.756 169.142 128.854C169.124 128.952 169.099 129.048 169.067 129.142C169.05 129.189 169.032 129.235 169.013 129.28C168.992 129.325 168.971 129.37 168.945 129.412Z" fill="#0C213A"/>
<path d="M168.945 129.412C168.885 129.393 168.83 129.361 168.78 129.325C168.728 129.288 168.682 129.246 168.639 129.2C168.598 129.153 168.558 129.104 168.527 129.049C168.51 129.023 168.497 128.994 168.482 128.967C168.469 128.938 168.458 128.91 168.447 128.88C168.482 128.932 168.515 128.983 168.552 129.032L168.579 129.069L168.608 129.105C168.627 129.129 168.647 129.151 168.668 129.174C168.708 129.219 168.752 129.261 168.798 129.301C168.844 129.341 168.892 129.379 168.945 129.412Z" fill="#0C213A"/>
<path d="M169.445 129.579C169.48 129.505 169.513 129.43 169.543 129.353C169.575 129.278 169.604 129.201 169.632 129.124C169.689 128.971 169.741 128.815 169.788 128.659C169.838 128.503 169.881 128.345 169.924 128.186C169.967 128.028 170.006 127.869 170.046 127.709C170.033 127.79 170.019 127.871 170.005 127.952C169.987 128.033 169.972 128.113 169.953 128.193C169.935 128.274 169.915 128.353 169.893 128.433C169.872 128.512 169.849 128.591 169.825 128.67C169.774 128.826 169.722 128.983 169.66 129.135C169.597 129.287 169.53 129.438 169.445 129.579Z" fill="#0C213A"/>
<path d="M169.02 126.019C168.979 126.068 168.938 126.117 168.9 126.167C168.86 126.217 168.821 126.267 168.783 126.318C168.708 126.42 168.634 126.524 168.565 126.63C168.497 126.736 168.433 126.846 168.374 126.958C168.347 127.015 168.318 127.071 168.295 127.131C168.268 127.188 168.25 127.249 168.228 127.309C168.253 127.184 168.296 127.062 168.348 126.945C168.401 126.829 168.465 126.717 168.533 126.609C168.604 126.502 168.679 126.398 168.76 126.3C168.841 126.202 168.927 126.106 169.02 126.019Z" fill="#0C213A"/>
<path d="M168.227 127.309C168.157 127.072 168.124 126.824 168.129 126.575C168.134 126.327 168.185 126.076 168.3 125.853C168.359 125.742 168.434 125.64 168.522 125.551C168.612 125.464 168.715 125.391 168.825 125.332C168.881 125.306 168.937 125.277 168.996 125.258C169.025 125.248 169.054 125.235 169.084 125.227L169.174 125.203C169.203 125.194 169.234 125.188 169.264 125.183L169.356 125.166C169.417 125.157 169.478 125.152 169.54 125.146C169.296 125.178 169.054 125.243 168.839 125.359C168.734 125.42 168.633 125.49 168.547 125.576C168.462 125.663 168.391 125.763 168.334 125.871C168.219 126.086 168.17 126.332 168.158 126.576C168.152 126.699 168.156 126.822 168.169 126.945C168.18 127.067 168.199 127.189 168.227 127.309Z" fill="#0C213A"/>
<path d="M166.445 125.28C166.644 125.184 166.861 125.129 167.079 125.089C167.297 125.05 167.519 125.036 167.74 125.034C167.851 125.039 167.962 125.04 168.072 125.053C168.127 125.058 168.182 125.062 168.237 125.069C168.292 125.077 168.347 125.086 168.402 125.094L168.483 125.108L168.564 125.125L168.727 125.16C168.834 125.188 168.94 125.22 169.045 125.251C168.937 125.228 168.83 125.2 168.722 125.179L168.56 125.149L168.479 125.134L168.397 125.124C168.342 125.117 168.288 125.11 168.233 125.102C168.179 125.096 168.124 125.093 168.069 125.088C167.96 125.076 167.85 125.077 167.74 125.073C167.52 125.072 167.301 125.086 167.083 125.118C167.029 125.126 166.975 125.135 166.921 125.146C166.867 125.156 166.813 125.169 166.76 125.182C166.653 125.208 166.547 125.239 166.445 125.28Z" fill="#0C213A"/>
<path d="M166.842 127.488C166.774 127.318 166.744 127.133 166.743 126.95C166.743 126.765 166.78 126.581 166.852 126.41C166.888 126.325 166.935 126.245 166.989 126.17C167.042 126.095 167.103 126.025 167.171 125.963L167.222 125.917C167.24 125.902 167.258 125.888 167.276 125.874C167.311 125.845 167.35 125.82 167.387 125.794C167.425 125.768 167.466 125.746 167.505 125.723C167.545 125.701 167.586 125.681 167.627 125.661C167.469 125.751 167.32 125.857 167.192 125.984C167.175 126 167.16 126.016 167.145 126.033C167.13 126.05 167.114 126.066 167.1 126.083C167.072 126.118 167.042 126.153 167.018 126.19C166.966 126.264 166.922 126.343 166.887 126.426C166.814 126.59 166.778 126.77 166.773 126.95C166.769 127.04 166.774 127.131 166.786 127.221C166.797 127.311 166.815 127.4 166.842 127.488Z" fill="#0C213A"/>
<path d="M166.415 126.539C166.476 126.471 166.541 126.409 166.609 126.347C166.675 126.286 166.745 126.228 166.816 126.172C166.888 126.116 166.962 126.062 167.038 126.013C167.114 125.963 167.192 125.917 167.274 125.877C167.238 125.905 167.2 125.929 167.164 125.957C167.127 125.983 167.091 126.01 167.055 126.037C166.983 126.092 166.911 126.146 166.84 126.202L166.415 126.539Z" fill="#0C213A"/>
<path d="M166.194 126.623C166.21 126.478 166.244 126.334 166.286 126.193C166.328 126.053 166.384 125.916 166.448 125.784C166.515 125.652 166.595 125.527 166.687 125.412C166.78 125.298 166.89 125.198 167.01 125.115C166.957 125.166 166.898 125.209 166.851 125.265C166.827 125.292 166.8 125.317 166.777 125.346L166.71 125.431C166.624 125.548 166.546 125.67 166.482 125.801C166.416 125.93 166.362 126.065 166.314 126.202C166.289 126.271 166.267 126.341 166.248 126.411C166.227 126.481 166.21 126.552 166.194 126.623Z" fill="#0C213A"/>
<path d="M166.842 127.488C166.869 127.378 166.912 127.273 166.961 127.171C167.011 127.069 167.071 126.972 167.14 126.881C167.208 126.791 167.288 126.709 167.377 126.637C167.465 126.566 167.566 126.511 167.67 126.469C167.622 126.5 167.571 126.522 167.527 126.558C167.505 126.574 167.481 126.589 167.459 126.606L167.396 126.66C167.314 126.735 167.236 126.815 167.17 126.905C167.103 126.993 167.042 127.087 166.987 127.184C166.96 127.233 166.934 127.283 166.91 127.334C166.885 127.384 166.863 127.435 166.842 127.488Z" fill="#0C213A"/>
<path d="M167.203 128.915C167.075 128.811 166.976 128.676 166.894 128.533C166.811 128.39 166.752 128.235 166.706 128.076C166.687 127.996 166.667 127.916 166.656 127.834C166.641 127.753 166.635 127.671 166.63 127.588C166.626 127.547 166.627 127.506 166.627 127.465L166.628 127.342C166.633 127.26 166.641 127.178 166.649 127.097C166.649 127.179 166.646 127.261 166.646 127.342L166.651 127.464C166.653 127.505 166.654 127.546 166.66 127.586C166.664 127.627 166.669 127.667 166.672 127.708C166.675 127.748 166.685 127.788 166.691 127.828C166.702 127.909 166.724 127.987 166.743 128.066C166.786 128.223 166.844 128.375 166.92 128.519C166.938 128.555 166.957 128.591 166.979 128.625C167 128.66 167.023 128.694 167.046 128.727C167.093 128.794 167.144 128.858 167.203 128.915Z" fill="#0C213A"/>
<path d="M167.203 128.915C167.164 128.767 167.146 128.615 167.137 128.462C167.129 128.31 167.132 128.157 167.156 128.006L167.165 128.233C167.168 128.309 167.171 128.385 167.175 128.46C167.183 128.612 167.194 128.762 167.203 128.915Z" fill="#0C213A"/>
<path d="M168.495 129.452C168.398 129.362 168.317 129.256 168.245 129.146C168.172 129.035 168.109 128.918 168.055 128.797C168.004 128.675 167.956 128.551 167.924 128.423C167.905 128.36 167.893 128.294 167.878 128.23C167.866 128.165 167.857 128.1 167.848 128.034C167.88 128.162 167.911 128.29 167.952 128.414L167.982 128.508L168.017 128.6C168.038 128.661 168.065 128.721 168.09 128.781C168.143 128.901 168.203 129.017 168.269 129.13C168.302 129.187 168.338 129.241 168.375 129.295C168.412 129.349 168.452 129.402 168.495 129.452Z" fill="#0C213A"/>
<path d="M167.429 123.642C167.51 123.557 167.61 123.492 167.715 123.439C167.82 123.386 167.932 123.347 168.046 123.319C168.161 123.296 168.278 123.278 168.395 123.278C168.424 123.277 168.454 123.278 168.483 123.279L168.57 123.283C168.629 123.289 168.686 123.298 168.744 123.306C168.686 123.306 168.628 123.302 168.57 123.302L168.483 123.304C168.454 123.304 168.425 123.305 168.396 123.308C168.367 123.311 168.339 123.313 168.31 123.315C168.281 123.317 168.253 123.323 168.224 123.326C168.167 123.332 168.111 123.346 168.055 123.357C167.943 123.384 167.833 123.42 167.727 123.466C167.701 123.477 167.675 123.489 167.649 123.503C167.623 123.515 167.598 123.53 167.573 123.544C167.523 123.573 167.475 123.605 167.429 123.642Z" fill="#0C213A"/>
<path d="M167.429 123.642C167.494 123.619 167.562 123.607 167.631 123.598C167.699 123.589 167.768 123.586 167.836 123.585C167.905 123.585 167.973 123.588 168.042 123.594C168.076 123.597 168.11 123.602 168.144 123.606C168.178 123.612 168.211 123.618 168.245 123.625C168.176 123.626 168.108 123.625 168.04 123.624C167.972 123.624 167.904 123.622 167.837 123.623C167.769 123.624 167.701 123.625 167.633 123.628C167.565 123.631 167.497 123.634 167.429 123.642Z" fill="#0C213A"/>
<path d="M166.403 124.316C166.44 124.193 166.51 124.081 166.59 123.98C166.67 123.879 166.766 123.791 166.869 123.713C166.922 123.676 166.975 123.638 167.031 123.608C167.087 123.575 167.145 123.547 167.204 123.521C167.233 123.507 167.263 123.496 167.293 123.485L167.383 123.451C167.445 123.433 167.506 123.416 167.568 123.4C167.509 123.424 167.449 123.444 167.39 123.469L167.302 123.507C167.273 123.52 167.244 123.532 167.216 123.548L167.132 123.591C167.103 123.605 167.077 123.624 167.05 123.639C166.995 123.67 166.944 123.708 166.892 123.744C166.791 123.82 166.696 123.904 166.613 123.999C166.592 124.023 166.571 124.047 166.552 124.072C166.532 124.097 166.514 124.123 166.496 124.15C166.46 124.202 166.428 124.257 166.403 124.316Z" fill="#0C213A"/>
<path d="M166.445 125.28C166.465 125.234 166.493 125.191 166.52 125.149C166.548 125.107 166.579 125.067 166.611 125.028C166.676 124.95 166.748 124.879 166.827 124.815C166.906 124.752 166.988 124.693 167.078 124.646C167.122 124.621 167.168 124.6 167.214 124.579C167.26 124.559 167.308 124.542 167.355 124.526C167.266 124.573 167.177 124.617 167.093 124.671C167.008 124.724 166.928 124.783 166.851 124.845C166.773 124.907 166.702 124.976 166.633 125.047C166.565 125.12 166.501 125.197 166.445 125.28Z" fill="#0C213A"/>
<path d="M166.403 124.316C166.53 124.249 166.664 124.197 166.8 124.152C166.936 124.107 167.075 124.072 167.216 124.045C167.287 124.031 167.358 124.022 167.429 124.012L167.536 124.001L167.59 123.997L167.643 123.995C167.787 123.986 167.93 123.995 168.072 124.01C168.001 124.013 167.929 124.007 167.858 124.012L167.752 124.016L167.645 124.025C167.504 124.037 167.363 124.056 167.223 124.083C167.084 124.109 166.945 124.142 166.808 124.181C166.74 124.2 166.672 124.221 166.604 124.244C166.536 124.265 166.469 124.29 166.403 124.316Z" fill="#0C213A"/>
<path d="M168.682 128.962C168.557 128.945 168.438 128.891 168.332 128.821C168.226 128.749 168.135 128.656 168.061 128.552C167.985 128.448 167.929 128.332 167.885 128.212C167.841 128.092 167.809 127.967 167.79 127.841C167.778 127.778 167.775 127.715 167.767 127.651C167.764 127.588 167.758 127.524 167.758 127.461C167.758 127.397 167.756 127.333 167.759 127.27C167.762 127.206 167.764 127.143 167.771 127.079C167.792 126.826 167.835 126.575 167.893 126.329L167.862 126.516C167.851 126.579 167.845 126.642 167.836 126.704C167.827 126.767 167.821 126.83 167.815 126.893C167.808 126.956 167.804 127.019 167.8 127.082C167.786 127.333 167.785 127.587 167.828 127.835C167.865 128.083 167.944 128.328 168.084 128.535C168.118 128.588 168.159 128.635 168.201 128.682C168.245 128.726 168.291 128.769 168.342 128.805C168.443 128.879 168.559 128.937 168.682 128.962Z" fill="#0C213A"/>
<path d="M167.71 129.195C167.67 129.145 167.634 129.092 167.597 129.039C167.563 128.984 167.529 128.93 167.497 128.874C167.432 128.762 167.375 128.647 167.323 128.529C167.273 128.41 167.226 128.29 167.189 128.166C167.169 128.105 167.153 128.042 167.137 127.98C167.122 127.917 167.11 127.854 167.098 127.791C167.136 127.914 167.172 128.037 167.217 128.157C167.26 128.277 167.307 128.396 167.358 128.513C167.408 128.631 167.465 128.745 167.522 128.86C167.581 128.973 167.643 129.085 167.71 129.195Z" fill="#0C213A"/>
<path d="M168.682 128.962C168.659 128.914 168.642 128.864 168.625 128.813C168.61 128.762 168.596 128.711 168.585 128.659C168.562 128.554 168.549 128.448 168.545 128.341C168.541 128.234 168.543 128.127 168.558 128.021C168.563 127.968 168.574 127.916 168.583 127.864C168.595 127.812 168.609 127.76 168.623 127.709C168.609 127.815 168.593 127.919 168.587 128.024C168.579 128.129 168.579 128.235 168.583 128.34C168.586 128.445 168.599 128.549 168.614 128.653C168.63 128.757 168.652 128.861 168.682 128.962Z" fill="#0C213A"/>
<path d="M169.403 127.542C169.477 127.473 169.547 127.4 169.613 127.324C169.68 127.248 169.743 127.17 169.803 127.089C169.861 127.007 169.919 126.925 169.97 126.839C170.022 126.752 170.069 126.663 170.11 126.572C170.194 126.39 170.254 126.197 170.282 125.998C170.312 125.8 170.304 125.596 170.268 125.397C170.279 125.447 170.294 125.496 170.3 125.546L170.312 125.621L170.319 125.697C170.325 125.798 170.324 125.901 170.312 126.002C170.301 126.103 170.28 126.204 170.251 126.301C170.222 126.399 170.187 126.495 170.145 126.588C170.059 126.773 169.952 126.947 169.826 127.107C169.7 127.266 169.561 127.415 169.403 127.542Z" fill="#0C213A"/>
<path d="M170.743 126.7C170.729 126.632 170.715 126.565 170.697 126.498C170.681 126.431 170.664 126.364 170.644 126.298C170.605 126.165 170.563 126.034 170.513 125.906C170.462 125.778 170.404 125.653 170.338 125.533C170.302 125.474 170.269 125.414 170.227 125.359C170.19 125.301 170.142 125.251 170.099 125.196C170.201 125.29 170.288 125.4 170.363 125.517C170.436 125.636 170.497 125.762 170.549 125.892C170.598 126.022 170.64 126.155 170.673 126.29C170.705 126.425 170.731 126.562 170.743 126.7Z" fill="#0C213A"/>
<path d="M170.923 126.227C170.931 126.181 170.938 126.135 170.941 126.089C170.946 126.043 170.949 125.997 170.949 125.951C170.951 125.858 170.947 125.766 170.934 125.675C170.922 125.584 170.904 125.494 170.877 125.405C170.853 125.316 170.815 125.231 170.779 125.145C170.791 125.165 170.803 125.185 170.815 125.205C170.827 125.225 170.84 125.245 170.849 125.266C170.87 125.309 170.89 125.351 170.905 125.396C170.923 125.439 170.933 125.486 170.947 125.531C170.952 125.554 170.956 125.577 170.961 125.6C170.966 125.623 170.969 125.647 170.972 125.67C170.984 125.763 170.987 125.858 170.979 125.952C170.971 126.046 170.955 126.139 170.923 126.227Z" fill="#0C213A"/>
<path d="M171.722 126.869C171.713 126.807 171.702 126.745 171.688 126.683C171.676 126.621 171.661 126.56 171.645 126.499C171.613 126.378 171.576 126.258 171.531 126.141C171.51 126.082 171.484 126.025 171.46 125.967C171.433 125.91 171.408 125.853 171.378 125.798C171.364 125.77 171.349 125.742 171.334 125.714L171.286 125.634C171.256 125.578 171.217 125.529 171.184 125.474C171.266 125.57 171.342 125.672 171.404 125.783L171.429 125.824L171.451 125.867L171.494 125.952C171.519 126.01 171.546 126.067 171.567 126.127C171.612 126.246 171.649 126.368 171.674 126.492C171.7 126.617 171.719 126.743 171.722 126.869Z" fill="#0C213A"/>
<path d="M170.396 128.296C170.456 128.254 170.508 128.203 170.556 128.148C170.605 128.095 170.648 128.036 170.688 127.975C170.767 127.854 170.83 127.722 170.878 127.585L170.914 127.483L170.943 127.378C170.964 127.308 170.972 127.235 170.989 127.164C171.002 127.093 171.01 127.02 171.021 126.948C171.028 126.875 171.033 126.802 171.041 126.729C171.042 126.802 171.04 126.876 171.04 126.949C171.033 127.022 171.028 127.096 171.018 127.169C171.013 127.205 171.007 127.242 171 127.278C170.997 127.296 170.994 127.314 170.99 127.332L170.976 127.386L170.949 127.493L170.914 127.598C170.862 127.737 170.798 127.871 170.712 127.992C170.626 128.111 170.524 128.223 170.396 128.296Z" fill="#0C213A"/>
<path d="M170.487 129.168C170.514 129.108 170.538 129.047 170.56 128.985C170.583 128.924 170.604 128.861 170.624 128.799C170.663 128.673 170.698 128.547 170.73 128.42C170.761 128.292 170.789 128.164 170.813 128.035C170.838 127.906 170.856 127.776 170.877 127.646C170.874 127.711 170.87 127.777 170.865 127.843C170.857 127.908 170.852 127.974 170.842 128.04C170.825 128.171 170.797 128.3 170.767 128.429C170.735 128.557 170.698 128.684 170.652 128.808C170.605 128.932 170.554 129.055 170.487 129.168Z" fill="#0C213A"/>
<path d="M169.939 129.31C169.974 129.273 170.008 129.234 170.04 129.194C170.072 129.154 170.103 129.113 170.133 129.072C170.193 128.989 170.25 128.904 170.304 128.817C170.36 128.731 170.41 128.641 170.461 128.553C170.512 128.463 170.559 128.372 170.609 128.282C170.591 128.33 170.572 128.378 170.553 128.426C170.531 128.473 170.51 128.52 170.487 128.567C170.442 128.659 170.392 128.75 170.337 128.838C170.281 128.925 170.223 129.011 170.157 129.09C170.091 129.169 170.021 129.247 169.939 129.31Z" fill="#0C213A"/>
<path d="M170.396 128.296C170.372 128.197 170.363 128.094 170.354 127.992C170.346 127.89 170.343 127.787 170.342 127.685C170.341 127.583 170.343 127.48 170.348 127.378L170.356 127.225C170.361 127.174 170.364 127.123 170.37 127.072C170.375 127.174 170.376 127.277 170.377 127.379L170.38 127.685L170.384 127.99C170.384 128.041 170.386 128.092 170.388 128.143C170.389 128.194 170.392 128.245 170.396 128.296Z" fill="#0C213A"/>
<path d="M161.609 153.651C161.609 153.651 160.917 154.541 159.065 154.294L159.124 153.313L161.609 153.651Z" fill="#0C213A"/>
<path d="M180.016 153.763V154.42C180.016 154.42 178.149 154.742 177.04 153.958L177.094 153.658L180.016 153.763Z" fill="#0C213A"/>
<path d="M174.895 155.241L174.064 167.216V175.807L174.418 177.593C174.418 177.593 173.144 178.767 170.685 178.252L170.934 177.096C170.934 177.096 170.181 173.406 170.534 166.383L169.148 155.999L167.585 167.368C167.585 167.368 168.136 173.276 167.379 176.536L167.467 177.808C167.467 177.808 163.586 179.33 164.09 176.801L164.485 176.11L163.88 167.999L163.466 154.529L174.895 155.241Z" fill="#1B1A2E"/>
<path d="M174.505 142.315L174.52 145.831L175.404 155.145C175.404 155.145 167.283 155.823 162.301 154.656L163.675 145.69L163.446 141.927L162.753 143.92L161.948 150.681L161.762 153.668L158.619 153.318L159.713 144.918L162.03 134.243C162.065 134.081 162.188 133.952 162.348 133.91C163.039 133.728 164.972 133.166 166.511 132.226L167.14 131.339C167.14 131.339 169.444 130.896 171.214 131.712L171.563 132.646L175.462 134.125C175.6 134.178 175.703 134.296 175.736 134.44L177.196 140.835L180.246 153.598C180.246 153.598 178.854 154.836 177.057 153.715V151.311L174.505 142.315Z" fill="#6374FF"/>
<g opacity="0.4">
<path d="M163.446 141.928L163.078 142.987L163.201 139.294L163.446 141.928Z" fill="#A65B3C"/>
</g>
<g opacity="0.4">
<path d="M174.937 143.837L174.505 142.315V138.014L174.937 143.837Z" fill="#A65B3C"/>
</g>
<g opacity="0.4">
<path d="M162.003 164.592H163.775L163.575 158.085L162.003 164.592Z" fill="#0C213A"/>
</g>
<g opacity="0.4">
<path d="M171.91 149.388L167.35 147.525C167.35 147.525 171.563 148.682 171.91 149.388Z" fill="#A65B3C"/>
</g>
<path d="M175.331 134.373C175.25 134.453 175.171 134.533 175.097 134.619C175.023 134.705 174.95 134.791 174.883 134.883C174.814 134.972 174.75 135.065 174.687 135.159C174.624 135.254 174.563 135.349 174.505 135.447C174.599 135.239 174.722 135.046 174.858 134.863C174.927 134.773 175 134.685 175.078 134.603C175.156 134.519 175.242 134.444 175.331 134.373Z" fill="#A65B3C"/>
<path d="M171.563 132.646C171.14 132.656 170.716 132.66 170.293 132.645C169.87 132.634 169.447 132.609 169.025 132.578C168.603 132.543 168.182 132.495 167.763 132.439C167.343 132.383 166.925 132.316 166.511 132.226C166.927 132.303 167.346 132.363 167.765 132.418C168.185 132.47 168.606 132.514 169.027 132.546C169.449 132.58 169.871 132.609 170.294 132.623C170.716 132.64 171.139 132.644 171.563 132.646Z" fill="#A65B3C"/>
<path d="M174.505 136.32C174.519 137.319 174.516 138.318 174.522 139.318C174.516 140.317 174.519 141.316 174.505 142.315C174.491 141.316 174.495 140.317 174.489 139.318C174.495 138.318 174.491 137.319 174.505 136.32Z" fill="#A65B3C"/>
<path d="M178.458 151.888C178.257 151.82 178.061 151.74 177.864 151.662C177.669 151.579 177.474 151.498 177.283 151.405C177.484 151.473 177.68 151.553 177.877 151.632C178.072 151.714 178.267 151.795 178.458 151.888Z" fill="#A65B3C"/>
<path d="M162.261 134.202C162.439 134.489 162.568 134.804 162.677 135.124C162.727 135.286 162.768 135.45 162.8 135.616C162.836 135.782 162.851 135.951 162.86 136.119C162.838 135.952 162.816 135.785 162.779 135.621C162.744 135.456 162.699 135.293 162.646 135.134C162.597 134.973 162.54 134.815 162.475 134.659C162.409 134.505 162.339 134.351 162.261 134.202Z" fill="#A65B3C"/>
<path d="M162.955 136.661C163.05 137.537 163.129 138.415 163.217 139.293C163.293 140.171 163.378 141.048 163.446 141.927C163.351 141.051 163.272 140.173 163.184 139.296C163.108 138.417 163.023 137.54 162.955 136.661Z" fill="#A65B3C"/>
<path d="M161.439 143.789C161.637 143.795 161.834 143.814 162.031 143.832C162.228 143.853 162.424 143.874 162.619 143.907C162.421 143.9 162.225 143.882 162.028 143.864C161.831 143.842 161.635 143.822 161.439 143.789Z" fill="#A65B3C"/>
<path d="M171.91 149.388C170.884 148.983 169.864 148.563 168.84 148.151C167.821 147.729 166.799 147.315 165.783 146.885C166.809 147.289 167.829 147.709 168.853 148.121C169.872 148.544 170.894 148.958 171.91 149.388Z" fill="#A65B3C"/>
<path d="M173.221 167.017C172.86 166.947 172.504 166.859 172.145 166.78C171.79 166.69 171.432 166.609 171.078 166.511C171.438 166.582 171.794 166.67 172.153 166.749C172.509 166.839 172.867 166.919 173.221 167.017Z" fill="#0C213A"/>
<path d="M167.046 167.436C166.702 167.494 166.355 167.534 166.009 167.583C165.662 167.621 165.316 167.669 164.968 167.699C165.313 167.641 165.66 167.601 166.005 167.551C166.352 167.513 166.698 167.466 167.046 167.436Z" fill="#0C213A"/>
<path d="M166.298 177.088C166.13 177.095 165.961 177.083 165.795 177.059C165.628 177.035 165.462 176.999 165.302 176.942C165.145 176.882 164.989 176.81 164.858 176.699C164.726 176.592 164.622 176.452 164.565 176.292C164.634 176.447 164.742 176.579 164.872 176.682C165.002 176.788 165.157 176.855 165.313 176.912C165.469 176.971 165.632 177.01 165.798 177.037C165.963 177.063 166.13 177.082 166.298 177.088Z" fill="#0C213A"/>
<path d="M173.928 175.977C173.839 176.149 173.713 176.3 173.571 176.431C173.429 176.563 173.27 176.678 173.099 176.77C172.925 176.854 172.745 176.929 172.556 176.971C172.463 177 172.366 177.008 172.271 177.027C172.175 177.038 172.079 177.041 171.983 177.049C172.174 177.027 172.365 177.001 172.55 176.95C172.737 176.905 172.914 176.828 173.084 176.741C173.255 176.654 173.413 176.543 173.556 176.416C173.698 176.287 173.828 176.142 173.928 175.977Z" fill="#0C213A"/>
<path d="M253.711 222.211H83.2634V246.199H253.711V222.211Z" fill="#0C213A"/>
<path d="M240.014 211.459H96.9604V222.212H240.014V211.459Z" fill="#0C213A"/>
<path d="M226.317 200.707H110.657V211.459H226.317V200.707Z" fill="#0C213A"/>
<path d="M212.62 189.954H124.354V200.707H212.62V189.954Z" fill="#0C213A"/>
<path d="M198.923 181.388H138.052V189.954H198.923V181.388Z" fill="#0C213A"/>
<g opacity="0.4">
<path d="M96.9604 222.212H240.014V219.569L96.9604 222.212Z" fill="#0C213A"/>
</g>
<g opacity="0.4">
<path d="M124.354 200.707H212.62V198.064L124.354 200.707Z" fill="#0C213A"/>
</g>
<g opacity="0.4">
<path d="M198.923 189.954H138.052V187.311L198.923 189.954Z" fill="#0C213A"/>
</g>
<g opacity="0.4">
<path d="M110.657 211.459V208.944L226.317 211.459H110.657Z" fill="#0C213A"/>
</g>
<path d="M96.9604 222.211L132.724 222.168L168.487 222.147L204.25 222.168L240.014 222.211L204.25 222.254L168.487 222.276L132.724 222.254L96.9604 222.211Z" fill="#1B1A2E"/>
<path d="M110.657 211.448L125.115 211.417L139.572 211.405L168.487 211.384L197.402 211.405L211.859 211.417L226.317 211.448L211.859 211.48L197.402 211.491L168.487 211.513L139.572 211.491L125.115 211.48L110.657 211.448Z" fill="#1B1A2E"/>
<path d="M212.62 200.707L201.587 200.738L190.553 200.75L168.487 200.771L146.421 200.75L135.388 200.738L124.354 200.707L135.388 200.675L146.421 200.664L168.487 200.642L190.553 200.664L201.587 200.675L212.62 200.707Z" fill="#1B1A2E"/>
<path d="M138.052 189.954L145.66 189.923L153.269 189.912L168.487 189.89L183.705 189.911L191.314 189.923L198.923 189.954L191.314 189.986L183.705 189.998L168.487 190.019L153.269 189.997L145.66 189.986L138.052 189.954Z" fill="#1B1A2E"/>
<path d="M303.837 131.056C302.86 132.479 302.578 133.135 302.578 133.135C302.578 133.135 304.539 133.637 305.516 132.215C306.493 130.792 305.696 129.218 305.696 129.218C305.696 129.218 304.814 129.634 303.837 131.056Z" fill="#0C213A"/>
<path d="M288.167 34.8269C287.19 36.2494 286.908 36.9057 286.908 36.9057C286.908 36.9057 288.869 37.408 289.846 35.9855C290.823 34.5629 290.026 32.9883 290.026 32.9883C290.026 32.9883 289.144 33.4043 288.167 34.8269Z" fill="#0C213A"/>
<path d="M260.179 73.6411C259.458 72.0729 256.885 72.811 256.885 72.811C256.885 72.811 257.607 72.9288 258.329 74.497C259.05 76.0653 259.904 76.8449 259.904 76.8449C259.904 76.8449 260.901 75.2094 260.179 73.6411Z" fill="#0C213A"/>
<path d="M116.99 108.834C116.268 107.265 113.696 108.003 113.696 108.003C113.696 108.003 114.417 108.121 115.139 109.689C115.861 111.258 116.714 112.037 116.714 112.037C116.714 112.037 117.712 110.402 116.99 108.834Z" fill="#0C213A"/>
<path d="M75.3461 144.219C74.8184 145.864 73.4204 146.884 73.4204 146.884C73.4204 146.884 72.8779 145.238 73.4054 143.594C73.9331 141.95 75.3311 140.93 75.3311 140.93C75.3311 140.93 75.8737 142.575 75.3461 144.219Z" fill="#0C213A"/>
<path d="M38.276 88.4892C39.2531 89.9118 39.5352 90.5681 39.5352 90.5681C39.5352 90.5681 37.574 91.0704 36.5969 89.6478C35.6198 88.2252 36.4172 86.6506 36.4172 86.6506C36.4172 86.6506 37.2988 87.0667 38.276 88.4892Z" fill="#0C213A"/>
<path d="M125.102 178.849C124.124 180.271 123.842 180.928 123.842 180.928C123.842 180.928 125.803 181.43 126.781 180.007C127.758 178.585 126.96 177.01 126.96 177.01C126.96 177.01 126.079 177.426 125.102 178.849Z" fill="#0C213A"/>
<path d="M219.866 122.741C218.165 122.465 217.452 122.49 217.452 122.49C217.452 122.49 217.839 124.482 219.54 124.758C221.241 125.033 222.319 123.637 222.319 123.637C222.319 123.637 221.567 123.016 219.866 122.741Z" fill="#0C213A"/>
<path d="M69.2607 34.5215C70.2379 35.944 70.5199 36.6003 70.5199 36.6003C70.5199 36.6003 68.5588 37.1026 67.5816 35.68C66.6044 34.2575 67.4018 32.6829 67.4018 32.6829C67.4018 32.6829 68.2836 33.0988 69.2607 34.5215Z" fill="#0C213A"/>
<path d="M172.314 42.1902C173.036 40.6219 175.609 41.3601 175.609 41.3601C175.609 41.3601 174.887 41.4778 174.165 43.0461C173.444 44.6144 172.59 45.394 172.59 45.394C172.59 45.394 171.593 43.7585 172.314 42.1902Z" fill="#0C213A"/>
<path d="M230.985 189.282C230.457 190.926 229.059 191.946 229.059 191.946C229.059 191.946 228.516 190.3 229.044 188.656C229.572 187.012 230.97 185.992 230.97 185.992C230.97 185.992 231.512 187.638 230.985 189.282Z" fill="#0C213A"/>
<path d="M313.356 246.005H23.6438V246.394H313.356V246.005Z" fill="#1B1A2E"/>
<path d="M175.912 126.799C175.532 126.181 174.724 125.989 174.107 126.37C173.643 126.657 173.42 127.187 173.5 127.695L173.001 128.017L173.68 128.179C174.06 128.796 174.868 128.988 175.484 128.607C176.1 128.227 176.292 127.417 175.912 126.799Z" fill="white"/>
<path d="M173.001 128.017C173.042 127.989 173.082 127.96 173.123 127.933C173.165 127.905 173.206 127.878 173.248 127.851C173.289 127.824 173.331 127.798 173.373 127.771C173.415 127.745 173.457 127.72 173.5 127.695C173.46 127.723 173.419 127.752 173.378 127.779C173.337 127.807 173.295 127.834 173.254 127.861C173.212 127.888 173.171 127.915 173.129 127.941C173.087 127.967 173.044 127.992 173.001 128.017Z" fill="#1B1A2E"/>
<path d="M173.679 128.178C173.622 128.167 173.566 128.155 173.509 128.143C173.452 128.13 173.396 128.117 173.339 128.104C173.283 128.09 173.226 128.077 173.17 128.062C173.113 128.048 173.057 128.033 173.001 128.017C173.058 128.028 173.115 128.04 173.172 128.053C173.229 128.066 173.285 128.079 173.342 128.092C173.398 128.106 173.455 128.119 173.511 128.134C173.567 128.148 173.623 128.163 173.679 128.178Z" fill="#1B1A2E"/>
<path d="M173.5 127.694C173.488 127.615 173.482 127.534 173.484 127.453C173.486 127.373 173.495 127.292 173.511 127.213C173.544 127.055 173.606 126.903 173.694 126.767C173.782 126.631 173.895 126.513 174.026 126.418C174.157 126.324 174.305 126.252 174.462 126.211C174.54 126.19 174.62 126.177 174.701 126.171C174.781 126.165 174.862 126.166 174.943 126.176C175.104 126.194 175.261 126.241 175.405 126.316C175.549 126.39 175.678 126.492 175.785 126.614C175.839 126.675 175.886 126.741 175.928 126.81C175.97 126.88 176.005 126.953 176.033 127.029C176.089 127.181 176.117 127.344 176.115 127.506C176.112 127.668 176.08 127.83 176.02 127.981C175.96 128.131 175.872 128.27 175.761 128.389C175.651 128.507 175.519 128.605 175.373 128.676C175.228 128.747 175.069 128.79 174.908 128.803C174.747 128.817 174.584 128.8 174.429 128.755C174.274 128.709 174.128 128.635 174 128.536C173.873 128.438 173.763 128.316 173.679 128.178C173.765 128.315 173.875 128.436 174.003 128.533C174.131 128.63 174.277 128.703 174.431 128.746C174.586 128.791 174.748 128.806 174.907 128.792C175.067 128.778 175.223 128.734 175.367 128.664C175.439 128.628 175.507 128.586 175.571 128.538C175.635 128.49 175.695 128.437 175.75 128.378C175.859 128.261 175.946 128.123 176.005 127.974C176.064 127.826 176.096 127.666 176.098 127.506C176.1 127.346 176.072 127.185 176.016 127.035C175.989 126.96 175.954 126.888 175.913 126.819C175.872 126.75 175.825 126.685 175.772 126.625C175.667 126.505 175.539 126.404 175.397 126.33C175.255 126.256 175.1 126.209 174.941 126.191C174.782 126.173 174.62 126.184 174.465 126.224C174.309 126.264 174.163 126.334 174.032 126.427C173.902 126.52 173.789 126.638 173.701 126.772C173.613 126.906 173.55 127.057 173.515 127.214C173.498 127.293 173.488 127.373 173.485 127.453C173.483 127.534 173.488 127.615 173.5 127.694Z" fill="#1B1A2E"/>
<path d="M174.653 127.855L174.338 127.543L174.433 127.446L174.652 127.663L175.144 127.163L175.24 127.258L174.653 127.855Z" fill="#1F4068"/>
<path d="M163.09 126.992C163.364 126.548 163.945 126.41 164.388 126.684C164.721 126.89 164.882 127.271 164.824 127.636L165.183 127.868L164.695 127.984C164.422 128.429 163.841 128.567 163.398 128.293C162.955 128.019 162.817 127.437 163.09 126.992Z" fill="white"/>
<path d="M165.183 127.868C165.154 127.848 165.125 127.827 165.095 127.807C165.066 127.788 165.036 127.768 165.006 127.749C164.976 127.729 164.946 127.71 164.916 127.691C164.886 127.673 164.855 127.654 164.824 127.636C164.853 127.657 164.883 127.677 164.912 127.697C164.942 127.717 164.972 127.736 165.002 127.756C165.031 127.775 165.061 127.794 165.092 127.813C165.122 127.832 165.152 127.85 165.183 127.868Z" fill="#1B1A2E"/>
<path d="M164.695 127.984C164.736 127.976 164.777 127.968 164.818 127.959C164.859 127.95 164.899 127.94 164.94 127.931C164.981 127.921 165.021 127.911 165.062 127.901C165.102 127.89 165.143 127.88 165.183 127.868C165.142 127.876 165.101 127.885 165.06 127.894C165.019 127.903 164.979 127.913 164.938 127.922C164.898 127.932 164.857 127.942 164.816 127.952C164.776 127.962 164.736 127.973 164.695 127.984Z" fill="#1B1A2E"/>
<path d="M164.824 127.636C164.833 127.579 164.838 127.521 164.836 127.463C164.835 127.405 164.828 127.347 164.816 127.29C164.793 127.177 164.748 127.067 164.685 126.97C164.622 126.872 164.54 126.786 164.446 126.718C164.352 126.651 164.246 126.599 164.133 126.569C164.077 126.554 164.019 126.545 163.961 126.541C163.903 126.536 163.845 126.538 163.787 126.544C163.672 126.557 163.558 126.591 163.455 126.645C163.352 126.698 163.258 126.772 163.182 126.859C163.143 126.903 163.109 126.95 163.079 127C163.049 127.05 163.023 127.103 163.003 127.158C162.963 127.267 162.943 127.384 162.944 127.501C162.946 127.618 162.969 127.734 163.013 127.842C163.056 127.95 163.119 128.05 163.199 128.136C163.278 128.221 163.373 128.291 163.478 128.342C163.582 128.393 163.696 128.424 163.812 128.434C163.928 128.444 164.045 128.432 164.157 128.399C164.268 128.366 164.373 128.312 164.465 128.242C164.557 128.171 164.635 128.083 164.696 127.984C164.634 128.083 164.555 128.17 164.463 128.239C164.371 128.309 164.266 128.361 164.155 128.393C164.044 128.424 163.927 128.436 163.813 128.426C163.698 128.416 163.585 128.384 163.482 128.333C163.43 128.308 163.381 128.277 163.335 128.243C163.289 128.209 163.246 128.17 163.207 128.128C163.128 128.044 163.066 127.945 163.023 127.838C162.981 127.731 162.958 127.616 162.957 127.501C162.955 127.385 162.975 127.27 163.015 127.162C163.035 127.108 163.06 127.056 163.09 127.007C163.119 126.957 163.153 126.911 163.191 126.867C163.267 126.781 163.359 126.708 163.461 126.655C163.563 126.602 163.674 126.568 163.789 126.555C163.903 126.542 164.019 126.55 164.131 126.579C164.242 126.607 164.348 126.658 164.442 126.725C164.535 126.792 164.617 126.877 164.68 126.973C164.743 127.07 164.789 127.178 164.814 127.291C164.826 127.348 164.833 127.405 164.835 127.463C164.836 127.521 164.833 127.579 164.824 127.636Z" fill="#1B1A2E"/>
<path d="M163.8 127.751L163.573 127.527L163.641 127.458L163.799 127.613L164.153 127.254L164.222 127.322L163.8 127.751Z" fill="#1F4068"/>
</g>
<defs>
<clipPath id="clip0_205_6569">
<rect width="336" height="272" fill="white" transform="translate(0.5)"/>
</clipPath>
</defs>
</svg>
