<svg width="120" height="60" viewBox="0 0 120 60" fill="none" xmlns="http://www.w3.org/2000/svg">
<g id="nextjs-ar21 1">
<path id="Vector" d="M79.6061 20.1201H98.7661V23.6571H91.1661V42.2621H87.3651V23.6571H79.6051L79.6061 20.1201ZM48.0941 20.1201V23.6571H32.7361V29.3471H45.0871V32.8831H32.7371V38.7261H48.0941V42.2631H28.9361V23.6571H28.9341V20.1211L48.0941 20.1201ZM57.6621 20.1301H52.6881L70.5021 42.2721H75.4901L66.5821 31.2081L75.4761 20.1471L70.5021 20.1551L64.0921 28.1161L57.6621 20.1301ZM62.7651 35.9461L60.2751 32.8491L52.6741 42.2891H57.6621L62.7651 35.9461Z" fill="black"/>
<path id="Vector_2" fill-rule="evenodd" clip-rule="evenodd" d="M29.069 42.2621L11.231 20.1121H6.47998V42.2531H10.28V24.8451L24.294 42.2621H29.069Z" fill="black"/>
<path id="Vector_3" d="M99.6201 42.1271C99.488 42.1289 99.3568 42.1043 99.2344 42.0546C99.1119 42.005 99.0007 41.9314 98.9071 41.8381C98.8114 41.7482 98.7358 41.6391 98.6853 41.5179C98.6348 41.3968 98.6106 41.2663 98.6141 41.1351C98.6114 40.8664 98.7091 40.6354 98.9071 40.4421C99.0008 40.3486 99.1122 40.2749 99.2349 40.2253C99.3575 40.1756 99.4888 40.1511 99.6211 40.1531C99.8891 40.1531 100.122 40.2497 100.321 40.4431C100.417 40.5311 100.493 40.638 100.546 40.7572C100.598 40.8763 100.625 41.0049 100.625 41.1351C100.625 41.3116 100.576 41.4846 100.483 41.6351C100.393 41.7835 100.266 41.9067 100.115 41.9931C99.9658 42.0821 99.7939 42.1284 99.6201 42.1271ZM106.107 32.8001H107.791V39.2881C107.788 39.8834 107.66 40.3951 107.407 40.8231C107.157 41.2476 106.788 41.5904 106.347 41.8101C105.895 42.0394 105.369 42.1544 104.768 42.1551C104.22 42.1544 103.727 42.0571 103.29 41.8631C102.867 41.6822 102.506 41.3828 102.25 41.0011C101.993 40.6204 101.865 40.1457 101.866 39.5771H103.553C103.556 39.8264 103.611 40.0414 103.72 40.2221C103.828 40.3992 103.983 40.5423 104.168 40.6351C104.361 40.7317 104.583 40.7801 104.832 40.7801C105.102 40.7801 105.335 40.7241 105.522 40.6101C105.71 40.4981 105.854 40.3304 105.955 40.1071C106.054 39.8871 106.104 39.6141 106.107 39.2881V32.8001ZM114.72 35.3371C114.706 35.1536 114.65 34.9757 114.558 34.8168C114.465 34.6578 114.338 34.5218 114.185 34.4191C113.868 34.1984 113.459 34.0884 112.956 34.0891C112.646 34.0822 112.338 34.1356 112.048 34.2461C111.819 34.3344 111.618 34.4825 111.466 34.6751C111.333 34.8551 111.264 35.0604 111.26 35.2911C111.26 35.4844 111.305 35.6511 111.396 35.7911C111.485 35.9337 111.608 36.0531 111.764 36.1491C111.926 36.2504 112.099 36.333 112.279 36.3951C112.47 36.4617 112.66 36.5177 112.851 36.5631L113.729 36.7781C114.079 36.8573 114.421 36.9677 114.751 37.1081C115.069 37.2393 115.366 37.4154 115.634 37.6311C115.892 37.8384 116.103 38.0977 116.253 38.3921C116.405 38.6887 116.481 39.0374 116.482 39.4381C116.482 39.9774 116.342 40.4527 116.062 40.8641C115.782 41.2721 115.377 41.5917 114.847 41.8231C114.32 42.0524 113.68 42.1674 112.928 42.1681C112.202 42.1681 111.568 42.0561 111.036 41.8331C110.501 41.6124 110.082 41.2884 109.781 40.8611C109.481 40.4344 109.319 39.9151 109.295 39.3031H110.964C110.978 39.5952 111.083 39.8756 111.264 40.1051C111.443 40.3171 111.674 40.4761 111.957 40.5821C112.243 40.6867 112.562 40.7391 112.915 40.7391C113.284 40.7391 113.608 40.6841 113.889 40.5741C114.168 40.4654 114.386 40.3121 114.543 40.1141C114.703 39.9194 114.784 39.6894 114.785 39.4241C114.789 39.2053 114.713 38.9928 114.571 38.8261C114.43 38.6687 114.234 38.5367 113.984 38.4301C113.699 38.3122 113.404 38.2166 113.104 38.1441L112.037 37.8741C111.266 37.6787 110.658 37.3821 110.211 36.9841C109.764 36.5861 109.541 36.0564 109.541 35.3951C109.541 34.8517 109.692 34.3757 109.993 33.9671C110.292 33.5584 110.7 33.2411 111.218 33.0151C111.738 32.7877 112.325 32.6744 112.98 32.6751C113.643 32.6744 114.226 32.7877 114.728 33.0151C115.23 33.2411 115.624 33.5551 115.91 33.9571C116.197 34.3571 116.344 34.8171 116.353 35.3371H114.72Z" fill="black"/>
</g>
</svg>
