<svg width="353" height="272" viewBox="0 0 353 272" fill="none" xmlns="http://www.w3.org/2000/svg">
<g clip-path="url(#clip0_205_3829)">
<path d="M0.5 229.394H352.5V229.571H0.5V229.394Z" fill="#EBEBEB"/>
<path d="M35.7695 240.749H59.0874V240.925H35.7695V240.749Z" fill="#EBEBEB"/>
<path d="M119.321 242.663H125.441V242.839H119.321V242.663Z" fill="#EBEBEB"/>
<path d="M59.792 234.198H73.3032V234.374H59.792V234.198Z" fill="#EBEBEB"/>
<path d="M285.161 235.383H315.569V235.559H285.161V235.383Z" fill="#EBEBEB"/>
<path d="M274.434 235.383H278.893V235.559H274.434V235.383Z" fill="#EBEBEB"/>
<path d="M193.996 238.362H259.944V238.538H193.996V238.362Z" fill="#EBEBEB"/>
<path d="M185.642 197.934H321.584C323.799 197.934 325.602 196.128 325.602 193.908V2.43808C325.602 0.218168 323.799 -1.58838 321.584 -1.58838H185.642C183.427 -1.58838 181.624 0.218168 181.624 2.43808V193.908C181.624 196.128 183.427 197.934 185.642 197.934ZM321.584 -1.41132C323.703 -1.41132 325.426 0.315513 325.426 2.43879V193.909C325.426 196.032 323.703 197.759 321.584 197.759H185.642C183.524 197.759 181.8 196.032 181.8 193.909V2.43808C181.8 0.315514 183.524 -1.41203 185.642 -1.41203L321.584 -1.41132Z" fill="#EBEBEB"/>
<path d="M33.3699 197.934H169.311C171.526 197.934 173.329 196.128 173.329 193.908V2.43808C173.329 0.218168 171.526 -1.58838 169.311 -1.58838H33.3699C31.1537 -1.58838 29.3515 0.218168 29.3515 2.43808V193.908C29.3508 196.128 31.1537 197.934 33.3699 197.934ZM169.311 -1.41132C171.429 -1.41132 173.153 0.315513 173.153 2.43879V193.909C173.153 196.032 171.429 197.759 169.311 197.759H33.3699C31.2509 197.759 29.5275 196.032 29.5275 193.909V2.43808C29.5275 0.315514 31.2509 -1.41203 33.3699 -1.41203L169.311 -1.41132Z" fill="#EBEBEB"/>
<path d="M44.2311 228.933V195.905H47.0492V180.169H51.169V125.453H57.1249V118.393L69.8412 112.45V105.331H71.6026V125.453H74.0687V180.169H76.5348V151.399H83.2285V136.572H85.0962V180.169H90.1805V163.577H93.5273V159.342H101.278V144.868H105.522V134.631H110.739V119.717H112.601V134.631H117.819V144.868H122.063V159.342H129.814V163.577H133.161V180.169H137.13V159.342H144.881V114.509H147.347V109.567H163.905V114.509H167.428V146.986H181.52V150.163H186.804V152.635H181.52V165.342H196.317V122.982H199.488V113.98H206.357V82.0332H208.295V113.98H213.227V122.982H242.142V120.019H243.905V140.14H246.371V140.493H247.852V160.614H250.318V166.086H255.53V151.26H257.398V186.56H259.478V171.734H261.345V194.856H262.482V178.265H265.828V174.029H273.58V159.555H277.824V149.318H283.041V134.404H284.903V149.318H290.121V159.555H294.365V174.029H302.115V178.265H305.462V194.503H306.063V194.856H307.721V228.933H44.2311Z" fill="#E6E6E6"/>
<path d="M224.013 124.961H226.009V126.962H224.013V124.961Z" fill="#F0F0F0"/>
<path d="M224.013 128.315H226.009V130.315H224.013V128.315Z" fill="#F0F0F0"/>
<path d="M224.013 141.729H226.009V143.73H224.013V141.729Z" fill="#F0F0F0"/>
<path d="M224.013 145.083H226.009V147.083H224.013V145.083Z" fill="#F0F0F0"/>
<path d="M224.013 148.436H226.009V150.437H224.013V148.436Z" fill="#F0F0F0"/>
<path d="M224.013 158.497H226.009V160.497H224.013V158.497Z" fill="#F0F0F0"/>
<path d="M224.013 161.85H226.009V163.851H224.013V161.85Z" fill="#F0F0F0"/>
<path d="M220.842 138.375H222.839V140.376H220.842V138.375Z" fill="#F0F0F0"/>
<path d="M220.842 141.729H222.839V143.73H220.842V141.729Z" fill="#F0F0F0"/>
<path d="M220.842 145.083H222.839V147.083H220.842V145.083Z" fill="#F0F0F0"/>
<path d="M220.842 148.436H222.839V150.437H220.842V148.436Z" fill="#F0F0F0"/>
<path d="M220.842 151.79H222.839V153.79H220.842V151.79Z" fill="#F0F0F0"/>
<path d="M220.842 158.497H222.839V160.497H220.842V158.497Z" fill="#F0F0F0"/>
<path d="M220.842 161.85H222.839V163.851H220.842V161.85Z" fill="#F0F0F0"/>
<path d="M217.671 124.961H219.668V126.962H217.671V124.961Z" fill="#F0F0F0"/>
<path d="M217.671 128.315H219.668V130.315H217.671V128.315Z" fill="#F0F0F0"/>
<path d="M217.671 131.668H219.668V133.669H217.671V131.668Z" fill="#F0F0F0"/>
<path d="M217.671 135.022H219.668V137.023H217.671V135.022Z" fill="#F0F0F0"/>
<path d="M217.671 138.375H219.668V140.376H217.671V138.375Z" fill="#F0F0F0"/>
<path d="M217.671 141.729H219.668V143.73H217.671V141.729Z" fill="#F0F0F0"/>
<path d="M217.671 145.083H219.668V147.083H217.671V145.083Z" fill="#F0F0F0"/>
<path d="M217.671 148.436H219.668V150.437H217.671V148.436Z" fill="#F0F0F0"/>
<path d="M217.671 151.79H219.668V153.79H217.671V151.79Z" fill="#F0F0F0"/>
<path d="M217.671 155.143H219.668V157.144H217.671V155.143Z" fill="#F0F0F0"/>
<path d="M217.671 161.85H219.668V163.851H217.671V161.85Z" fill="#F0F0F0"/>
<path d="M214.501 124.961H216.497V126.962H214.501V124.961Z" fill="#F0F0F0"/>
<path d="M214.501 128.315H216.497V130.315H214.501V128.315Z" fill="#F0F0F0"/>
<path d="M214.501 131.668H216.497V133.669H214.501V131.668Z" fill="#F0F0F0"/>
<path d="M214.501 135.022H216.497V137.023H214.501V135.022Z" fill="#F0F0F0"/>
<path d="M214.501 138.375H216.497V140.376H214.501V138.375Z" fill="#F0F0F0"/>
<path d="M214.501 141.729H216.497V143.73H214.501V141.729Z" fill="#F0F0F0"/>
<path d="M214.501 145.083H216.497V147.083H214.501V145.083Z" fill="#F0F0F0"/>
<path d="M214.501 175.264H216.497V177.264H214.501V175.264Z" fill="#F0F0F0"/>
<path d="M211.33 124.961H213.327V126.962H211.33V124.961Z" fill="#F0F0F0"/>
<path d="M211.33 128.315H213.327V130.315H211.33V128.315Z" fill="#F0F0F0"/>
<path d="M211.33 131.668H213.327V133.669H211.33V131.668Z" fill="#F0F0F0"/>
<path d="M211.33 135.022H213.327V137.023H211.33V135.022Z" fill="#F0F0F0"/>
<path d="M211.33 138.375H213.327V140.376H211.33V138.375Z" fill="#F0F0F0"/>
<path d="M211.33 141.729H213.327V143.73H211.33V141.729Z" fill="#F0F0F0"/>
<path d="M211.33 145.083H213.327V147.083H211.33V145.083Z" fill="#F0F0F0"/>
<path d="M211.33 148.436H213.327V150.437H211.33V148.436Z" fill="#F0F0F0"/>
<path d="M211.33 168.557H213.327V170.557H211.33V168.557Z" fill="#F0F0F0"/>
<path d="M211.33 171.91H213.327V173.911H211.33V171.91Z" fill="#F0F0F0"/>
<path d="M211.33 175.264H213.327V177.264H211.33V175.264Z" fill="#F0F0F0"/>
<path d="M211.33 178.618H213.327V180.619H211.33V178.618Z" fill="#F0F0F0"/>
<path d="M211.33 192.032H213.327V194.033H211.33V192.032Z" fill="#F0F0F0"/>
<path d="M208.159 124.961H210.156V126.962H208.159V124.961Z" fill="#F0F0F0"/>
<path d="M208.159 128.315H210.156V130.315H208.159V128.315Z" fill="#F0F0F0"/>
<path d="M208.159 131.668H210.156V133.669H208.159V131.668Z" fill="#F0F0F0"/>
<path d="M208.159 135.022H210.156V137.023H208.159V135.022Z" fill="#F0F0F0"/>
<path d="M208.159 138.375H210.156V140.376H208.159V138.375Z" fill="#F0F0F0"/>
<path d="M208.159 141.729H210.156V143.73H208.159V141.729Z" fill="#F0F0F0"/>
<path d="M208.159 145.083H210.156V147.083H208.159V145.083Z" fill="#F0F0F0"/>
<path d="M208.159 148.436H210.156V150.437H208.159V148.436Z" fill="#F0F0F0"/>
<path d="M208.159 151.79H210.156V153.79H208.159V151.79Z" fill="#F0F0F0"/>
<path d="M208.159 155.143H210.156V157.144H208.159V155.143Z" fill="#F0F0F0"/>
<path d="M208.159 165.203H210.156V167.204H208.159V165.203Z" fill="#F0F0F0"/>
<path d="M208.159 168.557H210.156V170.557H208.159V168.557Z" fill="#F0F0F0"/>
<path d="M208.159 171.91H210.156V173.911H208.159V171.91Z" fill="#F0F0F0"/>
<path d="M208.159 175.264H210.156V177.264H208.159V175.264Z" fill="#F0F0F0"/>
<path d="M208.159 178.618H210.156V180.619H208.159V178.618Z" fill="#F0F0F0"/>
<path d="M208.159 192.032H210.156V194.033H208.159V192.032Z" fill="#F0F0F0"/>
<path d="M204.988 124.961H206.985V126.962H204.988V124.961Z" fill="#F0F0F0"/>
<path d="M204.988 128.315H206.985V130.315H204.988V128.315Z" fill="#F0F0F0"/>
<path d="M204.988 131.668H206.985V133.669H204.988V131.668Z" fill="#F0F0F0"/>
<path d="M204.988 135.022H206.985V137.023H204.988V135.022Z" fill="#F0F0F0"/>
<path d="M204.988 138.375H206.985V140.376H204.988V138.375Z" fill="#F0F0F0"/>
<path d="M204.988 141.729H206.985V143.73H204.988V141.729Z" fill="#F0F0F0"/>
<path d="M204.988 145.083H206.985V147.083H204.988V145.083Z" fill="#F0F0F0"/>
<path d="M204.988 148.436H206.985V150.437H204.988V148.436Z" fill="#F0F0F0"/>
<path d="M204.988 151.79H206.985V153.79H204.988V151.79Z" fill="#F0F0F0"/>
<path d="M204.988 155.143H206.985V157.144H204.988V155.143Z" fill="#F0F0F0"/>
<path d="M204.988 158.497H206.985V160.497H204.988V158.497Z" fill="#F0F0F0"/>
<path d="M204.988 161.85H206.985V163.851H204.988V161.85Z" fill="#F0F0F0"/>
<path d="M204.988 165.203H206.985V167.204H204.988V165.203Z" fill="#F0F0F0"/>
<path d="M204.988 168.557H206.985V170.557H204.988V168.557Z" fill="#F0F0F0"/>
<path d="M204.988 171.91H206.985V173.911H204.988V171.91Z" fill="#F0F0F0"/>
<path d="M204.988 175.264H206.985V177.264H204.988V175.264Z" fill="#F0F0F0"/>
<path d="M204.988 178.618H206.985V180.619H204.988V178.618Z" fill="#F0F0F0"/>
<path d="M204.988 181.972H206.985V183.972H204.988V181.972Z" fill="#F0F0F0"/>
<path d="M201.817 124.961H203.813V126.962H201.817V124.961Z" fill="#F0F0F0"/>
<path d="M201.817 128.315H203.813V130.315H201.817V128.315Z" fill="#F0F0F0"/>
<path d="M201.817 131.668H203.813V133.669H201.817V131.668Z" fill="#F0F0F0"/>
<path d="M201.817 135.022H203.813V137.023H201.817V135.022Z" fill="#F0F0F0"/>
<path d="M201.817 138.375H203.813V140.376H201.817V138.375Z" fill="#F0F0F0"/>
<path d="M201.817 141.729H203.813V143.73H201.817V141.729Z" fill="#F0F0F0"/>
<path d="M201.817 145.083H203.813V147.083H201.817V145.083Z" fill="#F0F0F0"/>
<path d="M201.817 148.436H203.813V150.437H201.817V148.436Z" fill="#F0F0F0"/>
<path d="M201.817 151.79H203.813V153.79H201.817V151.79Z" fill="#F0F0F0"/>
<path d="M201.817 155.143H203.813V157.143H201.817V155.143Z" fill="#F0F0F0"/>
<path d="M201.817 165.203H203.813V167.204H201.817V165.203Z" fill="#F0F0F0"/>
<path d="M201.817 168.557H203.813V170.557H201.817V168.557Z" fill="#F0F0F0"/>
<path d="M201.817 171.91H203.813V173.911H201.817V171.91Z" fill="#F0F0F0"/>
<path d="M201.817 175.264H203.813V177.264H201.817V175.264Z" fill="#F0F0F0"/>
<path d="M198.647 124.961H200.644V126.962H198.647V124.961Z" fill="#F0F0F0"/>
<path d="M198.647 128.315H200.644V130.315H198.647V128.315Z" fill="#F0F0F0"/>
<path d="M198.647 131.668H200.644V133.669H198.647V131.668Z" fill="#F0F0F0"/>
<path d="M198.647 135.022H200.644V137.023H198.647V135.022Z" fill="#F0F0F0"/>
<path d="M198.647 138.375H200.644V140.376H198.647V138.375Z" fill="#F0F0F0"/>
<path d="M198.647 141.729H200.644V143.73H198.647V141.729Z" fill="#F0F0F0"/>
<path d="M198.647 145.083H200.644V147.083H198.647V145.083Z" fill="#F0F0F0"/>
<path d="M198.647 148.436H200.644V150.437H198.647V148.436Z" fill="#F0F0F0"/>
<path d="M198.647 151.79H200.644V153.79H198.647V151.79Z" fill="#F0F0F0"/>
<path d="M198.647 155.143H200.644V157.144H198.647V155.143Z" fill="#F0F0F0"/>
<path d="M198.647 165.203H200.644V167.204H198.647V165.203Z" fill="#F0F0F0"/>
<path d="M198.647 168.557H200.644V170.557H198.647V168.557Z" fill="#F0F0F0"/>
<path d="M198.647 171.91H200.644V173.911H198.647V171.91Z" fill="#F0F0F0"/>
<path d="M162.947 116.254H164.944V118.254H162.947V116.254Z" fill="#F0F0F0"/>
<path d="M162.947 119.607H164.944V121.608H162.947V119.607Z" fill="#F0F0F0"/>
<path d="M162.947 122.961H164.944V124.961H162.947V122.961Z" fill="#F0F0F0"/>
<path d="M162.947 126.314H164.944V128.315H162.947V126.314Z" fill="#F0F0F0"/>
<path d="M162.947 129.668H164.944V131.669H162.947V129.668Z" fill="#F0F0F0"/>
<path d="M162.947 133.021H164.944V135.022H162.947V133.021Z" fill="#F0F0F0"/>
<path d="M162.947 136.375H164.944V138.376H162.947V136.375Z" fill="#F0F0F0"/>
<path d="M162.947 139.729H164.944V141.729H162.947V139.729Z" fill="#F0F0F0"/>
<path d="M162.947 149.789H164.944V151.79H162.947V149.789Z" fill="#F0F0F0"/>
<path d="M162.947 153.142H164.944V155.143H162.947V153.142Z" fill="#F0F0F0"/>
<path d="M159.777 116.254H161.773V118.254H159.777V116.254Z" fill="#F0F0F0"/>
<path d="M159.777 119.607H161.773V121.608H159.777V119.607Z" fill="#F0F0F0"/>
<path d="M159.777 122.961H161.773V124.961H159.777V122.961Z" fill="#F0F0F0"/>
<path d="M159.777 126.314H161.773V128.315H159.777V126.314Z" fill="#F0F0F0"/>
<path d="M159.777 129.668H161.773V131.669H159.777V129.668Z" fill="#F0F0F0"/>
<path d="M159.777 133.021H161.773V135.022H159.777V133.021Z" fill="#F0F0F0"/>
<path d="M159.777 136.375H161.773V138.376H159.777V136.375Z" fill="#F0F0F0"/>
<path d="M159.777 139.729H161.773V141.729H159.777V139.729Z" fill="#F0F0F0"/>
<path d="M159.777 153.142H161.773V155.143H159.777V153.142Z" fill="#F0F0F0"/>
<path d="M156.606 116.254H158.603V118.254H156.606V116.254Z" fill="#F0F0F0"/>
<path d="M156.606 119.607H158.603V121.608H156.606V119.607Z" fill="#F0F0F0"/>
<path d="M156.606 122.961H158.603V124.961H156.606V122.961Z" fill="#F0F0F0"/>
<path d="M156.606 126.314H158.603V128.315H156.606V126.314Z" fill="#F0F0F0"/>
<path d="M156.606 129.668H158.603V131.669H156.606V129.668Z" fill="#F0F0F0"/>
<path d="M156.606 133.021H158.603V135.022H156.606V133.021Z" fill="#F0F0F0"/>
<path d="M156.606 136.375H158.603V138.376H156.606V136.375Z" fill="#F0F0F0"/>
<path d="M156.606 139.729H158.603V141.729H156.606V139.729Z" fill="#F0F0F0"/>
<path d="M153.435 116.254H155.432V118.254H153.435V116.254Z" fill="#F0F0F0"/>
<path d="M153.435 119.607H155.432V121.608H153.435V119.607Z" fill="#F0F0F0"/>
<path d="M153.435 122.961H155.432V124.961H153.435V122.961Z" fill="#F0F0F0"/>
<path d="M153.435 126.314H155.432V128.315H153.435V126.314Z" fill="#F0F0F0"/>
<path d="M153.435 129.668H155.432V131.669H153.435V129.668Z" fill="#F0F0F0"/>
<path d="M153.435 133.021H155.432V135.022H153.435V133.021Z" fill="#F0F0F0"/>
<path d="M153.435 139.729H155.432V141.729H153.435V139.729Z" fill="#F0F0F0"/>
<path d="M153.435 143.082H155.432V145.083H153.435V143.082Z" fill="#F0F0F0"/>
<path d="M153.435 153.142H155.432V155.143H153.435V153.142Z" fill="#F0F0F0"/>
<path d="M153.435 156.496H155.432V158.496H153.435V156.496Z" fill="#F0F0F0"/>
<path d="M153.435 159.85H155.432V161.851H153.435V159.85Z" fill="#F0F0F0"/>
<path d="M153.435 163.204H155.432V165.204H153.435V163.204Z" fill="#F0F0F0"/>
<path d="M153.435 166.557H155.432V168.558H153.435V166.557Z" fill="#F0F0F0"/>
<path d="M153.435 169.911H155.432V171.911H153.435V169.911Z" fill="#F0F0F0"/>
<path d="M153.435 173.264H155.432V175.265H153.435V173.264Z" fill="#F0F0F0"/>
<path d="M150.264 116.254H152.261V118.254H150.264V116.254Z" fill="#F0F0F0"/>
<path d="M150.264 119.607H152.261V121.608H150.264V119.607Z" fill="#F0F0F0"/>
<path d="M150.264 122.961H152.261V124.961H150.264V122.961Z" fill="#F0F0F0"/>
<path d="M150.264 126.314H152.261V128.315H150.264V126.314Z" fill="#F0F0F0"/>
<path d="M150.264 129.668H152.261V131.669H150.264V129.668Z" fill="#F0F0F0"/>
<path d="M150.264 133.021H152.261V135.022H150.264V133.021Z" fill="#F0F0F0"/>
<path d="M150.264 143.082H152.261V145.083H150.264V143.082Z" fill="#F0F0F0"/>
<path d="M150.264 146.436H152.261V148.436H150.264V146.436Z" fill="#F0F0F0"/>
<path d="M150.264 149.789H152.261V151.79H150.264V149.789Z" fill="#F0F0F0"/>
<path d="M150.264 153.142H152.261V155.143H150.264V153.142Z" fill="#F0F0F0"/>
<path d="M150.264 156.496H152.261V158.496H150.264V156.496Z" fill="#F0F0F0"/>
<path d="M150.264 159.85H152.261V161.851H150.264V159.85Z" fill="#F0F0F0"/>
<path d="M150.264 163.204H152.261V165.204H150.264V163.204Z" fill="#F0F0F0"/>
<path d="M150.264 166.557H152.261V168.558H150.264V166.557Z" fill="#F0F0F0"/>
<path d="M150.264 169.911H152.261V171.911H150.264V169.911Z" fill="#F0F0F0"/>
<path d="M150.264 173.264H152.261V175.265H150.264V173.264Z" fill="#F0F0F0"/>
<path d="M150.264 176.618H152.261V178.618H150.264V176.618Z" fill="#F0F0F0"/>
<path d="M150.264 183.325H152.261V185.325H150.264V183.325Z" fill="#F0F0F0"/>
<path d="M147.094 116.254H149.091V118.254H147.094V116.254Z" fill="#F0F0F0"/>
<path d="M147.094 119.607H149.091V121.608H147.094V119.607Z" fill="#F0F0F0"/>
<path d="M147.094 122.961H149.091V124.961H147.094V122.961Z" fill="#F0F0F0"/>
<path d="M147.094 126.314H149.091V128.315H147.094V126.314Z" fill="#F0F0F0"/>
<path d="M147.094 129.668H149.091V131.669H147.094V129.668Z" fill="#F0F0F0"/>
<path d="M147.094 133.021H149.091V135.022H147.094V133.021Z" fill="#F0F0F0"/>
<path d="M147.094 143.082H149.091V145.083H147.094V143.082Z" fill="#F0F0F0"/>
<path d="M147.094 146.436H149.091V148.436H147.094V146.436Z" fill="#F0F0F0"/>
<path d="M147.094 149.789H149.091V151.79H147.094V149.789Z" fill="#F0F0F0"/>
<path d="M147.094 153.142H149.091V155.143H147.094V153.142Z" fill="#F0F0F0"/>
<path d="M147.094 163.204H149.091V165.204H147.094V163.204Z" fill="#F0F0F0"/>
<path d="M147.094 166.557H149.091V168.558H147.094V166.557Z" fill="#F0F0F0"/>
<path d="M147.094 169.911H149.091V171.911H147.094V169.911Z" fill="#F0F0F0"/>
<path d="M147.094 173.264H149.091V175.265H147.094V173.264Z" fill="#F0F0F0"/>
<path d="M147.094 176.618H149.091V178.618H147.094V176.618Z" fill="#F0F0F0"/>
<path d="M147.094 183.325H149.091V185.325H147.094V183.325Z" fill="#F0F0F0"/>
<path d="M147.094 186.678H149.091V188.679H147.094V186.678Z" fill="#F0F0F0"/>
<path d="M118.322 147.436H120.319V149.436H118.322V147.436Z" fill="#F0F0F0"/>
<path d="M118.322 150.789H120.319V152.79H118.322V150.789Z" fill="#F0F0F0"/>
<path d="M118.322 154.143H120.319V156.143H118.322V154.143Z" fill="#F0F0F0"/>
<path d="M118.322 157.496H120.319V159.497H118.322V157.496Z" fill="#F0F0F0"/>
<path d="M118.322 160.85H120.319V162.85H118.322V160.85Z" fill="#F0F0F0"/>
<path d="M118.322 164.204H120.319V166.204H118.322V164.204Z" fill="#F0F0F0"/>
<path d="M118.322 167.557H120.319V169.558H118.322V167.557Z" fill="#F0F0F0"/>
<path d="M118.322 177.618H120.319V179.618H118.322V177.618Z" fill="#F0F0F0"/>
<path d="M118.322 180.971H120.319V182.972H118.322V180.971Z" fill="#F0F0F0"/>
<path d="M118.322 184.325H120.319V186.325H118.322V184.325Z" fill="#F0F0F0"/>
<path d="M115.152 147.436H117.149V149.436H115.152V147.436Z" fill="#F0F0F0"/>
<path d="M115.152 150.789H117.149V152.79H115.152V150.789Z" fill="#F0F0F0"/>
<path d="M115.152 154.143H117.149V156.143H115.152V154.143Z" fill="#F0F0F0"/>
<path d="M115.152 157.496H117.149V159.497H115.152V157.496Z" fill="#F0F0F0"/>
<path d="M115.152 160.85H117.149V162.85H115.152V160.85Z" fill="#F0F0F0"/>
<path d="M115.152 164.204H117.149V166.204H115.152V164.204Z" fill="#F0F0F0"/>
<path d="M115.152 167.557H117.149V169.558H115.152V167.557Z" fill="#F0F0F0"/>
<path d="M111.981 147.436H113.978V149.436H111.981V147.436Z" fill="#F0F0F0"/>
<path d="M111.981 150.789H113.978V152.79H111.981V150.789Z" fill="#F0F0F0"/>
<path d="M111.981 154.143H113.978V156.143H111.981V154.143Z" fill="#F0F0F0"/>
<path d="M111.981 157.496H113.978V159.497H111.981V157.496Z" fill="#F0F0F0"/>
<path d="M111.981 160.85H113.978V162.85H111.981V160.85Z" fill="#F0F0F0"/>
<path d="M111.981 164.204H113.978V166.204H111.981V164.204Z" fill="#F0F0F0"/>
<path d="M111.981 167.557H113.978V169.558H111.981V167.557Z" fill="#F0F0F0"/>
<path d="M108.811 147.436H110.807V149.436H108.811V147.436Z" fill="#F0F0F0"/>
<path d="M108.811 150.789H110.807V152.79H108.811V150.789Z" fill="#F0F0F0"/>
<path d="M108.811 154.143H110.807V156.143H108.811V154.143Z" fill="#F0F0F0"/>
<path d="M108.811 157.496H110.807V159.497H108.811V157.496Z" fill="#F0F0F0"/>
<path d="M108.811 160.85H110.807V162.85H108.811V160.85Z" fill="#F0F0F0"/>
<path d="M108.811 164.204H110.807V166.204H108.811V164.204Z" fill="#F0F0F0"/>
<path d="M108.811 167.557H110.807V169.558H108.811V167.557Z" fill="#F0F0F0"/>
<path d="M108.811 170.911H110.807V172.911H108.811V170.911Z" fill="#F0F0F0"/>
<path d="M108.811 174.264H110.807V176.265H108.811V174.264Z" fill="#F0F0F0"/>
<path d="M108.811 177.618H110.807V179.618H108.811V177.618Z" fill="#F0F0F0"/>
<path d="M108.811 180.971H110.807V182.972H108.811V180.971Z" fill="#F0F0F0"/>
<path d="M105.64 147.436H107.636V149.436H105.64V147.436Z" fill="#F0F0F0"/>
<path d="M105.64 150.789H107.636V152.79H105.64V150.789Z" fill="#F0F0F0"/>
<path d="M105.64 154.143H107.636V156.143H105.64V154.143Z" fill="#F0F0F0"/>
<path d="M105.64 157.496H107.636V159.497H105.64V157.496Z" fill="#F0F0F0"/>
<path d="M105.64 160.85H107.636V162.85H105.64V160.85Z" fill="#F0F0F0"/>
<path d="M105.64 164.204H107.636V166.204H105.64V164.204Z" fill="#F0F0F0"/>
<path d="M105.64 167.557H107.636V169.558H105.64V167.557Z" fill="#F0F0F0"/>
<path d="M105.64 170.911H107.636V172.911H105.64V170.911Z" fill="#F0F0F0"/>
<path d="M105.64 174.264H107.636V176.265H105.64V174.264Z" fill="#F0F0F0"/>
<path d="M105.64 177.618H107.636V179.618H105.64V177.618Z" fill="#F0F0F0"/>
<path d="M105.64 180.971H107.636V182.972H105.64V180.971Z" fill="#F0F0F0"/>
<path d="M105.64 184.325H107.636V186.325H105.64V184.325Z" fill="#F0F0F0"/>
<path d="M105.64 194.385H107.636V196.386H105.64V194.385Z" fill="#F0F0F0"/>
<path d="M105.64 197.739H107.636V199.74H105.64V197.739Z" fill="#F0F0F0"/>
<path d="M102.469 147.436H104.465V149.436H102.469V147.436Z" fill="#F0F0F0"/>
<path d="M102.469 150.789H104.465V152.79H102.469V150.789Z" fill="#F0F0F0"/>
<path d="M102.469 154.143H104.465V156.143H102.469V154.143Z" fill="#F0F0F0"/>
<path d="M102.469 164.204H104.465V166.204H102.469V164.204Z" fill="#F0F0F0"/>
<path d="M102.469 167.557H104.465V169.558H102.469V167.557Z" fill="#F0F0F0"/>
<path d="M102.469 170.911H104.465V172.911H102.469V170.911Z" fill="#F0F0F0"/>
<path d="M102.469 174.264H104.465V176.265H102.469V174.264Z" fill="#F0F0F0"/>
<path d="M102.469 177.618H104.465V179.618H102.469V177.618Z" fill="#F0F0F0"/>
<path d="M102.469 180.971H104.465V182.972H102.469V180.971Z" fill="#F0F0F0"/>
<path d="M102.469 184.325H104.465V186.325H102.469V184.325Z" fill="#F0F0F0"/>
<path d="M102.469 194.385H104.465V196.386H102.469V194.385Z" fill="#F0F0F0"/>
<path d="M102.469 197.739H104.465V199.74H102.469V197.739Z" fill="#F0F0F0"/>
<path d="M102.469 201.093H104.465V203.093H102.469V201.093Z" fill="#F0F0F0"/>
<path d="M69.2354 127.315H71.2319V129.315H69.2354V127.315Z" fill="#F0F0F0"/>
<path d="M69.2354 130.668H71.2319V132.669H69.2354V130.668Z" fill="#F0F0F0"/>
<path d="M69.2354 134.022H71.2319V136.022H69.2354V134.022Z" fill="#F0F0F0"/>
<path d="M69.2354 137.375H71.2319V139.376H69.2354V137.375Z" fill="#F0F0F0"/>
<path d="M69.2354 140.729H71.2319V142.729H69.2354V140.729Z" fill="#F0F0F0"/>
<path d="M69.2354 144.082H71.2319V146.083H69.2354V144.082Z" fill="#F0F0F0"/>
<path d="M69.2354 147.436H71.2319V149.436H69.2354V147.436Z" fill="#F0F0F0"/>
<path d="M69.2354 150.789H71.2319V152.79H69.2354V150.789Z" fill="#F0F0F0"/>
<path d="M69.2354 154.143H71.2319V156.143H69.2354V154.143Z" fill="#F0F0F0"/>
<path d="M69.2354 157.496H71.2319V159.497H69.2354V157.496Z" fill="#F0F0F0"/>
<path d="M69.2354 160.85H71.2319V162.85H69.2354V160.85Z" fill="#F0F0F0"/>
<path d="M69.2354 164.204H71.2319V166.204H69.2354V164.204Z" fill="#F0F0F0"/>
<path d="M69.2354 167.557H71.2319V169.558H69.2354V167.557Z" fill="#F0F0F0"/>
<path d="M69.2354 170.911H71.2319V172.911H69.2354V170.911Z" fill="#F0F0F0"/>
<path d="M69.2354 174.264H71.2319V176.265H69.2354V174.264Z" fill="#F0F0F0"/>
<path d="M69.2354 177.618H71.2319V179.618H69.2354V177.618Z" fill="#F0F0F0"/>
<path d="M69.2354 180.971H71.2319V182.972H69.2354V180.971Z" fill="#F0F0F0"/>
<path d="M69.2354 184.325H71.2319V186.325H69.2354V184.325Z" fill="#F0F0F0"/>
<path d="M69.2354 187.678H71.2319V189.679H69.2354V187.678Z" fill="#F0F0F0"/>
<path d="M69.2354 191.032H71.2319V193.033H69.2354V191.032Z" fill="#F0F0F0"/>
<path d="M69.2354 194.385H71.2319V196.386H69.2354V194.385Z" fill="#F0F0F0"/>
<path d="M69.2354 197.739H71.2319V199.74H69.2354V197.739Z" fill="#F0F0F0"/>
<path d="M69.2354 201.093H71.2319V203.093H69.2354V201.093Z" fill="#F0F0F0"/>
<path d="M66.0645 127.315H68.061V129.315H66.0645V127.315Z" fill="#F0F0F0"/>
<path d="M66.0645 130.668H68.061V132.669H66.0645V130.668Z" fill="#F0F0F0"/>
<path d="M66.0645 134.022H68.061V136.022H66.0645V134.022Z" fill="#F0F0F0"/>
<path d="M66.0645 137.375H68.061V139.376H66.0645V137.375Z" fill="#F0F0F0"/>
<path d="M66.0645 140.729H68.061V142.729H66.0645V140.729Z" fill="#F0F0F0"/>
<path d="M66.0645 144.082H68.061V146.083H66.0645V144.082Z" fill="#F0F0F0"/>
<path d="M66.0645 147.436H68.061V149.436H66.0645V147.436Z" fill="#F0F0F0"/>
<path d="M66.0645 150.789H68.061V152.79H66.0645V150.789Z" fill="#F0F0F0"/>
<path d="M66.0645 154.143H68.061V156.143H66.0645V154.143Z" fill="#F0F0F0"/>
<path d="M66.0645 157.496H68.061V159.497H66.0645V157.496Z" fill="#F0F0F0"/>
<path d="M66.0645 160.85H68.061V162.85H66.0645V160.85Z" fill="#F0F0F0"/>
<path d="M66.0645 164.204H68.061V166.204H66.0645V164.204Z" fill="#F0F0F0"/>
<path d="M66.0645 167.557H68.061V169.558H66.0645V167.557Z" fill="#F0F0F0"/>
<path d="M66.0645 170.911H68.061V172.911H66.0645V170.911Z" fill="#F0F0F0"/>
<path d="M66.0645 174.264H68.061V176.265H66.0645V174.264Z" fill="#F0F0F0"/>
<path d="M66.0645 177.618H68.061V179.618H66.0645V177.618Z" fill="#F0F0F0"/>
<path d="M66.0645 180.971H68.061V182.972H66.0645V180.971Z" fill="#F0F0F0"/>
<path d="M66.0645 184.325H68.061V186.325H66.0645V184.325Z" fill="#F0F0F0"/>
<path d="M66.0645 187.678H68.061V189.679H66.0645V187.678Z" fill="#F0F0F0"/>
<path d="M62.8946 127.315H64.8911V129.315H62.8946V127.315Z" fill="#F0F0F0"/>
<path d="M62.8946 130.668H64.8911V132.669H62.8946V130.668Z" fill="#F0F0F0"/>
<path d="M62.8946 134.022H64.8911V136.022H62.8946V134.022Z" fill="#F0F0F0"/>
<path d="M62.8946 137.375H64.8911V139.376H62.8946V137.375Z" fill="#F0F0F0"/>
<path d="M62.8946 140.729H64.8911V142.729H62.8946V140.729Z" fill="#F0F0F0"/>
<path d="M62.8946 144.082H64.8911V146.083H62.8946V144.082Z" fill="#F0F0F0"/>
<path d="M62.8946 147.436H64.8911V149.436H62.8946V147.436Z" fill="#F0F0F0"/>
<path d="M62.8946 150.789H64.8911V152.79H62.8946V150.789Z" fill="#F0F0F0"/>
<path d="M62.8946 154.143H64.8911V156.143H62.8946V154.143Z" fill="#F0F0F0"/>
<path d="M62.8946 157.496H64.8911V159.497H62.8946V157.496Z" fill="#F0F0F0"/>
<path d="M62.8946 160.85H64.8911V162.85H62.8946V160.85Z" fill="#F0F0F0"/>
<path d="M62.8946 164.204H64.8911V166.204H62.8946V164.204Z" fill="#F0F0F0"/>
<path d="M62.8946 167.557H64.8911V169.558H62.8946V167.557Z" fill="#F0F0F0"/>
<path d="M62.8946 170.911H64.8911V172.911H62.8946V170.911Z" fill="#F0F0F0"/>
<path d="M62.8946 174.264H64.8911V176.265H62.8946V174.264Z" fill="#F0F0F0"/>
<path d="M62.8946 177.618H64.8911V179.618H62.8946V177.618Z" fill="#F0F0F0"/>
<path d="M62.8946 180.971H64.8911V182.972H62.8946V180.971Z" fill="#F0F0F0"/>
<path d="M62.8946 184.325H64.8911V186.325H62.8946V184.325Z" fill="#F0F0F0"/>
<path d="M62.8946 187.678H64.8911V189.679H62.8946V187.678Z" fill="#F0F0F0"/>
<path d="M59.7237 127.315H61.7202V129.315H59.7237V127.315Z" fill="#F0F0F0"/>
<path d="M59.7237 130.668H61.7202V132.669H59.7237V130.668Z" fill="#F0F0F0"/>
<path d="M59.7237 134.022H61.7202V136.022H59.7237V134.022Z" fill="#F0F0F0"/>
<path d="M59.7237 137.375H61.7202V139.376H59.7237V137.375Z" fill="#F0F0F0"/>
<path d="M59.7237 140.729H61.7202V142.729H59.7237V140.729Z" fill="#F0F0F0"/>
<path d="M59.7237 144.082H61.7202V146.083H59.7237V144.082Z" fill="#F0F0F0"/>
<path d="M59.7237 147.436H61.7202V149.436H59.7237V147.436Z" fill="#F0F0F0"/>
<path d="M59.7237 150.789H61.7202V152.79H59.7237V150.789Z" fill="#F0F0F0"/>
<path d="M59.7237 154.143H61.7202V156.143H59.7237V154.143Z" fill="#F0F0F0"/>
<path d="M59.7237 157.496H61.7202V159.497H59.7237V157.496Z" fill="#F0F0F0"/>
<path d="M59.7237 160.85H61.7202V162.85H59.7237V160.85Z" fill="#F0F0F0"/>
<path d="M59.7237 164.204H61.7202V166.204H59.7237V164.204Z" fill="#F0F0F0"/>
<path d="M59.7237 167.557H61.7202V169.558H59.7237V167.557Z" fill="#F0F0F0"/>
<path d="M59.7237 170.911H61.7202V172.911H59.7237V170.911Z" fill="#F0F0F0"/>
<path d="M59.7237 174.264H61.7202V176.265H59.7237V174.264Z" fill="#F0F0F0"/>
<path d="M56.5528 127.315H58.5493V129.315H56.5528V127.315Z" fill="#F0F0F0"/>
<path d="M56.5528 130.668H58.5493V132.669H56.5528V130.668Z" fill="#F0F0F0"/>
<path d="M56.5528 134.022H58.5493V136.022H56.5528V134.022Z" fill="#F0F0F0"/>
<path d="M56.5528 137.375H58.5493V139.376H56.5528V137.375Z" fill="#F0F0F0"/>
<path d="M56.5528 140.729H58.5493V142.729H56.5528V140.729Z" fill="#F0F0F0"/>
<path d="M56.5528 144.082H58.5493V146.083H56.5528V144.082Z" fill="#F0F0F0"/>
<path d="M56.5528 147.436H58.5493V149.436H56.5528V147.436Z" fill="#F0F0F0"/>
<path d="M56.5528 150.789H58.5493V152.79H56.5528V150.789Z" fill="#F0F0F0"/>
<path d="M56.5528 154.143H58.5493V156.143H56.5528V154.143Z" fill="#F0F0F0"/>
<path d="M56.5528 157.496H58.5493V159.497H56.5528V157.496Z" fill="#F0F0F0"/>
<path d="M56.5528 160.85H58.5493V162.85H56.5528V160.85Z" fill="#F0F0F0"/>
<path d="M56.5528 164.204H58.5493V166.204H56.5528V164.204Z" fill="#F0F0F0"/>
<path d="M56.5528 167.557H58.5493V169.558H56.5528V167.557Z" fill="#F0F0F0"/>
<path d="M53.3819 127.315H55.3784V129.315H53.3819V127.315Z" fill="#F0F0F0"/>
<path d="M53.3819 130.668H55.3784V132.669H53.3819V130.668Z" fill="#F0F0F0"/>
<path d="M53.3819 134.022H55.3784V136.022H53.3819V134.022Z" fill="#F0F0F0"/>
<path d="M53.3819 137.375H55.3784V139.376H53.3819V137.375Z" fill="#F0F0F0"/>
<path d="M53.3819 140.729H55.3784V142.729H53.3819V140.729Z" fill="#F0F0F0"/>
<path d="M53.3819 144.082H55.3784V146.083H53.3819V144.082Z" fill="#F0F0F0"/>
<path d="M53.3819 147.436H55.3784V149.436H53.3819V147.436Z" fill="#F0F0F0"/>
<path d="M53.3819 150.789H55.3784V152.79H53.3819V150.789Z" fill="#F0F0F0"/>
<path d="M53.3819 154.143H55.3784V156.143H53.3819V154.143Z" fill="#F0F0F0"/>
<path d="M53.3819 157.496H55.3784V159.497H53.3819V157.496Z" fill="#F0F0F0"/>
<path d="M53.3819 160.85H55.3784V162.85H53.3819V160.85Z" fill="#F0F0F0"/>
<path d="M53.3819 164.204H55.3784V166.204H53.3819V164.204Z" fill="#F0F0F0"/>
<path d="M286.37 151.79H288.367V153.79H286.37V151.79Z" fill="#F0F0F0"/>
<path d="M286.37 155.143H288.367V157.144H286.37V155.143Z" fill="#F0F0F0"/>
<path d="M286.37 158.497H288.367V160.497H286.37V158.497Z" fill="#F0F0F0"/>
<path d="M286.37 161.85H288.367V163.851H286.37V161.85Z" fill="#F0F0F0"/>
<path d="M286.37 165.203H288.367V167.204H286.37V165.203Z" fill="#F0F0F0"/>
<path d="M286.37 168.557H288.367V170.557H286.37V168.557Z" fill="#F0F0F0"/>
<path d="M286.37 171.91H288.367V173.911H286.37V171.91Z" fill="#F0F0F0"/>
<path d="M286.37 175.264H288.367V177.264H286.37V175.264Z" fill="#F0F0F0"/>
<path d="M286.37 178.618H288.367V180.619H286.37V178.618Z" fill="#F0F0F0"/>
<path d="M286.37 181.972H288.367V183.972H286.37V181.972Z" fill="#F0F0F0"/>
<path d="M286.37 185.325H288.367V187.326H286.37V185.325Z" fill="#F0F0F0"/>
<path d="M286.37 188.679H288.367V190.679H286.37V188.679Z" fill="#F0F0F0"/>
<path d="M286.37 192.032H288.367V194.033H286.37V192.032Z" fill="#F0F0F0"/>
<path d="M286.37 195.386H288.367V197.386H286.37V195.386Z" fill="#F0F0F0"/>
<path d="M286.37 198.739H288.367V200.74H286.37V198.739Z" fill="#F0F0F0"/>
<path d="M286.37 202.093H288.367V204.093H286.37V202.093Z" fill="#F0F0F0"/>
<path d="M286.37 205.446H288.367V207.447H286.37V205.446Z" fill="#F0F0F0"/>
<path d="M286.37 208.8H288.367V210.8H286.37V208.8Z" fill="#F0F0F0"/>
<path d="M286.37 212.153H288.367V214.154H286.37V212.153Z" fill="#F0F0F0"/>
<path d="M286.37 215.507H288.367V217.507H286.37V215.507Z" fill="#F0F0F0"/>
<path d="M283.199 151.79H285.196V153.79H283.199V151.79Z" fill="#F0F0F0"/>
<path d="M283.199 155.143H285.196V157.144H283.199V155.143Z" fill="#F0F0F0"/>
<path d="M283.199 158.497H285.196V160.497H283.199V158.497Z" fill="#F0F0F0"/>
<path d="M283.199 161.85H285.196V163.851H283.199V161.85Z" fill="#F0F0F0"/>
<path d="M283.199 165.203H285.196V167.204H283.199V165.203Z" fill="#F0F0F0"/>
<path d="M283.199 168.557H285.196V170.557H283.199V168.557Z" fill="#F0F0F0"/>
<path d="M283.199 171.91H285.196V173.911H283.199V171.91Z" fill="#F0F0F0"/>
<path d="M283.199 175.264H285.196V177.264H283.199V175.264Z" fill="#F0F0F0"/>
<path d="M283.199 178.618H285.196V180.619H283.199V178.618Z" fill="#F0F0F0"/>
<path d="M283.199 181.972H285.196V183.972H283.199V181.972Z" fill="#F0F0F0"/>
<path d="M283.199 185.325H285.196V187.326H283.199V185.325Z" fill="#F0F0F0"/>
<path d="M283.199 188.679H285.196V190.679H283.199V188.679Z" fill="#F0F0F0"/>
<path d="M283.199 192.032H285.196V194.033H283.199V192.032Z" fill="#F0F0F0"/>
<path d="M283.199 195.386H285.196V197.386H283.199V195.386Z" fill="#F0F0F0"/>
<path d="M283.199 198.739H285.196V200.74H283.199V198.739Z" fill="#F0F0F0"/>
<path d="M283.199 202.093H285.196V204.093H283.199V202.093Z" fill="#F0F0F0"/>
<path d="M283.199 205.446H285.196V207.447H283.199V205.446Z" fill="#F0F0F0"/>
<path d="M283.199 208.8H285.196V210.8H283.199V208.8Z" fill="#F0F0F0"/>
<path d="M280.028 151.79H282.025V153.79H280.028V151.79Z" fill="#F0F0F0"/>
<path d="M280.028 155.143H282.025V157.144H280.028V155.143Z" fill="#F0F0F0"/>
<path d="M280.028 158.497H282.025V160.497H280.028V158.497Z" fill="#F0F0F0"/>
<path d="M280.028 161.85H282.025V163.851H280.028V161.85Z" fill="#F0F0F0"/>
<path d="M280.028 165.203H282.025V167.204H280.028V165.203Z" fill="#F0F0F0"/>
<path d="M280.028 168.557H282.025V170.557H280.028V168.557Z" fill="#F0F0F0"/>
<path d="M280.028 171.91H282.025V173.911H280.028V171.91Z" fill="#F0F0F0"/>
<path d="M280.028 175.264H282.025V177.264H280.028V175.264Z" fill="#F0F0F0"/>
<path d="M280.028 178.618H282.025V180.619H280.028V178.618Z" fill="#F0F0F0"/>
<path d="M280.028 181.972H282.025V183.972H280.028V181.972Z" fill="#F0F0F0"/>
<path d="M280.028 185.325H282.025V187.326H280.028V185.325Z" fill="#F0F0F0"/>
<path d="M280.028 188.679H282.025V190.679H280.028V188.679Z" fill="#F0F0F0"/>
<path d="M280.028 192.032H282.025V194.033H280.028V192.032Z" fill="#F0F0F0"/>
<path d="M280.028 195.386H282.025V197.386H280.028V195.386Z" fill="#F0F0F0"/>
<path d="M280.028 198.739H282.025V200.74H280.028V198.739Z" fill="#F0F0F0"/>
<path d="M280.028 202.093H282.025V204.093H280.028V202.093Z" fill="#F0F0F0"/>
<path d="M280.028 205.446H282.025V207.447H280.028V205.446Z" fill="#F0F0F0"/>
<path d="M280.028 208.8H282.025V210.8H280.028V208.8Z" fill="#F0F0F0"/>
<path d="M298.231 176.265H300.228V178.265H298.231V176.265Z" fill="#F0F0F0"/>
<path d="M298.231 179.618H300.228V181.619H298.231V179.618Z" fill="#F0F0F0"/>
<path d="M298.231 182.972H300.228V184.972H298.231V182.972Z" fill="#F0F0F0"/>
<path d="M298.231 186.325H300.228V188.326H298.231V186.325Z" fill="#F0F0F0"/>
<path d="M298.231 189.679H300.228V191.68H298.231V189.679Z" fill="#F0F0F0"/>
<path d="M298.231 193.032H300.228V195.033H298.231V193.032Z" fill="#F0F0F0"/>
<path d="M298.231 196.386H300.228V198.387H298.231V196.386Z" fill="#F0F0F0"/>
<path d="M298.231 199.74H300.228V201.74H298.231V199.74Z" fill="#F0F0F0"/>
<path d="M298.231 203.093H300.228V205.094H298.231V203.093Z" fill="#F0F0F0"/>
<path d="M298.231 206.447H300.228V208.447H298.231V206.447Z" fill="#F0F0F0"/>
<path d="M298.231 209.8H300.228V211.801H298.231V209.8Z" fill="#F0F0F0"/>
<path d="M298.231 213.154H300.228V215.154H298.231V213.154Z" fill="#F0F0F0"/>
<path d="M298.231 216.507H300.228V218.508H298.231V216.507Z" fill="#F0F0F0"/>
<path d="M295.06 176.265H297.057V178.265H295.06V176.265Z" fill="#F0F0F0"/>
<path d="M295.06 179.618H297.057V181.619H295.06V179.618Z" fill="#F0F0F0"/>
<path d="M295.06 182.972H297.057V184.972H295.06V182.972Z" fill="#F0F0F0"/>
<path d="M295.06 186.325H297.057V188.326H295.06V186.325Z" fill="#F0F0F0"/>
<path d="M295.06 189.679H297.057V191.68H295.06V189.679Z" fill="#F0F0F0"/>
<path d="M295.06 193.032H297.057V195.033H295.06V193.032Z" fill="#F0F0F0"/>
<path d="M295.06 196.386H297.057V198.387H295.06V196.386Z" fill="#F0F0F0"/>
<path d="M295.06 199.74H297.057V201.74H295.06V199.74Z" fill="#F0F0F0"/>
<path d="M295.06 203.093H297.057V205.094H295.06V203.093Z" fill="#F0F0F0"/>
<path d="M295.06 206.447H297.057V208.447H295.06V206.447Z" fill="#F0F0F0"/>
<path d="M295.06 209.8H297.057V211.801H295.06V209.8Z" fill="#F0F0F0"/>
<path d="M295.06 213.154H297.057V215.154H295.06V213.154Z" fill="#F0F0F0"/>
<path d="M295.06 216.507H297.057V218.508H295.06V216.507Z" fill="#F0F0F0"/>
<path d="M291.889 176.265H293.886V178.265H291.889V176.265Z" fill="#F0F0F0"/>
<path d="M291.889 179.618H293.886V181.619H291.889V179.618Z" fill="#F0F0F0"/>
<path d="M291.889 182.972H293.886V184.972H291.889V182.972Z" fill="#F0F0F0"/>
<path d="M291.889 186.325H293.886V188.326H291.889V186.325Z" fill="#F0F0F0"/>
<path d="M291.889 189.679H293.886V191.68H291.889V189.679Z" fill="#F0F0F0"/>
<path d="M291.889 193.032H293.886V195.033H291.889V193.032Z" fill="#F0F0F0"/>
<path d="M291.889 196.386H293.886V198.387H291.889V196.386Z" fill="#F0F0F0"/>
<path d="M291.889 199.74H293.886V201.74H291.889V199.74Z" fill="#F0F0F0"/>
<path d="M291.889 203.093H293.886V205.094H291.889V203.093Z" fill="#F0F0F0"/>
<path d="M291.889 206.447H293.886V208.447H291.889V206.447Z" fill="#F0F0F0"/>
<path d="M291.889 209.8H293.886V211.801H291.889V209.8Z" fill="#F0F0F0"/>
<path d="M291.889 213.154H293.886V215.154H291.889V213.154Z" fill="#F0F0F0"/>
<path d="M291.889 216.507H293.886V218.508H291.889V216.507Z" fill="#F0F0F0"/>
<path d="M291.889 219.861H293.886V221.861H291.889V219.861Z" fill="#F0F0F0"/>
<path d="M274.274 177.264H276.271V179.265H274.274V177.264Z" fill="#F0F0F0"/>
<path d="M274.274 180.618H276.271V182.619H274.274V180.618Z" fill="#F0F0F0"/>
<path d="M274.274 183.972H276.271V185.973H274.274V183.972Z" fill="#F0F0F0"/>
<path d="M274.274 187.325H276.271V189.325H274.274V187.325Z" fill="#F0F0F0"/>
<path d="M274.274 190.678H276.271V192.679H274.274V190.678Z" fill="#F0F0F0"/>
<path d="M274.274 194.033H276.271V196.033H274.274V194.033Z" fill="#F0F0F0"/>
<path d="M274.274 197.386H276.271V199.387H274.274V197.386Z" fill="#F0F0F0"/>
<path d="M274.274 200.74H276.271V202.74H274.274V200.74Z" fill="#F0F0F0"/>
<path d="M274.274 204.093H276.271V206.094H274.274V204.093Z" fill="#F0F0F0"/>
<path d="M274.274 207.447H276.271V209.447H274.274V207.447Z" fill="#F0F0F0"/>
<path d="M274.274 217.507H276.271V219.508H274.274V217.507Z" fill="#F0F0F0"/>
<path d="M271.104 177.264H273.1V179.265H271.104V177.264Z" fill="#F0F0F0"/>
<path d="M271.104 180.618H273.1V182.619H271.104V180.618Z" fill="#F0F0F0"/>
<path d="M271.104 183.972H273.1V185.973H271.104V183.972Z" fill="#F0F0F0"/>
<path d="M271.104 187.325H273.1V189.325H271.104V187.325Z" fill="#F0F0F0"/>
<path d="M271.104 190.678H273.1V192.679H271.104V190.678Z" fill="#F0F0F0"/>
<path d="M271.104 194.033H273.1V196.033H271.104V194.033Z" fill="#F0F0F0"/>
<path d="M271.104 197.386H273.1V199.387H271.104V197.386Z" fill="#F0F0F0"/>
<path d="M271.104 200.74H273.1V202.74H271.104V200.74Z" fill="#F0F0F0"/>
<path d="M271.104 204.093H273.1V206.094H271.104V204.093Z" fill="#F0F0F0"/>
<path d="M271.104 214.154H273.1V216.154H271.104V214.154Z" fill="#F0F0F0"/>
<path d="M271.104 217.507H273.1V219.508H271.104V217.507Z" fill="#F0F0F0"/>
<path d="M267.933 177.264H269.93V179.265H267.933V177.264Z" fill="#F0F0F0"/>
<path d="M267.933 180.618H269.93V182.619H267.933V180.618Z" fill="#F0F0F0"/>
<path d="M267.933 183.972H269.93V185.973H267.933V183.972Z" fill="#F0F0F0"/>
<path d="M267.933 187.325H269.93V189.325H267.933V187.325Z" fill="#F0F0F0"/>
<path d="M267.933 190.678H269.93V192.679H267.933V190.678Z" fill="#F0F0F0"/>
<path d="M267.933 194.033H269.93V196.033H267.933V194.033Z" fill="#F0F0F0"/>
<path d="M267.933 197.386H269.93V199.387H267.933V197.386Z" fill="#F0F0F0"/>
<path d="M267.933 200.74H269.93V202.74H267.933V200.74Z" fill="#F0F0F0"/>
<path d="M267.933 210.8H269.93V212.801H267.933V210.8Z" fill="#F0F0F0"/>
<path d="M267.933 214.154H269.93V216.154H267.933V214.154Z" fill="#F0F0F0"/>
<path d="M267.933 217.507H269.93V219.508H267.933V217.507Z" fill="#F0F0F0"/>
<path d="M238.457 126.314H240.454V128.315H238.457V126.314Z" fill="#F0F0F0"/>
<path d="M238.457 129.668H240.454V131.669H238.457V129.668Z" fill="#F0F0F0"/>
<path d="M238.457 133.021H240.454V135.022H238.457V133.021Z" fill="#F0F0F0"/>
<path d="M238.457 136.375H240.454V138.376H238.457V136.375Z" fill="#F0F0F0"/>
<path d="M238.457 139.729H240.454V141.729H238.457V139.729Z" fill="#F0F0F0"/>
<path d="M238.457 143.082H240.454V145.083H238.457V143.082Z" fill="#F0F0F0"/>
<path d="M238.457 146.436H240.454V148.436H238.457V146.436Z" fill="#F0F0F0"/>
<path d="M238.457 149.789H240.454V151.79H238.457V149.789Z" fill="#F0F0F0"/>
<path d="M238.457 153.142H240.454V155.143H238.457V153.142Z" fill="#F0F0F0"/>
<path d="M238.457 156.496H240.454V158.496H238.457V156.496Z" fill="#F0F0F0"/>
<path d="M238.457 159.85H240.454V161.851H238.457V159.85Z" fill="#F0F0F0"/>
<path d="M238.457 163.204H240.454V165.204H238.457V163.204Z" fill="#F0F0F0"/>
<path d="M238.457 166.557H240.454V168.558H238.457V166.557Z" fill="#F0F0F0"/>
<path d="M238.457 169.911H240.454V171.911H238.457V169.911Z" fill="#F0F0F0"/>
<path d="M238.457 173.264H240.454V175.265H238.457V173.264Z" fill="#F0F0F0"/>
<path d="M238.457 176.618H240.454V178.618H238.457V176.618Z" fill="#F0F0F0"/>
<path d="M238.457 179.971H240.454V181.972H238.457V179.971Z" fill="#F0F0F0"/>
<path d="M238.457 186.678H240.454V188.679H238.457V186.678Z" fill="#F0F0F0"/>
<path d="M238.457 190.032H240.454V192.032H238.457V190.032Z" fill="#F0F0F0"/>
<path d="M238.457 193.385H240.454V195.386H238.457V193.385Z" fill="#F0F0F0"/>
<path d="M238.457 196.739H240.454V198.739H238.457V196.739Z" fill="#F0F0F0"/>
<path d="M238.457 200.092H240.454V202.093H238.457V200.092Z" fill="#F0F0F0"/>
<path d="M235.286 126.314H237.283V128.315H235.286V126.314Z" fill="#F0F0F0"/>
<path d="M235.286 129.668H237.283V131.669H235.286V129.668Z" fill="#F0F0F0"/>
<path d="M235.286 133.021H237.283V135.022H235.286V133.021Z" fill="#F0F0F0"/>
<path d="M235.286 136.375H237.283V138.376H235.286V136.375Z" fill="#F0F0F0"/>
<path d="M235.286 139.729H237.283V141.729H235.286V139.729Z" fill="#F0F0F0"/>
<path d="M235.286 143.082H237.283V145.083H235.286V143.082Z" fill="#F0F0F0"/>
<path d="M235.286 146.436H237.283V148.436H235.286V146.436Z" fill="#F0F0F0"/>
<path d="M235.286 149.789H237.283V151.79H235.286V149.789Z" fill="#F0F0F0"/>
<path d="M235.286 153.142H237.283V155.143H235.286V153.142Z" fill="#F0F0F0"/>
<path d="M235.286 156.496H237.283V158.496H235.286V156.496Z" fill="#F0F0F0"/>
<path d="M235.286 159.85H237.283V161.851H235.286V159.85Z" fill="#F0F0F0"/>
<path d="M235.286 163.204H237.283V165.204H235.286V163.204Z" fill="#F0F0F0"/>
<path d="M235.286 166.557H237.283V168.558H235.286V166.557Z" fill="#F0F0F0"/>
<path d="M235.286 169.911H237.283V171.911H235.286V169.911Z" fill="#F0F0F0"/>
<path d="M235.286 173.264H237.283V175.265H235.286V173.264Z" fill="#F0F0F0"/>
<path d="M235.286 176.618H237.283V178.618H235.286V176.618Z" fill="#F0F0F0"/>
<path d="M235.286 196.739H237.283V198.739H235.286V196.739Z" fill="#F0F0F0"/>
<path d="M235.286 200.092H237.283V202.093H235.286V200.092Z" fill="#F0F0F0"/>
<path d="M232.116 126.314H234.112V128.315H232.116V126.314Z" fill="#F0F0F0"/>
<path d="M232.116 129.668H234.112V131.669H232.116V129.668Z" fill="#F0F0F0"/>
<path d="M232.116 133.021H234.112V135.022H232.116V133.021Z" fill="#F0F0F0"/>
<path d="M232.116 136.375H234.112V138.376H232.116V136.375Z" fill="#F0F0F0"/>
<path d="M232.116 139.729H234.112V141.729H232.116V139.729Z" fill="#F0F0F0"/>
<path d="M232.116 143.082H234.112V145.083H232.116V143.082Z" fill="#F0F0F0"/>
<path d="M232.116 146.436H234.112V148.436H232.116V146.436Z" fill="#F0F0F0"/>
<path d="M232.116 149.789H234.112V151.79H232.116V149.789Z" fill="#F0F0F0"/>
<path d="M232.116 153.142H234.112V155.143H232.116V153.142Z" fill="#F0F0F0"/>
<path d="M232.116 156.496H234.112V158.496H232.116V156.496Z" fill="#F0F0F0"/>
<path d="M232.116 159.85H234.112V161.851H232.116V159.85Z" fill="#F0F0F0"/>
<path d="M232.116 163.204H234.112V165.204H232.116V163.204Z" fill="#F0F0F0"/>
<path d="M232.116 166.557H234.112V168.558H232.116V166.557Z" fill="#F0F0F0"/>
<path d="M232.116 169.911H234.112V171.911H232.116V169.911Z" fill="#F0F0F0"/>
<path d="M232.116 173.264H234.112V175.265H232.116V173.264Z" fill="#F0F0F0"/>
<path d="M232.116 176.618H234.112V178.618H232.116V176.618Z" fill="#F0F0F0"/>
<path d="M232.116 183.325H234.112V185.325H232.116V183.325Z" fill="#F0F0F0"/>
<path d="M232.116 186.678H234.112V188.679H232.116V186.678Z" fill="#F0F0F0"/>
<path d="M232.116 190.032H234.112V192.032H232.116V190.032Z" fill="#F0F0F0"/>
<path d="M232.116 193.385H234.112V195.386H232.116V193.385Z" fill="#F0F0F0"/>
<path d="M232.116 200.092H234.112V202.093H232.116V200.092Z" fill="#F0F0F0"/>
<path d="M249.965 168.557H251.962V170.557H249.965V168.557Z" fill="#F0F0F0"/>
<path d="M249.965 171.91H251.962V173.911H249.965V171.91Z" fill="#F0F0F0"/>
<path d="M249.965 175.264H251.962V177.264H249.965V175.264Z" fill="#F0F0F0"/>
<path d="M249.965 178.618H251.962V180.619H249.965V178.618Z" fill="#F0F0F0"/>
<path d="M249.965 181.972H251.962V183.972H249.965V181.972Z" fill="#F0F0F0"/>
<path d="M249.965 185.325H251.962V187.326H249.965V185.325Z" fill="#F0F0F0"/>
<path d="M249.965 188.679H251.962V190.679H249.965V188.679Z" fill="#F0F0F0"/>
<path d="M249.965 195.386H251.962V197.386H249.965V195.386Z" fill="#F0F0F0"/>
<path d="M249.965 198.739H251.962V200.74H249.965V198.739Z" fill="#F0F0F0"/>
<path d="M249.965 202.093H251.962V204.093H249.965V202.093Z" fill="#F0F0F0"/>
<path d="M249.965 205.446H251.962V207.447H249.965V205.446Z" fill="#F0F0F0"/>
<path d="M249.965 208.8H251.962V210.8H249.965V208.8Z" fill="#F0F0F0"/>
<path d="M249.965 212.153H251.962V214.154H249.965V212.153Z" fill="#F0F0F0"/>
<path d="M249.965 215.507H251.962V217.507H249.965V215.507Z" fill="#F0F0F0"/>
<path d="M249.965 218.86H251.962V220.861H249.965V218.86Z" fill="#F0F0F0"/>
<path d="M246.794 168.557H248.791V170.557H246.794V168.557Z" fill="#F0F0F0"/>
<path d="M246.794 171.91H248.791V173.911H246.794V171.91Z" fill="#F0F0F0"/>
<path d="M246.794 175.264H248.791V177.264H246.794V175.264Z" fill="#F0F0F0"/>
<path d="M246.794 178.618H248.791V180.619H246.794V178.618Z" fill="#F0F0F0"/>
<path d="M246.794 181.972H248.791V183.972H246.794V181.972Z" fill="#F0F0F0"/>
<path d="M246.794 185.325H248.791V187.326H246.794V185.325Z" fill="#F0F0F0"/>
<path d="M246.794 195.386H248.791V197.386H246.794V195.386Z" fill="#F0F0F0"/>
<path d="M246.794 198.739H248.791V200.74H246.794V198.739Z" fill="#F0F0F0"/>
<path d="M246.794 202.093H248.791V204.093H246.794V202.093Z" fill="#F0F0F0"/>
<path d="M246.794 205.446H248.791V207.447H246.794V205.446Z" fill="#F0F0F0"/>
<path d="M246.794 208.8H248.791V210.8H246.794V208.8Z" fill="#F0F0F0"/>
<path d="M246.794 212.153H248.791V214.154H246.794V212.153Z" fill="#F0F0F0"/>
<path d="M246.794 215.507H248.791V217.507H246.794V215.507Z" fill="#F0F0F0"/>
<path d="M246.794 218.86H248.791V220.861H246.794V218.86Z" fill="#F0F0F0"/>
<path d="M243.624 168.557H245.621V170.557H243.624V168.557Z" fill="#F0F0F0"/>
<path d="M243.624 171.91H245.621V173.911H243.624V171.91Z" fill="#F0F0F0"/>
<path d="M243.624 175.264H245.621V177.264H243.624V175.264Z" fill="#F0F0F0"/>
<path d="M243.624 178.618H245.621V180.619H243.624V178.618Z" fill="#F0F0F0"/>
<path d="M243.624 181.972H245.621V183.972H243.624V181.972Z" fill="#F0F0F0"/>
<path d="M243.624 185.325H245.621V187.326H243.624V185.325Z" fill="#F0F0F0"/>
<path d="M243.624 192.032H245.621V194.033H243.624V192.032Z" fill="#F0F0F0"/>
<path d="M243.624 195.386H245.621V197.386H243.624V195.386Z" fill="#F0F0F0"/>
<path d="M243.624 198.739H245.621V200.74H243.624V198.739Z" fill="#F0F0F0"/>
<path d="M243.624 202.093H245.621V204.093H243.624V202.093Z" fill="#F0F0F0"/>
<path d="M243.624 205.446H245.621V207.447H243.624V205.446Z" fill="#F0F0F0"/>
<path d="M243.624 208.8H245.621V210.8H243.624V208.8Z" fill="#F0F0F0"/>
<path d="M243.624 212.153H245.621V214.154H243.624V212.153Z" fill="#F0F0F0"/>
<path d="M243.624 215.507H245.621V217.507H243.624V215.507Z" fill="#F0F0F0"/>
<path d="M243.624 218.86H245.621V220.861H243.624V218.86Z" fill="#F0F0F0"/>
<path d="M176.804 149.789H178.801V151.79H176.804V149.789Z" fill="#F0F0F0"/>
<path d="M176.804 153.142H178.801V155.143H176.804V153.142Z" fill="#F0F0F0"/>
<path d="M176.804 156.496H178.801V158.496H176.804V156.496Z" fill="#F0F0F0"/>
<path d="M176.804 159.85H178.801V161.851H176.804V159.85Z" fill="#F0F0F0"/>
<path d="M176.804 163.204H178.801V165.204H176.804V163.204Z" fill="#F0F0F0"/>
<path d="M176.804 166.557H178.801V168.558H176.804V166.557Z" fill="#F0F0F0"/>
<path d="M176.804 169.911H178.801V171.911H176.804V169.911Z" fill="#F0F0F0"/>
<path d="M176.804 173.264H178.801V175.265H176.804V173.264Z" fill="#F0F0F0"/>
<path d="M176.804 176.618H178.801V178.618H176.804V176.618Z" fill="#F0F0F0"/>
<path d="M176.804 179.971H178.801V181.972H176.804V179.971Z" fill="#F0F0F0"/>
<path d="M176.804 183.325H178.801V185.325H176.804V183.325Z" fill="#F0F0F0"/>
<path d="M176.804 186.678H178.801V188.679H176.804V186.678Z" fill="#F0F0F0"/>
<path d="M176.804 190.032H178.801V192.032H176.804V190.032Z" fill="#F0F0F0"/>
<path d="M176.804 196.739H178.801V198.739H176.804V196.739Z" fill="#F0F0F0"/>
<path d="M176.804 200.092H178.801V202.093H176.804V200.092Z" fill="#F0F0F0"/>
<path d="M176.804 203.446H178.801V205.446H176.804V203.446Z" fill="#F0F0F0"/>
<path d="M176.804 206.799H178.801V208.8H176.804V206.799Z" fill="#F0F0F0"/>
<path d="M176.804 213.506H178.801V215.507H176.804V213.506Z" fill="#F0F0F0"/>
<path d="M176.804 216.86H178.801V218.86H176.804V216.86Z" fill="#F0F0F0"/>
<path d="M176.804 220.214H178.801V222.214H176.804V220.214Z" fill="#F0F0F0"/>
<path d="M173.633 149.789H175.63V151.79H173.633V149.789Z" fill="#F0F0F0"/>
<path d="M173.633 153.142H175.63V155.143H173.633V153.142Z" fill="#F0F0F0"/>
<path d="M173.633 156.496H175.63V158.496H173.633V156.496Z" fill="#F0F0F0"/>
<path d="M173.633 159.85H175.63V161.851H173.633V159.85Z" fill="#F0F0F0"/>
<path d="M173.633 163.204H175.63V165.204H173.633V163.204Z" fill="#F0F0F0"/>
<path d="M173.633 166.557H175.63V168.558H173.633V166.557Z" fill="#F0F0F0"/>
<path d="M173.633 169.911H175.63V171.911H173.633V169.911Z" fill="#F0F0F0"/>
<path d="M173.633 173.264H175.63V175.265H173.633V173.264Z" fill="#F0F0F0"/>
<path d="M173.633 176.618H175.63V178.618H173.633V176.618Z" fill="#F0F0F0"/>
<path d="M173.633 179.971H175.63V181.972H173.633V179.971Z" fill="#F0F0F0"/>
<path d="M173.633 183.325H175.63V185.325H173.633V183.325Z" fill="#F0F0F0"/>
<path d="M173.633 186.678H175.63V188.679H173.633V186.678Z" fill="#F0F0F0"/>
<path d="M173.633 190.032H175.63V192.032H173.633V190.032Z" fill="#F0F0F0"/>
<path d="M173.633 200.092H175.63V202.093H173.633V200.092Z" fill="#F0F0F0"/>
<path d="M173.633 203.446H175.63V205.446H173.633V203.446Z" fill="#F0F0F0"/>
<path d="M173.633 210.153H175.63V212.153H173.633V210.153Z" fill="#F0F0F0"/>
<path d="M173.633 213.506H175.63V215.507H173.633V213.506Z" fill="#F0F0F0"/>
<path d="M173.633 216.86H175.63V218.86H173.633V216.86Z" fill="#F0F0F0"/>
<path d="M173.633 220.214H175.63V222.214H173.633V220.214Z" fill="#F0F0F0"/>
<path d="M170.463 149.789H172.459V151.79H170.463V149.789Z" fill="#F0F0F0"/>
<path d="M170.463 153.142H172.459V155.143H170.463V153.142Z" fill="#F0F0F0"/>
<path d="M170.463 156.496H172.459V158.496H170.463V156.496Z" fill="#F0F0F0"/>
<path d="M170.463 159.85H172.459V161.851H170.463V159.85Z" fill="#F0F0F0"/>
<path d="M170.463 163.204H172.459V165.204H170.463V163.204Z" fill="#F0F0F0"/>
<path d="M170.463 166.557H172.459V168.558H170.463V166.557Z" fill="#F0F0F0"/>
<path d="M170.463 169.911H172.459V171.911H170.463V169.911Z" fill="#F0F0F0"/>
<path d="M170.463 173.264H172.459V175.265H170.463V173.264Z" fill="#F0F0F0"/>
<path d="M170.463 176.618H172.459V178.618H170.463V176.618Z" fill="#F0F0F0"/>
<path d="M170.463 179.971H172.459V181.972H170.463V179.971Z" fill="#F0F0F0"/>
<path d="M170.463 183.325H172.459V185.325H170.463V183.325Z" fill="#F0F0F0"/>
<path d="M170.463 186.678H172.459V188.679H170.463V186.678Z" fill="#F0F0F0"/>
<path d="M170.463 190.032H172.459V192.032H170.463V190.032Z" fill="#F0F0F0"/>
<path d="M170.463 193.385H172.459V195.386H170.463V193.385Z" fill="#F0F0F0"/>
<path d="M170.463 200.092H172.459V202.093H170.463V200.092Z" fill="#F0F0F0"/>
<path d="M170.463 206.799H172.459V208.8H170.463V206.799Z" fill="#F0F0F0"/>
<path d="M170.463 210.153H172.459V212.153H170.463V210.153Z" fill="#F0F0F0"/>
<path d="M170.463 213.506H172.459V215.507H170.463V213.506Z" fill="#F0F0F0"/>
<path d="M170.463 216.86H172.459V218.86H170.463V216.86Z" fill="#F0F0F0"/>
<path d="M170.463 220.214H172.459V222.214H170.463V220.214Z" fill="#F0F0F0"/>
<path d="M189.722 168.91H191.719V170.911H189.722V168.91Z" fill="#F0F0F0"/>
<path d="M189.722 172.264H191.719V174.264H189.722V172.264Z" fill="#F0F0F0"/>
<path d="M189.722 175.617H191.719V177.618H189.722V175.617Z" fill="#F0F0F0"/>
<path d="M189.722 178.971H191.719V180.971H189.722V178.971Z" fill="#F0F0F0"/>
<path d="M189.722 182.324H191.719V184.325H189.722V182.324Z" fill="#F0F0F0"/>
<path d="M189.722 185.678H191.719V187.679H189.722V185.678Z" fill="#F0F0F0"/>
<path d="M189.722 195.739H191.719V197.739H189.722V195.739Z" fill="#F0F0F0"/>
<path d="M189.722 199.092H191.719V201.093H189.722V199.092Z" fill="#F0F0F0"/>
<path d="M189.722 202.445H191.719V204.446H189.722V202.445Z" fill="#F0F0F0"/>
<path d="M189.722 205.8H191.719V207.8H189.722V205.8Z" fill="#F0F0F0"/>
<path d="M189.722 209.153H191.719V211.154H189.722V209.153Z" fill="#F0F0F0"/>
<path d="M189.722 212.507H191.719V214.507H189.722V212.507Z" fill="#F0F0F0"/>
<path d="M189.722 215.86H191.719V217.861H189.722V215.86Z" fill="#F0F0F0"/>
<path d="M186.551 168.91H188.548V170.911H186.551V168.91Z" fill="#F0F0F0"/>
<path d="M186.551 172.264H188.548V174.264H186.551V172.264Z" fill="#F0F0F0"/>
<path d="M186.551 175.617H188.548V177.618H186.551V175.617Z" fill="#F0F0F0"/>
<path d="M186.551 178.971H188.548V180.971H186.551V178.971Z" fill="#F0F0F0"/>
<path d="M186.551 182.324H188.548V184.325H186.551V182.324Z" fill="#F0F0F0"/>
<path d="M186.551 185.678H188.548V187.679H186.551V185.678Z" fill="#F0F0F0"/>
<path d="M186.551 195.739H188.548V197.739H186.551V195.739Z" fill="#F0F0F0"/>
<path d="M186.551 199.092H188.548V201.093H186.551V199.092Z" fill="#F0F0F0"/>
<path d="M186.551 202.445H188.548V204.446H186.551V202.445Z" fill="#F0F0F0"/>
<path d="M186.551 205.8H188.548V207.8H186.551V205.8Z" fill="#F0F0F0"/>
<path d="M186.551 209.153H188.548V211.154H186.551V209.153Z" fill="#F0F0F0"/>
<path d="M186.551 212.507H188.548V214.507H186.551V212.507Z" fill="#F0F0F0"/>
<path d="M186.551 219.214H188.548V221.214H186.551V219.214Z" fill="#F0F0F0"/>
<path d="M81.2139 154.143H83.2104V156.143H81.2139V154.143Z" fill="#F0F0F0"/>
<path d="M81.2139 157.496H83.2104V159.497H81.2139V157.496Z" fill="#F0F0F0"/>
<path d="M81.2139 160.85H83.2104V162.85H81.2139V160.85Z" fill="#F0F0F0"/>
<path d="M81.2139 164.204H83.2104V166.204H81.2139V164.204Z" fill="#F0F0F0"/>
<path d="M81.2139 167.557H83.2104V169.558H81.2139V167.557Z" fill="#F0F0F0"/>
<path d="M81.2139 170.911H83.2104V172.911H81.2139V170.911Z" fill="#F0F0F0"/>
<path d="M81.2139 174.264H83.2104V176.265H81.2139V174.264Z" fill="#F0F0F0"/>
<path d="M81.2139 177.618H83.2104V179.618H81.2139V177.618Z" fill="#F0F0F0"/>
<path d="M81.2139 180.971H83.2104V182.972H81.2139V180.971Z" fill="#F0F0F0"/>
<path d="M81.2139 184.325H83.2104V186.325H81.2139V184.325Z" fill="#F0F0F0"/>
<path d="M81.2139 187.678H83.2104V189.679H81.2139V187.678Z" fill="#F0F0F0"/>
<path d="M81.2139 194.385H83.2104V196.386H81.2139V194.385Z" fill="#F0F0F0"/>
<path d="M81.2139 197.739H83.2104V199.74H81.2139V197.739Z" fill="#F0F0F0"/>
<path d="M81.2139 201.093H83.2104V203.093H81.2139V201.093Z" fill="#F0F0F0"/>
<path d="M81.2139 204.446H83.2104V206.447H81.2139V204.446Z" fill="#F0F0F0"/>
<path d="M81.2139 207.8H83.2104V209.8H81.2139V207.8Z" fill="#F0F0F0"/>
<path d="M81.2139 211.153H83.2104V213.154H81.2139V211.153Z" fill="#F0F0F0"/>
<path d="M81.2139 214.506H83.2104V216.507H81.2139V214.506Z" fill="#F0F0F0"/>
<path d="M81.2139 217.86H83.2104V219.86H81.2139V217.86Z" fill="#F0F0F0"/>
<path d="M78.043 154.143H80.0396V156.143H78.043V154.143Z" fill="#F0F0F0"/>
<path d="M78.043 157.496H80.0396V159.497H78.043V157.496Z" fill="#F0F0F0"/>
<path d="M78.043 160.85H80.0396V162.85H78.043V160.85Z" fill="#F0F0F0"/>
<path d="M78.043 164.204H80.0396V166.204H78.043V164.204Z" fill="#F0F0F0"/>
<path d="M78.043 167.557H80.0396V169.558H78.043V167.557Z" fill="#F0F0F0"/>
<path d="M78.043 170.911H80.0396V172.911H78.043V170.911Z" fill="#F0F0F0"/>
<path d="M78.043 174.264H80.0396V176.265H78.043V174.264Z" fill="#F0F0F0"/>
<path d="M78.043 177.618H80.0396V179.618H78.043V177.618Z" fill="#F0F0F0"/>
<path d="M78.043 180.971H80.0396V182.972H78.043V180.971Z" fill="#F0F0F0"/>
<path d="M78.043 184.325H80.0396V186.325H78.043V184.325Z" fill="#F0F0F0"/>
<path d="M78.043 187.678H80.0396V189.679H78.043V187.678Z" fill="#F0F0F0"/>
<path d="M78.043 191.032H80.0396V193.033H78.043V191.032Z" fill="#F0F0F0"/>
<path d="M78.043 194.385H80.0396V196.386H78.043V194.385Z" fill="#F0F0F0"/>
<path d="M78.043 197.739H80.0396V199.74H78.043V197.739Z" fill="#F0F0F0"/>
<path d="M78.043 201.093H80.0396V203.093H78.043V201.093Z" fill="#F0F0F0"/>
<path d="M78.043 204.446H80.0396V206.447H78.043V204.446Z" fill="#F0F0F0"/>
<path d="M78.043 207.8H80.0396V209.8H78.043V207.8Z" fill="#F0F0F0"/>
<path d="M78.043 211.153H80.0396V213.154H78.043V211.153Z" fill="#F0F0F0"/>
<path d="M78.043 214.506H80.0396V216.507H78.043V214.506Z" fill="#F0F0F0"/>
<path d="M78.043 217.86H80.0396V219.86H78.043V217.86Z" fill="#F0F0F0"/>
<path d="M96.8321 167.204H98.8286V169.205H96.8321V167.204Z" fill="#F0F0F0"/>
<path d="M96.8321 170.558H98.8286V172.558H96.8321V170.558Z" fill="#F0F0F0"/>
<path d="M96.8321 173.911H98.8286V175.912H96.8321V173.911Z" fill="#F0F0F0"/>
<path d="M96.8321 177.264H98.8286V179.265H96.8321V177.264Z" fill="#F0F0F0"/>
<path d="M96.8321 180.618H98.8286V182.619H96.8321V180.618Z" fill="#F0F0F0"/>
<path d="M96.8321 183.972H98.8286V185.973H96.8321V183.972Z" fill="#F0F0F0"/>
<path d="M96.8321 187.325H98.8286V189.325H96.8321V187.325Z" fill="#F0F0F0"/>
<path d="M96.8321 190.678H98.8286V192.679H96.8321V190.678Z" fill="#F0F0F0"/>
<path d="M96.8321 194.033H98.8286V196.033H96.8321V194.033Z" fill="#F0F0F0"/>
<path d="M96.8321 197.386H98.8286V199.387H96.8321V197.386Z" fill="#F0F0F0"/>
<path d="M93.6621 167.204H95.6587V169.205H93.6621V167.204Z" fill="#F0F0F0"/>
<path d="M93.6621 170.558H95.6587V172.558H93.6621V170.558Z" fill="#F0F0F0"/>
<path d="M93.6621 173.911H95.6587V175.912H93.6621V173.911Z" fill="#F0F0F0"/>
<path d="M93.6621 177.264H95.6587V179.265H93.6621V177.264Z" fill="#F0F0F0"/>
<path d="M93.6621 180.618H95.6587V182.619H93.6621V180.618Z" fill="#F0F0F0"/>
<path d="M93.6621 183.972H95.6587V185.973H93.6621V183.972Z" fill="#F0F0F0"/>
<path d="M93.6621 187.325H95.6587V189.325H93.6621V187.325Z" fill="#F0F0F0"/>
<path d="M93.6621 190.678H95.6587V192.679H93.6621V190.678Z" fill="#F0F0F0"/>
<path d="M93.6621 194.033H95.6587V196.033H93.6621V194.033Z" fill="#F0F0F0"/>
<path d="M248.914 86.9944C248.914 83.5597 251.693 80.7748 255.121 80.7748C255.741 80.7748 256.338 80.8686 256.904 81.0379C256.814 80.4143 256.764 79.7774 256.764 79.1284C256.764 71.8542 262.649 65.9577 269.909 65.9577C270.736 65.9577 271.545 66.0382 272.33 66.1849C274.35 62.8716 277.981 60.6531 282.14 60.6531C288.434 60.6531 293.539 65.72 293.633 72.0045C293.697 72.0031 293.759 71.9946 293.824 71.9946C299.672 71.9946 304.413 76.7448 304.413 82.6046C304.413 88.4644 299.672 93.2139 293.824 93.2139H254.939L254.947 93.2055C251.6 93.1117 248.914 90.3705 248.914 86.9944Z" fill="#F0F0F0"/>
<path d="M198.415 75.8117C198.415 73.6186 196.641 71.8403 194.452 71.8403C194.057 71.8403 193.675 71.9002 193.314 72.0081C193.372 71.6103 193.403 71.2033 193.403 70.7892C193.403 66.1448 189.645 62.38 185.01 62.38C184.481 62.38 183.965 62.4315 183.464 62.5246C182.174 60.4091 179.855 58.9927 177.201 58.9927C173.182 58.9927 169.923 62.2277 169.863 66.24C169.822 66.2393 169.782 66.2337 169.741 66.2337C166.007 66.2337 162.981 69.2662 162.981 73.0077C162.981 76.7492 166.007 79.7817 169.741 79.7817H194.568L194.563 79.7761C196.7 79.7175 198.415 77.9674 198.415 75.8117Z" fill="#F0F0F0"/>
<path d="M83.3525 85.695C83.3525 83.5019 81.5785 81.7243 79.3897 81.7243C78.9941 81.7243 78.6125 81.7842 78.2521 81.8922C78.3098 81.4943 78.3408 81.0873 78.3408 80.6732C78.3408 76.0288 74.5835 72.2641 69.9484 72.2641C69.4204 72.2641 68.9036 72.3156 68.4024 72.4087C67.1127 70.2932 64.7937 68.8767 62.1389 68.8767C58.1205 68.8767 54.861 72.1117 54.8011 76.1241C54.7603 76.1234 54.7202 76.1177 54.6793 76.1177C50.9453 76.1177 47.9188 79.1502 47.9188 82.8917C47.9188 86.6332 50.9453 89.6657 54.6793 89.6657H79.5066L79.5017 89.6601C81.6376 89.6008 83.3525 87.85 83.3525 85.695Z" fill="#F0F0F0"/>
<path d="M241.325 36.1557C241.325 34.8119 240.238 33.7235 238.898 33.7235C238.656 33.7235 238.422 33.7602 238.201 33.8265C238.236 33.5824 238.255 33.3334 238.255 33.0795C238.255 30.2346 235.954 27.9279 233.114 27.9279C232.79 27.9279 232.474 27.9596 232.167 28.0168C231.377 26.7209 229.956 25.8533 228.33 25.8533C225.868 25.8533 223.872 27.8355 223.835 30.2931C223.81 30.2924 223.786 30.2896 223.76 30.2896C221.473 30.2896 219.619 32.1476 219.619 34.4395C219.619 36.7313 221.473 38.5894 223.76 38.5894H238.97L238.967 38.5859C240.274 38.5485 241.325 37.4763 241.325 36.1557Z" fill="#F0F0F0"/>
<path d="M137.87 37.9314C137.87 36.5876 136.783 35.4984 135.443 35.4984C135.201 35.4984 134.967 35.5351 134.746 35.6014C134.781 35.3573 134.8 35.1083 134.8 34.8544C134.8 32.0095 132.498 29.7035 129.659 29.7035C129.335 29.7035 129.019 29.7353 128.712 29.7924C127.922 28.4966 126.501 27.6289 124.875 27.6289C122.413 27.6289 120.417 29.6104 120.38 32.0687C120.355 32.068 120.331 32.0652 120.305 32.0652C118.018 32.0652 116.164 33.9232 116.164 36.2151C116.164 38.507 118.018 40.365 120.305 40.365H135.515L135.512 40.3615C136.82 40.3234 137.87 39.2512 137.87 37.9314Z" fill="#F0F0F0"/>
<path d="M176.5 261.253C101.115 261.253 40.0023 257.677 40.0023 253.265C40.0023 248.854 101.115 245.278 176.5 245.278C251.886 245.278 312.998 248.854 312.998 253.265C312.998 257.677 251.886 261.253 176.5 261.253Z" fill="#F5F5F5"/>
<path d="M292.505 121.342H300.913V242.877H292.505V121.342Z" fill="#6374FF"/>
<path d="M276.335 147.094H284.743V242.877H276.335V147.094Z" fill="#6374FF"/>
<path d="M260.164 167.192H268.572V242.878H260.164V167.192Z" fill="#6374FF"/>
<path d="M243.994 184.992H252.402V242.878H243.994V184.992Z" fill="#6374FF"/>
<path d="M227.823 200.556H236.231V242.877H227.823V200.556Z" fill="#6374FF"/>
<path d="M211.653 211.818H220.061V242.878H211.653V211.818Z" fill="#6374FF"/>
<path d="M195.483 221.073H203.891V242.878H195.483V221.073Z" fill="#6374FF"/>
<g opacity="0.7">
<path d="M292.505 121.342H300.913V242.877H292.505V121.342Z" fill="white"/>
<path d="M276.335 147.094H284.743V242.877H276.335V147.094Z" fill="white"/>
<path d="M260.164 167.192H268.572V242.878H260.164V167.192Z" fill="white"/>
<path d="M243.994 184.992H252.402V242.878H243.994V184.992Z" fill="white"/>
<path d="M227.823 200.556H236.231V242.877H227.823V200.556Z" fill="white"/>
<path d="M211.653 211.818H220.061V242.878H211.653V211.818Z" fill="white"/>
<path d="M195.483 221.073H203.891V242.878H195.483V221.073Z" fill="white"/>
</g>
<path d="M302.077 88.4563L303.776 97.9715L294.29 94.163L302.077 88.4563Z" fill="#6374FF"/>
<path d="M299.381 95.502C299.381 95.502 267.26 181.619 182.322 222.214" stroke="#6374FF" stroke-width="8" stroke-miterlimit="10"/>
<path d="M100.218 245.605C100.218 245.605 105.815 234.659 104.408 233.587C103.001 232.515 100.22 242.732 100.218 241.937C100.215 241.143 100.374 227.225 97.7881 227.777C95.2023 228.328 97.7881 241.143 97.7881 241.143C97.7881 241.143 94.3082 234.595 92.9453 235.09C91.5816 235.584 96.9665 243.371 96.9665 243.371C96.9665 243.371 93.7521 241.423 92.9453 241.574C92.1385 241.724 96.9665 245.606 96.9665 245.606H100.218V245.605Z" fill="#6374FF"/>
<path d="M251.362 248.677C251.362 248.677 245.764 237.731 247.172 236.659C248.579 235.586 251.359 245.804 251.362 245.009C251.364 244.214 251.206 230.297 253.791 230.848C256.377 231.4 253.791 244.214 253.791 244.214C253.791 244.214 258.632 234.964 259.916 237.322C261.031 239.369 254.614 246.443 254.614 246.443C254.614 246.443 260.996 242.112 261.031 244.02C261.067 246.067 254.614 248.677 254.614 248.677H251.362V248.677Z" fill="#6374FF"/>
<path d="M165.532 239.468C165.532 239.468 170.845 232.848 168.806 232.241C166.766 231.633 165.366 237.142 165.003 236.413C164.641 235.685 164.88 228.408 161.483 229.5C158.087 230.593 162.749 236.805 162.749 236.805C162.749 236.805 159.685 234.457 158.86 235.052C158.034 235.647 162.541 239.989 162.541 239.989L165.532 239.468Z" fill="#6374FF"/>
<path d="M214.195 231.336C214.195 231.336 210.6 223.642 212.725 223.536C214.852 223.43 215.541 229.388 215.541 229.388C215.541 229.388 216.743 221.405 219.926 222.509C223.297 223.678 217.49 229.973 217.49 229.973C217.49 229.973 223.06 226.439 223.431 228.392C223.887 230.789 216.224 232.222 216.224 232.222L214.195 231.336Z" fill="#6374FF"/>
<path d="M270.462 253.742H80.8374L88.6349 245.278L145.121 239.321H164.88L179.149 227.739L216.206 230.762L246.637 242.194L252.9 247.978H262.619L270.462 253.742Z" fill="#0C213A"/>
<path opacity="0.5" d="M270.462 253.742H80.8374L88.6349 245.278L145.121 239.321H164.88L179.149 227.739L216.206 230.762L246.637 242.194L252.9 247.978H262.619L270.462 253.742Z" fill="white"/>
<path opacity="0.2" d="M252.9 247.977L232.941 251.382H222.132L234.387 249.256L246.637 242.194L252.9 247.977Z" fill="black"/>
<path opacity="0.2" d="M164.88 239.321H175.649L192.982 245.509L184.07 236.683L171.19 234.198L164.88 239.321Z" fill="black"/>
<path opacity="0.2" d="M88.635 245.278L109.059 251.382L126.794 246.788L111.006 253.742H80.8375L88.635 245.278Z" fill="black"/>
<path d="M185.935 232.345L190.866 230.949L189.038 219.113L184.108 220.509L185.935 232.345Z" fill="#E4897B"/>
<path d="M190.978 226.805H184.731C184.521 226.805 184.339 226.951 184.291 227.156L183.234 231.719C183.124 232.192 183.491 232.64 183.975 232.632C185.985 232.597 187.453 232.479 189.984 232.479C191.541 232.479 196.236 232.641 198.387 232.641C200.491 232.641 200.84 230.51 199.961 230.318C196.022 229.452 193.059 228.259 191.807 227.121C191.58 226.916 191.284 226.805 190.978 226.805Z" fill="#0C213A"/>
<path d="M106.359 246.068L111.373 247.124L115.238 235.79L110.224 234.733L106.359 246.068Z" fill="#E4897B"/>
<path d="M150.25 134.088C150.25 134.088 173.656 159.961 179.982 170.199C186.307 180.436 191.814 223.741 191.814 223.741L182.488 225.998C182.488 225.998 171.647 183.775 168.76 179.547C165.872 175.318 135.22 146.658 135.22 146.658L150.25 134.088Z" fill="#0C213A"/>
<path opacity="0.1" d="M135.216 146.658C135.216 146.658 136.37 147.738 138.257 149.51C140.792 151.899 144.649 155.536 148.784 159.493C157.384 167.704 167.186 177.24 168.761 179.543C171.649 183.771 182.489 225.999 182.489 225.999L191.812 223.738C191.812 223.738 186.304 180.439 179.979 170.202C173.654 159.957 150.249 134.092 150.249 134.092L135.216 146.658Z" fill="white"/>
<path opacity="0.2" d="M138.257 149.51C140.792 151.899 144.649 155.536 148.784 159.493C146.047 152.05 139.427 147.232 139.427 147.232L138.257 149.51Z" fill="black"/>
<path d="M142.095 135.942C142.095 135.942 136.076 179.973 133.169 194.753C129.985 210.937 115.816 240.965 115.816 240.965L106.632 239.029C106.632 239.029 116.288 211.277 118.423 195.028C120.812 176.857 124.398 135.811 124.398 135.811L142.095 135.942Z" fill="#0C213A"/>
<g opacity="0.1">
<path d="M142.095 135.942C142.095 135.942 136.076 179.973 133.169 194.753C129.985 210.937 115.816 240.965 115.816 240.965L106.632 239.029C106.632 239.029 116.288 211.277 118.423 195.028C120.812 176.857 124.398 135.811 124.398 135.811L142.095 135.942Z" fill="white"/>
</g>
<path d="M177.79 80.8996L178.192 75.6824L172.789 77.7746C172.789 77.7746 172.71 82.4515 175.117 82.3908L177.79 80.8996Z" fill="#E4897B"/>
<path d="M176.09 72.6716L170.988 72.9933L172.789 77.7745L178.192 75.6823L176.09 72.6716Z" fill="#E4897B"/>
<path d="M177.975 81.8172L177.83 80.3726L173.469 81.2649L173.813 82.7879L177.975 81.8172Z" fill="#6374FF"/>
<path opacity="0.7" d="M177.975 81.8172L177.83 80.3726L173.469 81.2649L173.813 82.7879L177.975 81.8172Z" fill="white"/>
<path d="M157.157 74.0669H168.454C168.852 74.0669 169.175 74.9303 169.175 75.9948C169.175 77.0592 168.852 77.9226 168.454 77.9226H157.157C156.759 77.9226 156.436 77.0592 156.436 75.9948C156.436 74.9303 156.759 74.0669 157.157 74.0669Z" fill="#6374FF"/>
<path opacity="0.4" d="M157.157 74.0669H168.454C168.852 74.0669 169.175 74.9303 169.175 75.9948C169.175 77.0592 168.852 77.9226 168.454 77.9226H157.157C156.759 77.9226 156.436 77.0592 156.436 75.9948C156.436 74.9303 156.759 74.0669 157.157 74.0669Z" fill="white"/>
<path d="M168.622 73.5364H182.102C182.61 73.5364 183.022 74.6368 183.022 75.9947C183.022 77.3526 182.61 78.4531 182.102 78.4531H168.622C168.114 78.4531 167.702 77.3526 167.702 75.9947C167.702 74.6375 168.114 73.5364 168.622 73.5364Z" fill="#6374FF"/>
<path opacity="0.2" d="M168.622 73.5364H182.102C182.61 73.5364 183.022 74.6368 183.022 75.9947C183.022 77.3526 182.61 78.4531 182.102 78.4531H168.622C168.114 78.4531 167.702 77.3526 167.702 75.9947C167.702 74.6375 168.114 73.5364 168.622 73.5364Z" fill="white"/>
<path d="M181.916 73.0405H196.001C196.613 73.0405 197.107 74.3632 197.107 75.9955C197.107 77.6271 196.612 78.9504 196.001 78.9504H181.916C181.305 78.9504 180.81 77.6278 180.81 75.9955C180.81 74.3632 181.305 73.0405 181.916 73.0405Z" fill="#6374FF"/>
<path opacity="0.4" d="M181.916 73.0405H196.001C196.613 73.0405 197.107 74.3632 197.107 75.9955C197.107 77.6271 196.612 78.9504 196.001 78.9504H181.916C181.305 78.9504 180.81 77.6278 180.81 75.9955C180.81 74.3632 181.305 73.0405 181.916 73.0405Z" fill="white"/>
<path opacity="0.2" d="M194.894 75.9955C194.894 77.6271 195.389 78.9504 196 78.9504C196.612 78.9504 197.106 77.6278 197.106 75.9955C197.106 74.3632 196.611 73.0405 196 73.0405C195.39 73.0405 194.894 74.3632 194.894 75.9955Z" fill="white"/>
<path d="M196.001 78.6139C196.272 78.6139 196.771 77.6192 196.771 75.9947C196.771 74.3708 196.272 73.3762 196.001 73.3762C195.73 73.3762 195.23 74.3708 195.23 75.9947C195.23 77.6192 195.729 78.6139 196.001 78.6139Z" fill="black"/>
<path d="M113.197 242.005H106.95C106.741 242.005 106.558 242.151 106.51 242.356L105.452 246.919C105.342 247.392 105.709 247.84 106.194 247.832C108.204 247.797 109.671 247.679 112.203 247.679C113.76 247.679 118.455 247.842 120.606 247.842C122.709 247.842 123.059 245.711 122.18 245.518C118.241 244.653 115.278 243.46 114.026 242.321C113.8 242.115 113.504 242.005 113.197 242.005Z" fill="#0C213A"/>
<path d="M159.143 93.974C159.143 93.974 161.922 94.6449 164.865 95.0914C166.34 95.3044 167.808 95.5104 169.223 95.6564C169.93 95.7284 170.622 95.7735 171.252 95.8039C171.383 95.8095 171.506 95.8116 171.626 95.8137C171.79 95.3644 171.943 94.836 172.077 94.2886C172.408 92.947 172.684 91.4896 172.921 90.0181C173.392 87.0709 173.535 82.0646 173.535 82.0646L178.067 80.9543C178.492 84.1266 178.728 87.2572 178.721 90.4816C178.708 92.0941 178.66 93.718 178.456 95.425C178.347 96.2828 178.213 97.1561 177.956 98.1338C177.821 98.6262 177.665 99.1461 177.38 99.7527C177.222 100.071 177.063 100.386 176.777 100.78C176.491 101.161 176.126 101.61 175.449 102.055C175.265 102.169 175.077 102.273 174.879 102.366C174.662 102.46 174.422 102.545 174.206 102.607L173.716 102.727C173.387 102.803 173.135 102.837 172.85 102.884C172.331 102.953 171.846 102.998 171.39 103.024C170.476 103.08 169.623 103.074 168.788 103.053C167.121 103.013 165.516 102.896 163.924 102.734C160.737 102.416 157.659 101.944 154.521 101.314L159.143 93.974Z" fill="#0C213A"/>
<path d="M129.82 92.3008C130.003 98.0315 129.622 102.965 128.992 108.377C128.528 112.348 127.921 116.114 127.291 119.52C125.813 127.521 124.209 133.533 123.949 135.633C127.823 136.205 142.872 138.42 151.389 139.67C162.311 110.388 158.503 93.8605 158.503 93.8605C158.503 93.8605 155.536 92.8003 152.007 92.0793C151.546 91.982 151.074 91.898 150.594 91.819C147.507 91.309 142.406 91.053 138.915 90.9676C138.186 90.9507 137.446 90.9521 136.725 90.9648C133.079 91.0374 129.82 92.3008 129.82 92.3008Z" fill="#6374FF"/>
<path opacity="0.7" d="M129.82 92.3008C130.003 98.0315 129.622 102.965 128.992 108.377C128.528 112.348 127.921 116.114 127.291 119.52C125.813 127.521 124.209 133.533 123.949 135.633C127.823 136.205 142.872 138.42 151.389 139.67C162.311 110.388 158.503 93.8605 158.503 93.8605C158.503 93.8605 155.536 92.8003 152.007 92.0793C151.546 91.982 151.074 91.898 150.594 91.819C147.507 91.309 142.406 91.053 138.915 90.9676C138.186 90.9507 137.446 90.9521 136.725 90.9648C133.079 91.0374 129.82 92.3008 129.82 92.3008Z" fill="white"/>
<path d="M148.165 98.464C148.507 100.597 149.592 106.077 149.544 111.479C149.037 112.527 148.355 115.081 147.739 116.118C147.289 114.935 146.507 112.5 145.972 111.308C146.448 106.175 147.356 101.027 147.076 98.3335L148.165 98.464Z" fill="#6374FF"/>
<path d="M147.841 100.088L149.185 97.6887L147.479 96.6038L145.971 97.233L147.841 100.088Z" fill="#6374FF"/>
<path d="M142.335 78.9136C142.46 82.7291 142.081 89.6273 139.084 91.7012C140.668 93.9493 143.215 96.0458 147.394 96.5932C150.596 97.0129 150.487 94.326 149.977 92.9829C146.645 91.5643 147.239 88.7984 148.428 86.0304L142.335 78.9136Z" fill="#E4897B"/>
<path d="M147.479 96.6039C147.479 96.6039 146.036 97.966 144.387 99.2802C142.452 97.8588 137.969 94.1575 138.561 91.417C138.951 90.6495 140.088 90.3145 140.088 90.3145C140.088 90.3145 142.768 93.7209 147.479 96.6039Z" fill="white"/>
<path d="M147.479 96.604C147.479 96.604 148.932 98.1841 149.768 100.048C151.433 99.209 150.841 93.7189 150.352 93.0671C148.984 91.439 147.72 90.9551 147.72 90.9551C147.72 90.9551 148.798 93.9016 147.479 96.604Z" fill="white"/>
<path opacity="0.2" d="M144.819 81.8171L148.426 86.027C148.142 86.6816 147.895 87.3518 147.738 88.0163C146.195 87.5465 144.307 85.4817 144.409 83.8036C144.459 82.967 144.623 82.1804 144.819 81.8171Z" fill="black"/>
<path d="M155.495 70.0995C156.28 72.0161 156.285 76.0899 153.427 75.0092C150.57 73.9278 154.144 66.8053 155.495 70.0995Z" fill="#0C213A"/>
<path d="M141.56 73.9667C141.687 79.0534 141.503 82.0401 143.973 84.7143C147.688 88.7379 154.04 86.578 155.436 81.5407C156.692 77.007 156.273 69.45 151.376 67.2971C146.552 65.1759 141.432 68.88 141.56 73.9667Z" fill="#E4897B"/>
<path d="M144.632 65.3298C144.81 65.3382 144.955 65.4081 145.102 65.413C145.102 65.413 144.665 75.3592 142.382 77.5319C136.551 75.8805 133.552 64.7986 144.632 65.3298Z" fill="#0C213A"/>
<path d="M139.452 78.1264C139.81 79.4476 140.746 80.4747 141.733 81.0115C143.217 81.8185 144.35 80.5749 144.265 78.9708C144.188 77.5268 143.323 75.3669 141.675 75.2201C140.052 75.0755 139.043 76.6154 139.452 78.1264Z" fill="#E4897B"/>
<path d="M153.883 75.7139C153.869 76.1272 154.076 76.4687 154.345 76.4757C154.616 76.4828 154.847 76.1533 154.862 75.74C154.877 75.3266 154.67 74.9852 154.4 74.9781C154.13 74.9711 153.898 75.3005 153.883 75.7139Z" fill="#0C213A"/>
<path d="M152.39 75.8804C152.39 75.8804 153.27 78.2026 154.274 79.3453C153.529 79.9717 152.297 79.6261 152.297 79.6261L152.39 75.8804Z" fill="#DE5753"/>
<path d="M150.025 81.1491C150.194 81.1766 150.373 81.1942 150.562 81.1985C150.629 81.2006 150.686 81.1477 150.688 81.0807C150.691 81.013 150.637 80.9579 150.571 80.9558C148.755 80.9057 147.955 79.6177 147.947 79.6043C147.913 79.5471 147.838 79.5295 147.78 79.564C147.723 79.5993 147.704 79.6741 147.739 79.7312C147.77 79.7841 148.46 80.8952 150.025 81.1491Z" fill="#0C213A"/>
<path d="M148.876 74.4986C148.948 74.543 149.041 74.5486 149.121 74.5049C150.077 73.9843 150.872 74.3949 150.879 74.3991C150.998 74.4619 151.145 74.4174 151.21 74.2996C151.274 74.1818 151.229 74.0351 151.111 73.9723C151.069 73.9497 150.073 73.4348 148.888 74.081C148.77 74.1451 148.727 74.2926 148.791 74.4097C148.812 74.4471 148.841 74.4774 148.876 74.4986Z" fill="#0C213A"/>
<path d="M156.216 73.8552C156.261 73.8461 156.304 73.8242 156.339 73.7889C156.435 73.6944 156.437 73.5399 156.344 73.444C155.407 72.4846 154.313 72.7083 154.263 72.7118C154.132 72.7393 154.047 72.8684 154.073 72.9996C154.099 73.1308 154.225 73.2154 154.355 73.1893C154.4 73.1781 155.245 73.0172 155.997 73.7868C156.056 73.8482 156.139 73.8701 156.216 73.8552Z" fill="#0C213A"/>
<path d="M150.352 75.7275C150.352 75.7275 149.832 75.221 149.204 75.5264" stroke="#0C213A" stroke-width="0.2991" stroke-miterlimit="10" stroke-linecap="round" stroke-linejoin="round"/>
<path d="M143.27 71.9203C143.27 71.9203 145.507 71.8088 146.415 69.639C147.323 67.4691 148.101 69.2369 148.101 69.2369C148.101 69.2369 148.399 68.5816 150.352 68.1922C152.305 67.8028 153.598 73.0616 155.708 72.213C157.818 71.3637 157.205 69.2369 157.205 69.2369C157.205 69.2369 156.28 68.7833 155.24 65.9109C154.068 62.6759 148.434 61.2369 143.547 63.6853C138.661 66.1338 143.27 71.9203 143.27 71.9203Z" fill="#0C213A"/>
<path d="M120.116 142.379L140.606 146.657L145.972 138.874L149.172 146.118L158.099 141.046L153.349 134.092C162.15 112.666 159.143 93.974 159.143 93.974C155.244 92.0751 150.25 91.7633 150.25 91.7633C155.362 99.5439 147.74 116.117 147.74 116.117C143.158 103.316 137.675 90.9528 137.675 90.9528C133.018 90.6064 129.001 91.8557 129.001 91.8557C129.001 91.8557 127.005 121.054 124.36 128.472C121.724 135.882 120.116 142.379 120.116 142.379Z" fill="#0C213A"/>
<path opacity="0.1" d="M140.665 101.535L136.387 106.936C136.387 106.936 146.384 114.109 149.323 126.017L148.271 119.063L156.491 107.493L152.709 102.759L157.207 99.4178C157.207 99.4178 153.341 92.8949 150.25 91.7634C155.362 99.544 147.74 116.118 147.74 116.118C143.158 103.316 137.675 90.9529 137.675 90.9529C137.675 90.9529 134.054 93.5269 132.108 98.919L140.665 101.535Z" fill="white"/>
<path d="M96.831 137.556C96.4903 138.959 99.0296 140.783 102.503 141.631C105.977 142.479 109.069 142.029 109.411 140.625C109.751 139.222 107.212 137.398 103.739 136.55C100.265 135.702 97.1724 136.152 96.831 137.556Z" stroke="#0C213A" stroke-width="1.1963" stroke-miterlimit="10"/>
<path d="M87.1377 135.827L81.7169 158.129C81.5395 158.859 81.983 159.601 82.7194 159.781L115.189 167.705C115.917 167.882 116.66 167.429 116.837 166.7L122.258 144.399C122.438 143.661 121.984 142.924 121.256 142.747L88.7865 134.823C88.0494 134.643 87.3172 135.089 87.1377 135.827Z" fill="#0C213A"/>
<path opacity="0.1" d="M87.1377 135.827L81.7169 158.129C81.5395 158.859 81.983 159.601 82.7194 159.781L115.189 167.705C115.917 167.882 116.66 167.429 116.837 166.7L122.258 144.399C122.438 143.661 121.984 142.924 121.256 142.747L88.7865 134.823C88.0494 134.643 87.3172 135.089 87.1377 135.827Z" fill="white"/>
<path d="M119.067 143.619L113.646 165.92C113.469 166.65 113.921 167.395 114.649 167.573L115.189 167.704C115.917 167.882 116.66 167.429 116.837 166.7L122.258 144.399C122.438 143.661 121.984 142.924 121.256 142.746L120.716 142.615C119.987 142.436 119.246 142.88 119.067 143.619Z" fill="#0C213A"/>
<path d="M120.357 142.546C119.675 142.38 118.959 142.887 118.792 143.57L116.279 153.91C116.138 154.492 115.553 154.848 114.973 154.707L85.1455 147.428C84.5654 147.286 84.2091 146.7 84.3506 146.118L86.8724 135.745C87.0491 135.018 87.7799 134.573 88.5043 134.75L120.987 142.677L120.357 142.546Z" fill="#0C213A"/>
<path opacity="0.2" d="M120.357 142.546C119.675 142.38 118.959 142.887 118.792 143.57L116.279 153.91C116.138 154.492 115.553 154.848 114.973 154.707L85.1455 147.428C84.5654 147.286 84.2091 146.7 84.3506 146.118L86.8724 135.745C87.0491 135.018 87.7799 134.573 88.5043 134.75L120.987 142.677L120.357 142.546Z" fill="white"/>
<path d="M97.1402 155.624L99.555 156.213C99.7711 156.266 99.9886 156.133 100.041 155.916L101.497 149.929L98.2997 149.149L96.8445 155.135C96.7917 155.353 96.9241 155.571 97.1402 155.624Z" fill="#0C213A"/>
<path d="M97.3591 153.902L100.151 154.583C100.486 154.665 100.824 154.459 100.906 154.123L101.231 152.785C101.313 152.449 101.107 152.111 100.772 152.029L97.98 151.348C97.6449 151.266 97.307 151.472 97.2254 151.807L96.9001 153.146C96.8185 153.481 97.024 153.82 97.3591 153.902Z" stroke="white" stroke-width="0.5982" stroke-miterlimit="10"/>
<path d="M106.599 130.575L107.492 135.703L101.147 133.981C101.147 133.981 101.358 129.455 103.778 129.319L106.599 130.575Z" fill="#E4897B"/>
<path d="M105.489 139.469L100.31 137.8L101.147 133.98L107.492 135.703L105.489 139.469Z" fill="#E4897B"/>
<path d="M106.997 128.514L106.834 130.815L102.632 129.947L102.962 127.786L106.997 128.514Z" fill="#6374FF"/>
<path opacity="0.7" d="M106.997 128.514L106.834 130.815L102.632 129.947L102.962 127.786L106.997 128.514Z" fill="white"/>
<path d="M129.109 91.7896C125.372 93.2723 121.864 94.9096 118.346 96.8438C116.598 97.8158 114.86 98.85 113.149 100.053C112.291 100.654 111.437 101.303 110.583 102.034C109.733 102.783 108.883 103.584 108.038 104.746C107.827 105.06 107.622 105.333 107.42 105.729C107.323 105.91 107.216 106.111 107.137 106.28L106.975 106.684L106.658 107.491L106.403 108.248C106.227 108.755 106.086 109.251 105.952 109.737C105.81 110.228 105.676 110.715 105.557 111.196C105.047 113.127 104.652 115.041 104.27 116.951C103.53 120.78 102.961 124.597 102.561 128.474L107.085 129.317C107.085 129.317 108.782 122.049 109.991 118.466C110.583 116.671 111.212 114.891 111.842 113.163C111.998 112.726 112.161 112.303 112.329 111.888C112.491 111.463 112.662 111.053 112.832 110.667L113.083 110.079L113.336 109.568L113.461 109.313C113.491 109.268 113.507 109.263 113.526 109.235C113.537 109.201 113.638 109.102 113.699 109.022C114.012 108.655 114.585 108.154 115.209 107.687C115.838 107.209 116.535 106.734 117.272 106.277C118.753 105.369 120.337 104.494 121.966 103.668C125.211 102.019 128.66 100.447 131.997 99.0136L129.109 91.7896Z" fill="#0C213A"/>
<path d="M87.6245 93.7709C69.1818 93.7709 54.231 78.7902 54.231 60.3106C54.231 41.831 69.1818 26.8503 87.6245 26.8503C106.067 26.8503 121.018 41.831 121.018 60.3106C121.018 78.7902 106.067 93.7709 87.6245 93.7709Z" fill="#6374FF"/>
<path opacity="0.7" d="M87.6245 93.7709C69.1818 93.7709 54.231 78.7902 54.231 60.3106C54.231 41.831 69.1818 26.8503 87.6245 26.8503C106.067 26.8503 121.018 41.831 121.018 60.3106C121.018 78.7902 106.067 93.7709 87.6245 93.7709Z" fill="white"/>
<path d="M121.948 76.5738C120 76.5738 118.421 74.9919 118.421 73.0405C118.421 71.089 120 69.5071 121.948 69.5071C123.895 69.5071 125.474 71.089 125.474 73.0405C125.474 74.9919 123.895 76.5738 121.948 76.5738Z" fill="#6374FF"/>
<path opacity="0.7" d="M121.948 76.5738C120 76.5738 118.421 74.9919 118.421 73.0405C118.421 71.089 120 69.5071 121.948 69.5071C123.895 69.5071 125.474 71.089 125.474 73.0405C125.474 74.9919 123.895 76.5738 121.948 76.5738Z" fill="white"/>
<path d="M127.478 75.4683C127.554 76.5849 128.52 77.4272 129.633 77.351C130.748 77.2741 131.588 76.307 131.512 75.1911C131.436 74.0744 130.47 73.2314 129.357 73.3083C128.242 73.3852 127.401 74.3523 127.478 75.4683Z" fill="#6374FF"/>
<path opacity="0.7" d="M127.478 75.4683C127.554 76.5849 128.52 77.4272 129.633 77.351C130.748 77.2741 131.588 76.307 131.512 75.1911C131.436 74.0744 130.47 73.2314 129.357 73.3083C128.242 73.3852 127.401 74.3523 127.478 75.4683Z" fill="white"/>
<path d="M133.558 74.9267C133.596 75.4847 134.079 75.9065 134.636 75.8677C135.193 75.8289 135.614 75.3457 135.575 74.7877C135.537 74.2297 135.054 73.8079 134.497 73.8467C133.94 73.8855 133.519 74.3687 133.558 74.9267Z" fill="#6374FF"/>
<path opacity="0.7" d="M133.558 74.9267C133.596 75.4847 134.079 75.9065 134.636 75.8677C135.193 75.8289 135.614 75.3457 135.575 74.7877C135.537 74.2297 135.054 73.8079 134.497 73.8467C133.94 73.8855 133.519 74.3687 133.558 74.9267Z" fill="white"/>
<path d="M82.9503 76.2497C76.1913 73.8272 73.1478 65.0401 76.1525 56.6231C79.1571 48.2061 87.0721 43.3466 93.8311 45.7691C100.59 48.1915 103.634 56.9786 100.629 65.3956C97.6242 73.8126 89.7092 78.6721 82.9503 76.2497Z" fill="#6374FF"/>
<path d="M83.0376 72.9633C77.5823 71.0081 75.126 63.9157 77.5512 57.1219C79.9764 50.3282 86.3648 46.4057 91.8201 48.3609C97.2754 50.3161 99.7317 57.4085 97.3065 64.2023C94.8813 70.9961 88.4929 74.9185 83.0376 72.9633Z" fill="white"/>
<path d="M78.6948 57.5391C76.7525 62.9799 78.7202 68.6598 83.0892 70.2258C87.4582 71.7918 92.5742 68.6499 94.5165 63.2091C96.4589 57.7683 94.4912 52.0884 90.1222 50.5224C85.7531 48.9571 80.6365 52.0983 78.6948 57.5391Z" fill="#6374FF"/>
<path d="M80.1804 58.0716C78.6886 62.2497 80.0924 66.5739 83.316 67.7286C86.5389 68.8834 90.3609 66.4328 91.852 62.2547C93.3437 58.0765 91.94 53.7524 88.7164 52.5976C85.4942 51.4429 81.6721 53.8935 80.1804 58.0716Z" fill="white"/>
<path d="M81.2791 58.722C80.2153 61.7016 81.134 64.7553 83.3312 65.5426C85.5284 66.3298 88.1712 64.5529 89.235 61.5733C90.2987 58.5936 89.38 55.5399 87.1828 54.7527C84.9863 53.9655 82.3428 55.7424 81.2791 58.722Z" fill="#6374FF"/>
<path d="M82.0479 58.9973C81.2798 61.1495 81.8635 63.3263 83.3517 63.8596C84.84 64.3929 86.6689 63.0809 87.437 60.9287C88.2051 58.7772 87.6215 56.6003 86.1332 56.0663C84.6457 55.5337 82.816 56.8458 82.0479 58.9973Z" fill="white"/>
<path d="M64.3161 49.2747L68.3155 50.708L69.085 54.3522L66.1838 56.6807L62.1844 55.2473L65.1517 52.9428L64.3161 49.2747Z" fill="#6374FF"/>
<path d="M84.1206 59.7401L64.5403 52.7234" stroke="#0C213A" stroke-width="2" stroke-miterlimit="10" stroke-linecap="round" stroke-linejoin="round"/>
</g>
<defs>
<clipPath id="clip0_205_3829">
<rect width="352" height="272" fill="white" transform="matrix(-1 0 0 1 352.5 0)"/>
</clipPath>
</defs>
</svg>
