<svg width="25" height="25" viewBox="0 0 25 25" fill="none" xmlns="http://www.w3.org/2000/svg">
<g clip-path="url(#clip0_202_5112)">
<path d="M2.0195 19.4512L0.49353 24.9546L5.99698 23.4287L2.0195 19.4512Z" fill="#F48B19"/>
<path d="M23.8783 2.56471L22.8839 1.57035C22.0635 0.749988 20.7211 0.749988 19.9008 1.57035L19.1906 2.2805L23.1681 6.25799L23.8783 5.54783C24.6986 4.72747 24.6986 3.38507 23.8783 2.56471Z" fill="#F48B19"/>
<path d="M18.1963 3.2742L17.202 4.26855L21.1794 8.24596L22.1737 7.2516L18.1963 3.2742Z" fill="#F48B19"/>
<path d="M18.6929 7.75L5.49951 20.9434L6.99105 22.4349L20.1844 9.24154L18.6929 7.75Z" fill="#F48B19"/>
<path d="M16.2074 5.26367L3.01404 18.457L4.50558 19.9486L17.6989 6.75521L16.2074 5.26367Z" fill="#F48B19"/>
<path d="M23.1551 17.1532C22.1203 16.1185 20.7129 15.6837 19.3648 15.8488L17.4653 13.9492L13.4878 17.9267L15.3873 19.8263C15.2492 20.954 15.5312 22.1232 16.2328 23.0812L20.4206 18.8934L23.9934 22.4661C24.8722 20.7484 24.5929 18.5911 23.1551 17.1532Z" fill="#F48B19"/>
<path d="M19.4262 21.877L17.2274 24.0758C18.6313 25.104 20.489 25.2308 22.0046 24.4554L19.4262 21.877Z" fill="#F48B19"/>
<path d="M2.98242 1.455L5.56083 4.03341L7.75964 1.83455C6.35573 0.806346 4.49808 0.679549 2.98242 1.455Z" fill="#F48B19"/>
<path d="M9.59975 6.08401C9.73784 4.95624 9.45584 3.78704 8.75426 2.8291L4.56645 7.01691L0.993684 3.44415C0.114871 5.16184 0.394105 7.31921 1.8319 8.75705C2.86671 9.79182 4.27418 10.2265 5.62226 10.0615L7.52178 11.961L11.4993 7.98352L9.59975 6.08401Z" fill="#F48B19"/>
</g>
<defs>
<clipPath id="clip0_202_5112">
<rect width="24" height="24" fill="white" transform="translate(0.49353 0.955078)"/>
</clipPath>
</defs>
</svg>
