<svg width="38" height="38" viewBox="0 0 38 38" fill="none" xmlns="http://www.w3.org/2000/svg">
<g clip-path="url(#clip0_176_15119)">
<path d="M35.7734 28.0032V25.7539C35.7734 25.1391 35.275 24.6406 34.6602 24.6406H31.9119L32.471 22.5541C33.3638 21.7382 36.1211 18.9685 37.1801 15.0161C38.3894 10.5028 37.9098 6.48887 37.8887 6.32025C37.7964 5.57925 37.0151 5.1375 36.3326 5.44023H36.3325C36.1426 5.52447 31.6622 7.5669 30.0198 13.0647C28.8432 17.0028 29.9197 20.8144 30.3171 21.9899L29.6068 24.6406H27.2383C26.9784 24.6406 26.7398 24.7304 26.5504 24.8797L20.0391 23.2518V22.5926C22.264 21.2188 23.75 18.7583 23.75 15.957V11.3184L24.2942 10.9102C25.8124 9.77157 26.7188 7.95885 26.7188 6.06122C26.7188 2.719 23.9997 0 20.6575 0H17.8908C16.0351 0 14.2349 0.512109 12.6619 1.48438H12.5162C9.2979 1.48438 6.67969 4.10259 6.67969 7.32094C6.67969 8.77028 7.20449 10.1391 8.16406 11.2102V15.957C8.16406 18.7583 9.65007 21.2188 11.875 22.5926V23.2518L5.34071 24.8854C2.19621 25.6716 0 28.4844 0 31.7257V36.8867C0 37.5015 0.498453 38 1.11328 38H34.6602C36.5017 38 38 36.5017 38 34.6602V31.8119C38 30.2101 37.1319 28.7659 35.7734 28.0032ZM32.1531 13.702C32.7127 11.8288 33.7314 10.2156 35.1807 8.90714C35.3843 8.7233 35.5828 8.55854 35.7711 8.4121C35.7806 9.88735 35.6562 12.1003 35.0294 14.4399C34.4062 16.7656 33.0469 18.6512 32.031 19.8114C31.7106 18.3075 31.4641 16.0082 32.1531 13.702ZM8.90625 7.32094C8.90625 5.33039 10.5257 3.71094 12.5162 3.71094H12.9883C13.208 3.71094 13.4229 3.64592 13.6058 3.52398C14.879 2.67521 16.3607 2.22656 17.8909 2.22656H20.6576C22.7719 2.22656 24.4922 3.9468 24.4922 6.06122C24.4922 7.26179 23.9188 8.40861 22.9583 9.12891L22.2656 9.64844H21.4515C18.7714 9.64844 16.274 8.44817 14.5998 6.35535C14.0089 5.61673 12.8244 5.90484 12.6389 6.83236L12.6244 6.9045C12.3365 8.34397 11.1554 9.42593 9.73127 9.61793C9.19711 8.97268 8.90625 8.16918 8.90625 7.32094ZM10.3906 15.957V11.7634C11.9664 11.4442 13.3291 10.4611 14.137 9.0941C16.1352 10.8788 18.7174 11.875 21.4515 11.875H21.5234V15.957C21.5234 19.0263 19.0263 21.5234 15.957 21.5234C12.8877 21.5234 10.3906 19.0263 10.3906 15.957ZM17.8125 23.5262V23.8255L15.957 27.0726L14.1016 23.8255V23.5262C14.6965 23.6721 15.3178 23.75 15.957 23.75C16.5963 23.75 17.2176 23.6721 17.8125 23.5262ZM6.30859 32.6562C5.69377 32.6562 5.19531 33.1547 5.19531 33.7695V35.7734H2.22656V31.7257C2.22656 29.508 3.7292 27.5834 5.88072 27.0455L12.4401 25.4057L14.9904 29.8687C15.4178 30.6166 16.4962 30.6166 16.9236 29.8687L19.4739 25.4057L26.0332 27.0455C26.0638 27.0532 26.0943 27.0622 26.1249 27.0705V28.0033C24.7664 28.766 23.8984 30.2101 23.8984 31.8119V34.6602C23.8984 35.0504 23.9663 35.425 24.0898 35.7734H7.42188V33.7695C7.42188 33.1547 6.92342 32.6562 6.30859 32.6562ZM35.7734 34.6602C35.7734 35.274 35.274 35.7734 34.6602 35.7734H27.2383C26.6244 35.7734 26.125 35.274 26.125 34.6602V31.8119C26.125 30.888 26.7139 30.071 27.5903 29.7789C28.045 29.6272 28.3516 29.2019 28.3516 28.7227V26.8672H33.5469V28.7227C33.5469 29.2019 33.8535 29.6272 34.3081 29.7788C35.1846 30.071 35.7734 30.888 35.7734 31.8119V34.6602Z" fill="url(#paint0_linear_176_15119)"/>
</g>
<defs>
<linearGradient id="paint0_linear_176_15119" x1="19" y1="0" x2="19" y2="38" gradientUnits="userSpaceOnUse">
<stop stop-color="#F98507"/>
<stop offset="1" stop-color="#FBA60C"/>
</linearGradient>
<clipPath id="clip0_176_15119">
<rect width="38" height="38" fill="white"/>
</clipPath>
</defs>
</svg>
