<svg width="42" height="32" viewBox="0 0 42 32" fill="none" xmlns="http://www.w3.org/2000/svg">
<path d="M41.1859 3.44071H38.4179V2.49634C38.4251 2.31467 38.3714 2.13582 38.2651 1.98827C38.1589 1.84073 38.0063 1.73299 37.8317 1.68223C35.9157 1.18012 33.9427 0.928361 31.962 0.933244C28.7056 0.933244 24.2687 1.66594 20.9878 5.0038C17.7313 1.63338 13.2619 0.933244 10.0136 0.933244C8.03285 0.928361 6.05985 1.18012 4.14383 1.68223C3.96925 1.73299 3.81669 1.84073 3.71045 1.98827C3.60422 2.13582 3.55044 2.31467 3.55767 2.49634V3.43257H0.814111C0.598195 3.43257 0.391123 3.51834 0.238448 3.67101C0.0857722 3.82369 0 4.03076 0 4.24668L0 30.2494C0 30.4653 0.0857722 30.6724 0.238448 30.8251C0.391123 30.9777 0.598195 31.0635 0.814111 31.0635C0.953968 31.0631 1.09136 31.0266 1.21303 30.9577C1.29444 30.917 9.43555 26.4638 20.8005 29.3294H20.9959C21.0608 29.3373 21.1264 29.3373 21.1913 29.3294C32.5889 26.4394 40.73 30.8844 40.7788 30.9577C40.9022 31.0289 41.0422 31.0665 41.1847 31.0667C41.3272 31.067 41.4672 31.0298 41.5908 30.9589C41.7144 30.888 41.8173 30.786 41.8891 30.6629C41.9609 30.5398 41.9991 30.4 42 30.2575V4.25482C42 4.0389 41.9142 3.83183 41.7616 3.67915C41.6089 3.52648 41.4018 3.44071 41.1859 3.44071ZM1.62822 28.955V5.06893H3.57395V25.4868C3.57261 25.6049 3.59695 25.7217 3.64527 25.8294C3.69359 25.9371 3.76475 26.033 3.8538 26.1104C3.94286 26.1878 4.04769 26.245 4.16102 26.2779C4.27436 26.3108 4.3935 26.3187 4.51018 26.301C6.19433 26.0438 7.89476 25.9078 9.59837 25.8939C11.9583 25.853 14.3084 26.208 16.5509 26.9441C11.4866 26.3317 6.34979 27.0239 1.62822 28.955ZM9.59837 24.2738C8.11765 24.2772 6.63855 24.3723 5.16961 24.5588V3.13949C6.75467 2.78633 8.37336 2.60617 9.99729 2.60217C13.0421 2.60217 17.2429 3.30231 20.1574 6.59132L20.1818 26.8708C18.4885 25.7636 15.1832 24.2738 9.59837 24.2738ZM21.81 6.59132C24.7246 3.33487 28.9254 2.60217 31.9701 2.60217C33.594 2.60694 35.2126 2.78709 36.7978 3.13949V24.5588C35.3371 24.3706 33.8662 24.2727 32.3935 24.2657C26.8412 24.2657 23.5278 25.7555 21.81 26.8627V6.59132ZM40.3636 28.955C35.6321 27.0186 30.4834 26.3263 25.4084 26.9441C27.6615 26.2053 30.0227 25.8503 32.3935 25.8939C34.1078 25.9035 35.8192 26.0368 37.5142 26.2928C37.6309 26.3105 37.7501 26.3027 37.8634 26.2697C37.9767 26.2368 38.0816 26.1797 38.1706 26.1023C38.2597 26.0248 38.3308 25.9289 38.3792 25.8213C38.4275 25.7136 38.4518 25.5967 38.4505 25.4787V5.06893H40.3962L40.3636 28.955Z" fill="white"/>
</svg>
