<svg width="313" height="248" viewBox="0 0 313 248" fill="none" xmlns="http://www.w3.org/2000/svg">
<path d="M193.134 102.266C178.266 102.266 163.131 101.662 148.974 97.7184C135.082 93.8639 122.328 86.3853 110.959 77.7344C103.517 72.1035 96.7485 67.6268 87.0852 68.302C77.6296 68.805 68.5867 72.3362 61.2925 78.374C49.0001 89.1388 50.8474 109.069 55.7681 123.049C63.158 144.135 85.6463 158.807 104.76 168.329C126.84 179.36 151.105 185.755 175.424 189.449C196.74 192.682 224.131 195.045 242.606 181.118C259.57 168.328 264.224 139.125 260.067 119.408C259.06 113.577 255.958 108.315 251.345 104.61C239.426 95.9064 221.644 101.715 208.251 102.017C203.277 102.124 198.214 102.231 193.134 102.266Z" fill="#F2F2F2"/>
<path d="M156.755 224C192.769 224 221.965 222.179 221.965 219.932C221.965 217.685 192.769 215.864 156.755 215.864C120.741 215.864 91.5449 217.685 91.5449 219.932C91.5449 222.179 120.741 224 156.755 224Z" fill="#F2F2F2"/>
<path d="M238.129 46.8618C239.09 46.8618 239.87 46.0825 239.87 45.1211C239.87 44.1596 239.09 43.3804 238.129 43.3804C237.168 43.3804 236.389 44.16 236.389 45.1211C236.389 46.0825 237.168 46.8618 238.129 46.8618Z" fill="#CFCFCF"/>
<path d="M122.329 32.2778C123.29 32.2778 124.069 31.4982 124.069 30.5371C124.069 29.5757 123.29 28.7964 122.329 28.7964C121.367 28.7964 120.588 29.576 120.588 30.5371C120.588 31.4982 121.367 32.2778 122.329 32.2778Z" fill="#CFCFCF"/>
<path d="M143.377 198.03C144.339 198.03 145.118 197.25 145.118 196.289C145.118 195.328 144.339 194.548 143.377 194.548C142.416 194.548 141.637 195.328 141.637 196.289C141.637 197.25 142.416 198.03 143.377 198.03Z" fill="#CFCFCF"/>
<path d="M189.848 24V31.6382" stroke="#BABABA" stroke-width="2" stroke-linecap="round" stroke-linejoin="round"/>
<path d="M186.029 27.8192H193.667" stroke="#BABABA" stroke-width="2" stroke-linecap="round" stroke-linejoin="round"/>
<path d="M65.3965 56.152V63.7902" stroke="#BABABA" stroke-width="2" stroke-linecap="round" stroke-linejoin="round"/>
<path d="M61.5586 59.9712H69.2146" stroke="#BABABA" stroke-width="2" stroke-linecap="round" stroke-linejoin="round"/>
<path d="M71.1504 162.573V170.229" stroke="#BABABA" stroke-width="2" stroke-linecap="round" stroke-linejoin="round"/>
<path d="M67.3145 166.393H74.9705" stroke="#BABABA" stroke-width="2" stroke-linecap="round" stroke-linejoin="round"/>
<path d="M228.98 84.2543V91.8925" stroke="#BABABA" stroke-width="2" stroke-linecap="round" stroke-linejoin="round"/>
<path d="M225.162 88.0731H232.8" stroke="#BABABA" stroke-width="2" stroke-linecap="round" stroke-linejoin="round"/>
<path d="M175.742 39.6898L86.5809 51.3978C80.802 52.1567 76.7325 57.4567 77.4914 63.2352L91.0816 166.728C91.8405 172.507 97.1405 176.576 102.919 175.818L192.08 164.11C197.858 163.351 201.928 158.051 201.169 152.272L187.58 48.7789C186.82 43.0003 181.521 38.9309 175.742 39.6898Z" fill="#D2D2D2"/>
<path d="M201.715 54.873H111.653C105.816 54.873 101.084 59.605 101.084 65.4425V169.981C101.084 175.818 105.816 180.55 111.653 180.55H201.715C207.552 180.55 212.284 175.818 212.284 169.981V65.4425C212.284 59.605 207.552 54.873 201.715 54.873Z" fill="white" stroke="#BABABA" stroke-width="3" stroke-linecap="round" stroke-linejoin="round"/>
<path d="M114.529 137.58L132.542 108.217C132.719 107.788 133.019 107.421 133.405 107.163C133.791 106.905 134.245 106.768 134.709 106.768C135.173 106.768 135.627 106.905 136.013 107.163C136.398 107.421 136.699 107.788 136.876 108.217L147.09 124.861C147.264 125.292 147.562 125.66 147.947 125.92C148.331 126.18 148.785 126.318 149.249 126.318C149.713 126.318 150.166 126.18 150.551 125.92C150.935 125.66 151.234 125.292 151.407 124.861L168.886 96.4396C169.06 96.0091 169.358 95.6407 169.742 95.3811C170.127 95.1215 170.581 94.9829 171.045 94.9829C171.509 94.9829 171.962 95.1218 172.347 95.3811C172.731 95.6407 173.029 96.0095 173.203 96.4396L198.854 138.237L114.529 137.58Z" fill="white" stroke="#BABABA" stroke-width="3" stroke-linecap="round" stroke-linejoin="round"/>
<path d="M150.448 104.273C153.577 104.273 156.114 101.736 156.114 98.6069C156.114 95.4774 153.577 92.9403 150.448 92.9403C147.318 92.9403 144.781 95.4774 144.781 98.6069C144.781 101.737 147.318 104.273 150.448 104.273Z" fill="white" stroke="#BABABA" stroke-width="3" stroke-linecap="round" stroke-linejoin="round"/>
</svg>
