<svg width="172" height="172" viewBox="0 0 172 172" fill="none" xmlns="http://www.w3.org/2000/svg">
<g clip-path="url(#clip0_432_14781)">
<path d="M72.2266 165.281C72.2266 168.992 69.2189 172 65.5078 172H35.9453C21.126 172 9.07031 159.944 9.07031 145.125V26.875C9.07031 12.0557 21.126 0 35.9453 0H118.549C133.367 0 145.424 12.0557 145.424 26.875V91.0391C145.424 94.7501 142.415 97.7578 138.705 97.7578C134.994 97.7578 131.987 94.7501 131.987 91.0391V26.875C131.987 19.466 125.958 13.4375 118.549 13.4375H35.9453C28.5363 13.4375 22.5078 19.466 22.5078 26.875V145.125C22.5078 152.534 28.5363 158.562 35.9453 158.562H65.5078C69.2189 158.562 72.2266 161.57 72.2266 165.281ZM111.83 40.3125H42.6273C38.9163 40.3125 35.9086 43.3202 35.9086 47.0312C35.9086 50.7423 38.9163 53.75 42.6273 53.75H111.83C115.54 53.75 118.549 50.7423 118.549 47.0312C118.549 43.3202 115.54 40.3125 111.83 40.3125ZM118.549 73.9062C118.549 70.1952 115.54 67.1875 111.83 67.1875H42.6273C38.9163 67.1875 35.9086 70.1952 35.9086 73.9062C35.9086 77.6173 38.9163 80.625 42.6273 80.625H111.83C115.54 80.625 118.549 77.6173 118.549 73.9062ZM42.6273 94.0625C38.9163 94.0625 35.9086 97.0702 35.9086 100.781C35.9086 104.492 38.9163 107.5 42.6273 107.5H77.9375C81.6486 107.5 84.6562 104.492 84.6562 100.781C84.6562 97.0702 81.6486 94.0625 77.9375 94.0625H42.6273ZM162.044 143.276C161.808 143.613 160.998 144.759 160.495 145.393C158.245 148.223 152.978 154.849 145.649 160.698C136.252 168.197 126.582 172 116.906 172C107.231 172 97.561 168.197 88.1639 160.698C80.835 154.849 75.5676 148.222 73.3184 145.393C72.8144 144.759 72.0048 143.612 71.7686 143.276C70.1401 140.959 70.1401 137.868 71.7686 135.551C72.0048 135.215 72.8144 134.068 73.3184 133.434C75.5676 130.605 80.835 123.979 88.1639 118.131C97.561 110.631 107.231 106.828 116.906 106.828C126.582 106.828 136.252 110.631 145.649 118.131C152.978 123.979 158.245 130.606 160.494 133.435C160.998 134.069 161.808 135.216 162.044 135.552C163.672 137.87 163.672 140.959 162.044 143.276ZM148.029 139.414C137.346 126.705 126.886 120.266 116.906 120.266C106.928 120.266 96.4665 126.704 85.7835 139.414C96.4665 152.123 106.927 158.562 116.906 158.562C126.886 158.562 137.346 152.125 148.029 139.414ZM117.242 126.648C110.191 126.648 104.477 132.363 104.477 139.414C104.477 146.465 110.191 152.18 117.242 152.18C124.293 152.18 130.008 146.465 130.008 139.414C130.008 132.363 124.293 126.648 117.242 126.648Z" fill="url(#paint0_linear_432_14781)"/>
</g>
<defs>
<linearGradient id="paint0_linear_432_14781" x1="86.1678" y1="0" x2="86.1678" y2="172" gradientUnits="userSpaceOnUse">
<stop stop-color="#F98507"/>
<stop offset="1" stop-color="#FBA60C"/>
</linearGradient>
<clipPath id="clip0_432_14781">
<rect width="172" height="172" fill="white"/>
</clipPath>
</defs>
</svg>
