<svg width="42" height="40" viewBox="0 0 42 40" fill="none" xmlns="http://www.w3.org/2000/svg">
<path d="M21.3409 38.5752C21.2163 38.6598 21.1036 38.7355 21.0038 38.8022C20.9033 38.7342 20.7897 38.6569 20.664 38.5705C20.0993 38.1825 19.2898 37.6118 18.3173 36.8852C16.3706 35.4308 13.7789 33.3582 11.1914 30.8819C8.60034 28.4021 6.0371 25.54 4.12727 22.5096C2.21307 19.4722 1 16.3367 1 13.2902C1 6.35549 5.80355 1.0004 11.424 1.0004V1.00044L11.4331 1.00036C14.88 0.969089 18.1764 2.98614 20.1268 6.4811L20.995 8.03671L21.8708 6.48545C23.8354 3.00605 27.1254 0.991248 30.5718 1.00039C36.1841 1.0331 40.9702 6.37236 41 13.2925C40.9994 16.3898 39.7845 19.5497 37.872 22.5931C35.9628 25.6315 33.4006 28.4866 30.8104 30.9535C28.2237 33.4169 25.6329 35.4708 23.6868 36.9097C22.7146 37.6285 21.9054 38.1922 21.3409 38.5752Z" stroke="white" stroke-width="2"/>
</svg>
