<svg width="38" height="38" viewBox="0 0 38 38" fill="none" xmlns="http://www.w3.org/2000/svg">
<g clip-path="url(#clip0_176_15126)">
<path d="M37.3744 20.2003C37.3744 18.2732 35.8066 16.7054 33.8796 16.7054H32.6899H27.5432C28.5245 14.929 29.0464 13.2524 29.0464 10.9369V10.5626C29.0464 10.5624 29.0464 10.5623 29.0464 10.5621C29.046 9.31652 28.5646 8.142 27.6906 7.25494C26.8171 6.3684 25.6509 5.86935 24.4068 5.84991C24.3949 5.84976 24.383 5.84961 24.3711 5.84961C23.1653 5.84961 22.1108 6.80866 22.0118 8.00366C21.5396 13.7023 16.0486 16.6389 12.3756 18.4251V17.8354C12.3756 17.2194 11.8761 16.7201 11.2602 16.7201H1.74231C1.1263 16.7201 0.626953 17.2195 0.626953 17.8354V36.871C0.626953 37.487 1.12637 37.9864 1.74231 37.9864H8.88067C10.2479 37.9864 11.4335 37.1968 12.0074 36.05C15.9799 37.7755 19.4311 38.0003 23.3944 38.0003C24.0713 38.0003 24.7639 37.9938 25.4759 37.987C26.2633 37.9796 27.0775 37.9719 27.931 37.9719H31.4575C33.3846 37.9719 34.9523 36.4041 34.9523 34.477C34.9523 33.8291 34.7751 33.2219 34.4665 32.7011C35.4707 32.0863 36.142 30.9793 36.142 29.7181C36.142 29.0702 35.9649 28.463 35.6563 27.9422C36.6604 27.3274 37.3318 26.2204 37.3318 24.9592C37.3318 24.0517 36.9839 23.2241 36.4147 22.6022C37.0088 21.9753 37.3744 21.1299 37.3744 20.2003ZM10.1448 34.4915C10.1448 35.1886 9.57773 35.7556 8.88067 35.7556H7.61658V32.1121C7.61658 31.496 7.11716 30.9967 6.50122 30.9967C5.88528 30.9967 5.38586 31.4961 5.38586 32.1121V35.7556H2.85775V18.9507H10.1448V34.4915H10.1448ZM31.5002 23.6951H32.6899H33.8369C34.534 23.6951 35.101 24.2621 35.101 24.9592C35.101 25.6562 34.534 26.2233 33.8369 26.2233H32.6899H32.6472H31.5002C30.8842 26.2233 30.3848 26.7227 30.3848 27.3386C30.3848 27.9546 30.8842 28.454 31.5002 28.454H32.6472C33.3443 28.454 33.9113 29.021 33.9113 29.7181C33.9113 30.4151 33.3443 30.9822 32.6472 30.9822H31.4575C30.8415 30.9822 30.3421 31.4816 30.3421 32.0975C30.3421 32.7135 30.8416 33.2129 31.4575 33.2129C32.1546 33.2129 32.7216 33.7799 32.7216 34.477C32.7216 35.174 32.1546 35.7411 31.4575 35.7411H27.931C27.0669 35.7411 26.2474 35.7488 25.4548 35.7564C20.4828 35.8033 16.8299 35.8381 12.3902 33.7766V20.8956H12.3901C12.5062 20.8395 12.6253 20.782 12.7468 20.7234C14.6858 19.7886 17.3412 18.5083 19.6245 16.5692C22.4197 14.1952 23.9709 11.3753 24.2349 8.18772C24.238 8.14987 24.3108 8.08018 24.3706 8.08018C24.371 8.08018 24.3715 8.08018 24.3718 8.08018C25.7193 8.10126 26.8156 9.21521 26.8156 10.5633V10.9368C26.8156 13.2554 26.211 14.7224 24.9462 16.7054H23.1721C22.5561 16.7054 22.0567 17.2048 22.0567 17.8207C22.0567 18.4367 22.5561 18.9361 23.1721 18.9361H25.5595C25.5606 18.9361 25.5617 18.9361 25.5628 18.9361H32.6899H33.8796C34.5767 18.9361 35.1437 19.5031 35.1437 20.2002C35.1437 20.8972 34.5767 21.4643 33.8796 21.4643H32.6899H31.5002C30.8842 21.4643 30.3848 21.9637 30.3848 22.5796C30.3848 23.1956 30.8842 23.6951 31.5002 23.6951Z" fill="url(#paint0_linear_176_15126)"/>
<path d="M35.0534 8.24316H32.674C32.0579 8.24316 31.5586 8.74258 31.5586 9.35852C31.5586 9.97446 32.058 10.4739 32.674 10.4739H35.0534C35.6694 10.4739 36.1688 9.97446 36.1688 9.35852C36.1688 8.74258 35.6694 8.24316 35.0534 8.24316Z" fill="#FF9E0A"/>
<path d="M18.3972 8.24316H16.0177C15.4017 8.24316 14.9023 8.74258 14.9023 9.35852C14.9023 9.97446 15.4018 10.4739 16.0177 10.4739H18.3972C19.0131 10.4739 19.5125 9.97446 19.5125 9.35852C19.5125 8.74258 19.0131 8.24316 18.3972 8.24316Z" fill="#FF9E0A"/>
<path d="M22.9332 2.61856L21.7435 0.557872C21.4355 0.0243876 20.7534 -0.158413 20.2199 0.149669C19.6865 0.457677 19.5037 1.13982 19.8117 1.67323L21.0015 3.73392C21.208 4.0918 21.583 4.29174 21.9684 4.29174C22.1576 4.29174 22.3494 4.24358 22.525 4.14212C23.0584 3.83418 23.2412 3.15204 22.9332 2.61856Z" fill="#FF9E0A"/>
<path d="M30.8532 0.149686C30.3197 -0.158471 29.6375 0.0244786 29.3296 0.557889L28.1399 2.61857C27.8318 3.15198 28.0146 3.8342 28.5481 4.14213C28.7237 4.24359 28.9155 4.29176 29.1047 4.29176C29.4902 4.29176 29.8652 4.09174 30.0717 3.73393L31.2614 1.67325C31.5694 1.13984 31.3867 0.457693 30.8532 0.149686Z" fill="#FF9E0A"/>
</g>
<defs>
<linearGradient id="paint0_linear_176_15126" x1="19.0007" y1="5.84961" x2="19.0007" y2="38.0003" gradientUnits="userSpaceOnUse">
<stop stop-color="#F98507"/>
<stop offset="1" stop-color="#FBA60C"/>
</linearGradient>
<clipPath id="clip0_176_15126">
<rect width="38" height="38" fill="white"/>
</clipPath>
</defs>
</svg>
