<svg width="38" height="38" viewBox="0 0 38 38" fill="none" xmlns="http://www.w3.org/2000/svg">
<g clip-path="url(#clip0_176_15152)">
<path d="M33.5469 11.1328V6.67969H26.6667C24.2937 6.67969 22.0097 7.3052 19.997 8.49723C19.256 3.69223 15.064 0 10.0195 0H8.90625V4.45312H4.45312V8.90625H0V35.7734H11.3239C14.4407 35.7734 16.0742 37.8853 16.2381 38H21.762C21.929 37.883 23.5465 35.7734 26.6762 35.7734H38V11.1328H33.5469ZM26.6667 8.90625H31.3203V29.0938H26.6667C24.3393 29.0938 22.0975 29.6957 20.1133 30.8434V11.0908C20.2863 11.0023 22.7016 8.90625 26.6667 8.90625ZM11.1328 2.30434C14.9455 2.84161 17.8867 6.0967 17.8867 10.0195V26.1629C16.2543 24.1487 13.8551 22.7723 11.1328 22.4746V2.30434ZM6.67969 6.67969H8.90625V24.6406H10.0195C13.7693 24.6406 16.9142 27.2529 17.6983 30.7366C15.761 29.6584 13.5873 29.0938 11.3333 29.0938H6.67969V6.67969ZM35.7734 33.5469H26.6761C24.5068 33.5469 22.4584 34.334 20.8574 35.7734H17.1425C15.5415 34.334 13.4932 33.5469 11.3238 33.5469H2.22656V11.1328H4.45312V31.3203H11.3333C15.3532 31.3203 17.7542 33.4484 17.9455 33.5469H20.0545C20.2443 33.4492 22.6529 31.3203 26.6667 31.3203H33.5469V13.3594H35.7734V33.5469Z" fill="url(#paint0_linear_176_15152)"/>
</g>
<defs>
<linearGradient id="paint0_linear_176_15152" x1="19" y1="0" x2="19" y2="38" gradientUnits="userSpaceOnUse">
<stop stop-color="#F98507"/>
<stop offset="1" stop-color="#FBA60C"/>
</linearGradient>
<clipPath id="clip0_176_15152">
<rect width="38" height="38" fill="white"/>
</clipPath>
</defs>
</svg>
