<svg width="24" height="25" viewBox="0 0 24 25" fill="none" xmlns="http://www.w3.org/2000/svg">
<g clip-path="url(#clip0_295_25686)">
<path d="M10.0781 23.8125C10.0781 24.3303 9.65845 24.75 9.14062 24.75H5.01562C2.94781 24.75 1.26562 23.0678 1.26562 21V4.5C1.26562 2.43219 2.94781 0.75 5.01562 0.75H16.5417C18.6094 0.75 20.2917 2.43219 20.2917 4.5V13.4531C20.2917 13.9709 19.8719 14.3906 19.3542 14.3906C18.8364 14.3906 18.4167 13.9709 18.4167 13.4531V4.5C18.4167 3.46619 17.5756 2.625 16.5417 2.625H5.01562C3.98181 2.625 3.14062 3.46619 3.14062 4.5V21C3.14062 22.0338 3.98181 22.875 5.01562 22.875H9.14062C9.65845 22.875 10.0781 23.2947 10.0781 23.8125ZM15.6042 6.375H5.948C5.43018 6.375 5.0105 6.79468 5.0105 7.3125C5.0105 7.83032 5.43018 8.25 5.948 8.25H15.6042C16.1219 8.25 16.5417 7.83032 16.5417 7.3125C16.5417 6.79468 16.1219 6.375 15.6042 6.375ZM16.5417 11.0625C16.5417 10.5447 16.1219 10.125 15.6042 10.125H5.948C5.43018 10.125 5.0105 10.5447 5.0105 11.0625C5.0105 11.5803 5.43018 12 5.948 12H15.6042C16.1219 12 16.5417 11.5803 16.5417 11.0625ZM5.948 13.875C5.43018 13.875 5.0105 14.2947 5.0105 14.8125C5.0105 15.3303 5.43018 15.75 5.948 15.75H10.875C11.3928 15.75 11.8125 15.3303 11.8125 14.8125C11.8125 14.2947 11.3928 13.875 10.875 13.875H5.948ZM22.6108 20.742C22.5778 20.7891 22.4648 20.9489 22.3947 21.0374C22.0807 21.4323 21.3457 22.3568 20.3231 23.1729C19.0118 24.2194 17.6625 24.75 16.3125 24.75C14.9625 24.75 13.6132 24.2194 12.3019 23.1729C11.2793 22.3568 10.5443 21.4321 10.2305 21.0374C10.1602 20.9489 10.0472 20.7889 10.0142 20.742C9.78699 20.4186 9.78699 19.9874 10.0142 19.6641C10.0472 19.6172 10.1602 19.4572 10.2305 19.3687C10.5443 18.9739 11.2793 18.0494 12.3019 17.2333C13.6132 16.1869 14.9625 15.6562 16.3125 15.6562C17.6625 15.6562 19.0118 16.1869 20.3231 17.2333C21.3457 18.0494 22.0807 18.9741 22.3945 19.3689C22.4648 19.4573 22.5778 19.6174 22.6108 19.6642C22.838 19.9876 22.838 20.4186 22.6108 20.742ZM20.6552 20.2031C19.1646 18.4297 17.705 17.5312 16.3125 17.5312C14.9202 17.5312 13.4604 18.4296 11.9698 20.2031C13.4604 21.9765 14.92 22.875 16.3125 22.875C17.705 22.875 19.1646 21.9767 20.6552 20.2031ZM16.3594 18.4219C15.3755 18.4219 14.5781 19.2193 14.5781 20.2031C14.5781 21.187 15.3755 21.9844 16.3594 21.9844C17.3432 21.9844 18.1406 21.187 18.1406 20.2031C18.1406 19.2193 17.3432 18.4219 16.3594 18.4219Z" fill="#FF9E0A"/>
</g>
<defs>
<clipPath id="clip0_295_25686">
<rect width="24" height="24" fill="white" transform="translate(0 0.75)"/>
</clipPath>
</defs>
</svg>
