<svg width="24" height="42" viewBox="0 0 24 42" fill="none" xmlns="http://www.w3.org/2000/svg">
<path d="M23.7261 0.13579C23.719 0.130351 23.7113 0.126046 23.704 0.120922C23.4991 -0.0319786 23.2245 -0.0384046 23.0148 0.0932864C22.4128 0.318658 19.8907 1.31393 16.7985 3.25731C15.4335 4.11523 13.847 5.23488 12.2504 6.62401C12.1419 6.67373 12.0504 6.7542 11.9872 6.85546C9.91083 8.70024 7.83705 11.0022 6.23049 13.7849C5.88775 14.3785 5.57559 14.9798 5.28948 15.5847C5.22788 15.6614 5.18575 15.752 5.16667 15.8485C3.12258 20.2987 2.52053 24.9183 2.3974 28.2008C2.27905 31.3555 2.56127 33.7868 2.70835 34.7982C1.79514 36.9053 0.918339 39.0281 0.0783313 41.1654C-0.0450857 41.4795 0.109412 41.834 0.423404 41.9575C0.494522 41.9855 0.570286 42 0.646739 42C0.890549 42 1.12088 41.8531 1.21548 41.6124C1.98739 39.6485 2.79052 37.697 3.62458 35.7587C3.66404 35.7423 3.7026 35.7232 3.73846 35.6983C3.82303 35.6398 5.84077 34.2338 8.56477 31.6299C11.0758 29.2294 14.6744 25.3197 17.5581 20.3248C20.4418 15.3301 22.0286 10.2587 22.8519 6.88387C23.745 3.22288 23.9537 0.772426 23.9621 0.669967C23.9705 0.568302 23.9533 0.466156 23.9121 0.372849C23.8708 0.279543 23.8069 0.198045 23.7261 0.13579ZM3.69831 32.5531C3.61139 31.3964 3.55473 29.906 3.61958 28.2147C3.72267 25.5273 4.15821 21.911 5.49142 18.2682L6.01442 21.7723C6.05966 22.0755 6.32035 22.2931 6.61788 22.2931C6.64787 22.2931 6.67828 22.2909 6.70883 22.2864C7.04252 22.2365 7.27266 21.9256 7.22287 21.592L6.40179 16.0907C6.67191 15.5208 6.96606 14.9545 7.28864 14.3958C8.6549 12.0293 10.3805 10.0226 12.1487 8.36193L12.592 10.3014C12.6567 10.5845 12.9084 10.7763 13.187 10.7763C13.2321 10.7763 13.2779 10.7712 13.3237 10.7608C13.6526 10.6856 13.8583 10.358 13.7831 10.0292L13.1884 7.42726C14.6751 6.14809 16.1483 5.11054 17.4216 4.30878C18.8825 3.38898 20.2253 2.68332 21.2801 2.17808C19.9746 3.861 17.9475 6.62536 15.4771 10.4978C12.3635 15.3787 8.06946 22.8053 3.69831 32.5531ZM16.992 18.837L13.0537 19.7211C12.7246 19.795 12.5176 20.1218 12.5915 20.451C12.6553 20.7352 12.9075 20.9283 13.187 20.9283C13.2313 20.9283 13.2763 20.9234 13.3214 20.9133L16.1705 20.2737C12.2781 26.7834 7.1677 31.4072 4.62366 33.477C9.02297 23.603 13.3572 16.0957 16.4874 11.1861C19.0652 7.1428 21.184 4.28678 22.4652 2.65044C21.9402 5.87377 20.5218 12.3769 16.992 18.837ZM18.5621 40.778H2.95029C2.61291 40.778 2.33938 41.0516 2.33938 41.389C2.33938 41.7263 2.61291 41.9999 2.95029 41.9999H18.5621C18.8995 41.9999 19.173 41.7263 19.173 41.389C19.173 41.0516 18.8995 40.778 18.5621 40.778Z" fill="white"/>
</svg>
