<svg width="48" height="48" viewBox="0 0 48 48" fill="none" xmlns="http://www.w3.org/2000/svg">
<g id="Email">
<rect width="48" height="48" rx="24" fill="#48D87D" fill-opacity="0.1"/>
<rect x="0.5" y="0.5" width="47" height="47" rx="23.5" stroke="#48D87D" stroke-opacity="0.2"/>
<g id="Group">
<g id="Group_2">
<path id="Vector" d="M31.6625 18.9948C31.4381 18.7687 31.0728 18.7672 30.8466 18.9915C30.6205 19.2159 30.619 19.5813 30.8434 19.8075L30.8468 19.811C30.9592 19.9243 31.1064 19.9807 31.2538 19.9807C31.4008 19.9807 31.548 19.9245 31.661 19.8125C31.8872 19.5881 31.8869 19.221 31.6625 18.9948Z" fill="#48D87D"/>
</g>
</g>
<g id="Group_3">
<g id="Group_4">
<path id="Vector_2" d="M38.6002 25.9332L33.2419 20.5748C33.0166 20.3496 32.6513 20.3496 32.4259 20.5748C32.2006 20.8001 32.2006 21.1654 32.4259 21.3908L36.6797 25.6445H26.5359C25.6944 25.6445 25.0099 24.9599 25.0099 24.1184V13.9748L29.1166 18.0814C29.3419 18.3066 29.7072 18.3066 29.9326 18.0814C30.1579 17.8561 30.1579 17.4908 29.9326 17.2655L24.7212 12.0542C24.4959 11.8289 24.1306 11.8289 23.9053 12.0542L14.708 21.2517C14.4827 21.4769 14.4827 21.8423 14.708 22.0676L28.587 35.9465C28.6952 36.0547 28.842 36.1155 28.995 36.1155C29.148 36.1155 29.2947 36.0547 29.4029 35.9465L38.6003 26.7491C38.7084 26.6409 38.7692 26.4942 38.7692 26.3412C38.7692 26.1882 38.7084 26.0414 38.6002 25.9332ZM23.8562 13.7353V21.0827H16.5087L23.8562 13.7353ZM28.418 34.1457L16.5087 22.2365H23.8562V24.1184C23.8562 25.5961 25.0584 26.7983 26.536 26.7983H28.418V34.1457ZM29.5718 34.1458V26.7983H36.9192L29.5718 34.1458Z" fill="#48D87D"/>
</g>
</g>
<g id="Group_5">
<g id="Group_6">
<path id="Vector_3" d="M13.1902 23.8848H9.80764C9.489 23.8848 9.23071 24.1431 9.23071 24.4617C9.23071 24.7803 9.489 25.0386 9.80764 25.0386H13.1902C13.5088 25.0386 13.7671 24.7803 13.7671 24.4617C13.7671 24.1431 13.5088 23.8848 13.1902 23.8848Z" fill="#48D87D"/>
</g>
</g>
<g id="Group_7">
<g id="Group_8">
<path id="Vector_4" d="M14.9103 23.8848H14.9016C14.583 23.8848 14.3247 24.1431 14.3247 24.4617C14.3247 24.7803 14.583 25.0386 14.9016 25.0386H14.9103C15.2289 25.0386 15.4872 24.7803 15.4872 24.4617C15.4872 24.1431 15.2289 23.8848 14.9103 23.8848Z" fill="#48D87D"/>
</g>
</g>
<g id="Group_9">
<g id="Group_10">
<path id="Vector_5" d="M11.6547 17.8271H9.80837C9.48973 17.8271 9.23145 18.0855 9.23145 18.4041C9.23145 18.7226 9.48973 18.981 9.80837 18.981H11.6547C11.9733 18.981 12.2316 18.7226 12.2316 18.4041C12.2316 18.0855 11.9733 17.8271 11.6547 17.8271Z" fill="#48D87D"/>
</g>
</g>
<g id="Group_11">
<g id="Group_12">
<path id="Vector_6" d="M15.7217 17.8271H13.5393C13.2207 17.8271 12.9624 18.0855 12.9624 18.4041C12.9624 18.7226 13.2207 18.981 13.5393 18.981H15.7217C16.0403 18.981 16.2986 18.7226 16.2986 18.4041C16.2986 18.0855 16.0403 17.8271 15.7217 17.8271Z" fill="#48D87D"/>
</g>
</g>
<g id="Group_13">
<g id="Group_14">
<path id="Vector_7" d="M16.9778 27.0576H13.7471C13.4285 27.0576 13.1702 27.316 13.1702 27.6345C13.1702 27.9531 13.4285 28.2115 13.7471 28.2115H16.9778C17.2964 28.2115 17.5547 27.9531 17.5547 27.6345C17.5547 27.316 17.2964 27.0576 16.9778 27.0576Z" fill="#48D87D"/>
</g>
</g>
<g id="Group_15">
<g id="Group_16">
<path id="Vector_8" d="M19.5005 30.7495H11.366C11.0474 30.7495 10.7891 31.0079 10.7891 31.3264C10.7891 31.645 11.0474 31.9034 11.366 31.9034H19.5005C19.8192 31.9034 20.0775 31.645 20.0775 31.3264C20.0775 31.0079 19.8192 30.7495 19.5005 30.7495Z" fill="#48D87D"/>
</g>
</g>
</g>
</svg>
