<svg width="50" height="50" viewBox="0 0 50 50" fill="none" xmlns="http://www.w3.org/2000/svg">
<g id="Coding">
<rect x="0.75" y="0.75" width="48.5" height="48.5" rx="24.25" stroke="#6374FF" stroke-width="1.5"/>
<g id="Group 17">
<path id="Vector" d="M14.387 13.542C13.1683 13.542 12.1768 14.5332 12.1768 15.7514C12.1768 16.9696 13.1683 17.9608 14.387 17.9608C15.6067 17.9608 16.5991 16.9696 16.5991 15.7514C16.5991 14.5332 15.6067 13.542 14.387 13.542ZM14.387 16.6431C13.8948 16.6431 13.4945 16.2431 13.4945 15.7514C13.4945 15.2597 13.8948 14.8597 14.387 14.8597C14.8801 14.8597 15.2814 15.2597 15.2814 15.7514C15.2814 16.2432 14.8801 16.6431 14.387 16.6431Z" fill="#0C213A"/>
<path id="Vector_2" d="M33.7136 13.542H27.8709C26.6521 13.542 25.6606 14.5332 25.6606 15.7514C25.6606 16.9696 26.6521 17.9608 27.8709 17.9608H33.7136C34.9324 17.9608 35.9239 16.9696 35.9239 15.7514C35.9239 14.5332 34.9324 13.542 33.7136 13.542ZM33.7136 16.6431H27.8709C27.3787 16.6431 26.9784 16.2431 26.9784 15.7514C26.9784 15.2597 27.3788 14.8596 27.8709 14.8596H33.7136C34.2058 14.8596 34.6061 15.2597 34.6061 15.7514C34.6061 16.2431 34.2058 16.6431 33.7136 16.6431Z" fill="#0C213A"/>
<path id="Vector_3" d="M20.1155 13.542C18.8968 13.542 17.9053 14.5332 17.9053 15.7514C17.9053 16.9696 18.8968 17.9608 20.1155 17.9608C21.3352 17.9608 22.3276 16.9696 22.3276 15.7514C22.3276 14.5332 21.3352 13.542 20.1155 13.542ZM20.1155 16.6431C19.6234 16.6431 19.223 16.2431 19.223 15.7514C19.223 15.2597 19.6234 14.8596 20.1155 14.8596C20.6087 14.8596 21.0099 15.2597 21.0099 15.7514C21.0099 16.2431 20.6087 16.6431 20.1155 16.6431Z" fill="#0C213A"/>
<path id="Vector_4" d="M19.0406 24.4636C18.6868 24.3788 18.3312 24.5972 18.2466 24.9512L16.9396 30.4208C16.855 30.7747 17.0733 31.1302 17.4272 31.2148C17.4787 31.227 17.5303 31.233 17.581 31.233C17.8788 31.233 18.1489 31.0295 18.2212 30.7271L19.5282 25.2575C19.6128 24.9036 19.3945 24.5482 19.0406 24.4636Z" fill="#0C213A"/>
<path id="Vector_5" d="M21.4599 30.5709C21.5855 30.6828 21.7421 30.7378 21.8979 30.7378C22.0794 30.7378 22.26 30.6633 22.3902 30.5171L24.2377 28.4432C24.5426 28.1038 24.5426 27.5724 24.2396 27.2352L22.3902 25.1591C22.148 24.8873 21.7315 24.8634 21.4599 25.1053C21.1882 25.3474 21.1641 25.7639 21.4062 26.0356L23.0119 27.8381L21.4062 29.6406C21.1642 29.9124 21.1882 30.3289 21.4599 30.5709Z" fill="#0C213A"/>
<path id="Vector_6" d="M15.0082 25.1053C14.7364 24.8633 14.32 24.8875 14.078 25.1591L12.2307 27.2329C11.9254 27.5723 11.9254 28.1039 12.2286 28.441L14.078 30.5171C14.2082 30.6633 14.3888 30.7377 14.5703 30.7377C14.7262 30.7377 14.8828 30.6827 15.0083 30.5709C15.2801 30.3288 15.3042 29.9123 15.0621 29.6407L13.4564 27.8382L15.0621 26.0356C15.304 25.7638 15.28 25.3473 15.0082 25.1053Z" fill="#0C213A"/>
<path id="Vector_7" d="M40.2482 32.113H40.0036C39.8755 31.698 39.7094 31.2974 39.5069 30.9145L39.6815 30.7394C39.9603 30.4623 40.1141 30.0923 40.1147 29.6976C40.1153 29.3019 39.962 28.9304 39.6828 28.6514L39.3427 28.3115V14.2778C39.3427 12.3126 37.9559 10.7139 36.2513 10.7139H11.3659C9.66119 10.7139 8.27441 12.3126 8.27441 14.2778V32.6923C8.27441 34.6575 9.66119 36.2562 11.3659 36.2562H15.2314C15.5953 36.2562 15.8902 35.9612 15.8902 35.5973C15.8902 35.2335 15.5953 34.9385 15.2314 34.9385H11.3659C10.4044 34.9385 9.59213 33.9098 9.59213 32.6923V20.7393H38.0249V27.3971C37.9499 27.3855 37.8738 27.378 37.7964 27.378C37.7956 27.378 37.7948 27.378 37.7941 27.378C37.3994 27.3786 37.0294 27.5323 36.7545 27.8087L36.5764 27.986C36.1855 27.7795 35.7784 27.6115 35.3586 27.4833V27.2486C35.3586 26.4343 34.696 25.7719 33.8815 25.7719H32.6892C31.8757 25.7719 31.214 26.4343 31.214 27.2486V27.4994C30.8021 27.6288 30.4044 27.7953 30.0243 27.9976L29.8536 27.8275C29.5765 27.5489 29.2064 27.3952 28.8117 27.3946C28.811 27.3946 28.8103 27.3946 28.8095 27.3946C28.4147 27.3946 28.044 27.5478 27.7654 27.8261L26.9231 28.668C26.644 28.947 26.4906 29.3186 26.4912 29.7142C26.4918 30.1089 26.6456 30.4789 26.9223 30.7538L27.1043 30.9363C26.9068 31.3133 26.7445 31.7065 26.619 32.1129H26.3688C25.5553 32.1129 24.8935 32.7745 24.8935 33.5877V34.7812C24.8935 34.8343 24.8964 34.8866 24.9019 34.9383H21.0685C20.7046 34.9383 20.4096 35.2332 20.4096 35.5971C20.4096 35.9609 20.7046 36.2559 21.0685 36.2559H26.3687H26.6215C26.7489 36.6661 26.9136 37.0625 27.1145 37.442L26.9365 37.6192C26.3633 38.1955 26.3638 39.131 26.9379 39.7046L27.7807 40.547C28.0578 40.8256 28.4279 40.9793 28.8226 40.9799H28.8248C29.2196 40.9799 29.5903 40.8267 29.8689 40.5483L30.0453 40.372C30.4282 40.5738 30.8263 40.7387 31.236 40.8654V41.1204C31.236 41.9347 31.8978 42.5971 32.7113 42.5971H33.9054C34.7189 42.5971 35.3807 41.9347 35.3807 41.1204V40.867C35.7943 40.7394 36.194 40.5738 36.5764 40.3719L36.7521 40.547C37.0292 40.8256 37.3992 40.9793 37.7939 40.9799H37.7962C38.191 40.9799 38.5617 40.8267 38.8408 40.5479L39.6813 39.7059C39.9601 39.4288 40.1139 39.0589 40.1145 38.6641C40.1151 38.2685 39.9618 37.897 39.6826 37.6179L39.5068 37.4422C39.7073 37.0624 39.8719 36.6658 39.9991 36.256H40.248C41.0626 36.256 41.7252 35.5944 41.7252 34.7812V33.5877C41.7253 32.7746 41.0627 32.113 40.2482 32.113ZM9.59213 19.4216V14.2778C9.59213 13.0603 10.4044 12.0316 11.3659 12.0316H36.2513C37.2127 12.0316 38.025 13.0603 38.025 14.2778V19.4216L9.59213 19.4216ZM40.4076 34.7813C40.4076 34.865 40.3331 34.9384 40.2481 34.9384H39.4947C39.1875 34.9384 38.9211 35.1507 38.8525 35.4501C38.7102 36.0711 38.4657 36.66 38.1259 37.2006C37.9623 37.461 38.0005 37.7999 38.2181 38.0173L38.7512 38.5501C38.791 38.59 38.7969 38.6375 38.7969 38.6624C38.7969 38.692 38.7891 38.7351 38.7507 38.7732L37.9089 39.6165C37.869 39.6563 37.8214 39.6624 37.7963 39.6624C37.7962 39.6624 37.7961 39.6624 37.7961 39.6624C37.7662 39.6624 37.723 39.6546 37.6844 39.6157L37.1493 39.0828C36.9317 38.8661 36.5934 38.8286 36.3336 38.9919C35.7922 39.3325 35.2008 39.5773 34.5757 39.7195C34.2759 39.7879 34.0631 40.0544 34.0631 40.362V41.1206C34.0631 41.2053 33.9895 41.2796 33.9056 41.2796H32.7115C32.6275 41.2796 32.5539 41.2053 32.5539 41.1206V40.3601C32.5539 40.0523 32.3406 39.7854 32.0404 39.7175C31.4233 39.5779 30.8329 39.3335 30.2858 38.9912C30.178 38.9237 30.0569 38.8908 29.9365 38.8908C29.7663 38.8908 29.5976 38.9566 29.4705 39.0837L28.9375 39.6165C28.8975 39.6563 28.8499 39.6624 28.8248 39.6624C28.8248 39.6624 28.8247 39.6624 28.8246 39.6624C28.7948 39.6624 28.7515 39.6546 28.7137 39.6166L27.8695 38.7728C27.8104 38.7137 27.811 38.609 27.8687 38.551L28.4038 38.0182C28.6224 37.8005 28.6606 37.4603 28.4959 37.1995C28.1556 36.6607 27.9108 36.0721 27.7684 35.4503C27.6998 35.1509 27.4333 34.9385 27.1261 34.9385H26.3689C26.2835 34.9385 26.2113 34.8666 26.2113 34.7815V33.588C26.2113 33.5029 26.2835 33.4309 26.3689 33.4309H27.1242C27.4317 33.4309 27.6984 33.2181 27.7667 32.9183C27.9073 32.3004 28.1489 31.7143 28.4848 31.1761C28.6469 30.9163 28.6086 30.5789 28.3923 30.362L27.8533 29.8215C27.8167 29.7851 27.809 29.7421 27.809 29.7124C27.809 29.6876 27.8148 29.64 27.8547 29.6002L28.697 28.7583C28.7369 28.7185 28.7845 28.7125 28.8096 28.7125H28.8098C28.8397 28.7125 28.8829 28.7202 28.9215 28.7591L29.4528 29.2883C29.6711 29.5057 30.0106 29.5429 30.2705 29.378C30.8089 29.0367 31.3985 28.7895 32.023 28.6434C32.3209 28.5736 32.5316 28.3079 32.5316 28.0018V27.2488C32.5316 27.1626 32.6037 27.0898 32.6891 27.0898H33.8814C33.9678 27.0898 34.0409 27.1626 34.0409 27.2488V27.9907C34.0409 28.2994 34.2552 28.5667 34.5566 28.6338C35.1834 28.7734 35.7815 29.02 36.3342 29.3667C36.5939 29.5295 36.9318 29.4919 37.1493 29.2754L37.6865 28.7403C37.723 28.7037 37.7661 28.6959 37.796 28.6959H37.7962C37.8213 28.6959 37.8689 28.7019 37.9088 28.7417L38.7511 29.5836C38.791 29.6234 38.7969 29.671 38.7969 29.6958C38.7968 29.7255 38.7891 29.7685 38.7503 29.807L38.2171 30.3418C38 30.5595 37.9624 30.8985 38.1265 31.1585C38.4676 31.6993 38.713 32.2915 38.8559 32.9185C38.9243 33.2183 39.1908 33.4309 39.4983 33.4309H40.2481C40.333 33.4309 40.4076 33.5044 40.4076 33.5881V34.7813Z" fill="#0C213A"/>
<path id="Vector_8" d="M33.3096 30.1621C31.0894 30.1621 29.2832 31.9675 29.2832 34.1867C29.2832 36.4049 31.0894 38.2095 33.3096 38.2095C35.5288 38.2095 37.3342 36.4049 37.3342 34.1867C37.3342 31.9676 35.5288 30.1621 33.3096 30.1621ZM33.3096 36.8918C31.8161 36.8918 30.6009 35.6783 30.6009 34.1867C30.6009 32.6941 31.8161 31.4798 33.3096 31.4798C34.8021 31.4798 36.0164 32.6941 36.0164 34.1867C36.0164 35.6783 34.8021 36.8918 33.3096 36.8918Z" fill="#0C213A"/>
<path id="Vector_9" d="M18.1693 34.9375H18.1564C17.7925 34.9375 17.4976 35.2325 17.4976 35.5963C17.4976 35.9602 17.7925 36.2552 18.1564 36.2552H18.1693C18.5332 36.2552 18.8281 35.9602 18.8281 35.5963C18.8281 35.2325 18.5332 34.9375 18.1693 34.9375Z" fill="#0C213A"/>
</g>
</g>
</svg>
