<svg width="51" height="50" viewBox="0 0 51 50" fill="none" xmlns="http://www.w3.org/2000/svg">
<g id="Star" clip-path="url(#clip0_573_1097)">
<path id="Vector" d="M49.1002 18.1346L33.8058 15.9123L26.9657 2.053C26.3675 0.840698 24.633 0.840112 24.0343 2.053L17.1944 15.9123L1.9 18.1346C0.562404 18.3291 0.0251965 19.9783 0.994142 20.9226L12.0612 31.7105L9.44854 46.9431C9.34326 47.5564 9.59531 48.1761 10.0988 48.5419C10.6021 48.9075 11.2693 48.9557 11.8201 48.6662L25.5 41.4745C40.3932 49.3041 39.3702 48.8541 39.9403 48.8541C40.9478 48.8541 41.7234 47.9459 41.5515 46.9431L38.9389 31.7105L50.0061 20.9226C50.9739 19.979 50.4389 18.3293 49.1002 18.1346Z" fill="#F7AC16"/>
<path id="Vector_2" d="M25.5001 1.1416C24.8767 1.1416 24.3091 1.496 24.0342 2.05273L17.1943 15.912L1.9 18.1344C0.562404 18.3288 0.0251965 19.978 0.994142 20.9224L12.0612 31.7103L9.44854 46.9429C9.34326 47.5562 9.59531 48.1758 10.0988 48.5416C10.6021 48.9072 11.2693 48.9555 11.8201 48.6659L25.5 41.4742H25.5001V1.1416Z" fill="#F2D422"/>
<path id="Vector_3" d="M1.9 18.1346C0.562404 18.329 0.0251965 19.9782 0.994142 20.9226L12.0612 31.7104L9.44854 46.9431C9.34326 47.5563 9.59531 48.176 10.0988 48.5418C10.6021 48.9074 11.2693 48.9557 11.8201 48.6661L25.5 41.4744C40.3932 49.304 39.3702 48.854 39.9403 48.854C40.2792 48.854 40.6165 48.7486 40.9012 48.5418L17.1943 15.9121L1.9 18.1346Z" fill="#F7AC16"/>
<path id="Vector_4" d="M17.9373 29.8285C6.08242 18.2728 6.59199 18.8921 6.43291 18.2928C6.36817 18.0521 6.35488 17.772 6.42529 17.4766L1.9 18.1341C0.562404 18.3285 0.0251965 19.9777 0.994142 20.9221L12.0612 31.71L9.44854 46.9427C9.34326 47.556 9.59531 48.1756 10.0988 48.5414C10.6021 48.907 11.2693 48.9553 11.8201 48.6657L15.8423 46.5512C15.4285 46.1785 15.2291 45.6176 15.3246 45.0611L17.9373 29.8285Z" fill="#F48B19"/>
<path id="Vector_5" d="M0.993978 20.9227L12.0611 31.7105L9.44837 46.9432C9.3431 47.5564 9.59515 48.1761 10.0987 48.5419C10.602 48.9075 11.2692 48.9558 11.82 48.6662L25.4998 41.4745C40.393 49.3041 39.37 48.8541 39.9402 48.8541C40.9476 48.8541 41.7233 47.9459 41.5513 46.9432L38.9387 31.7105L0.580208 19.2471C0.389095 19.9321 0.580404 20.5197 0.993978 20.9227Z" fill="#F2D422"/>
<path id="Vector_6" d="M0.993978 20.9227L12.0611 31.7105L9.44837 46.9432C9.3431 47.5564 9.59515 48.1761 10.0987 48.5419C10.602 48.9075 11.2692 48.9558 11.82 48.6662L15.8421 46.5517C15.4284 46.179 15.2289 45.6181 15.3244 45.0616L17.9371 29.829L10.3319 22.4156L0.580208 19.2471C0.389095 19.9321 0.580404 20.5197 0.993978 20.9227Z" fill="#EFB616"/>
<path id="Vector_7" d="M9.44842 46.9431C9.34314 47.5563 9.59519 48.176 10.0987 48.5418C10.602 48.9074 11.2692 48.9557 11.82 48.6661L25.4999 41.4744C40.393 49.304 39.3701 48.854 39.9402 48.854C40.9476 48.854 41.7233 47.9458 41.5513 46.9431L38.9387 31.7104L50.0059 20.9226C50.4513 20.4883 50.6116 19.8387 50.4195 19.2471L12.0611 31.7104L9.44842 46.9431Z" fill="#F7AC16"/>
<path id="Vector_8" d="M9.44842 46.9426C9.34314 47.5559 9.59519 48.1755 10.0987 48.5413C10.602 48.9069 11.2692 48.9552 11.82 48.6656L15.8422 46.5511C15.4284 46.1784 15.229 45.6175 15.3245 45.061L17.9372 29.8284L17.9158 29.8076L12.0611 31.71L9.44842 46.9426Z" fill="#F48B19"/>
<path id="Vector_9" d="M11.82 48.666L25.4998 41.4743C40.393 49.3039 39.37 48.8539 39.9401 48.8539C40.9476 48.8539 41.7232 47.9457 41.5513 46.943L38.9387 31.7104L50.0059 20.9225C50.9736 19.9788 50.4386 18.3291 49.0999 18.1345L33.8055 15.9121L10.0986 48.5417C10.602 48.9073 11.2691 48.9556 11.82 48.666Z" fill="#F2D422"/>
<path id="Vector_10" d="M50.4195 19.2471L25.4998 27.3439L10.0986 48.5419C10.602 48.9075 11.2691 48.9558 11.8199 48.6662L25.4998 41.4745C40.393 49.3041 39.37 48.8541 39.9401 48.8541C40.9476 48.8541 41.7232 47.9459 41.5513 46.9432L38.9387 31.7105L50.0059 20.9227C50.4514 20.4883 50.6116 19.8388 50.4195 19.2471Z" fill="#F7AC16"/>
<path id="Vector_11" d="M38.9388 31.7104L25.4998 27.3438L10.0986 48.5417C10.602 48.9073 11.2691 48.9556 11.8199 48.666L25.4998 41.4743C40.393 49.3039 39.37 48.8539 39.9401 48.8539C40.9476 48.8539 41.7232 47.9457 41.5513 46.943L38.9388 31.7104Z" fill="#F2D422"/>
<path id="Vector_12" d="M10.0986 48.5417C10.602 48.9073 11.2691 48.9556 11.8199 48.666L25.4998 41.4743C40.393 49.3039 39.37 48.8539 39.9401 48.8539C40.279 48.8539 40.6163 48.7485 40.901 48.5417L25.4998 27.3438L10.0986 48.5417Z" fill="#F7AC16"/>
<path id="Vector_13" d="M25.4999 27.3439L25.4998 27.3438L10.0986 48.5417C10.602 48.9073 11.2691 48.9556 11.8199 48.666L25.4998 41.4743H25.4999V27.3439Z" fill="#F2D422"/>
<path id="Vector_14" d="M16.1579 40.2012L10.0986 48.541C10.602 48.9066 11.2691 48.9549 11.8199 48.6653L15.8421 46.5508C15.4283 46.1781 15.2289 45.6172 15.3244 45.0607L16.1579 40.2012Z" fill="#EFB616"/>
</g>
<defs>
<clipPath id="clip0_573_1097">
<rect width="50" height="50" fill="white" transform="translate(0.5)"/>
</clipPath>
</defs>
</svg>
