<svg width="191" height="43" viewBox="0 0 191 43" fill="none" xmlns="http://www.w3.org/2000/svg">
<path fill-rule="evenodd" clip-rule="evenodd" d="M16.471 18.12H9.4083C8.33355 18.12 7.2588 16.9643 7.2588 15.0493C7.2588 13.3732 8.33781 11.9871 9.4083 11.9871H18.7228L23.0773 4.2506H9.4083C6.65743 4.2506 4.40134 5.26136 2.63994 7.28297C0.878534 9.30024 0 11.7099 0 14.5034C0 17.2969 0.865751 20.824 2.57602 22.7645C4.38863 24.8202 6.66177 25.8566 9.40838 25.8566H16.471C18.1684 25.8566 18.2239 28.0956 18.0064 29.3282H25.7813C25.9903 26.3939 25.6149 23.2805 23.6658 21.0159C21.8745 18.9389 19.2218 18.12 16.471 18.12Z" fill="#0F172A"/>
<path fill-rule="evenodd" clip-rule="evenodd" d="M33.4712 12.1323C35.4459 12.1579 36.4353 13.0578 36.4353 14.9045V28.2451C36.4353 30.0918 35.4459 31.0172 33.4712 31.0172C27.3852 31.0172 13.0979 30.9618 5.97548 30.9234L1.63379 38.6386C9.92047 38.6728 26.127 38.7496 33.4712 38.7496C36.4779 38.7496 39.0241 37.7516 41.1096 35.7556C43.1909 33.7554 44.2358 31.2519 44.2358 28.2451V14.9045C44.2358 11.8978 43.1909 9.39004 41.1096 7.39407C39.0241 5.3981 36.495 4.2551 33.4883 4.25937L27.0867 4.26789L22.7323 12.0001L33.4712 12.1323Z" fill="url(#paint0_linear_688_5655)"/>
<path d="M122.243 34H113.827V10.608H122.019C128.931 10.608 133.699 15.376 133.699 22.352C133.699 29.232 129.027 34 122.243 34ZM121.635 14.384H117.923V30.224H121.859C126.531 30.224 129.379 27.216 129.379 22.352C129.379 17.392 126.467 14.384 121.635 14.384ZM144.011 34.416C139.307 34.416 136.011 30.992 136.011 26.096C136.011 21.136 139.243 17.712 143.883 17.712C148.619 17.712 151.627 20.88 151.627 25.808V26.992L139.723 27.024C140.011 29.808 141.483 31.216 144.075 31.216C146.219 31.216 147.627 30.384 148.075 28.88H151.691C151.019 32.336 148.139 34.416 144.011 34.416ZM143.915 20.912C141.611 20.912 140.203 22.16 139.819 24.528H147.755C147.755 22.352 146.251 20.912 143.915 20.912ZM153.823 26.064C153.823 21.168 157.055 17.712 161.727 17.712C166.047 17.712 168.991 20.112 169.407 23.92H165.503C165.055 22.128 163.743 21.2 161.887 21.2C159.391 21.2 157.727 23.088 157.727 26.064C157.727 29.04 159.263 30.896 161.759 30.896C163.711 30.896 165.087 29.936 165.503 28.208H169.439C168.959 31.888 165.887 34.416 161.759 34.416C156.959 34.416 153.823 31.088 153.823 26.064ZM176.281 34H172.409V10.192H176.281V24.816L182.425 18.192H187.321L181.305 24.464L187.193 34H182.713L178.585 27.344L176.281 29.744V34Z" fill="#0F172A"/>
<mask id="mask0_688_5655" style="mask-type:alpha" maskUnits="userSpaceOnUse" x="2" y="4" width="109" height="35">
<path fill-rule="evenodd" clip-rule="evenodd" d="M33.6403 11.873C35.6027 11.8985 36.5861 12.7984 36.5861 14.6451V27.9857C36.5861 29.8324 35.6027 30.7579 33.6403 30.7579C27.592 30.7579 13.3931 30.7024 6.31481 30.6641L2 38.3793C10.2354 38.4134 26.3416 38.4902 33.6403 38.4902C36.6284 38.4902 39.1588 37.4922 41.2315 35.4963C43.2998 33.496 44.3383 30.9925 44.3383 27.9858V14.6452C44.3383 11.6385 43.2998 9.13068 41.2315 7.13472C39.1589 5.13875 36.6454 3.99575 33.6573 4.00001L27.2954 4.00853L22.9679 11.7408L33.6403 11.873Z" fill="url(#paint1_linear_688_5655)"/>
<path d="M54.5228 16.8766C54.5228 12.7806 57.8938 9.93265 62.7913 9.93265C67.498 9.93265 70.4874 12.5566 70.6146 16.7806H66.5439C66.4485 14.7646 65.0174 13.5806 62.7277 13.5806C60.2153 13.5806 58.5935 14.7966 58.5935 16.7486C58.5935 18.4126 59.4839 19.3406 61.4238 19.7886L65.081 20.5886C69.0563 21.4526 70.9962 23.5006 70.9962 26.9886C70.9962 31.3406 67.6252 34.1566 62.5051 34.1566C57.544 34.1566 54.3002 31.5006 54.2048 27.3086H58.2754C58.3072 29.2926 59.8973 30.4766 62.5051 30.4766C65.2082 30.4766 66.9256 29.2926 66.9256 27.3406C66.9256 25.7726 66.1305 24.8446 64.2224 24.4286L60.5334 23.5966C56.5899 22.7326 54.5228 20.4606 54.5228 16.8766Z" fill="url(#paint2_linear_688_5655)"/>
<path d="M78.018 33.7406H74.1699V9.93265H78.018V24.5566L84.1239 17.9326H88.9896L83.0109 24.2046L88.8624 33.7406H84.4101L80.3077 27.0846L78.018 29.4846V33.7406Z" fill="url(#paint3_linear_688_5655)"/>
<path d="M93.1584 14.7646C91.8227 14.7646 90.7733 13.7086 90.7733 12.3966C90.7733 11.0846 91.8227 10.0606 93.1584 10.0606C94.4305 10.0606 95.4799 11.0846 95.4799 12.3966C95.4799 13.7086 94.4305 14.7646 93.1584 14.7646ZM91.2185 33.7406V17.9326H95.0983V33.7406H91.2185Z" fill="url(#paint4_linear_688_5655)"/>
<path d="M103.018 33.7406H99.1704V9.93265H103.018V33.7406Z" fill="url(#paint5_linear_688_5655)"/>
<path d="M111 33.7406H107.152V9.93265H111V33.7406Z" fill="url(#paint6_linear_688_5655)"/>
</mask>
<g mask="url(#mask0_688_5655)">
<rect x="-1.61133" y="-1.25937" width="115.282" height="44" fill="url(#paint7_linear_688_5655)"/>
</g>
<defs>
<linearGradient id="paint0_linear_688_5655" x1="1.63379" y1="21.5045" x2="44.2358" y2="21.5045" gradientUnits="userSpaceOnUse">
<stop stop-color="#155DFC"/>
<stop offset="1" stop-color="#432DD7"/>
</linearGradient>
<linearGradient id="paint1_linear_688_5655" x1="2" y1="21.2451" x2="111" y2="21.2451" gradientUnits="userSpaceOnUse">
<stop stop-color="#155DFC"/>
<stop offset="1" stop-color="#432DD7"/>
</linearGradient>
<linearGradient id="paint2_linear_688_5655" x1="2" y1="21.2451" x2="111" y2="21.2451" gradientUnits="userSpaceOnUse">
<stop stop-color="#155DFC"/>
<stop offset="1" stop-color="#432DD7"/>
</linearGradient>
<linearGradient id="paint3_linear_688_5655" x1="2" y1="21.2451" x2="111" y2="21.2451" gradientUnits="userSpaceOnUse">
<stop stop-color="#155DFC"/>
<stop offset="1" stop-color="#432DD7"/>
</linearGradient>
<linearGradient id="paint4_linear_688_5655" x1="2" y1="21.2451" x2="111" y2="21.2451" gradientUnits="userSpaceOnUse">
<stop stop-color="#155DFC"/>
<stop offset="1" stop-color="#432DD7"/>
</linearGradient>
<linearGradient id="paint5_linear_688_5655" x1="2" y1="21.2451" x2="111" y2="21.2451" gradientUnits="userSpaceOnUse">
<stop stop-color="#155DFC"/>
<stop offset="1" stop-color="#432DD7"/>
</linearGradient>
<linearGradient id="paint6_linear_688_5655" x1="2" y1="21.2451" x2="111" y2="21.2451" gradientUnits="userSpaceOnUse">
<stop stop-color="#155DFC"/>
<stop offset="1" stop-color="#432DD7"/>
</linearGradient>
<linearGradient id="paint7_linear_688_5655" x1="-1.61133" y1="20.7406" x2="113.671" y2="20.7406" gradientUnits="userSpaceOnUse">
<stop stop-color="#155DFC"/>
<stop offset="1" stop-color="#432DD7"/>
</linearGradient>
</defs>
</svg>
