<svg width="192" height="43" viewBox="0 0 192 43" fill="none" xmlns="http://www.w3.org/2000/svg">
<path fill-rule="evenodd" clip-rule="evenodd" d="M17.3533 18.1204H10.2906C9.21587 18.1204 8.14112 16.9646 8.14112 15.0497C8.14112 13.3736 9.22013 11.9875 10.2906 11.9875H19.6051L23.9596 4.25098H10.2906C7.53976 4.25098 5.28366 5.26174 3.52226 7.28335C1.76086 9.30062 0.882324 11.7103 0.882324 14.5038C0.882324 17.2973 1.74808 20.8243 3.45835 22.7649C5.27095 24.8206 7.5441 25.8569 10.2907 25.8569H17.3533C19.0508 25.8569 19.1062 28.096 18.8887 29.3285H26.6636C26.8726 26.3943 26.4973 23.2809 24.5482 21.0163C22.7569 18.9393 20.1041 18.1204 17.3533 18.1204Z" fill="#0C213A"/>
<path fill-rule="evenodd" clip-rule="evenodd" d="M34.353 12.1327C36.3277 12.1583 37.3172 13.0582 37.3172 14.9049V28.2455C37.3172 30.0922 36.3277 31.0176 34.353 31.0176C28.2671 31.0176 13.9797 30.9622 6.85731 30.9238L2.51562 38.639C10.8023 38.6732 27.0089 38.75 34.353 38.75C37.3598 38.75 39.9059 37.752 41.9915 35.756C44.0727 33.7558 45.1177 31.2523 45.1177 28.2455V14.905C45.1177 11.8982 44.0727 9.39045 41.9915 7.39448C39.906 5.39851 37.3769 4.25552 34.3701 4.25978L27.9686 4.2683L23.6141 12.0006L34.353 12.1327Z" fill="#6374FF"/>
<path d="M55.3657 17.136C55.3657 13.04 58.7577 10.192 63.6857 10.192C68.4217 10.192 71.4297 12.816 71.5577 17.04H67.4617C67.3657 15.024 65.9257 13.84 63.6217 13.84C61.0937 13.84 59.4617 15.056 59.4617 17.008C59.4617 18.672 60.3577 19.6 62.3097 20.048L65.9897 20.848C69.9897 21.712 71.9417 23.76 71.9417 27.248C71.9417 31.6 68.5497 34.416 63.3977 34.416C58.4057 34.416 55.1417 31.76 55.0457 27.568H59.1417C59.1737 29.552 60.7737 30.736 63.3977 30.736C66.1177 30.736 67.8457 29.552 67.8457 27.6C67.8457 26.032 67.0457 25.104 65.1257 24.688L61.4137 23.856C57.4457 22.992 55.3657 20.72 55.3657 17.136ZM79.0072 34H75.1352V10.192H79.0072V24.816L85.1512 18.192H90.0472L84.0312 24.464L89.9192 34H85.4392L81.3112 27.344L79.0072 29.744V34ZM94.2419 15.024C92.8979 15.024 91.8419 13.968 91.8419 12.656C91.8419 11.344 92.8979 10.32 94.2419 10.32C95.5219 10.32 96.5779 11.344 96.5779 12.656C96.5779 13.968 95.5219 15.024 94.2419 15.024ZM92.2899 34V18.192H96.1939V34H92.2899ZM104.163 34H100.291V10.192H104.163V34ZM112.195 34H108.323V10.192H112.195V34Z" fill="#6374FF"/>
<path d="M125.282 34H116.866V10.608H125.058C131.97 10.608 136.738 15.376 136.738 22.352C136.738 29.232 132.066 34 125.282 34ZM124.674 14.384H120.962V30.224H124.898C129.57 30.224 132.418 27.216 132.418 22.352C132.418 17.392 129.506 14.384 124.674 14.384ZM147.049 34.416C142.345 34.416 139.049 30.992 139.049 26.096C139.049 21.136 142.281 17.712 146.921 17.712C151.657 17.712 154.665 20.88 154.665 25.808V26.992L142.761 27.024C143.049 29.808 144.521 31.216 147.113 31.216C149.257 31.216 150.665 30.384 151.113 28.88H154.729C154.057 32.336 151.177 34.416 147.049 34.416ZM146.953 20.912C144.649 20.912 143.241 22.16 142.857 24.528H150.793C150.793 22.352 149.289 20.912 146.953 20.912ZM156.862 26.064C156.862 21.168 160.094 17.712 164.766 17.712C169.086 17.712 172.03 20.112 172.446 23.92H168.542C168.094 22.128 166.782 21.2 164.926 21.2C162.43 21.2 160.766 23.088 160.766 26.064C160.766 29.04 162.302 30.896 164.798 30.896C166.75 30.896 168.126 29.936 168.542 28.208H172.478C171.998 31.888 168.926 34.416 164.798 34.416C159.998 34.416 156.862 31.088 156.862 26.064ZM179.32 34H175.448V10.192H179.32V24.816L185.464 18.192H190.36L184.344 24.464L190.232 34H185.752L181.624 27.344L179.32 29.744V34Z" fill="#0C213A"/>
</svg>
