<svg width="722" height="294" viewBox="0 0 722 294" fill="none" xmlns="http://www.w3.org/2000/svg">
<g clip-path="url(#clip0_220_2518)">
<path d="M363.317 294C559.093 294 717.801 283.509 717.801 270.569C717.801 257.628 559.093 247.137 363.317 247.137C167.541 247.137 8.83252 257.628 8.83252 270.569C8.83252 283.509 167.541 294 363.317 294Z" fill="#F2F2F2"/>
<path d="M349.73 14.0581C291.975 14.0581 250.507 51.0548 250.507 137.381C250.507 235.216 291.975 261.114 349.73 261.114C407.485 261.114 451.423 232.75 451.423 137.381C451.423 35.434 407.485 14.0581 349.73 14.0581ZM350.11 228.639C310.107 228.639 289.208 205.207 289.208 137.444C289.208 77.6526 310.963 46.1219 350.965 46.1219C390.968 46.1219 412.722 66.8332 412.722 137.444C412.722 203.499 390.112 228.639 350.11 228.639Z" fill="#2F2E41"/>
<path d="M215.924 192.876H192.045V122.666C192.045 118.937 190.561 115.36 187.92 112.724C185.279 110.087 181.697 108.605 177.962 108.605H172.367C170.517 108.605 168.686 108.969 166.978 109.676C165.269 110.382 163.717 111.418 162.409 112.724C161.101 114.029 160.064 115.579 159.356 117.285C158.648 118.991 158.284 120.819 158.284 122.666V192.876H90.9288C89.5431 192.876 88.181 192.518 86.9746 191.838C85.7681 191.157 84.7583 190.177 84.0431 188.992C83.3279 187.807 82.9315 186.457 82.8925 185.074C82.8535 183.692 83.1732 182.322 83.8205 181.099L155.109 46.3817C155.998 44.7021 156.536 42.8601 156.692 40.9669C156.848 39.0737 156.619 37.1686 156.017 35.3665C155.415 33.5644 154.454 31.9027 153.192 30.4817C151.929 29.0608 150.391 27.91 148.671 27.0988L144.462 25.1147C141.195 23.574 137.459 23.3465 134.028 24.4792C130.597 25.612 127.733 28.0183 126.03 31.2004L39.0842 193.596C37.6037 196.362 36.8291 199.449 36.8291 202.585C36.8291 205.088 37.323 207.568 38.2827 209.881C39.2423 212.194 40.6489 214.296 42.4221 216.066C44.1953 217.837 46.3004 219.241 48.6172 220.199C50.934 221.158 53.4171 221.651 55.9248 221.651H158.284V266.047C158.284 268.26 158.721 270.452 159.569 272.497C160.417 274.541 161.661 276.399 163.228 277.964C164.796 279.529 166.657 280.771 168.705 281.618C170.753 282.465 172.948 282.901 175.164 282.901H175.164C177.381 282.901 179.576 282.465 181.624 281.618C183.672 280.771 185.533 279.529 187.1 277.964C188.668 276.399 189.911 274.541 190.76 272.497C191.608 270.452 192.045 268.26 192.045 266.047V221.651H215.924C219.746 221.651 223.411 220.135 226.113 217.437C228.816 214.739 230.334 211.079 230.334 207.263C230.334 203.447 228.816 199.788 226.113 197.09C223.411 194.391 219.746 192.876 215.924 192.876Z" fill="#6374FF"/>
<path d="M658.103 192.876H634.223V122.666C634.223 118.937 632.74 115.36 630.099 112.724C627.458 110.087 623.876 108.605 620.141 108.605H614.545C612.696 108.605 610.865 108.969 609.156 109.676C607.448 110.382 605.895 111.418 604.588 112.724C603.28 114.029 602.243 115.579 601.535 117.285C600.827 118.991 600.463 120.819 600.463 122.666V192.876H533.107C531.722 192.876 530.36 192.518 529.153 191.838C527.947 191.157 526.937 190.177 526.222 188.992C525.507 187.807 525.11 186.457 525.071 185.074C525.032 183.692 525.352 182.322 525.999 181.099L597.287 46.3817C598.176 44.7021 598.715 42.8601 598.871 40.967C599.027 39.0738 598.797 37.1686 598.196 35.3665C597.594 33.5644 596.633 31.9027 595.37 30.4817C594.108 29.0608 592.57 27.91 590.849 27.0988L586.641 25.1147C583.373 23.574 579.637 23.3465 576.206 24.4792C572.775 25.612 569.912 28.0183 568.208 31.2004L481.263 193.596C479.782 196.362 479.008 199.449 479.008 202.585C479.008 207.641 481.02 212.491 484.601 216.066C488.182 219.642 493.039 221.651 498.103 221.651H600.463V266.047C600.463 270.517 602.241 274.804 605.407 277.964C608.573 281.125 612.866 282.901 617.343 282.901C621.82 282.901 626.113 281.125 629.279 277.964C632.445 274.804 634.223 270.517 634.223 266.047V221.651H658.102C661.924 221.651 665.589 220.135 668.292 217.437C670.994 214.739 672.512 211.079 672.512 207.263C672.512 203.447 670.994 199.788 668.292 197.09C665.589 194.391 661.924 192.876 658.103 192.876Z" fill="#6374FF"/>
<path d="M222.511 184.654H198.632V114.445C198.632 112.598 198.268 110.77 197.56 109.064C196.852 107.358 195.815 105.808 194.507 104.502C193.2 103.196 191.647 102.161 189.939 101.454C188.23 100.748 186.399 100.384 184.55 100.384H178.954C175.219 100.384 171.637 101.865 168.996 104.502C166.355 107.139 164.872 110.715 164.872 114.445V184.654H97.5162C96.1305 184.654 94.7684 184.297 93.562 183.616C92.3555 182.936 91.3457 181.955 90.6305 180.77C89.9153 179.585 89.5189 178.236 89.48 176.853C89.441 175.47 89.7606 174.101 90.4079 172.877L161.696 38.1603C162.585 36.4807 163.124 34.6387 163.28 32.7455C163.436 30.8523 163.206 28.9472 162.604 27.1451C162.003 25.343 161.042 23.6813 159.779 22.2603C158.516 20.8393 156.978 19.6885 155.258 18.8774L151.05 16.8932C147.782 15.3525 144.046 15.125 140.615 16.2578C137.184 17.3906 134.321 19.7969 132.617 22.9789L45.6717 185.375C44.1911 188.14 43.4165 191.228 43.4165 194.363V194.363C43.4165 199.42 45.4284 204.269 49.0095 207.845C52.5906 211.421 57.4477 213.429 62.5122 213.429H164.872V257.825C164.872 260.039 165.308 262.23 166.157 264.275C167.005 266.32 168.248 268.178 169.816 269.743C171.383 271.308 173.244 272.55 175.292 273.397C177.34 274.244 179.535 274.679 181.752 274.679H181.752C186.229 274.679 190.522 272.904 193.688 269.743C196.854 266.582 198.632 262.295 198.632 257.825V213.429H222.511C224.404 213.429 226.277 213.057 228.026 212.334C229.774 211.611 231.363 210.551 232.701 209.215C234.039 207.879 235.1 206.293 235.824 204.548C236.548 202.802 236.921 200.931 236.921 199.042V199.042C236.921 197.152 236.548 195.281 235.824 193.536C235.1 191.79 234.039 190.204 232.701 188.868C231.363 187.532 229.774 186.472 228.026 185.749C226.277 185.026 224.404 184.654 222.511 184.654V184.654Z" stroke="#3F3D56" stroke-miterlimit="10"/>
<path d="M670.454 184.654H646.575V114.445C646.575 110.715 645.091 107.139 642.45 104.502C639.809 101.865 636.227 100.384 632.492 100.384H626.897C625.048 100.384 623.216 100.748 621.508 101.454C619.799 102.161 618.247 103.196 616.939 104.502C615.631 105.808 614.594 107.358 613.886 109.064C613.179 110.77 612.815 112.598 612.815 114.445V184.654H545.459C544.073 184.654 542.711 184.297 541.505 183.616C540.298 182.936 539.289 181.955 538.573 180.77C537.858 179.585 537.462 178.236 537.423 176.853C537.384 175.47 537.704 174.101 538.351 172.877L609.639 38.1603C610.528 36.4807 611.067 34.6387 611.223 32.7455C611.379 30.8523 611.149 28.9472 610.547 27.1451C609.946 25.343 608.985 23.6813 607.722 22.2603C606.459 20.8393 604.921 19.6885 603.201 18.8774L598.993 16.8932C595.725 15.3525 591.989 15.125 588.558 16.2578C585.127 17.3906 582.264 19.7969 580.56 22.9789L493.615 185.375C492.134 188.14 491.359 191.228 491.359 194.363C491.359 199.42 493.371 204.269 496.952 207.845C500.534 211.421 505.391 213.429 510.455 213.429H612.815V257.825C612.815 262.295 614.593 266.582 617.759 269.743C620.924 272.904 625.218 274.679 629.695 274.679V274.679C634.172 274.679 638.465 272.904 641.631 269.743C644.796 266.582 646.575 262.295 646.575 257.825V213.429H670.454C672.347 213.429 674.22 213.057 675.969 212.334C677.717 211.611 679.305 210.551 680.644 209.215C681.982 207.879 683.043 206.293 683.767 204.548C684.491 202.802 684.864 200.931 684.864 199.042V199.042C684.864 195.226 683.346 191.566 680.644 188.868C677.941 186.17 674.276 184.654 670.454 184.654V184.654Z" stroke="#3F3D56" stroke-miterlimit="10"/>
<path d="M362.905 6.65869C305.15 6.65869 263.683 43.6554 263.683 129.981C263.683 227.817 305.15 253.715 362.905 253.715C420.66 253.715 464.598 225.35 464.598 129.981C464.598 28.0346 420.66 6.65869 362.905 6.65869ZM363.285 221.24C323.282 221.24 302.384 197.808 302.384 130.044C302.384 70.2532 324.138 38.7225 364.14 38.7225C404.143 38.7225 425.897 59.4338 425.897 130.044C425.897 196.099 403.287 221.24 363.285 221.24V221.24Z" stroke="#3F3D56" stroke-miterlimit="10"/>
<path d="M676.621 183.504C678.656 184.243 680.836 184.5 682.988 184.254C685.14 184.008 687.206 183.267 689.022 182.088C690.838 180.91 692.355 179.326 693.453 177.462C694.552 175.598 695.202 173.505 695.352 171.347C695.502 169.19 695.148 167.027 694.318 165.029C693.488 163.032 692.205 161.254 690.569 159.836C688.934 158.418 686.991 157.399 684.893 156.858C682.796 156.318 680.602 156.272 678.483 156.722L678.833 163.91L675.427 157.75C672.085 159.318 669.502 162.147 668.248 165.616C667.802 166.831 667.531 168.102 667.443 169.393C667.228 172.422 668.008 175.438 669.664 177.984C671.32 180.53 673.762 182.468 676.621 183.504Z" fill="#57B894"/>
<path d="M693.473 266.867C692.27 260.755 697.48 255.336 702.626 251.813C707.772 248.291 713.785 244.83 715.541 238.852C718.064 230.261 710.548 222.394 704.697 215.609C700.357 210.574 696.63 205.043 693.593 199.132C692.376 196.761 691.258 194.284 690.937 191.639C690.476 187.831 691.701 184.042 692.936 180.41C697.048 168.309 701.445 156.31 706.126 144.412" stroke="#3F3D56" stroke-miterlimit="10"/>
<path d="M677.197 181.654C679.232 182.393 681.412 182.649 683.564 182.404C685.716 182.158 687.782 181.416 689.598 180.238C691.414 179.059 692.931 177.475 694.029 175.611C695.128 173.748 695.778 171.654 695.928 169.497C696.078 167.339 695.724 165.176 694.894 163.179C694.064 161.181 692.781 159.403 691.145 157.985C689.51 156.567 687.567 155.548 685.469 155.008C683.372 154.467 681.178 154.421 679.059 154.872L679.409 162.059L676.003 155.9C672.661 157.468 670.078 160.297 668.824 163.765C668.378 164.98 668.107 166.252 668.019 167.543C667.804 170.571 668.584 173.587 670.24 176.133C671.896 178.68 674.338 180.618 677.197 181.654V181.654Z" stroke="#3F3D56" stroke-miterlimit="10"/>
<path d="M691.764 141.93C692.562 139.729 693.903 137.764 695.662 136.217C697.422 134.669 699.543 133.589 701.83 133.075L702.982 139.908L705.117 132.731C708.081 132.775 710.955 133.759 713.323 135.54C715.691 137.32 717.431 139.807 718.291 142.639C719.152 145.472 719.089 148.504 718.111 151.298C717.133 154.093 715.291 156.505 712.851 158.186C710.411 159.867 707.499 160.73 704.535 160.651C701.571 160.571 698.71 159.554 696.363 157.745C694.017 155.936 692.306 153.429 691.48 150.587C690.653 147.744 690.752 144.713 691.763 141.93H691.764Z" fill="#57B894"/>
<path d="M692.531 139.463C693.33 137.262 694.671 135.297 696.43 133.75C698.189 132.202 700.31 131.122 702.598 130.608L703.749 137.441L705.884 130.264C708.849 130.308 711.722 131.291 714.09 133.072C716.458 134.853 718.198 137.339 719.059 140.172C719.92 143.004 719.857 146.037 718.879 148.831C717.901 151.626 716.059 154.037 713.619 155.718C711.178 157.399 708.266 158.263 705.303 158.183C702.339 158.104 699.477 157.087 697.131 155.278C694.784 153.469 693.074 150.962 692.247 148.119C691.42 145.277 691.52 142.245 692.531 139.463H692.531Z" stroke="#3F3D56" stroke-miterlimit="10"/>
<path d="M702.243 215.747C705.471 216.917 709.017 216.859 712.206 215.585C715.394 214.311 718.002 211.911 719.532 208.841C721.061 205.771 721.406 202.246 720.5 198.939C719.595 195.631 717.502 192.772 714.62 190.906L712.98 196.421L711.816 189.508C711.805 189.502 711.793 189.498 711.781 189.494C710.054 188.868 708.221 188.587 706.385 188.668C704.55 188.749 702.748 189.191 701.084 189.967C699.419 190.744 697.924 191.84 696.684 193.194C695.444 194.547 694.483 196.132 693.857 197.856C693.23 199.581 692.95 201.411 693.033 203.244C693.115 205.077 693.558 206.875 694.337 208.536C695.116 210.198 696.215 211.69 697.571 212.927C698.928 214.165 700.515 215.123 702.242 215.747H702.243Z" fill="#57B894"/>
<path d="M702.908 213.248C706.136 214.418 709.682 214.36 712.871 213.086C716.059 211.812 718.667 209.412 720.197 206.342C721.726 203.272 722.071 199.747 721.165 196.44C720.26 193.132 718.167 190.273 715.285 188.407L713.645 193.922L712.481 187.009C712.47 187.003 712.458 186.999 712.446 186.995C710.719 186.369 708.886 186.088 707.05 186.169C705.215 186.25 703.413 186.692 701.749 187.468C700.084 188.245 698.589 189.341 697.349 190.695C696.109 192.048 695.148 193.633 694.522 195.357C693.895 197.082 693.615 198.912 693.698 200.745C693.78 202.578 694.223 204.376 695.002 206.037C695.781 207.699 696.88 209.191 698.236 210.428C699.593 211.665 701.18 212.624 702.907 213.248H702.908Z" stroke="#3F3D56" stroke-miterlimit="10"/>
<path d="M687.682 238.938C688.237 242.091 689.861 244.959 692.282 247.059C694.703 249.158 697.774 250.363 700.979 250.471C704.184 250.579 707.329 249.583 709.886 247.65C712.443 245.718 714.257 242.966 715.023 239.857C715.789 236.748 715.462 233.47 714.095 230.573C712.728 227.677 710.405 225.338 707.516 223.948C704.627 222.558 701.347 222.203 698.226 222.941C695.106 223.679 692.334 225.466 690.377 228.003L696.608 237.367L688.094 232.397C687.434 234.513 687.292 236.756 687.682 238.938Z" fill="#57B894"/>
<path d="M688.258 237.087C688.813 240.241 690.437 243.108 692.858 245.208C695.279 247.308 698.35 248.513 701.555 248.621C704.76 248.728 707.905 247.732 710.462 245.8C713.019 243.867 714.833 241.116 715.599 238.007C716.365 234.897 716.038 231.62 714.671 228.723C713.304 225.826 710.981 223.487 708.092 222.097C705.203 220.708 701.923 220.352 698.802 221.09C695.682 221.829 692.91 223.616 690.953 226.152L697.184 235.517L688.67 230.546C688.01 232.662 687.868 234.905 688.258 237.087V237.087Z" stroke="#3F3D56" stroke-miterlimit="10"/>
<path d="M6.05357 217.522C7.39106 218.007 8.82321 218.176 10.2371 218.014C11.6511 217.853 13.0081 217.366 14.2013 216.591C15.3945 215.817 16.3913 214.777 17.113 213.552C17.8347 212.327 18.2617 210.952 18.3603 209.534C18.4589 208.117 18.2264 206.696 17.6811 205.383C17.1358 204.071 16.2927 202.903 15.2181 201.971C14.1435 201.04 12.8669 200.37 11.4889 200.015C10.1109 199.66 8.66915 199.629 7.27729 199.926L7.5073 204.648L5.2696 200.601C3.07343 201.631 1.37679 203.49 0.552535 205.769C0.259807 206.567 0.0818499 207.402 0.0239731 208.25C-0.117272 210.24 0.394939 212.222 1.48298 213.895C2.57103 215.568 4.1756 216.841 6.05357 217.522Z" fill="#57B894"/>
<path d="M17.1252 272.293C16.3352 268.277 19.7581 264.716 23.1391 262.402C26.52 260.088 30.4705 257.814 31.6241 253.886C33.282 248.242 28.3436 243.073 24.4999 238.615C21.6482 235.307 19.1993 231.673 17.2044 227.789C16.3371 226.264 15.7463 224.597 15.4594 222.867C15.1563 220.365 15.9614 217.875 16.7724 215.488C19.4743 207.538 22.3631 199.654 25.4388 191.837" stroke="#3F3D56" stroke-miterlimit="10"/>
<path d="M6.43151 216.306C7.769 216.791 9.20115 216.96 10.6151 216.799C12.029 216.637 13.386 216.15 14.5792 215.376C15.7724 214.601 16.7692 213.561 17.4909 212.336C18.2127 211.111 18.6396 209.736 18.7382 208.319C18.8368 206.901 18.6043 205.48 18.059 204.168C17.5137 202.855 16.6706 201.687 15.596 200.755C14.5215 199.824 13.2449 199.154 11.8668 198.799C10.4888 198.444 9.04709 198.413 7.65523 198.71L7.88524 203.432L5.64753 199.385C3.45136 200.415 1.75472 202.274 0.930465 204.553C0.63774 205.351 0.459786 206.186 0.401906 207.035C0.260652 209.024 0.772859 211.006 1.86091 212.679C2.94895 214.352 4.55353 215.625 6.43151 216.306V216.306Z" stroke="#3F3D56" stroke-miterlimit="10"/>
<path d="M16.0022 190.207C16.5271 188.761 17.408 187.47 18.5639 186.453C19.7197 185.436 21.1133 184.726 22.6161 184.389L23.3727 188.878L24.7755 184.163C26.7231 184.192 28.6111 184.838 30.167 186.008C31.7229 187.178 32.8661 188.812 33.4315 190.673C33.997 192.534 33.9555 194.526 33.313 196.362C32.6705 198.198 31.4603 199.782 29.857 200.887C28.2538 201.991 26.3405 202.558 24.3934 202.506C22.4462 202.454 20.5661 201.786 19.0243 200.597C17.4825 199.409 16.3589 197.762 15.8157 195.894C15.2725 194.027 15.3378 192.035 16.0022 190.207Z" fill="#57B894"/>
<path d="M16.5066 188.586C17.0315 187.14 17.9124 185.849 19.0683 184.832C20.2241 183.815 21.6177 183.105 23.1205 182.768L23.8771 187.257L25.2799 182.542C27.2275 182.571 29.1155 183.217 30.6714 184.387C32.2272 185.557 33.3704 187.19 33.9359 189.051C34.5014 190.913 34.4599 192.905 33.8174 194.741C33.1749 196.577 31.9647 198.161 30.3614 199.266C28.7582 200.37 26.8449 200.937 24.8977 200.885C22.9506 200.833 21.0704 200.165 19.5287 198.976C17.9869 197.788 16.8633 196.141 16.3201 194.273C15.7769 192.405 15.8422 190.414 16.5066 188.586V188.586Z" stroke="#3F3D56" stroke-miterlimit="10"/>
<path d="M22.887 238.706C25.0082 239.474 27.3382 239.436 29.4332 238.599C31.5281 237.763 33.2413 236.185 34.2464 234.168C35.2514 232.151 35.478 229.835 34.8829 227.662C34.2877 225.489 32.9126 223.611 31.0194 222.385L29.9416 226.008L29.1773 221.466C29.1697 221.462 29.1619 221.459 29.1539 221.457C28.0193 221.045 26.8146 220.861 25.6085 220.914C24.4024 220.967 23.2186 221.257 22.1248 221.767C21.031 222.277 20.0486 222.998 19.2338 223.887C18.419 224.776 17.7877 225.817 17.376 226.951C16.9643 228.084 16.7803 229.287 16.8345 230.491C16.8886 231.695 17.18 232.877 17.6918 233.968C18.2036 235.06 18.9258 236.04 19.8172 236.853C20.7087 237.666 21.7518 238.296 22.887 238.706Z" fill="#57B894"/>
<path d="M23.3242 237.064C25.4453 237.832 27.7754 237.794 29.8703 236.957C31.9652 236.12 33.6785 234.543 34.6835 232.526C35.6886 230.509 35.9151 228.193 35.32 226.02C34.7249 223.847 33.3497 221.969 31.4566 220.743L30.3787 224.366L29.6144 219.824C29.6069 219.82 29.5991 219.817 29.591 219.815C28.4567 219.404 27.2524 219.22 26.047 219.274C24.8415 219.328 23.6585 219.619 22.5654 220.129C20.3579 221.16 18.6509 223.024 17.8198 225.311C16.9888 227.598 17.1018 230.121 18.1341 232.326C19.1664 234.53 21.0333 236.234 23.3242 237.064V237.064Z" stroke="#3F3D56" stroke-miterlimit="10"/>
<path d="M13.3204 253.943C13.6851 256.015 14.7522 257.898 16.3429 259.278C17.9336 260.658 19.951 261.449 22.0569 261.52C24.1627 261.591 26.2289 260.937 27.9089 259.667C29.5889 258.397 30.7806 256.589 31.2841 254.547C31.7876 252.504 31.5723 250.35 30.6743 248.447C29.7762 246.544 28.2501 245.007 26.3518 244.094C24.4536 243.181 22.2986 242.947 20.2484 243.432C18.1981 243.917 16.3772 245.092 15.0911 246.758L19.1852 252.911L13.5911 249.645C13.1574 251.035 13.0645 252.509 13.3204 253.943Z" fill="#57B894"/>
<path d="M13.6988 252.727C14.0635 254.799 15.1307 256.682 16.7213 258.062C18.312 259.442 20.3294 260.233 22.4353 260.304C24.5411 260.375 26.6073 259.721 28.2873 258.451C29.9674 257.181 31.159 255.373 31.6625 253.331C32.166 251.288 31.9507 249.134 31.0527 247.231C30.1546 245.328 28.6285 243.791 26.7303 242.878C24.832 241.965 22.677 241.731 20.6268 242.216C18.5765 242.701 16.7556 243.876 15.4695 245.542L19.5636 251.695L13.9695 248.429C13.5358 249.819 13.4429 251.293 13.6988 252.727V252.727Z" stroke="#3F3D56" stroke-miterlimit="10"/>
<path d="M323.2 130.877C329.509 130.877 334.624 124.268 334.624 116.116C334.624 107.964 329.509 101.355 323.2 101.355C316.89 101.355 311.775 107.964 311.775 116.116C311.775 124.268 316.89 130.877 323.2 130.877Z" fill="#2F2E41"/>
<path d="M385.361 131.213C391.67 131.213 396.785 124.604 396.785 116.452C396.785 108.299 391.67 101.69 385.361 101.69C379.051 101.69 373.937 108.299 373.937 116.452C373.937 124.604 379.051 131.213 385.361 131.213Z" fill="#2F2E41"/>
<path d="M376.624 160.064C376.624 166.734 367.296 172.142 355.792 172.142C344.287 172.142 334.959 166.734 334.959 160.064C334.959 154.287 341.955 149.456 351.303 148.276C352.791 148.08 354.291 147.983 355.792 147.987C358.307 147.979 360.815 148.249 363.271 148.792C371.08 150.53 376.624 154.925 376.624 160.064Z" fill="#2F2E41"/>
<path d="M325.888 127.523C332.197 127.523 337.312 120.914 337.312 112.761C337.312 104.609 332.197 98 325.888 98C319.579 98 314.464 104.609 314.464 112.761C314.464 120.914 319.579 127.523 325.888 127.523Z" stroke="#3F3D56" stroke-miterlimit="10"/>
<path d="M388.048 127.858C394.358 127.858 399.472 121.249 399.472 113.097C399.472 104.944 394.358 98.3354 388.048 98.3354C381.739 98.3354 376.624 104.944 376.624 113.097C376.624 121.249 381.739 127.858 388.048 127.858Z" stroke="#3F3D56" stroke-miterlimit="10"/>
<path d="M358.48 168.787C369.985 168.787 379.312 163.38 379.312 156.71C379.312 150.04 369.985 144.632 358.48 144.632C346.975 144.632 337.648 150.04 337.648 156.71C337.648 163.38 346.975 168.787 358.48 168.787Z" stroke="#3F3D56" stroke-miterlimit="10"/>
<path d="M363.52 149.799C363.525 150.642 363.208 151.456 362.633 152.075C362.361 152.371 362.031 152.607 361.663 152.77C361.296 152.933 360.898 153.017 360.496 153.019H353.776C352.948 152.99 352.165 152.636 351.598 152.032C351.032 151.429 350.727 150.626 350.752 149.799C350.748 149.144 350.94 148.504 351.303 147.959C352.79 147.75 354.29 147.647 355.792 147.652C358.31 147.643 360.821 147.932 363.271 148.51C363.437 148.92 363.522 149.357 363.52 149.799Z" fill="white"/>
<path d="M325.888 112.09C327.744 112.09 329.248 110.588 329.248 108.735C329.248 106.883 327.744 105.381 325.888 105.381C324.032 105.381 322.528 106.883 322.528 108.735C322.528 110.588 324.032 112.09 325.888 112.09Z" fill="white"/>
<path d="M388.384 112.09C390.24 112.09 391.745 110.588 391.745 108.735C391.745 106.883 390.24 105.381 388.384 105.381C386.529 105.381 385.024 106.883 385.024 108.735C385.024 110.588 386.529 112.09 388.384 112.09Z" fill="white"/>
<path opacity="0.3" d="M391.744 143.626C393.6 143.626 395.104 142.124 395.104 140.271C395.104 138.418 393.6 136.916 391.744 136.916C389.889 136.916 388.384 138.418 388.384 140.271C388.384 142.124 389.889 143.626 391.744 143.626Z" fill="#6374FF"/>
<path opacity="0.3" d="M309.759 143.626C311.615 143.626 313.119 142.124 313.119 140.271C313.119 138.418 311.615 136.916 309.759 136.916C307.904 136.916 306.399 138.418 306.399 140.271C306.399 142.124 307.904 143.626 309.759 143.626Z" fill="#6374FF"/>
</g>
<defs>
<clipPath id="clip0_220_2518">
<rect width="722" height="294" fill="white"/>
</clipPath>
</defs>
</svg>
