<svg width="500" height="448" viewBox="0 0 500 448" fill="none" xmlns="http://www.w3.org/2000/svg">
<path d="M249.999 130.158H276.48V118.968H249.999V130.158Z" stroke="#EBEBEB" stroke-width="0.75" stroke-miterlimit="10"/>
<path d="M264.771 116.048H291.252V104.858H264.771V116.048Z" stroke="#EBEBEB" stroke-width="0.75" stroke-miterlimit="10"/>
<path d="M279.485 130.158H305.966V118.968H279.485V130.158Z" stroke="#EBEBEB" stroke-width="0.75" stroke-miterlimit="10"/>
<path d="M56.1118 269.037H82.5928V257.847H56.1118V269.037Z" stroke="#EBEBEB" stroke-width="0.75" stroke-miterlimit="10"/>
<path d="M41.3413 254.927H67.8223V243.737H41.3413V254.927Z" stroke="#EBEBEB" stroke-width="0.75" stroke-miterlimit="10"/>
<path d="M417.407 269.037L443.888 269.037L443.888 257.847L417.407 257.847L417.407 269.037Z" stroke="#EBEBEB" stroke-width="0.75" stroke-miterlimit="10"/>
<path d="M208.82 369.54V243.877L235.551 207.395V139.059" stroke="#EBEBEB" stroke-miterlimit="10"/>
<path d="M233.177 136.725C233.177 138.037 234.24 139.1 235.552 139.1C236.864 139.1 237.927 138.037 237.927 136.725C237.927 135.413 236.864 134.35 235.552 134.35C234.24 134.35 233.177 135.414 233.177 136.725Z" stroke="#EBEBEB" stroke-miterlimit="10"/>
<path d="M215.706 369.54V248.285L242.436 211.802V164.057" stroke="#EBEBEB" stroke-miterlimit="10"/>
<path d="M240.062 161.723C240.062 163.035 241.125 164.098 242.437 164.098C243.749 164.098 244.812 163.035 244.812 161.723C244.812 160.411 243.749 159.348 242.437 159.348C241.126 159.348 240.062 160.411 240.062 161.723Z" stroke="#EBEBEB" stroke-miterlimit="10"/>
<path d="M202.188 369.539V203.129" stroke="#EBEBEB" stroke-miterlimit="10"/>
<path d="M199.812 200.754C199.812 202.066 200.875 203.129 202.188 203.129C203.5 203.129 204.562 202.066 204.562 200.754C204.562 199.442 203.5 198.379 202.188 198.379C200.877 198.379 199.812 199.442 199.812 200.754Z" stroke="#EBEBEB" stroke-miterlimit="10"/>
<path d="M195.802 369.54V284.965L177.654 250.735V189.372" stroke="#EBEBEB" stroke-miterlimit="10"/>
<path d="M175.279 186.997C175.279 188.309 176.342 189.372 177.654 189.372C178.966 189.372 180.029 188.309 180.029 186.997C180.029 185.685 178.966 184.622 177.654 184.622C176.342 184.622 175.279 185.685 175.279 186.997Z" stroke="#EBEBEB" stroke-miterlimit="10"/>
<path d="M189.454 369.54V288.622L168.059 250.781V210.366" stroke="#EBEBEB" stroke-miterlimit="10"/>
<path d="M165.684 207.991C165.684 209.303 166.747 210.366 168.059 210.366C169.371 210.366 170.434 209.303 170.434 207.991C170.434 206.679 169.371 205.616 168.059 205.616C166.748 205.616 165.684 206.679 165.684 207.991Z" stroke="#EBEBEB" stroke-miterlimit="10"/>
<path d="M183.794 408.398C242.564 408.398 290.207 400.793 290.207 391.412C290.207 382.031 242.564 374.426 183.794 374.426C125.024 374.426 77.3809 382.031 77.3809 391.412C77.3809 400.793 125.024 408.398 183.794 408.398Z" fill="#EBEBEB"/>
<path d="M332.395 124.42H267.374V369.592H332.395V124.42Z" fill="#37474F"/>
<path d="M452.057 124.42H332.395V369.592H452.057V124.42Z" fill="#455A64"/>
<path d="M444.579 337.794H341.367V361.63H444.579V337.794Z" fill="#37474F"/>
<path d="M404.462 341.731H345.712V343.743H404.462V341.731Z" fill="#455A64"/>
<path d="M404.462 345.218H345.712V347.23H404.462V345.218Z" fill="#455A64"/>
<path d="M404.462 348.706H345.712V350.718H404.462V348.706Z" fill="#455A64"/>
<path d="M404.462 352.193H345.712V354.205H404.462V352.193Z" fill="#455A64"/>
<path d="M404.462 355.681H345.712V357.693H404.462V355.681Z" fill="#455A64"/>
<path d="M415.173 343.726C415.173 344.828 414.28 345.721 413.178 345.721C412.076 345.721 411.183 344.828 411.183 343.726C411.183 342.624 412.076 341.731 413.178 341.731C414.28 341.731 415.173 342.624 415.173 343.726Z" fill="#6374FF"/>
<path d="M421.75 343.726C421.75 344.828 420.857 345.721 419.755 345.721C418.653 345.721 417.76 344.828 417.76 343.726C417.76 342.624 418.653 341.731 419.755 341.731C420.857 341.731 421.75 342.624 421.75 343.726Z" fill="#6374FF"/>
<path d="M428.328 343.726C428.328 344.828 427.435 345.721 426.333 345.721C425.231 345.721 424.338 344.828 424.338 343.726C424.338 342.624 425.231 341.731 426.333 341.731C427.435 341.731 428.328 342.624 428.328 343.726Z" fill="#6374FF"/>
<path d="M434.905 343.726C434.905 344.828 434.012 345.721 432.91 345.721C431.808 345.721 430.915 344.828 430.915 343.726C430.915 342.624 431.808 341.731 432.91 341.731C434.012 341.731 434.905 342.624 434.905 343.726Z" fill="#6374FF"/>
<path d="M441.481 343.726C441.481 344.828 440.588 345.721 439.486 345.721C438.384 345.721 437.491 344.828 437.491 343.726C437.491 342.624 438.384 341.731 439.486 341.731C440.588 341.731 441.481 342.624 441.481 343.726Z" fill="#6374FF"/>
<path d="M415.173 349.712C415.173 350.814 414.28 351.707 413.178 351.707C412.076 351.707 411.183 350.814 411.183 349.712C411.183 348.61 412.076 347.717 413.178 347.717C414.28 347.717 415.173 348.61 415.173 349.712Z" fill="#6374FF"/>
<path d="M421.75 349.712C421.75 350.814 420.857 351.707 419.755 351.707C418.653 351.707 417.76 350.814 417.76 349.712C417.76 348.61 418.653 347.717 419.755 347.717C420.857 347.716 421.75 348.61 421.75 349.712Z" fill="#6374FF"/>
<path d="M428.328 349.712C428.328 350.814 427.435 351.707 426.333 351.707C425.231 351.707 424.338 350.814 424.338 349.712C424.338 348.61 425.231 347.717 426.333 347.717C427.435 347.717 428.328 348.61 428.328 349.712Z" fill="#6374FF"/>
<path d="M434.905 349.712C434.905 350.814 434.012 351.707 432.91 351.707C431.808 351.707 430.915 350.814 430.915 349.712C430.915 348.61 431.808 347.717 432.91 347.717C434.012 347.717 434.905 348.61 434.905 349.712Z" fill="#6374FF"/>
<path d="M441.481 349.712C441.481 350.814 440.588 351.707 439.486 351.707C438.384 351.707 437.491 350.814 437.491 349.712C437.491 348.61 438.384 347.717 439.486 347.717C440.588 347.716 441.481 348.61 441.481 349.712Z" fill="#6374FF"/>
<path d="M413.178 357.692C414.279 357.692 415.173 356.799 415.173 355.697C415.173 354.595 414.279 353.702 413.178 353.702C412.076 353.702 411.183 354.595 411.183 355.697C411.183 356.799 412.076 357.692 413.178 357.692Z" fill="#6374FF"/>
<path d="M421.75 355.697C421.75 356.799 420.857 357.692 419.755 357.692C418.653 357.692 417.76 356.799 417.76 355.697C417.76 354.595 418.653 353.702 419.755 353.702C420.857 353.702 421.75 354.595 421.75 355.697Z" fill="#6374FF"/>
<path d="M426.332 357.692C427.434 357.692 428.327 356.799 428.327 355.697C428.327 354.595 427.434 353.702 426.332 353.702C425.23 353.702 424.337 354.595 424.337 355.697C424.337 356.799 425.23 357.692 426.332 357.692Z" fill="#6374FF"/>
<path d="M434.905 355.697C434.905 356.799 434.012 357.692 432.91 357.692C431.808 357.692 430.915 356.799 430.915 355.697C430.915 354.595 431.808 353.702 432.91 353.702C434.012 353.702 434.905 354.595 434.905 355.697Z" fill="#6374FF"/>
<path d="M441.481 355.697C441.481 356.799 440.588 357.692 439.486 357.692C438.384 357.692 437.491 356.799 437.491 355.697C437.491 354.595 438.384 353.702 439.486 353.702C440.588 353.702 441.481 354.595 441.481 355.697Z" fill="#6374FF"/>
<path d="M408.546 341.731H407.397V357.693H408.546V341.731Z" fill="#0C213A"/>
<path d="M444.579 309.066H341.367V332.902H444.579V309.066Z" fill="#37474F"/>
<path d="M404.462 313.003H345.712V315.015H404.462V313.003Z" fill="#455A64"/>
<path d="M404.462 316.491H345.712V318.503H404.462V316.491Z" fill="#455A64"/>
<path d="M404.462 319.978H345.712V321.99H404.462V319.978Z" fill="#455A64"/>
<path d="M404.462 323.466H345.712V325.478H404.462V323.466Z" fill="#455A64"/>
<path d="M404.462 326.953H345.712V328.965H404.462V326.953Z" fill="#455A64"/>
<path d="M415.173 314.998C415.173 316.1 414.28 316.993 413.178 316.993C412.076 316.993 411.183 316.1 411.183 314.998C411.183 313.896 412.076 313.003 413.178 313.003C414.28 313.003 415.173 313.896 415.173 314.998Z" fill="#6374FF"/>
<path d="M421.75 314.998C421.75 316.1 420.857 316.993 419.755 316.993C418.653 316.993 417.76 316.1 417.76 314.998C417.76 313.896 418.653 313.003 419.755 313.003C420.857 313.003 421.75 313.896 421.75 314.998Z" fill="#6374FF"/>
<path d="M428.328 314.998C428.328 316.1 427.435 316.993 426.333 316.993C425.231 316.993 424.338 316.1 424.338 314.998C424.338 313.896 425.231 313.003 426.333 313.003C427.435 313.003 428.328 313.896 428.328 314.998Z" fill="#6374FF"/>
<path d="M434.905 314.998C434.905 316.1 434.012 316.993 432.91 316.993C431.808 316.993 430.915 316.1 430.915 314.998C430.915 313.896 431.808 313.003 432.91 313.003C434.012 313.003 434.905 313.896 434.905 314.998Z" fill="#6374FF"/>
<path d="M441.481 314.998C441.481 316.1 440.588 316.993 439.486 316.993C438.384 316.993 437.491 316.1 437.491 314.998C437.491 313.896 438.384 313.003 439.486 313.003C440.588 313.003 441.481 313.896 441.481 314.998Z" fill="#6374FF"/>
<path d="M415.173 320.984C415.173 322.086 414.28 322.979 413.178 322.979C412.076 322.979 411.183 322.086 411.183 320.984C411.183 319.882 412.076 318.989 413.178 318.989C414.28 318.989 415.173 319.882 415.173 320.984Z" fill="#6374FF"/>
<path d="M421.75 320.984C421.75 322.086 420.857 322.979 419.755 322.979C418.653 322.979 417.76 322.086 417.76 320.984C417.76 319.882 418.653 318.989 419.755 318.989C420.857 318.989 421.75 319.882 421.75 320.984Z" fill="#6374FF"/>
<path d="M428.328 320.984C428.328 322.086 427.435 322.979 426.333 322.979C425.231 322.979 424.338 322.086 424.338 320.984C424.338 319.882 425.231 318.989 426.333 318.989C427.435 318.989 428.328 319.882 428.328 320.984Z" fill="#6374FF"/>
<path d="M434.905 320.984C434.905 322.086 434.012 322.979 432.91 322.979C431.808 322.979 430.915 322.086 430.915 320.984C430.915 319.882 431.808 318.989 432.91 318.989C434.012 318.989 434.905 319.882 434.905 320.984Z" fill="#6374FF"/>
<path d="M441.481 320.984C441.481 322.086 440.588 322.979 439.486 322.979C438.384 322.979 437.491 322.086 437.491 320.984C437.491 319.882 438.384 318.989 439.486 318.989C440.588 318.989 441.481 319.882 441.481 320.984Z" fill="#6374FF"/>
<path d="M415.173 326.97C415.173 328.072 414.28 328.965 413.178 328.965C412.076 328.965 411.183 328.072 411.183 326.97C411.183 325.868 412.076 324.975 413.178 324.975C414.28 324.975 415.173 325.868 415.173 326.97Z" fill="#6374FF"/>
<path d="M421.75 326.97C421.75 328.072 420.857 328.965 419.755 328.965C418.653 328.965 417.76 328.072 417.76 326.97C417.76 325.868 418.653 324.975 419.755 324.975C420.857 324.974 421.75 325.868 421.75 326.97Z" fill="#6374FF"/>
<path d="M428.328 326.97C428.328 328.072 427.435 328.965 426.333 328.965C425.231 328.965 424.338 328.072 424.338 326.97C424.338 325.868 425.231 324.975 426.333 324.975C427.435 324.975 428.328 325.868 428.328 326.97Z" fill="#6374FF"/>
<path d="M434.905 326.97C434.905 328.072 434.012 328.965 432.91 328.965C431.808 328.965 430.915 328.072 430.915 326.97C430.915 325.868 431.808 324.975 432.91 324.975C434.012 324.975 434.905 325.868 434.905 326.97Z" fill="#6374FF"/>
<path d="M441.481 326.97C441.481 328.072 440.588 328.965 439.486 328.965C438.384 328.965 437.491 328.072 437.491 326.97C437.491 325.868 438.384 324.975 439.486 324.975C440.588 324.974 441.481 325.868 441.481 326.97Z" fill="#6374FF"/>
<path d="M408.546 313.003H407.397V328.965H408.546V313.003Z" fill="#0C213A"/>
<path d="M444.579 280.338H341.367V304.174H444.579V280.338Z" fill="#37474F"/>
<path d="M404.462 284.275H345.712V286.287H404.462V284.275Z" fill="#455A64"/>
<path d="M404.462 287.763H345.712V289.775H404.462V287.763Z" fill="#455A64"/>
<path d="M404.462 291.25H345.712V293.262H404.462V291.25Z" fill="#455A64"/>
<path d="M404.462 294.738H345.712V296.75H404.462V294.738Z" fill="#455A64"/>
<path d="M404.462 298.225H345.712V300.237H404.462V298.225Z" fill="#455A64"/>
<path d="M413.178 288.266C414.279 288.266 415.173 287.373 415.173 286.271C415.173 285.169 414.279 284.276 413.178 284.276C412.076 284.276 411.183 285.169 411.183 286.271C411.183 287.373 412.076 288.266 413.178 288.266Z" fill="#6374FF"/>
<path d="M421.75 286.271C421.75 287.373 420.857 288.266 419.755 288.266C418.653 288.266 417.76 287.373 417.76 286.271C417.76 285.169 418.653 284.276 419.755 284.276C420.857 284.275 421.75 285.169 421.75 286.271Z" fill="#6374FF"/>
<path d="M426.332 288.266C427.434 288.266 428.327 287.373 428.327 286.271C428.327 285.169 427.434 284.276 426.332 284.276C425.23 284.276 424.337 285.169 424.337 286.271C424.337 287.373 425.23 288.266 426.332 288.266Z" fill="#6374FF"/>
<path d="M434.905 286.271C434.905 287.373 434.012 288.266 432.91 288.266C431.808 288.266 430.915 287.373 430.915 286.271C430.915 285.169 431.808 284.276 432.91 284.276C434.012 284.276 434.905 285.169 434.905 286.271Z" fill="#6374FF"/>
<path d="M441.481 286.271C441.481 287.373 440.588 288.266 439.486 288.266C438.384 288.266 437.491 287.373 437.491 286.271C437.491 285.169 438.384 284.276 439.486 284.276C440.588 284.275 441.481 285.169 441.481 286.271Z" fill="#6374FF"/>
<path d="M415.173 292.256C415.173 293.358 414.28 294.251 413.178 294.251C412.076 294.251 411.183 293.358 411.183 292.256C411.183 291.154 412.076 290.261 413.178 290.261C414.28 290.261 415.173 291.154 415.173 292.256Z" fill="#6374FF"/>
<path d="M421.75 292.256C421.75 293.358 420.857 294.251 419.755 294.251C418.653 294.251 417.76 293.358 417.76 292.256C417.76 291.154 418.653 290.261 419.755 290.261C420.857 290.261 421.75 291.154 421.75 292.256Z" fill="#6374FF"/>
<path d="M428.328 292.256C428.328 293.358 427.435 294.251 426.333 294.251C425.231 294.251 424.338 293.358 424.338 292.256C424.338 291.154 425.231 290.261 426.333 290.261C427.435 290.261 428.328 291.154 428.328 292.256Z" fill="#6374FF"/>
<path d="M434.905 292.256C434.905 293.358 434.012 294.251 432.91 294.251C431.808 294.251 430.915 293.358 430.915 292.256C430.915 291.154 431.808 290.261 432.91 290.261C434.012 290.261 434.905 291.154 434.905 292.256Z" fill="#6374FF"/>
<path d="M441.481 292.256C441.481 293.358 440.588 294.251 439.486 294.251C438.384 294.251 437.491 293.358 437.491 292.256C437.491 291.154 438.384 290.261 439.486 290.261C440.588 290.261 441.481 291.154 441.481 292.256Z" fill="#6374FF"/>
<path d="M415.173 298.242C415.173 299.344 414.28 300.237 413.178 300.237C412.076 300.237 411.183 299.344 411.183 298.242C411.183 297.14 412.076 296.247 413.178 296.247C414.28 296.247 415.173 297.14 415.173 298.242Z" fill="#6374FF"/>
<path d="M421.75 298.242C421.75 299.344 420.857 300.237 419.755 300.237C418.653 300.237 417.76 299.344 417.76 298.242C417.76 297.14 418.653 296.247 419.755 296.247C420.857 296.246 421.75 297.14 421.75 298.242Z" fill="#6374FF"/>
<path d="M428.328 298.242C428.328 299.344 427.435 300.237 426.333 300.237C425.231 300.237 424.338 299.344 424.338 298.242C424.338 297.14 425.231 296.247 426.333 296.247C427.435 296.247 428.328 297.14 428.328 298.242Z" fill="#6374FF"/>
<path d="M434.905 298.242C434.905 299.344 434.012 300.237 432.91 300.237C431.808 300.237 430.915 299.344 430.915 298.242C430.915 297.14 431.808 296.247 432.91 296.247C434.012 296.247 434.905 297.14 434.905 298.242Z" fill="#6374FF"/>
<path d="M441.481 298.242C441.481 299.344 440.588 300.237 439.486 300.237C438.384 300.237 437.491 299.344 437.491 298.242C437.491 297.14 438.384 296.247 439.486 296.247C440.588 296.246 441.481 297.14 441.481 298.242Z" fill="#6374FF"/>
<path d="M408.546 284.275H407.397V300.237H408.546V284.275Z" fill="#0C213A"/>
<path d="M444.579 251.61H341.367V275.446H444.579V251.61Z" fill="#37474F"/>
<path d="M404.462 255.548H345.712V257.56H404.462V255.548Z" fill="#455A64"/>
<path d="M404.462 259.035H345.712V261.047H404.462V259.035Z" fill="#455A64"/>
<path d="M404.462 262.523H345.712V264.535H404.462V262.523Z" fill="#455A64"/>
<path d="M404.462 266.01H345.712V268.022H404.462V266.01Z" fill="#455A64"/>
<path d="M404.462 269.497H345.712V271.509H404.462V269.497Z" fill="#455A64"/>
<path d="M415.173 257.543C415.173 258.645 414.28 259.538 413.178 259.538C412.076 259.538 411.183 258.645 411.183 257.543C411.183 256.441 412.076 255.548 413.178 255.548C414.28 255.548 415.173 256.441 415.173 257.543Z" fill="#6374FF"/>
<path d="M421.75 257.543C421.75 258.645 420.857 259.538 419.755 259.538C418.653 259.538 417.76 258.645 417.76 257.543C417.76 256.441 418.653 255.548 419.755 255.548C420.857 255.548 421.75 256.441 421.75 257.543Z" fill="#6374FF"/>
<path d="M428.328 257.543C428.328 258.645 427.435 259.538 426.333 259.538C425.231 259.538 424.338 258.645 424.338 257.543C424.338 256.441 425.231 255.548 426.333 255.548C427.435 255.548 428.328 256.441 428.328 257.543Z" fill="#6374FF"/>
<path d="M434.905 257.543C434.905 258.645 434.012 259.538 432.91 259.538C431.808 259.538 430.915 258.645 430.915 257.543C430.915 256.441 431.808 255.548 432.91 255.548C434.012 255.548 434.905 256.441 434.905 257.543Z" fill="#6374FF"/>
<path d="M441.481 257.543C441.481 258.645 440.588 259.538 439.486 259.538C438.384 259.538 437.491 258.645 437.491 257.543C437.491 256.441 438.384 255.548 439.486 255.548C440.588 255.548 441.481 256.441 441.481 257.543Z" fill="#6374FF"/>
<path d="M413.178 265.523C414.279 265.523 415.173 264.63 415.173 263.528C415.173 262.426 414.279 261.533 413.178 261.533C412.076 261.533 411.183 262.426 411.183 263.528C411.183 264.63 412.076 265.523 413.178 265.523Z" fill="#6374FF"/>
<path d="M421.75 263.528C421.75 264.63 420.857 265.523 419.755 265.523C418.653 265.523 417.76 264.63 417.76 263.528C417.76 262.426 418.653 261.533 419.755 261.533C420.857 261.533 421.75 262.427 421.75 263.528Z" fill="#6374FF"/>
<path d="M426.332 265.523C427.434 265.523 428.327 264.63 428.327 263.528C428.327 262.426 427.434 261.533 426.332 261.533C425.23 261.533 424.337 262.426 424.337 263.528C424.337 264.63 425.23 265.523 426.332 265.523Z" fill="#6374FF"/>
<path d="M434.905 263.528C434.905 264.63 434.012 265.523 432.91 265.523C431.808 265.523 430.915 264.63 430.915 263.528C430.915 262.426 431.808 261.533 432.91 261.533C434.012 261.533 434.905 262.427 434.905 263.528Z" fill="#6374FF"/>
<path d="M441.481 263.528C441.481 264.63 440.588 265.523 439.486 265.523C438.384 265.523 437.491 264.63 437.491 263.528C437.491 262.426 438.384 261.533 439.486 261.533C440.588 261.533 441.481 262.427 441.481 263.528Z" fill="#6374FF"/>
<path d="M413.178 271.509C414.279 271.509 415.173 270.616 415.173 269.514C415.173 268.412 414.279 267.519 413.178 267.519C412.076 267.519 411.183 268.412 411.183 269.514C411.183 270.616 412.076 271.509 413.178 271.509Z" fill="#6374FF"/>
<path d="M421.75 269.514C421.75 270.616 420.857 271.509 419.755 271.509C418.653 271.509 417.76 270.616 417.76 269.514C417.76 268.412 418.653 267.519 419.755 267.519C420.857 267.519 421.75 268.412 421.75 269.514Z" fill="#6374FF"/>
<path d="M426.332 271.509C427.434 271.509 428.327 270.616 428.327 269.514C428.327 268.412 427.434 267.519 426.332 267.519C425.23 267.519 424.337 268.412 424.337 269.514C424.337 270.616 425.23 271.509 426.332 271.509Z" fill="#6374FF"/>
<path d="M434.905 269.514C434.905 270.616 434.012 271.509 432.91 271.509C431.808 271.509 430.915 270.616 430.915 269.514C430.915 268.412 431.808 267.519 432.91 267.519C434.012 267.519 434.905 268.412 434.905 269.514Z" fill="#6374FF"/>
<path d="M441.481 269.514C441.481 270.616 440.588 271.509 439.486 271.509C438.384 271.509 437.491 270.616 437.491 269.514C437.491 268.412 438.384 267.519 439.486 267.519C440.588 267.519 441.481 268.412 441.481 269.514Z" fill="#6374FF"/>
<path d="M408.546 255.548H407.397V271.51H408.546V255.548Z" fill="#0C213A"/>
<path d="M444.579 222.883H341.367V246.719H444.579V222.883Z" fill="#37474F"/>
<path d="M404.462 226.82H345.712V228.832H404.462V226.82Z" fill="#455A64"/>
<path d="M404.462 230.307H345.712V232.319H404.462V230.307Z" fill="#455A64"/>
<path d="M404.462 233.795H345.712V235.807H404.462V233.795Z" fill="#455A64"/>
<path d="M404.462 237.282H345.712V239.294H404.462V237.282Z" fill="#455A64"/>
<path d="M404.462 240.77H345.712V242.782H404.462V240.77Z" fill="#455A64"/>
<path d="M413.178 230.81C414.279 230.81 415.173 229.917 415.173 228.815C415.173 227.713 414.279 226.82 413.178 226.82C412.076 226.82 411.183 227.713 411.183 228.815C411.183 229.917 412.076 230.81 413.178 230.81Z" fill="#6374FF"/>
<path d="M421.75 228.815C421.75 229.917 420.857 230.81 419.755 230.81C418.653 230.81 417.76 229.917 417.76 228.815C417.76 227.713 418.653 226.82 419.755 226.82C420.857 226.82 421.75 227.713 421.75 228.815Z" fill="#6374FF"/>
<path d="M426.332 230.81C427.434 230.81 428.327 229.917 428.327 228.815C428.327 227.713 427.434 226.82 426.332 226.82C425.23 226.82 424.337 227.713 424.337 228.815C424.337 229.917 425.23 230.81 426.332 230.81Z" fill="#6374FF"/>
<path d="M434.905 228.815C434.905 229.917 434.012 230.81 432.91 230.81C431.808 230.81 430.915 229.917 430.915 228.815C430.915 227.713 431.808 226.82 432.91 226.82C434.012 226.82 434.905 227.713 434.905 228.815Z" fill="#6374FF"/>
<path d="M441.481 228.815C441.481 229.917 440.588 230.81 439.486 230.81C438.384 230.81 437.491 229.917 437.491 228.815C437.491 227.713 438.384 226.82 439.486 226.82C440.588 226.82 441.481 227.713 441.481 228.815Z" fill="#6374FF"/>
<path d="M413.178 236.796C414.279 236.796 415.173 235.902 415.173 234.801C415.173 233.699 414.279 232.806 413.178 232.806C412.076 232.806 411.183 233.699 411.183 234.801C411.183 235.902 412.076 236.796 413.178 236.796Z" fill="#6374FF"/>
<path d="M421.75 234.801C421.75 235.903 420.857 236.796 419.755 236.796C418.653 236.796 417.76 235.903 417.76 234.801C417.76 233.699 418.653 232.806 419.755 232.806C420.857 232.805 421.75 233.699 421.75 234.801Z" fill="#6374FF"/>
<path d="M426.332 236.796C427.434 236.796 428.327 235.902 428.327 234.801C428.327 233.699 427.434 232.806 426.332 232.806C425.23 232.806 424.337 233.699 424.337 234.801C424.337 235.902 425.23 236.796 426.332 236.796Z" fill="#6374FF"/>
<path d="M434.905 234.801C434.905 235.903 434.012 236.796 432.91 236.796C431.808 236.796 430.915 235.903 430.915 234.801C430.915 233.699 431.808 232.806 432.91 232.806C434.012 232.806 434.905 233.699 434.905 234.801Z" fill="#6374FF"/>
<path d="M441.481 234.801C441.481 235.903 440.588 236.796 439.486 236.796C438.384 236.796 437.491 235.903 437.491 234.801C437.491 233.699 438.384 232.806 439.486 232.806C440.588 232.805 441.481 233.699 441.481 234.801Z" fill="#6374FF"/>
<path d="M415.173 240.786C415.173 241.888 414.28 242.781 413.178 242.781C412.076 242.781 411.183 241.888 411.183 240.786C411.183 239.684 412.076 238.791 413.178 238.791C414.28 238.791 415.173 239.684 415.173 240.786Z" fill="#6374FF"/>
<path d="M421.75 240.786C421.75 241.888 420.857 242.781 419.755 242.781C418.653 242.781 417.76 241.888 417.76 240.786C417.76 239.684 418.653 238.791 419.755 238.791C420.857 238.791 421.75 239.684 421.75 240.786Z" fill="#6374FF"/>
<path d="M428.328 240.786C428.328 241.888 427.435 242.781 426.333 242.781C425.231 242.781 424.338 241.888 424.338 240.786C424.338 239.684 425.231 238.791 426.333 238.791C427.435 238.791 428.328 239.684 428.328 240.786Z" fill="#6374FF"/>
<path d="M434.905 240.786C434.905 241.888 434.012 242.781 432.91 242.781C431.808 242.781 430.915 241.888 430.915 240.786C430.915 239.684 431.808 238.791 432.91 238.791C434.012 238.791 434.905 239.684 434.905 240.786Z" fill="#6374FF"/>
<path d="M441.481 240.786C441.481 241.888 440.588 242.781 439.486 242.781C438.384 242.781 437.491 241.888 437.491 240.786C437.491 239.684 438.384 238.791 439.486 238.791C440.588 238.791 441.481 239.684 441.481 240.786Z" fill="#6374FF"/>
<path d="M408.546 226.82H407.397V242.782H408.546V226.82Z" fill="#0C213A"/>
<path d="M444.579 194.155H341.367V217.991H444.579V194.155Z" fill="#37474F"/>
<path d="M404.462 198.092H345.712V200.104H404.462V198.092Z" fill="#455A64"/>
<path d="M404.462 201.579H345.712V203.591H404.462V201.579Z" fill="#455A64"/>
<path d="M404.462 205.067H345.712V207.079H404.462V205.067Z" fill="#455A64"/>
<path d="M404.462 208.554H345.712V210.566H404.462V208.554Z" fill="#455A64"/>
<path d="M404.462 212.042H345.712V214.054H404.462V212.042Z" fill="#455A64"/>
<path d="M415.173 200.087C415.173 201.189 414.28 202.082 413.178 202.082C412.076 202.082 411.183 201.189 411.183 200.087C411.183 198.985 412.076 198.092 413.178 198.092C414.28 198.092 415.173 198.985 415.173 200.087Z" fill="#6374FF"/>
<path d="M421.75 200.087C421.75 201.189 420.857 202.082 419.755 202.082C418.653 202.082 417.76 201.189 417.76 200.087C417.76 198.985 418.653 198.092 419.755 198.092C420.857 198.092 421.75 198.985 421.75 200.087Z" fill="#6374FF"/>
<path d="M428.328 200.087C428.328 201.189 427.435 202.082 426.333 202.082C425.231 202.082 424.338 201.189 424.338 200.087C424.338 198.985 425.231 198.092 426.333 198.092C427.435 198.092 428.328 198.985 428.328 200.087Z" fill="#6374FF"/>
<path d="M434.905 200.087C434.905 201.189 434.012 202.082 432.91 202.082C431.808 202.082 430.915 201.189 430.915 200.087C430.915 198.985 431.808 198.092 432.91 198.092C434.012 198.092 434.905 198.985 434.905 200.087Z" fill="#6374FF"/>
<path d="M441.481 200.087C441.481 201.189 440.588 202.082 439.486 202.082C438.384 202.082 437.491 201.189 437.491 200.087C437.491 198.985 438.384 198.092 439.486 198.092C440.588 198.092 441.481 198.985 441.481 200.087Z" fill="#6374FF"/>
<path d="M415.173 206.073C415.173 207.175 414.28 208.068 413.178 208.068C412.076 208.068 411.183 207.175 411.183 206.073C411.183 204.971 412.076 204.078 413.178 204.078C414.28 204.078 415.173 204.971 415.173 206.073Z" fill="#6374FF"/>
<path d="M421.75 206.073C421.75 207.175 420.857 208.068 419.755 208.068C418.653 208.068 417.76 207.175 417.76 206.073C417.76 204.971 418.653 204.078 419.755 204.078C420.857 204.078 421.75 204.971 421.75 206.073Z" fill="#6374FF"/>
<path d="M428.328 206.073C428.328 207.175 427.435 208.068 426.333 208.068C425.231 208.068 424.338 207.175 424.338 206.073C424.338 204.971 425.231 204.078 426.333 204.078C427.435 204.078 428.328 204.971 428.328 206.073Z" fill="#6374FF"/>
<path d="M434.905 206.073C434.905 207.175 434.012 208.068 432.91 208.068C431.808 208.068 430.915 207.175 430.915 206.073C430.915 204.971 431.808 204.078 432.91 204.078C434.012 204.078 434.905 204.971 434.905 206.073Z" fill="#6374FF"/>
<path d="M441.481 206.073C441.481 207.175 440.588 208.068 439.486 208.068C438.384 208.068 437.491 207.175 437.491 206.073C437.491 204.971 438.384 204.078 439.486 204.078C440.588 204.078 441.481 204.971 441.481 206.073Z" fill="#6374FF"/>
<path d="M415.173 212.058C415.173 213.16 414.28 214.053 413.178 214.053C412.076 214.053 411.183 213.16 411.183 212.058C411.183 210.956 412.076 210.063 413.178 210.063C414.28 210.063 415.173 210.957 415.173 212.058Z" fill="#6374FF"/>
<path d="M421.75 212.058C421.75 213.16 420.857 214.053 419.755 214.053C418.653 214.053 417.76 213.16 417.76 212.058C417.76 210.956 418.653 210.063 419.755 210.063C420.857 210.063 421.75 210.957 421.75 212.058Z" fill="#6374FF"/>
<path d="M428.328 212.058C428.328 213.16 427.435 214.053 426.333 214.053C425.231 214.053 424.338 213.16 424.338 212.058C424.338 210.956 425.231 210.063 426.333 210.063C427.435 210.063 428.328 210.957 428.328 212.058Z" fill="#6374FF"/>
<path d="M434.905 212.058C434.905 213.16 434.012 214.053 432.91 214.053C431.808 214.053 430.915 213.16 430.915 212.058C430.915 210.956 431.808 210.063 432.91 210.063C434.012 210.063 434.905 210.957 434.905 212.058Z" fill="#6374FF"/>
<path d="M441.481 212.058C441.481 213.16 440.588 214.053 439.486 214.053C438.384 214.053 437.491 213.16 437.491 212.058C437.491 210.956 438.384 210.063 439.486 210.063C440.588 210.063 441.481 210.957 441.481 212.058Z" fill="#6374FF"/>
<path d="M408.546 198.092H407.397V214.054H408.546V198.092Z" fill="#0C213A"/>
<path d="M444.579 165.427H341.367V189.263H444.579V165.427Z" fill="#37474F"/>
<path d="M404.462 169.364H345.712V171.376H404.462V169.364Z" fill="#455A64"/>
<path d="M404.462 172.852H345.712V174.864H404.462V172.852Z" fill="#455A64"/>
<path d="M404.462 176.339H345.712V178.351H404.462V176.339Z" fill="#455A64"/>
<path d="M404.462 179.827H345.712V181.839H404.462V179.827Z" fill="#455A64"/>
<path d="M404.462 183.314H345.712V185.326H404.462V183.314Z" fill="#455A64"/>
<path d="M415.173 171.359C415.173 172.461 414.28 173.354 413.178 173.354C412.076 173.354 411.183 172.461 411.183 171.359C411.183 170.257 412.076 169.364 413.178 169.364C414.28 169.364 415.173 170.258 415.173 171.359Z" fill="#6374FF"/>
<path d="M421.75 171.359C421.75 172.461 420.857 173.354 419.755 173.354C418.653 173.354 417.76 172.461 417.76 171.359C417.76 170.257 418.653 169.364 419.755 169.364C420.857 169.364 421.75 170.258 421.75 171.359Z" fill="#6374FF"/>
<path d="M428.328 171.359C428.328 172.461 427.435 173.354 426.333 173.354C425.231 173.354 424.338 172.461 424.338 171.359C424.338 170.257 425.231 169.364 426.333 169.364C427.435 169.364 428.328 170.258 428.328 171.359Z" fill="#6374FF"/>
<path d="M434.905 171.359C434.905 172.461 434.012 173.354 432.91 173.354C431.808 173.354 430.915 172.461 430.915 171.359C430.915 170.257 431.808 169.364 432.91 169.364C434.012 169.364 434.905 170.258 434.905 171.359Z" fill="#6374FF"/>
<path d="M441.481 171.359C441.481 172.461 440.588 173.354 439.486 173.354C438.384 173.354 437.491 172.461 437.491 171.359C437.491 170.257 438.384 169.364 439.486 169.364C440.588 169.364 441.481 170.258 441.481 171.359Z" fill="#6374FF"/>
<path d="M415.173 177.345C415.173 178.447 414.28 179.34 413.178 179.34C412.076 179.34 411.183 178.447 411.183 177.345C411.183 176.243 412.076 175.35 413.178 175.35C414.28 175.35 415.173 176.243 415.173 177.345Z" fill="#6374FF"/>
<path d="M421.75 177.345C421.75 178.447 420.857 179.34 419.755 179.34C418.653 179.34 417.76 178.447 417.76 177.345C417.76 176.243 418.653 175.35 419.755 175.35C420.857 175.35 421.75 176.243 421.75 177.345Z" fill="#6374FF"/>
<path d="M428.328 177.345C428.328 178.447 427.435 179.34 426.333 179.34C425.231 179.34 424.338 178.447 424.338 177.345C424.338 176.243 425.231 175.35 426.333 175.35C427.435 175.35 428.328 176.243 428.328 177.345Z" fill="#6374FF"/>
<path d="M434.905 177.345C434.905 178.447 434.012 179.34 432.91 179.34C431.808 179.34 430.915 178.447 430.915 177.345C430.915 176.243 431.808 175.35 432.91 175.35C434.012 175.35 434.905 176.243 434.905 177.345Z" fill="#6374FF"/>
<path d="M441.481 177.345C441.481 178.447 440.588 179.34 439.486 179.34C438.384 179.34 437.491 178.447 437.491 177.345C437.491 176.243 438.384 175.35 439.486 175.35C440.588 175.35 441.481 176.243 441.481 177.345Z" fill="#6374FF"/>
<path d="M415.173 183.331C415.173 184.433 414.28 185.326 413.178 185.326C412.076 185.326 411.183 184.433 411.183 183.331C411.183 182.229 412.076 181.336 413.178 181.336C414.28 181.336 415.173 182.229 415.173 183.331Z" fill="#6374FF"/>
<path d="M421.75 183.331C421.75 184.433 420.857 185.326 419.755 185.326C418.653 185.326 417.76 184.433 417.76 183.331C417.76 182.229 418.653 181.336 419.755 181.336C420.857 181.335 421.75 182.229 421.75 183.331Z" fill="#6374FF"/>
<path d="M428.328 183.331C428.328 184.433 427.435 185.326 426.333 185.326C425.231 185.326 424.338 184.433 424.338 183.331C424.338 182.229 425.231 181.336 426.333 181.336C427.435 181.336 428.328 182.229 428.328 183.331Z" fill="#6374FF"/>
<path d="M434.905 183.331C434.905 184.433 434.012 185.326 432.91 185.326C431.808 185.326 430.915 184.433 430.915 183.331C430.915 182.229 431.808 181.336 432.91 181.336C434.012 181.336 434.905 182.229 434.905 183.331Z" fill="#6374FF"/>
<path d="M441.481 183.331C441.481 184.433 440.588 185.326 439.486 185.326C438.384 185.326 437.491 184.433 437.491 183.331C437.491 182.229 438.384 181.336 439.486 181.336C440.588 181.335 441.481 182.229 441.481 183.331Z" fill="#6374FF"/>
<path d="M408.546 169.364H407.397V185.326H408.546V169.364Z" fill="#0C213A"/>
<path d="M444.579 136.699H341.367V160.535H444.579V136.699Z" fill="#37474F"/>
<path d="M404.462 140.637H345.712V142.649H404.462V140.637Z" fill="#455A64"/>
<path d="M404.462 144.124H345.712V146.136H404.462V144.124Z" fill="#455A64"/>
<path d="M404.462 147.611H345.712V149.623H404.462V147.611Z" fill="#455A64"/>
<path d="M404.462 151.099H345.712V153.111H404.462V151.099Z" fill="#455A64"/>
<path d="M404.462 154.586H345.712V156.598H404.462V154.586Z" fill="#455A64"/>
<path d="M415.173 142.632C415.173 143.734 414.28 144.627 413.178 144.627C412.076 144.627 411.183 143.734 411.183 142.632C411.183 141.53 412.076 140.637 413.178 140.637C414.28 140.637 415.173 141.53 415.173 142.632Z" fill="#6374FF"/>
<path d="M421.75 142.632C421.75 143.734 420.857 144.627 419.755 144.627C418.653 144.627 417.76 143.734 417.76 142.632C417.76 141.53 418.653 140.637 419.755 140.637C420.857 140.637 421.75 141.53 421.75 142.632Z" fill="#6374FF"/>
<path d="M428.328 142.632C428.328 143.734 427.435 144.627 426.333 144.627C425.231 144.627 424.338 143.734 424.338 142.632C424.338 141.53 425.231 140.637 426.333 140.637C427.435 140.637 428.328 141.53 428.328 142.632Z" fill="#6374FF"/>
<path d="M434.905 142.632C434.905 143.734 434.012 144.627 432.91 144.627C431.808 144.627 430.915 143.734 430.915 142.632C430.915 141.53 431.808 140.637 432.91 140.637C434.012 140.637 434.905 141.53 434.905 142.632Z" fill="#6374FF"/>
<path d="M441.481 142.632C441.481 143.734 440.588 144.627 439.486 144.627C438.384 144.627 437.491 143.734 437.491 142.632C437.491 141.53 438.384 140.637 439.486 140.637C440.588 140.637 441.481 141.53 441.481 142.632Z" fill="#6374FF"/>
<path d="M413.178 150.612C414.279 150.612 415.173 149.718 415.173 148.617C415.173 147.515 414.279 146.622 413.178 146.622C412.076 146.622 411.183 147.515 411.183 148.617C411.183 149.718 412.076 150.612 413.178 150.612Z" fill="#6374FF"/>
<path d="M421.75 148.617C421.75 149.719 420.857 150.612 419.755 150.612C418.653 150.612 417.76 149.719 417.76 148.617C417.76 147.515 418.653 146.622 419.755 146.622C420.857 146.622 421.75 147.515 421.75 148.617Z" fill="#6374FF"/>
<path d="M426.332 150.612C427.434 150.612 428.327 149.718 428.327 148.617C428.327 147.515 427.434 146.622 426.332 146.622C425.23 146.622 424.337 147.515 424.337 148.617C424.337 149.718 425.23 150.612 426.332 150.612Z" fill="#6374FF"/>
<path d="M434.905 148.617C434.905 149.719 434.012 150.612 432.91 150.612C431.808 150.612 430.915 149.719 430.915 148.617C430.915 147.515 431.808 146.622 432.91 146.622C434.012 146.622 434.905 147.515 434.905 148.617Z" fill="#6374FF"/>
<path d="M441.481 148.617C441.481 149.719 440.588 150.612 439.486 150.612C438.384 150.612 437.491 149.719 437.491 148.617C437.491 147.515 438.384 146.622 439.486 146.622C440.588 146.622 441.481 147.515 441.481 148.617Z" fill="#6374FF"/>
<path d="M415.173 154.603C415.173 155.705 414.28 156.598 413.178 156.598C412.076 156.598 411.183 155.705 411.183 154.603C411.183 153.501 412.076 152.608 413.178 152.608C414.28 152.608 415.173 153.501 415.173 154.603Z" fill="#6374FF"/>
<path d="M421.75 154.603C421.75 155.705 420.857 156.598 419.755 156.598C418.653 156.598 417.76 155.705 417.76 154.603C417.76 153.501 418.653 152.608 419.755 152.608C420.857 152.608 421.75 153.501 421.75 154.603Z" fill="#6374FF"/>
<path d="M428.328 154.603C428.328 155.705 427.435 156.598 426.333 156.598C425.231 156.598 424.338 155.705 424.338 154.603C424.338 153.501 425.231 152.608 426.333 152.608C427.435 152.608 428.328 153.501 428.328 154.603Z" fill="#6374FF"/>
<path d="M434.905 154.603C434.905 155.705 434.012 156.598 432.91 156.598C431.808 156.598 430.915 155.705 430.915 154.603C430.915 153.501 431.808 152.608 432.91 152.608C434.012 152.608 434.905 153.501 434.905 154.603Z" fill="#6374FF"/>
<path d="M441.481 154.603C441.481 155.705 440.588 156.598 439.486 156.598C438.384 156.598 437.491 155.705 437.491 154.603C437.491 153.501 438.384 152.608 439.486 152.608C440.588 152.608 441.481 153.501 441.481 154.603Z" fill="#6374FF"/>
<path d="M408.546 140.637H407.397V156.599H408.546V140.637Z" fill="#0C213A"/>
<path d="M427.741 116.861H291.69V124.42H427.741V116.861Z" fill="#37474F"/>
<path d="M293.055 332.068H277.862V347.261H293.055V332.068Z" fill="#0C213A"/>
<path d="M63.0029 174.705V160.313H65.2729V174.705H63.0029Z" fill="#0C213A"/>
<path d="M70.7866 164.57V174.705H68.5166V160.313H70.2996L78.5296 170.691V160.333H80.8196V174.705H78.9346L70.7866 164.57Z" fill="#0C213A"/>
<path d="M94.6241 162.32H89.8401V174.705H87.5501V162.32H82.7461V160.313H94.6241V162.32Z" fill="#0C213A"/>
<path d="M106.421 172.698V174.705H96.5498V160.313H106.239V162.32H98.8198V166.414H105.245V168.299H98.8198V172.697L106.421 172.698Z" fill="#0C213A"/>
<path d="M108.772 174.705V160.313H115.035C115.684 160.313 116.282 160.448 116.829 160.718C117.377 160.988 117.846 161.343 118.238 161.782C118.63 162.221 118.937 162.721 119.16 163.282C119.383 163.843 119.495 164.414 119.495 164.995C119.495 165.481 119.427 165.948 119.292 166.393C119.157 166.839 118.968 167.252 118.724 167.63C118.481 168.008 118.183 168.336 117.832 168.613C117.481 168.89 117.095 169.097 116.677 169.231L120.062 174.704H117.488L114.366 169.697H111.042V174.704H108.772V174.705ZM111.042 167.691H115.015C115.339 167.691 115.633 167.62 115.897 167.478C116.161 167.336 116.387 167.141 116.576 166.89C116.765 166.64 116.914 166.353 117.022 166.029C117.13 165.705 117.184 165.36 117.184 164.995C117.184 164.63 117.12 164.285 116.991 163.961C116.863 163.637 116.694 163.353 116.485 163.11C116.275 162.867 116.032 162.674 115.755 162.533C115.478 162.391 115.191 162.32 114.894 162.32H111.043L111.042 167.691Z" fill="#0C213A"/>
<path d="M124.441 164.57V174.705H122.171V160.313H123.955L132.185 170.691V160.333H134.475V174.705H132.59L124.441 164.57Z" fill="#0C213A"/>
<path d="M141.954 160.313H143.941L149.616 174.705H147.224L145.704 170.793H140.15L138.65 174.705H136.238L141.954 160.313ZM145.258 169.11L142.947 162.928L140.555 169.11H145.258Z" fill="#0C213A"/>
<path d="M151.4 174.705V160.313H153.67V172.698H161.393V174.705H151.4Z" fill="#0C213A"/>
<path d="M176.21 163.698C176.075 163.549 175.878 163.391 175.621 163.221C175.364 163.052 175.064 162.894 174.719 162.744C174.374 162.596 173.997 162.474 173.585 162.379C173.173 162.284 172.75 162.237 172.318 162.237C171.358 162.237 170.653 162.413 170.201 162.764C169.748 163.116 169.521 163.602 169.521 164.224C169.521 164.576 169.592 164.863 169.734 165.085C169.876 165.308 170.096 165.504 170.393 165.673C170.69 165.842 171.062 165.99 171.508 166.119C171.954 166.248 172.475 166.386 173.07 166.534C173.8 166.71 174.458 166.906 175.046 167.122C175.634 167.338 176.13 167.602 176.535 167.912C176.94 168.223 177.256 168.605 177.479 169.058C177.702 169.511 177.812 170.061 177.812 170.71C177.812 171.44 177.673 172.068 177.397 172.595C177.12 173.122 176.741 173.551 176.262 173.882C175.782 174.213 175.225 174.456 174.59 174.612C173.955 174.767 173.274 174.845 172.544 174.845C171.449 174.845 170.391 174.68 169.371 174.348C168.35 174.017 167.428 173.534 166.604 172.899L167.639 170.953C167.814 171.129 168.067 171.325 168.398 171.541C168.729 171.757 169.114 171.957 169.553 172.139C169.992 172.321 170.468 172.477 170.982 172.605C171.495 172.733 172.029 172.798 172.583 172.798C173.475 172.798 174.164 172.643 174.651 172.331C175.138 172.021 175.382 171.561 175.382 170.953C175.382 170.588 175.289 170.284 175.107 170.041C174.925 169.798 174.664 169.585 174.327 169.402C173.989 169.22 173.577 169.054 173.09 168.905C172.604 168.756 172.049 168.601 171.428 168.439C170.711 168.25 170.086 168.05 169.553 167.841C169.019 167.631 168.576 167.378 168.225 167.081C167.874 166.783 167.607 166.436 167.425 166.037C167.242 165.639 167.151 165.155 167.151 164.588C167.151 163.885 167.287 163.26 167.557 162.713C167.827 162.166 168.194 161.707 168.66 161.335C169.127 160.964 169.678 160.683 170.312 160.494C170.947 160.305 171.636 160.21 172.38 160.21C173.353 160.21 174.251 160.366 175.076 160.676C175.9 160.987 176.623 161.372 177.245 161.832L176.21 163.698Z" fill="#0C213A"/>
<path d="M189.953 172.698V174.705H180.082V160.313H189.771V162.32H182.352V166.414H188.778V168.299H182.352V172.697L189.953 172.698Z" fill="#0C213A"/>
<path d="M192.304 174.705V160.313H198.567C199.216 160.313 199.814 160.448 200.361 160.718C200.909 160.988 201.378 161.343 201.77 161.782C202.162 162.221 202.469 162.721 202.692 163.282C202.915 163.843 203.027 164.414 203.027 164.995C203.027 165.481 202.959 165.948 202.824 166.393C202.689 166.839 202.5 167.252 202.256 167.63C202.013 168.008 201.715 168.336 201.364 168.613C201.013 168.89 200.627 169.097 200.209 169.231L203.594 174.704H201.02L197.898 169.697H194.574V174.704H192.304V174.705ZM194.574 167.691H198.547C198.871 167.691 199.165 167.62 199.429 167.478C199.693 167.336 199.919 167.141 200.108 166.89C200.297 166.64 200.446 166.353 200.554 166.029C200.662 165.705 200.716 165.36 200.716 164.995C200.716 164.63 200.652 164.285 200.523 163.961C200.395 163.637 200.225 163.353 200.016 163.11C199.806 162.867 199.563 162.674 199.286 162.533C199.009 162.391 198.721 162.32 198.424 162.32H194.573V167.691H194.574Z" fill="#0C213A"/>
<path d="M206.27 160.313L210.608 171.846L214.925 160.313H217.337L211.58 174.705H209.634L203.857 160.313H206.27Z" fill="#0C213A"/>
<path d="M228.972 172.698V174.705H219.101V160.313H228.79V162.32H221.371V166.414H227.796V168.299H221.371V172.697L228.972 172.698Z" fill="#0C213A"/>
<path d="M231.323 174.705V160.313H237.586C238.235 160.313 238.833 160.448 239.38 160.718C239.928 160.988 240.397 161.343 240.789 161.782C241.18 162.221 241.488 162.721 241.711 163.282C241.934 163.843 242.046 164.414 242.046 164.995C242.046 165.481 241.978 165.948 241.843 166.393C241.708 166.839 241.519 167.252 241.276 167.63C241.032 168.008 240.735 168.336 240.384 168.613C240.033 168.89 239.647 169.097 239.229 169.231L242.614 174.704H240.04L236.918 169.697H233.594V174.704H231.323V174.705ZM233.593 167.691H237.566C237.89 167.691 238.184 167.62 238.448 167.478C238.712 167.336 238.938 167.141 239.127 166.89C239.316 166.64 239.465 166.353 239.573 166.029C239.681 165.705 239.735 165.36 239.735 164.995C239.735 164.63 239.671 164.285 239.542 163.961C239.414 163.637 239.244 163.353 239.035 163.11C238.825 162.867 238.582 162.674 238.305 162.533C238.028 162.391 237.741 162.32 237.443 162.32H233.592V167.691H233.593Z" fill="#0C213A"/>
<path d="M132.078 193.89V196.809H121.963V182.418H131.895V185.337H125.287V188.135H130.962V190.831H125.287V193.892H132.078V193.89Z" fill="#0C213A"/>
<path d="M134.104 196.809V182.418H140.59C141.265 182.418 141.891 182.56 142.465 182.843C143.039 183.127 143.535 183.499 143.955 183.958C144.373 184.417 144.701 184.938 144.938 185.519C145.174 186.1 145.294 186.688 145.294 187.282C145.294 187.728 145.24 188.157 145.132 188.569C145.024 188.981 144.867 189.369 144.665 189.734C144.462 190.099 144.215 190.427 143.925 190.717C143.635 191.008 143.307 191.254 142.942 191.457L146.104 196.809H142.354L139.598 192.167H137.429V196.809H134.104ZM137.429 189.269H140.469C140.861 189.269 141.199 189.083 141.482 188.711C141.766 188.339 141.908 187.863 141.908 187.282C141.908 186.688 141.747 186.215 141.423 185.863C141.099 185.512 140.746 185.336 140.368 185.336H137.429V189.269Z" fill="#0C213A"/>
<path d="M147.686 196.809V182.418H154.172C154.848 182.418 155.473 182.56 156.047 182.843C156.621 183.127 157.118 183.499 157.537 183.958C157.955 184.417 158.283 184.938 158.52 185.519C158.756 186.1 158.875 186.688 158.875 187.282C158.875 187.728 158.821 188.157 158.713 188.569C158.605 188.981 158.449 189.369 158.247 189.734C158.044 190.099 157.797 190.427 157.507 190.717C157.217 191.008 156.889 191.254 156.524 191.457L159.686 196.809H155.936L153.18 192.167H151.011V196.809H147.686ZM151.011 189.269H154.051C154.443 189.269 154.781 189.083 155.064 188.711C155.348 188.339 155.49 187.863 155.49 187.282C155.49 186.688 155.328 186.215 155.003 185.863C154.679 185.512 154.327 185.336 153.949 185.336H151.01V189.269H151.011Z" fill="#0C213A"/>
<path d="M167.571 196.93C166.503 196.93 165.53 196.721 164.652 196.302C163.774 195.884 163.023 195.333 162.402 194.65C161.78 193.968 161.297 193.187 160.952 192.309C160.608 191.43 160.435 190.525 160.435 189.593C160.435 188.647 160.614 187.735 160.972 186.857C161.33 185.979 161.83 185.205 162.472 184.536C163.114 183.867 163.874 183.333 164.753 182.935C165.631 182.537 166.591 182.337 167.631 182.337C168.698 182.337 169.671 182.546 170.55 182.965C171.428 183.384 172.178 183.938 172.8 184.627C173.421 185.316 173.901 186.1 174.239 186.978C174.577 187.856 174.746 188.748 174.746 189.654C174.746 190.6 174.566 191.512 174.209 192.39C173.851 193.268 173.354 194.042 172.719 194.711C172.083 195.38 171.327 195.917 170.449 196.322C169.571 196.728 168.611 196.93 167.571 196.93ZM163.821 189.633C163.821 190.187 163.902 190.724 164.064 191.245C164.226 191.765 164.466 192.228 164.784 192.633C165.101 193.038 165.496 193.363 165.97 193.606C166.443 193.849 166.983 193.971 167.591 193.971C168.226 193.971 168.78 193.843 169.253 193.586C169.726 193.329 170.118 192.995 170.428 192.583C170.739 192.171 170.972 191.705 171.127 191.184C171.282 190.664 171.36 190.133 171.36 189.593C171.36 189.039 171.279 188.502 171.117 187.981C170.955 187.461 170.712 187.001 170.387 186.603C170.063 186.205 169.667 185.887 169.201 185.65C168.735 185.414 168.198 185.295 167.589 185.295C166.954 185.295 166.404 185.42 165.937 185.67C165.471 185.92 165.079 186.248 164.762 186.653C164.444 187.058 164.208 187.521 164.053 188.041C163.898 188.563 163.821 189.093 163.821 189.633Z" fill="#0C213A"/>
<path d="M176.672 196.809V182.418H183.158C183.833 182.418 184.459 182.56 185.033 182.843C185.607 183.127 186.104 183.499 186.523 183.958C186.941 184.417 187.269 184.938 187.506 185.519C187.742 186.1 187.861 186.688 187.861 187.282C187.861 187.728 187.807 188.157 187.699 188.569C187.591 188.981 187.435 189.369 187.233 189.734C187.03 190.099 186.783 190.427 186.493 190.717C186.203 191.008 185.875 191.254 185.51 191.457L188.672 196.809H184.922L182.166 192.167H179.997V196.809H176.672ZM179.996 189.269H183.036C183.427 189.269 183.766 189.083 184.049 188.711C184.333 188.339 184.475 187.863 184.475 187.282C184.475 186.688 184.313 186.215 183.989 185.863C183.665 185.512 183.313 185.336 182.935 185.336H179.996V189.269Z" fill="#0C213A"/>
<path d="M82.7209 61.2769V83.4879C84.2669 81.2869 86.4459 79.5799 89.2599 78.3689C90.7499 77.7639 92.4889 77.4609 94.4759 77.4609C101.318 77.4609 106.369 79.8549 109.626 84.6439C112.441 88.7719 113.849 94.6079 113.849 102.148V124.441C113.849 132.093 111.426 138.368 106.583 143.266C101.959 148.001 96.1239 150.367 89.0789 150.367C82.2529 150.367 76.5829 147.89 72.0699 142.936C67.7209 138.203 65.5469 132.423 65.5469 125.597V123.12L80.4919 121.964L80.8229 125.515C81.2069 129.643 82.8869 132.396 85.8589 133.771C86.7389 134.212 87.6749 134.432 88.6659 134.432C95.0509 134.432 98.2439 131.102 98.2439 124.442V99.0939C98.2439 96.0669 97.1369 93.5619 94.9229 91.5799C93.8719 90.6449 92.4049 90.1759 90.5239 90.1759C87.7569 90.1759 85.7089 91.2489 84.3819 93.3959C83.2749 95.2679 82.7209 97.2499 82.7209 99.3409V102.148H67.1159V45.5889H112.776V61.2769H82.7209Z" fill="#6374FF"/>
<path d="M176.434 125.596C176.434 132.478 174.011 138.312 169.168 143.1C164.324 147.889 158.517 150.283 151.747 150.283C144.865 150.283 139.017 147.876 134.201 143.058C129.383 138.243 126.976 132.422 126.976 125.595V69.1201C126.976 62.2401 129.398 56.3921 134.242 51.5751C139.085 46.7591 144.92 44.3501 151.746 44.3501C158.626 44.3501 164.461 46.7721 169.25 51.6151C174.038 56.4601 176.433 62.2951 176.433 69.1191V125.596H176.434ZM160.25 68.7901C160.25 66.3131 159.37 64.1951 157.608 62.4321C155.845 60.6711 153.727 59.7901 151.25 59.7901C148.773 59.7901 146.668 60.6711 144.933 62.4321C143.199 64.1941 142.332 66.3121 142.332 68.7901V125.348C142.332 127.825 143.199 129.945 144.933 131.706C146.667 133.468 148.773 134.348 151.25 134.348C153.727 134.348 155.845 133.468 157.608 131.706C159.369 129.945 160.25 127.826 160.25 125.348V68.7901Z" fill="#6374FF"/>
<path d="M239.348 125.596C239.348 132.478 236.925 138.312 232.082 143.1C227.238 147.889 221.431 150.283 214.661 150.283C207.779 150.283 201.932 147.876 197.115 143.058C192.297 138.243 189.89 132.422 189.89 125.595V69.1201C189.89 62.2401 192.312 56.3921 197.156 51.5751C201.999 46.7591 207.834 44.3501 214.66 44.3501C221.54 44.3501 227.375 46.7721 232.164 51.6151C236.953 56.4601 239.347 62.2951 239.347 69.1191V125.596H239.348ZM223.165 68.7901C223.165 66.3131 222.284 64.1951 220.523 62.4321C218.761 60.6711 216.642 59.7901 214.165 59.7901C211.688 59.7901 209.583 60.6711 207.849 62.4321C206.115 64.1941 205.248 66.3121 205.248 68.7901V125.348C205.248 127.825 206.115 129.945 207.849 131.706C209.583 133.468 211.689 134.348 214.165 134.348C216.641 134.348 218.76 133.468 220.523 131.706C222.284 129.945 223.165 127.826 223.165 125.348V68.7901Z" fill="#6374FF"/>
<path d="M70.013 301.737H43.458V328.292H70.013V301.737Z" fill="#37474F"/>
<path d="M56.7352 323.885C61.634 323.885 65.6052 319.914 65.6052 315.015C65.6052 310.116 61.634 306.145 56.7352 306.145C51.8365 306.145 47.8652 310.116 47.8652 315.015C47.8652 319.914 51.8365 323.885 56.7352 323.885Z" fill="#455A64"/>
<path d="M55.1122 311.432H53.1172V318.748H55.1122V311.432Z" fill="#0C213A"/>
<path d="M60.6708 311.432H58.6758V318.748H60.6708V311.432Z" fill="#0C213A"/>
<path d="M36.8516 369.592L90.1386 369.349L143.426 369.261L250 369.093L356.574 369.26L409.861 369.348L463.147 369.592L409.861 369.837L356.574 369.925L250 370.091L143.426 369.924L90.1386 369.835L36.8516 369.592Z" fill="#0C213A"/>
<path d="M128.085 344.525C129.052 346.64 125.238 361.831 124.041 364.948C122.844 368.065 118.652 385.479 116.61 386.231C114.568 386.984 104.679 386.768 103.281 386.231C101.884 385.693 103.281 382.722 104.893 381.682C106.505 380.642 108.426 379.046 108.426 379.046C108.426 379.046 105.538 352.157 106.076 349.147C106.613 346.137 125.479 338.828 128.085 344.525Z" fill="#6374FF"/>
<path opacity="0.1" d="M128.085 344.525C129.052 346.64 125.238 361.831 124.041 364.948C122.844 368.065 118.652 385.479 116.61 386.231C114.568 386.984 104.679 386.768 103.281 386.231C101.884 385.693 103.281 382.722 104.893 381.682C106.505 380.642 108.426 379.046 108.426 379.046C108.426 379.046 105.538 352.157 106.076 349.147C106.613 346.137 125.479 338.828 128.085 344.525Z" fill="black"/>
<path opacity="0.1" d="M107.4 385.06C107.509 384.535 107.728 384.008 108.046 383.573C108.367 383.133 108.749 382.746 109.185 382.419C109.59 382.115 110.097 381.824 110.602 381.731C110.668 381.719 110.72 381.799 110.667 381.849C110.491 382.014 110.291 382.151 110.117 382.324C109.942 382.498 109.763 382.67 109.596 382.851C109.269 383.202 108.993 383.595 108.75 384.008C108.505 384.425 108.268 384.844 108.056 385.279C107.842 385.719 107.717 386.192 107.549 386.649C107.516 386.739 107.378 386.746 107.354 386.644C107.229 386.122 107.292 385.579 107.4 385.06Z" fill="black"/>
<path opacity="0.1" d="M104.508 383.475C105.029 382.505 105.937 381.813 106.923 381.368C106.985 381.34 107.055 381.419 106.997 381.469C106.268 382.102 105.549 382.779 105.082 383.636C104.618 384.488 104.376 385.548 104.701 386.488C104.716 386.532 104.654 386.548 104.631 386.515C104.004 385.619 103.997 384.429 104.508 383.475Z" fill="black"/>
<path opacity="0.1" d="M106.939 363.971L120.529 376.831C122.029 371.901 123.429 366.541 124.039 364.951C125.239 361.831 129.049 346.641 128.089 344.521C125.479 338.831 106.609 346.141 106.079 349.151C105.829 350.571 106.329 357.271 106.939 363.971Z" fill="black"/>
<path d="M179.406 359.722C179.958 360.244 185.305 355.183 186.127 352.812C186.949 350.441 183.525 343.75 184.159 342.613C184.792 341.476 187.707 340.56 189.218 342.311C190.728 344.062 194.605 353.654 193.797 357.754C192.989 361.854 184.737 371.016 183.875 370.969C183.013 370.922 179.406 359.722 179.406 359.722Z" fill="#6374FF"/>
<path opacity="0.1" d="M179.407 359.724C179.407 359.724 183.015 370.92 183.872 370.969C184.503 371.001 189.082 366.115 191.816 361.884L184.325 355.566C182.441 357.799 179.787 360.08 179.407 359.724Z" fill="black"/>
<path d="M149.188 313.46H104.786C104.786 313.46 101.489 342.697 101.847 346.567C102.205 350.437 121.722 379.109 127.774 382.808C133.915 386.562 168.602 386.688 177.063 384.826C183.641 383.379 189.133 374.982 186.401 362.045C185.207 356.391 169.795 342.912 167.645 340.332C165.495 337.753 149.188 313.46 149.188 313.46Z" fill="#C7C7C7"/>
<path d="M101.848 346.571C102.208 350.441 121.718 379.111 127.778 382.811C133.918 386.561 168.598 386.691 177.068 384.831C183.638 383.381 189.138 374.981 186.398 362.041C185.208 356.391 169.798 342.911 167.648 340.331C166.328 338.751 159.708 329.031 154.768 321.731C151.638 317.111 149.188 313.461 149.188 313.461H104.788C104.788 313.461 103.958 320.801 103.178 328.611C102.398 336.391 101.668 344.641 101.848 346.571Z" fill="#6374FF"/>
<path opacity="0.1" d="M103.178 328.611C127.038 335.971 148.258 325.501 154.768 321.731C151.638 317.111 149.188 313.461 149.188 313.461H104.788C104.788 313.461 103.958 320.801 103.178 328.611Z" fill="black"/>
<path d="M177.91 360.635C177.91 360.635 165.686 352.968 157.118 354.353C148.549 355.739 145.525 373.336 149.63 383.238C149.63 383.238 141.811 385.56 141.811 389.338C141.811 391.489 146.277 392.175 152.724 392.023C159.172 391.871 171.981 391.741 172.265 390.121C172.549 388.501 171.421 386.27 171.421 386.27C171.421 386.27 182.987 384.966 185.257 377.305C187.527 369.644 179.839 361.934 177.91 360.635Z" fill="#6374FF"/>
<path opacity="0.1" d="M161.223 384.106C164.461 385.498 168.002 386.167 171.508 386.392C171.575 386.396 171.596 386.508 171.522 386.517C167.89 386.929 164.336 386.014 161.184 384.192C161.139 384.166 161.173 384.084 161.223 384.106Z" fill="black"/>
<path opacity="0.1" d="M146.838 392.069C147.159 390.606 148.301 389.451 149.499 388.627C150.194 388.149 150.96 387.763 151.759 387.49C152.674 387.177 153.624 387.01 154.544 386.721C154.62 386.697 154.674 386.81 154.597 386.836C153.803 387.102 153.035 387.507 152.296 387.896C151.554 388.287 150.826 388.712 150.132 389.183C148.933 389.998 148.022 391.05 147.141 392.184C147.047 392.305 146.8 392.244 146.838 392.069Z" fill="black"/>
<path opacity="0.1" d="M148.421 386.002C148.502 385.99 148.528 386.097 148.452 386.125C146.089 386.995 144.206 389.078 143.189 391.344C143.146 391.44 142.97 391.44 142.985 391.311C143.3 388.501 145.688 386.401 148.421 386.002Z" fill="black"/>
<path opacity="0.1" d="M144.607 385.451C144.577 385.471 144.627 385.511 144.657 385.501C144.857 385.461 147.047 383.991 149.467 383.291C149.667 383.641 149.877 383.991 150.107 384.331C150.147 384.401 150.257 384.341 150.217 384.271C148.697 381.221 148.087 377.781 148.077 374.391C148.067 372.591 148.207 370.771 148.397 368.981C148.387 368.971 148.387 368.961 148.397 368.951C148.857 365.791 149.767 362.701 151.297 359.931C152.227 358.211 153.427 356.551 155.067 355.591C156.707 354.641 158.757 354.491 160.717 354.571C162.707 354.671 164.687 355.101 166.617 355.661C168.557 356.191 170.467 356.891 172.337 357.681C168.767 355.761 164.897 354.251 160.777 353.811C158.727 353.611 156.537 353.751 154.617 354.801C152.717 355.891 151.427 357.651 150.417 359.441C148.477 363.121 147.517 367.221 147.347 371.321C147.327 371.791 147.307 372.271 147.307 372.741C147.307 372.751 147.307 372.751 147.307 372.761C147.277 373.391 147.267 374.011 147.287 374.641C147.367 377.601 147.967 380.571 149.397 383.171C147.227 383.611 145.967 384.231 144.607 385.451Z" fill="black"/>
<path d="M142.433 348.287C143.4 350.402 139.586 365.593 138.389 368.71C137.192 371.827 133 389.241 130.958 389.993C128.916 390.745 119.026 390.53 117.629 389.993C116.232 389.455 117.629 386.484 119.241 385.444C120.853 384.404 122.774 382.808 122.774 382.808C122.774 382.808 119.886 355.919 120.424 352.909C120.961 349.899 139.827 342.59 142.433 348.287Z" fill="#6374FF"/>
<path opacity="0.1" d="M135.766 377.148C136.677 374.405 137.868 371.755 138.779 369.018C138.815 368.909 138.989 368.96 138.954 369.07C138.252 371.274 137.715 373.527 137.062 375.749C137.157 375.598 137.246 375.444 137.343 375.295C137.915 374.411 138.62 373.541 138.915 372.522C138.947 372.411 139.12 372.463 139.09 372.574C138.959 373.051 138.731 373.479 138.499 373.913C138.237 374.404 137.97 374.892 137.705 375.381C137.361 376.017 136.989 376.641 136.601 377.255C136.587 377.298 136.576 377.341 136.562 377.383C135.648 380.135 134.743 382.868 133.53 385.506C133.466 385.645 133.259 385.591 133.294 385.436C133.927 382.617 134.854 379.894 135.766 377.148Z" fill="black"/>
<path opacity="0.1" d="M120.046 357.204C120.049 357.146 120.158 357.129 120.167 357.192C120.455 359.231 120.579 361.293 120.785 363.34C120.999 365.469 121.259 367.593 121.494 369.72C121.96 373.953 122.668 378.167 123.006 382.409C123.02 382.589 122.698 382.613 122.652 382.443C121.535 378.352 121.041 374.144 120.6 369.96C120.381 367.884 120.249 365.8 120.149 363.717C120.044 361.556 119.92 359.365 120.046 357.204Z" fill="black"/>
<path opacity="0.1" d="M121.265 388.61C121.374 388.084 121.593 387.558 121.911 387.123C122.232 386.683 122.615 386.295 123.05 385.969C123.455 385.665 123.962 385.374 124.467 385.281C124.533 385.269 124.585 385.349 124.532 385.399C124.356 385.564 124.155 385.701 123.982 385.874C123.807 386.048 123.629 386.22 123.461 386.401C123.134 386.752 122.857 387.145 122.615 387.558C122.37 387.975 122.133 388.394 121.921 388.829C121.707 389.269 121.581 389.742 121.414 390.199C121.381 390.289 121.243 390.296 121.219 390.194C121.094 389.673 121.158 389.13 121.265 388.61Z" fill="black"/>
<path opacity="0.1" d="M118.374 387.026C118.895 386.056 119.803 385.364 120.789 384.919C120.851 384.891 120.921 384.97 120.863 385.02C120.134 385.653 119.414 386.331 118.948 387.187C118.484 388.039 118.242 389.099 118.567 390.039C118.582 390.083 118.52 390.099 118.497 390.066C117.869 389.17 117.862 387.98 118.374 387.026Z" fill="black"/>
<path d="M121.777 272.806C122.257 271.053 117.881 264.848 116.212 262.761C114.543 260.674 105.348 257.542 102.412 259.149C101.259 259.78 99.118 264.195 96.227 268.032C91.754 273.968 86.526 280.196 88.425 281.872C93.035 285.94 103.537 279.524 106.945 277.368C110.354 275.212 113.471 272.59 114.301 272.683C115.397 272.805 117.705 274.54 118.625 274.643C120.817 274.886 121.777 272.806 121.777 272.806Z" fill="#6374FF"/>
<path opacity="0.1" d="M121.777 272.806C122.257 271.053 117.881 264.848 116.212 262.761C114.543 260.674 105.348 257.542 102.412 259.149C101.259 259.78 99.118 264.195 96.227 268.032C91.754 273.968 86.526 280.196 88.425 281.872C93.035 285.94 103.537 279.524 106.945 277.368C110.354 275.212 113.471 272.59 114.301 272.683C115.397 272.805 117.705 274.54 118.625 274.643C120.817 274.886 121.777 272.806 121.777 272.806Z" fill="black"/>
<path d="M142.952 266.592C153.679 273.006 158.441 290.074 158.731 292.798C158.967 295.023 164.083 302.895 163.169 311.366C162.581 316.813 152.803 324.043 144.842 323.971C143.377 323.958 130.985 328.452 120.524 327.729C110.063 327.006 102.129 319.583 101.82 318.952C101.512 318.321 93.0305 317.096 92.4975 308.349C91.6465 294.385 105.896 270.592 109.973 267.341C116.72 261.959 135.664 262.234 142.952 266.592Z" fill="#6374FF"/>
<path d="M137.903 273.953C137.696 272.054 143.268 266.343 145.347 264.454C147.426 262.566 157.488 260.844 160.268 262.999C161.359 263.845 162.848 268.783 165.21 273.244C168.865 280.147 173.256 287.479 171.006 288.903C165.546 292.359 155.715 283.955 152.536 281.151C149.357 278.347 146.558 275.109 145.682 275.066C144.525 275.01 141.841 276.428 140.869 276.381C138.553 276.271 137.903 273.953 137.903 273.953Z" fill="#6374FF"/>
<path opacity="0.1" d="M137.903 273.953C137.696 272.054 143.268 266.343 145.347 264.454C147.426 262.566 157.488 260.844 160.268 262.999C161.359 263.845 162.848 268.783 165.21 273.244C168.865 280.147 173.256 287.479 171.006 288.903C165.546 292.359 155.715 283.955 152.536 281.151C149.357 278.347 146.558 275.109 145.682 275.066C144.525 275.01 141.841 276.428 140.869 276.381C138.553 276.271 137.903 273.953 137.903 273.953Z" fill="black"/>
<path opacity="0.1" d="M118.302 297.929C124.884 297.988 127.879 305.037 128.673 306.872C129.468 308.708 133.525 312.913 133.632 317.302C133.739 321.691 125.4 326.597 116.594 325.047C107.831 323.505 103.185 318.563 103.235 314.102C103.275 310.512 106.66 307.404 107.034 306.457C107.409 305.51 112.305 297.875 118.302 297.929Z" fill="black"/>
<path opacity="0.1" d="M134.479 310.311C135.355 311.308 136.095 312.424 136.688 313.621C137.283 314.816 137.748 316.092 137.977 317.443C138.186 318.782 138.173 320.25 137.548 321.541C137.248 322.182 136.799 322.746 136.27 323.188C135.716 323.604 135.114 323.919 134.479 324.111C135.584 323.374 136.448 322.397 136.827 321.243C137.222 320.097 137.198 318.834 136.992 317.603C136.802 316.363 136.405 315.142 135.975 313.928C135.52 312.722 135.029 311.515 134.479 310.311Z" fill="black"/>
<path opacity="0.1" d="M104.332 307.681C103.761 308.387 103.222 309.076 102.724 309.779C102.24 310.488 101.769 311.198 101.454 311.963C101.118 312.717 100.919 313.506 100.874 314.321C100.839 315.146 101.065 315.956 101.339 316.832C100.716 316.187 100.212 315.333 100.095 314.367C99.9706 313.408 100.169 312.429 100.54 311.559C100.923 310.689 101.485 309.931 102.129 309.278C102.773 308.629 103.502 308.063 104.332 307.681Z" fill="black"/>
<path d="M207.142 401.857C196.366 401.857 184.478 401.674 172.532 401.452C166.372 401.338 161.506 401.247 158.469 401.247C142.944 401.247 138.476 381.291 134.155 361.992C133.552 359.303 132.949 356.61 132.318 353.966C131.085 348.805 130.067 343.587 129.082 338.541C126.037 322.935 123.407 309.456 116.531 308.719C107.445 307.752 99.3539 321.341 96.3999 342.552L94.4199 342.277C97.5339 319.92 106.499 305.621 116.744 306.731C125.088 307.626 127.848 321.775 131.045 338.159C132.026 343.184 133.04 348.382 134.264 353.502C134.898 356.155 135.503 358.857 136.108 361.557C140.448 380.94 144.547 399.248 158.47 399.248C161.526 399.248 166.4 399.339 172.57 399.453C186.088 399.706 204.601 400.05 220.274 399.742C245.691 399.245 248.699 397.238 249.016 396.635C249.002 392.474 222.174 387.467 212.075 385.582C201.866 383.677 201.468 383.602 201.583 382.349C201.687 381.225 202.936 381.225 204.827 381.225H246.77C259.926 381.225 264.165 362.299 266.698 350.992C267.425 347.748 267.999 345.184 268.633 343.864C271.572 337.74 279.009 338.635 279.323 338.675L279.065 340.657C278.806 340.627 272.743 339.919 270.435 344.729C269.9 345.844 269.32 348.432 268.649 351.429C265.985 363.321 261.527 383.225 246.77 383.225H210.351C211.033 383.353 211.734 383.484 212.442 383.616C236.863 388.175 251.002 391.778 251.002 396.708C251.002 397.07 250.89 397.611 250.356 398.135C247.378 401.055 229.709 401.857 207.142 401.857Z" fill="#0C213A"/>
<path d="M101.758 341.098L89.4971 340.363L89.0566 347.716L101.317 348.451L101.758 341.098Z" fill="#455A64"/>
<path d="M99.5896 338.629L91.9404 338.17L91.8007 340.502L99.4499 340.96L99.5896 338.629Z" fill="#37474F"/>
<path d="M93.1153 347.96L91.6729 347.874L91.3367 353.485L92.7791 353.571L93.1153 347.96Z" fill="#6374FF"/>
<path d="M98.6641 348.292L97.2217 348.206L96.8855 353.817L98.3279 353.903L98.6641 348.292Z" fill="#6374FF"/>
<path d="M283.053 333.523V345.806H288.419V333.523H283.053Z" fill="#455A64"/>
<path d="M278.717 335.833V343.496H283.053V335.833H278.717Z" fill="#37474F"/>
<path d="M109.952 308.602C109.952 308.602 112.562 311.621 113.573 310.984C114.584 310.347 117.113 304.395 117.113 304.395C117.113 304.395 117.716 311.96 119.669 312.168C121.623 312.376 124.956 309.391 124.956 309.391L117.071 303.917L109.952 308.602Z" fill="#6374FF"/>
<path opacity="0.1" d="M109.952 308.602C109.952 308.602 112.562 311.621 113.573 310.984C114.584 310.347 117.113 304.395 117.113 304.395C117.113 304.395 117.716 311.96 119.669 312.168C121.623 312.376 124.956 309.391 124.956 309.391L117.071 303.917L109.952 308.602Z" fill="black"/>
<path opacity="0.1" d="M148.65 299.212C149.423 296.812 149.699 294.245 149.455 291.67C149.342 290.38 149.038 289.09 148.541 287.842C148.295 287.218 147.967 286.618 147.583 286.05C147.205 285.478 146.754 284.944 146.241 284.471C145.989 284.229 145.707 284.023 145.426 283.815C145.141 283.62 144.841 283.459 144.547 283.283L144.101 283.032L143.627 282.837C143.307 282.719 143.003 282.556 142.67 282.482C141.364 282.091 140.001 281.984 138.69 282.104C136.061 282.335 133.61 283.358 131.613 284.891C133.972 284.053 136.391 283.519 138.74 283.577C139.905 283.637 141.059 283.763 142.112 284.181C142.382 284.263 142.627 284.406 142.886 284.512L143.27 284.683L143.627 284.906C143.862 285.056 144.114 285.188 144.339 285.346C144.556 285.511 144.774 285.674 144.97 285.865C145.794 286.582 146.426 287.527 146.911 288.561C147.424 289.588 147.737 290.731 148.006 291.894C148.494 294.24 148.65 296.704 148.65 299.212Z" fill="black"/>
<path opacity="0.1" d="M99.873 294.103C100.033 291.967 100.329 289.886 100.924 287.951C101.528 286.03 102.489 284.266 103.974 283.189C104.336 282.912 104.746 282.694 105.153 282.498C105.538 282.33 105.964 282.209 106.418 282.146C107.327 282.016 108.315 282.078 109.31 282.21C111.305 282.516 113.322 283.117 115.368 283.776C114.552 283.061 113.632 282.487 112.68 281.962C112.198 281.711 111.706 281.475 111.2 281.259C110.69 281.057 110.169 280.872 109.632 280.718C108.559 280.412 107.414 280.234 106.211 280.336C105.612 280.392 104.997 280.522 104.409 280.776C103.857 281.025 103.325 281.307 102.85 281.682C101.877 282.399 101.124 283.367 100.587 284.393C100.047 285.424 99.721 286.523 99.536 287.62C99.173 289.815 99.289 292.028 99.873 294.103Z" fill="black"/>
<path d="M132.364 296.07C132.395 295.956 132.616 296.224 132.607 296.348C132.37 299.36 132.656 302.851 135.606 303.984C135.697 304.019 135.681 304.17 135.571 304.151C131.939 303.523 131.611 298.886 132.364 296.07Z" fill="#0C213A"/>
<path d="M135.456 293.047C140.795 292.91 140.787 302.662 135.841 302.789C130.975 302.914 130.982 293.162 135.456 293.047Z" fill="#0C213A"/>
<path d="M111.734 293.704C111.72 293.587 111.463 293.821 111.455 293.945C111.27 296.961 110.5 300.378 107.421 301.088C107.326 301.11 107.321 301.262 107.432 301.258C111.117 301.144 112.088 296.598 111.734 293.704Z" fill="#0C213A"/>
<path d="M109.094 290.28C103.827 289.4 102.475 299.058 107.354 299.873C112.156 300.675 113.508 291.017 109.094 290.28Z" fill="#0C213A"/>
<path d="M116.914 304.122C117.86 304.43 124.448 302.346 123.947 300.35C123.404 298.19 114.14 297.681 112.976 299.084C111.812 300.486 115.923 303.799 116.914 304.122Z" fill="#0C213A"/>
<path d="M125.128 309.285C124.068 310.053 122.979 310.807 121.776 311.38C121.19 311.66 120.521 311.911 119.958 311.899C119.581 311.974 119.262 311.455 119.045 310.97C118.609 309.97 118.399 308.865 118.207 307.777C118.011 306.685 117.896 305.574 117.784 304.479L117.472 301.437L116.561 304.392C116.281 305.301 115.952 306.214 115.622 307.117C115.275 308.015 114.911 308.916 114.445 309.759C114.327 309.969 114.198 310.173 114.055 310.361C113.917 310.548 113.756 310.736 113.596 310.836C113.483 310.924 113.279 310.928 113.04 310.895C112.807 310.83 112.556 310.739 112.326 310.599C111.395 310.046 110.645 309.254 109.948 308.469C110.434 309.351 111.018 310.214 111.955 310.934C112.186 311.117 112.48 311.27 112.821 311.387C113.011 311.424 113.195 311.482 113.412 311.465C113.606 311.48 113.887 311.41 114.048 311.319C114.392 311.138 114.592 310.927 114.788 310.717C114.977 310.505 115.139 310.289 115.288 310.07C115.887 309.197 116.319 308.292 116.719 307.381C117.126 306.47 117.457 305.552 117.768 304.615L116.545 304.528C116.62 305.665 116.793 306.78 117.005 307.904C117.109 308.465 117.256 309.023 117.423 309.581C117.599 310.138 117.78 310.698 118.087 311.248C118.243 311.523 118.409 311.799 118.676 312.068C118.817 312.201 118.973 312.337 119.214 312.444C119.333 312.499 119.467 312.541 119.624 312.559C119.786 312.588 119.867 312.561 119.992 312.562C120.906 312.491 121.546 312.129 122.15 311.788C123.326 311.063 124.29 310.206 125.128 309.285Z" fill="#0C213A"/>
<path d="M74.9014 343.894C76.8984 343.734 78.8794 343.801 80.8574 343.924C82.8334 344.069 84.8054 344.271 86.7624 344.702C84.7654 344.863 82.7844 344.796 80.8064 344.672C78.8304 344.526 76.8574 344.323 74.9014 343.894Z" fill="#0C213A"/>
<path d="M103.685 350.219C105.585 350.847 107.383 351.677 109.155 352.558C110.917 353.458 112.654 354.41 114.288 355.566C112.387 354.94 110.59 354.109 108.818 353.227C107.056 352.325 105.32 351.374 103.685 350.219Z" fill="#0C213A"/>
<path d="M81.25 363.969C82.205 362.208 83.342 360.584 84.523 358.993C85.722 357.416 86.967 355.873 88.395 354.468C87.441 356.23 86.305 357.854 85.122 359.444C83.922 361.02 82.677 362.563 81.25 363.969Z" fill="#0C213A"/>
<path d="M70.0127 332.065C71.5557 332.557 73.0657 333.125 74.5717 333.703C76.0807 334.274 77.5667 334.899 79.0517 335.525C80.5307 336.167 82.0087 336.81 83.4637 337.507C84.9217 338.197 86.3757 338.897 87.7957 339.675C86.2527 339.184 84.7417 338.616 83.2367 338.038C81.7277 337.466 80.2417 336.841 78.7567 336.215C77.2787 335.572 75.8007 334.929 74.3457 334.232C72.8877 333.543 71.4337 332.842 70.0127 332.065Z" fill="#0C213A"/>
<path d="M105.128 340.935C106.524 340.198 107.986 339.678 109.465 339.211C110.95 338.766 112.453 338.375 114.022 338.203C112.627 338.942 111.164 339.462 109.685 339.927C108.199 340.371 106.697 340.761 105.128 340.935Z" fill="#0C213A"/>
<path d="M90.7528 335.87C89.9348 334.572 89.1898 333.237 88.4558 331.897C87.7148 330.56 87.0258 329.197 86.3378 327.835C85.6658 326.464 84.9948 325.093 84.3748 323.695C83.7488 322.301 83.1338 320.902 82.5928 319.465C83.4128 320.763 84.1568 322.098 84.8908 323.438C85.6318 324.775 86.3208 326.137 87.0078 327.501C87.6788 328.872 88.3508 330.244 88.9688 331.641C89.5958 333.035 90.2108 334.434 90.7528 335.87Z" fill="#0C213A"/>
<path d="M111.001 367.503C110.108 366.481 109.284 365.412 108.469 364.337C107.647 363.266 106.874 362.162 106.101 361.058C105.343 359.944 104.586 358.828 103.877 357.68C103.162 356.536 102.456 355.385 101.819 354.187C102.713 355.208 103.537 356.277 104.352 357.352C105.173 358.423 105.946 359.527 106.719 360.632C107.476 361.747 108.234 362.862 108.942 364.011C109.658 365.154 110.363 366.305 111.001 367.503Z" fill="#0C213A"/>
<path d="M379.942 116.861H297.283L290.883 60.7212H373.543L379.942 116.861Z" fill="#A6A6A6"/>
<path d="M375.438 113.096H300.928L295.387 64.4873H369.897L375.438 113.096Z" fill="white"/>
<path d="M329.421 90.0653L328.231 91.4803L316.509 81.3603L317.699 79.9453L329.421 90.0653Z" fill="#6374FF"/>
<path d="M326.404 79.9453L328.043 81.3603L319.526 91.4803L317.887 90.0653L326.404 79.9453Z" fill="#6374FF"/>
<path d="M354.48 90.0653L353.289 91.4803L341.567 81.3603L342.758 79.9453L354.48 90.0653Z" fill="#6374FF"/>
<path d="M351.463 79.9453L353.101 81.3603L344.585 91.4803L342.946 90.0653L351.463 79.9453Z" fill="#6374FF"/>
<path d="M315.009 99.7915L314.693 97.7905H360.121L360.438 99.7915H315.009Z" fill="#6374FF"/>
<path d="M404.199 113.096H297.861V116.862H404.199V113.096Z" fill="#A6A6A6"/>
<path d="M413.177 113.096H320.956V116.862H413.177V113.096Z" fill="#C7C7C7"/>
<path d="M370.166 66.8463L369.897 64.4873H295.387L295.656 66.8463H370.166Z" fill="#0C213A"/>
<path d="M301.658 65.6661C301.694 65.9901 301.959 66.2521 302.251 66.2521C302.542 66.2521 302.75 65.9901 302.714 65.6661C302.678 65.3421 302.413 65.0801 302.121 65.0801C301.829 65.0801 301.622 65.3431 301.658 65.6661Z" fill="#C7C7C7"/>
<path d="M299.504 65.6661C299.54 65.9901 299.805 66.2521 300.097 66.2521C300.389 66.2521 300.596 65.9901 300.56 65.6661C300.524 65.3421 300.259 65.0801 299.967 65.0801C299.675 65.0801 299.468 65.3431 299.504 65.6661Z" fill="white"/>
<path d="M297.348 65.6661C297.384 65.9901 297.649 66.2521 297.941 66.2521C298.233 66.2521 298.44 65.9901 298.404 65.6661C298.368 65.3421 298.103 65.0801 297.811 65.0801C297.52 65.0801 297.312 65.3431 297.348 65.6661Z" fill="#6374FF"/>
</svg>
